G04 #@! TF.FileFunction,Copper,L2,Bot,Signal*
%FSLAX46Y46*%
G04 Gerber Fmt 4.6, Leading zero omitted, Abs format (unit mm)*
G04 Created by KiCad (PCBNEW 4.0.5) date Thursday, March 02, 2017 'AMt' 11:59:14 AM*
%MOMM*%
%LPD*%
G01*
G04 APERTURE LIST*
%ADD10C,0.100000*%
%ADD11C,1.524000*%
%ADD12C,6.400000*%
%ADD13C,1.727200*%
%ADD14O,1.727200X1.727200*%
%ADD15C,2.000000*%
%ADD16R,2.000000X2.000000*%
%ADD17C,1.400000*%
%ADD18R,1.300000X1.300000*%
%ADD19C,1.300000*%
%ADD20C,2.400000*%
%ADD21C,1.699260*%
%ADD22R,1.699260X1.699260*%
%ADD23R,2.400000X2.400000*%
%ADD24R,2.032000X1.727200*%
%ADD25O,2.032000X1.727200*%
%ADD26R,1.750000X0.450000*%
%ADD27C,2.032000*%
%ADD28O,2.032000X2.032000*%
%ADD29R,2.032000X2.032000*%
%ADD30C,1.998980*%
%ADD31C,1.500000*%
%ADD32C,0.600000*%
%ADD33C,1.000000*%
%ADD34C,0.375000*%
%ADD35C,0.500000*%
%ADD36C,0.250000*%
%ADD37C,0.254000*%
G04 APERTURE END LIST*
D10*
D11*
X111847200Y-130360800D03*
X114387200Y-130360800D03*
X116927200Y-130360800D03*
X119467200Y-130360800D03*
X122007200Y-130360800D03*
X124547200Y-130360800D03*
X127087200Y-130360800D03*
X129627200Y-130360800D03*
X132167200Y-130360800D03*
X134707200Y-130360800D03*
X137247200Y-130360800D03*
X139787200Y-130360800D03*
X127087200Y-127820800D03*
X129627200Y-127820800D03*
X111847200Y-115120800D03*
X114387200Y-115120800D03*
X116927200Y-115120800D03*
X119467200Y-115120800D03*
X122007200Y-115120800D03*
X124547200Y-115120800D03*
X127087200Y-115120800D03*
X129627200Y-115120800D03*
X132167200Y-115120800D03*
X134707200Y-115120800D03*
X137247200Y-115120800D03*
X139787200Y-115120800D03*
X142327200Y-116390800D03*
X142327200Y-118930800D03*
X142327200Y-121470800D03*
X142327200Y-124010800D03*
X142327200Y-126550800D03*
X142327200Y-129090800D03*
D12*
X103997200Y-103990800D03*
D13*
X140677200Y-111120800D03*
D14*
X140677200Y-108580800D03*
X143217200Y-111120800D03*
X143217200Y-108580800D03*
X145757200Y-111120800D03*
X145757200Y-108580800D03*
X148297200Y-111120800D03*
X148297200Y-108580800D03*
D15*
X139027200Y-104860800D03*
D16*
X139027200Y-102320800D03*
D17*
X157907200Y-113260800D03*
X162907200Y-113260800D03*
D18*
X150740000Y-125000000D03*
D19*
X150740000Y-127500000D03*
D15*
X166747200Y-104860800D03*
D16*
X166747200Y-102320800D03*
D18*
X155077200Y-113260800D03*
D19*
X152577200Y-113260800D03*
D20*
X174517200Y-127990800D03*
X171017200Y-127990800D03*
D17*
X154987200Y-127100800D03*
X159987200Y-127100800D03*
D21*
X183122540Y-123240520D03*
D22*
X183122540Y-113080520D03*
D21*
X180657460Y-113059480D03*
D22*
X180657460Y-123219480D03*
D21*
X178102540Y-123240520D03*
D22*
X178102540Y-113080520D03*
D21*
X175667460Y-113059480D03*
D22*
X175667460Y-123219480D03*
D21*
X173192540Y-123240520D03*
D22*
X173192540Y-113080520D03*
D21*
X170664660Y-113070280D03*
D22*
X170664660Y-123230280D03*
D21*
X168189740Y-123251320D03*
D22*
X168189740Y-113091320D03*
D21*
X165664660Y-113070280D03*
D22*
X165664660Y-123230280D03*
D20*
X110477200Y-104470800D03*
D23*
X113977200Y-104470800D03*
D20*
X167007200Y-127990800D03*
X163507200Y-127990800D03*
X171537200Y-104470800D03*
D23*
X175037200Y-104470800D03*
D24*
X124017200Y-102010800D03*
D25*
X124017200Y-104550800D03*
X124017200Y-107090800D03*
X124017200Y-109630800D03*
D24*
X119017200Y-102010800D03*
D25*
X119017200Y-104550800D03*
X119017200Y-107090800D03*
D24*
X157257200Y-102000800D03*
D25*
X157257200Y-104540800D03*
X157257200Y-107080800D03*
D26*
X162897200Y-116485800D03*
X162897200Y-117135800D03*
X162897200Y-117785800D03*
X162897200Y-118435800D03*
X162897200Y-119085800D03*
X162897200Y-119735800D03*
X162897200Y-120385800D03*
X162897200Y-121035800D03*
X162897200Y-121685800D03*
X162897200Y-122335800D03*
X162897200Y-122985800D03*
X162897200Y-123635800D03*
X155697200Y-123635800D03*
X155697200Y-122985800D03*
X155697200Y-122335800D03*
X155697200Y-121685800D03*
X155697200Y-121035800D03*
X155697200Y-120385800D03*
X155697200Y-119735800D03*
X155697200Y-119085800D03*
X155697200Y-118435800D03*
X155697200Y-117785800D03*
X155697200Y-117135800D03*
X155697200Y-116485800D03*
D12*
X103917200Y-128550800D03*
X180897200Y-128390800D03*
X180897200Y-103990800D03*
D27*
X102947200Y-111080800D03*
D28*
X102947200Y-113620800D03*
D29*
X180417200Y-109640800D03*
D28*
X182957200Y-109640800D03*
D15*
X145007200Y-104860800D03*
D16*
X145007200Y-102320800D03*
D15*
X150987200Y-104860800D03*
D16*
X150987200Y-102320800D03*
D30*
X134497200Y-109990800D03*
X134497200Y-102370800D03*
X131257200Y-109990800D03*
X131257200Y-102370800D03*
X128017200Y-109990800D03*
X128017200Y-102370800D03*
X162497200Y-109440800D03*
X162497200Y-101820800D03*
D29*
X113560000Y-102560000D03*
D28*
X111020000Y-102560000D03*
D29*
X174430000Y-102640000D03*
D28*
X171890000Y-102640000D03*
D31*
X111850000Y-112260000D03*
X165740000Y-109410000D03*
X116970000Y-112260000D03*
X147840000Y-129570000D03*
X149500000Y-114990000D03*
D32*
X157977200Y-122880800D03*
X157977200Y-116150800D03*
X168560000Y-119380000D03*
X128417200Y-116620800D03*
X136460000Y-108460000D03*
X143560000Y-122760000D03*
X143520000Y-120280000D03*
X130817200Y-116620800D03*
X143600000Y-117650000D03*
D33*
X150740000Y-125000000D02*
X150740000Y-124620000D01*
X150740000Y-124620000D02*
X152050000Y-123310000D01*
X152050000Y-123310000D02*
X154080000Y-123310000D01*
X157437200Y-124650800D02*
X154987200Y-127100800D01*
X157437200Y-123420800D02*
X157437200Y-124650800D01*
X157977200Y-122880800D02*
X157437200Y-123420800D01*
X157977200Y-116150800D02*
X157967200Y-116140800D01*
X157967200Y-116140800D02*
X157957200Y-116140800D01*
D34*
X157957200Y-116140800D02*
X157967200Y-116140800D01*
D35*
X160560000Y-119450000D02*
X160560000Y-119910000D01*
X160020000Y-120450000D02*
X157640000Y-120450000D01*
X160560000Y-119910000D02*
X160020000Y-120450000D01*
D33*
X162907200Y-113260800D02*
X162907200Y-113272800D01*
X162907200Y-113272800D02*
X160560000Y-115620000D01*
X160560000Y-115620000D02*
X160560000Y-119450000D01*
X160560000Y-119450000D02*
X160560000Y-121930000D01*
X162907200Y-113260800D02*
X165474140Y-113260800D01*
X165474140Y-113260800D02*
X165664660Y-113070280D01*
X180657460Y-113059480D02*
X180657460Y-112397460D01*
X180657460Y-112397460D02*
X179750000Y-111490000D01*
X179750000Y-111490000D02*
X176384920Y-111490000D01*
X176384920Y-111490000D02*
X175667460Y-112207460D01*
X175667460Y-112207460D02*
X175667460Y-113059480D01*
X170664660Y-113070280D02*
X170664660Y-112665340D01*
X170664660Y-112665340D02*
X171820000Y-111510000D01*
X174970000Y-111510000D02*
X175667460Y-112207460D01*
X171820000Y-111510000D02*
X174970000Y-111510000D01*
X165664660Y-113070280D02*
X165664660Y-112245340D01*
X165664660Y-112245340D02*
X166530000Y-111380000D01*
X166530000Y-111380000D02*
X169820000Y-111380000D01*
X169820000Y-111380000D02*
X170664660Y-112224660D01*
X170664660Y-112224660D02*
X170664660Y-113070280D01*
X162907200Y-113450800D02*
X162907200Y-113260800D01*
X168560000Y-119380000D02*
X165770000Y-119380000D01*
X175667460Y-123219480D02*
X175667460Y-120437460D01*
X171990000Y-116760000D02*
X165540000Y-116760000D01*
X175667460Y-120437460D02*
X171990000Y-116760000D01*
X170664660Y-123230280D02*
X170664660Y-122104660D01*
X169290000Y-120730000D02*
X165710000Y-120730000D01*
X170664660Y-122104660D02*
X169290000Y-120730000D01*
X165664660Y-123230280D02*
X164679720Y-123230280D01*
X164679720Y-123230280D02*
X164650000Y-123260000D01*
D34*
X165664660Y-123230280D02*
X165597720Y-123230280D01*
X165597720Y-123230280D02*
X165457200Y-123370800D01*
X165664660Y-123230280D02*
X165664660Y-123533340D01*
X165664660Y-123230280D02*
X165576680Y-123230280D01*
X165576680Y-123230280D02*
X165297200Y-122950800D01*
D36*
X128417200Y-116620800D02*
X118247200Y-126790800D01*
X118247200Y-126790800D02*
X115417200Y-126790800D01*
X115417200Y-126790800D02*
X111847200Y-130360800D01*
D34*
X131257200Y-109990800D02*
X130437200Y-109990800D01*
D36*
X149500000Y-114990000D02*
X149890000Y-114990000D01*
X149890000Y-114990000D02*
X152035800Y-117135800D01*
X152035800Y-117135800D02*
X155697200Y-117135800D01*
X127087200Y-115120800D02*
X127087200Y-114242800D01*
X147320000Y-112810000D02*
X149500000Y-114990000D01*
X128520000Y-112810000D02*
X147320000Y-112810000D01*
X127087200Y-114242800D02*
X128520000Y-112810000D01*
X155602200Y-117040800D02*
X155697200Y-117135800D01*
X147840000Y-129570000D02*
X147840000Y-124240000D01*
X149744200Y-122335800D02*
X155697200Y-122335800D01*
X147840000Y-124240000D02*
X149744200Y-122335800D01*
X116927200Y-130360800D02*
X116927200Y-130557200D01*
X116927200Y-130557200D02*
X118080000Y-131710000D01*
X145700000Y-131710000D02*
X147840000Y-129570000D01*
X118080000Y-131710000D02*
X145700000Y-131710000D01*
X116927200Y-130360800D02*
X116927200Y-130947200D01*
X129627200Y-115120800D02*
X129627200Y-114482800D01*
X129627200Y-114482800D02*
X130570000Y-113540000D01*
X130570000Y-113540000D02*
X146340000Y-113540000D01*
X146340000Y-113540000D02*
X150585800Y-117785800D01*
X150585800Y-117785800D02*
X155697200Y-117785800D01*
X132167200Y-115120800D02*
X132449200Y-115120800D01*
X132449200Y-115120800D02*
X133579998Y-113990002D01*
X150475800Y-118435800D02*
X155697200Y-118435800D01*
X146030002Y-113990002D02*
X150475800Y-118435800D01*
X133579998Y-113990002D02*
X146030002Y-113990002D01*
X132167200Y-115120800D02*
X132750800Y-115120800D01*
X132167200Y-115120800D02*
X132307200Y-115120800D01*
X132167200Y-115120800D02*
X132167200Y-115150800D01*
X132167200Y-115120800D02*
X132167200Y-115100800D01*
D34*
X136580800Y-108580800D02*
X140677200Y-108580800D01*
X136460000Y-108460000D02*
X136580800Y-108580800D01*
D36*
X124017200Y-102010800D02*
X124050800Y-102010800D01*
D34*
X140649200Y-108580800D02*
X142110000Y-107120000D01*
X142110000Y-107120000D02*
X150170000Y-107120000D01*
X150170000Y-107120000D02*
X155077200Y-112027200D01*
X155077200Y-112027200D02*
X155077200Y-113260800D01*
X157907200Y-113260800D02*
X155077200Y-113260800D01*
X155697200Y-119085800D02*
X157582200Y-119085800D01*
X159077200Y-114430800D02*
X157907200Y-113260800D01*
X159077200Y-117590800D02*
X159077200Y-114430800D01*
X157582200Y-119085800D02*
X159077200Y-117590800D01*
D36*
X119467200Y-130360800D02*
X119467200Y-129482800D01*
X119467200Y-129482800D02*
X132590000Y-116360000D01*
X132590000Y-116360000D02*
X140690004Y-116360000D01*
X140690004Y-116360000D02*
X142610000Y-114440004D01*
X142610000Y-114440004D02*
X145760004Y-114440004D01*
X145760004Y-114440004D02*
X151055800Y-119735800D01*
X151055800Y-119735800D02*
X155697200Y-119735800D01*
X119467200Y-130360800D02*
X119467200Y-130162800D01*
X134707200Y-130360800D02*
X134707200Y-129522800D01*
X149324200Y-121035800D02*
X155697200Y-121035800D01*
X145090000Y-125270000D02*
X149324200Y-121035800D01*
X138960000Y-125270000D02*
X145090000Y-125270000D01*
X134707200Y-129522800D02*
X138960000Y-125270000D01*
X134707200Y-130360800D02*
X134707200Y-129630800D01*
X137247200Y-130360800D02*
X137247200Y-129372800D01*
X149394200Y-121685800D02*
X155697200Y-121685800D01*
X143290000Y-127790000D02*
X149394200Y-121685800D01*
X138830000Y-127790000D02*
X143290000Y-127790000D01*
X137247200Y-129372800D02*
X138830000Y-127790000D01*
X132167200Y-130360800D02*
X132167200Y-128092800D01*
X132167200Y-128092800D02*
X137500000Y-122760000D01*
X137500000Y-122760000D02*
X143560000Y-122760000D01*
X157257200Y-104540800D02*
X157257200Y-104680800D01*
X124547200Y-129922800D02*
X125390000Y-129080000D01*
X125390000Y-129080000D02*
X127980000Y-129080000D01*
X127980000Y-129080000D02*
X128320000Y-128740000D01*
X128320000Y-128740000D02*
X128320000Y-125080000D01*
X128320000Y-125080000D02*
X133120000Y-120280000D01*
X133120000Y-120280000D02*
X143520000Y-120280000D01*
X124547200Y-130360800D02*
X124547200Y-129922800D01*
X124547200Y-130360800D02*
X124547200Y-130002800D01*
X124547200Y-130360800D02*
X124547200Y-129952800D01*
X124547200Y-115120800D02*
X124547200Y-113110800D01*
X124547200Y-113110800D02*
X127667200Y-109990800D01*
X127667200Y-109990800D02*
X128017200Y-109990800D01*
X114387200Y-129670800D02*
X116507200Y-127550800D01*
X116507200Y-127550800D02*
X119887200Y-127550800D01*
X119887200Y-127550800D02*
X130817200Y-116620800D01*
X114387200Y-130360800D02*
X114387200Y-129670800D01*
D34*
X114387200Y-130360800D02*
X114387200Y-130200800D01*
D36*
X127087200Y-127820800D02*
X127087200Y-124712800D01*
X127087200Y-124712800D02*
X134150000Y-117650000D01*
X134150000Y-117650000D02*
X143600000Y-117650000D01*
X127060000Y-127710000D02*
X127087200Y-127820800D01*
X127087200Y-127820800D02*
X127087200Y-127730800D01*
D37*
G36*
X154692486Y-122867938D02*
X154822200Y-122894206D01*
X156571656Y-122894206D01*
X157463026Y-123094309D01*
X157660200Y-123362466D01*
X157660200Y-123567611D01*
X157112221Y-124544444D01*
X156873855Y-123990594D01*
X156851846Y-123956117D01*
X156681846Y-123766117D01*
X156641442Y-123735966D01*
X156591527Y-123723874D01*
X154831577Y-123663876D01*
X154831577Y-123663875D01*
X153442051Y-123615960D01*
X153207233Y-123305171D01*
X153600997Y-122934569D01*
X154686660Y-122863957D01*
X154692486Y-122867938D01*
X154692486Y-122867938D01*
G37*
X154692486Y-122867938D02*
X154822200Y-122894206D01*
X156571656Y-122894206D01*
X157463026Y-123094309D01*
X157660200Y-123362466D01*
X157660200Y-123567611D01*
X157112221Y-124544444D01*
X156873855Y-123990594D01*
X156851846Y-123956117D01*
X156681846Y-123766117D01*
X156641442Y-123735966D01*
X156591527Y-123723874D01*
X154831577Y-123663876D01*
X154831577Y-123663875D01*
X153442051Y-123615960D01*
X153207233Y-123305171D01*
X153600997Y-122934569D01*
X154686660Y-122863957D01*
X154692486Y-122867938D01*
G36*
X166406532Y-116416166D02*
X166429203Y-117149171D01*
X164487193Y-117242988D01*
X163836189Y-117240352D01*
X163772200Y-117227394D01*
X162147000Y-117227394D01*
X162147000Y-116385988D01*
X165764668Y-116357047D01*
X166406532Y-116416166D01*
X166406532Y-116416166D01*
G37*
X166406532Y-116416166D02*
X166429203Y-117149171D01*
X164487193Y-117242988D01*
X163836189Y-117240352D01*
X163772200Y-117227394D01*
X162147000Y-117227394D01*
X162147000Y-116385988D01*
X165764668Y-116357047D01*
X166406532Y-116416166D01*
G36*
X161716237Y-100649795D02*
X161327560Y-101037794D01*
X161116951Y-101544999D01*
X161116471Y-102094192D01*
X161326195Y-102601763D01*
X161714194Y-102990440D01*
X162221399Y-103201049D01*
X162770592Y-103201529D01*
X163278163Y-102991805D01*
X163666840Y-102603806D01*
X163877449Y-102096601D01*
X163877929Y-101547408D01*
X163784297Y-101320800D01*
X165358736Y-101320800D01*
X165358736Y-103320800D01*
X165385303Y-103461990D01*
X165468746Y-103591665D01*
X165596066Y-103678659D01*
X165747200Y-103709264D01*
X165775269Y-103709264D01*
X166747200Y-104681195D01*
X167719131Y-103709264D01*
X167747200Y-103709264D01*
X167888390Y-103682697D01*
X168018065Y-103599254D01*
X168105059Y-103471934D01*
X168135664Y-103320800D01*
X168135664Y-103173625D01*
X170419630Y-103173625D01*
X171537200Y-104291195D01*
X171551343Y-104277053D01*
X171730948Y-104456658D01*
X171716805Y-104470800D01*
X172834375Y-105588370D01*
X173121988Y-105465235D01*
X173381907Y-104783066D01*
X173360986Y-104053357D01*
X173352111Y-104031931D01*
X173414000Y-104044464D01*
X173448736Y-104044464D01*
X173448736Y-105670800D01*
X173475303Y-105811990D01*
X173558746Y-105941665D01*
X173686066Y-106028659D01*
X173837200Y-106059264D01*
X176237200Y-106059264D01*
X176378390Y-106032697D01*
X176508065Y-105949254D01*
X176595059Y-105821934D01*
X176625664Y-105670800D01*
X176625664Y-103270800D01*
X176599097Y-103129610D01*
X176515654Y-102999935D01*
X176388334Y-102912941D01*
X176237200Y-102882336D01*
X175834464Y-102882336D01*
X175834464Y-101624000D01*
X175807897Y-101482810D01*
X175724454Y-101353135D01*
X175597134Y-101266141D01*
X175446000Y-101235536D01*
X173414000Y-101235536D01*
X173272810Y-101262103D01*
X173143135Y-101345546D01*
X173056141Y-101472866D01*
X173025536Y-101624000D01*
X173025536Y-101845863D01*
X172877828Y-101624803D01*
X172424609Y-101321971D01*
X171890000Y-101215631D01*
X171355391Y-101321971D01*
X170902172Y-101624803D01*
X170599340Y-102078022D01*
X170493000Y-102612631D01*
X170493000Y-102667369D01*
X170538481Y-102896018D01*
X170419630Y-103173625D01*
X168135664Y-103173625D01*
X168135664Y-101320800D01*
X168109097Y-101179610D01*
X168025654Y-101049935D01*
X167898334Y-100962941D01*
X167747200Y-100932336D01*
X165747200Y-100932336D01*
X165606010Y-100958903D01*
X165476335Y-101042346D01*
X165389341Y-101169666D01*
X165358736Y-101320800D01*
X163784297Y-101320800D01*
X163668205Y-101039837D01*
X163280206Y-100651160D01*
X162800092Y-100451800D01*
X180084872Y-100451800D01*
X178871376Y-100953206D01*
X177863146Y-101959678D01*
X177316823Y-103275370D01*
X177315580Y-104699980D01*
X177859606Y-106016624D01*
X178866078Y-107024854D01*
X180181770Y-107571177D01*
X181606380Y-107572420D01*
X182923024Y-107028394D01*
X183931254Y-106021922D01*
X184477577Y-104706230D01*
X184478820Y-103281620D01*
X183934794Y-101964976D01*
X182928322Y-100956746D01*
X181712277Y-100451800D01*
X184576200Y-100451800D01*
X184576200Y-132059800D01*
X146065792Y-132059800D01*
X147480316Y-130645276D01*
X147614043Y-130700804D01*
X148063983Y-130701196D01*
X148479823Y-130529375D01*
X148798256Y-130211497D01*
X148970804Y-129795957D01*
X148971196Y-129346017D01*
X148799375Y-128930177D01*
X148481497Y-128611744D01*
X148346000Y-128555480D01*
X148346000Y-128399016D01*
X150020590Y-128399016D01*
X150076271Y-128629611D01*
X150559078Y-128797622D01*
X151069428Y-128768083D01*
X151403729Y-128629611D01*
X151459410Y-128399016D01*
X150740000Y-127679605D01*
X150020590Y-128399016D01*
X148346000Y-128399016D01*
X148346000Y-127319078D01*
X149442378Y-127319078D01*
X149471917Y-127829428D01*
X149610389Y-128163729D01*
X149840984Y-128219410D01*
X150560395Y-127500000D01*
X150919605Y-127500000D01*
X151639016Y-128219410D01*
X151869611Y-128163729D01*
X152037622Y-127680922D01*
X152008083Y-127170572D01*
X151869611Y-126836271D01*
X151639016Y-126780590D01*
X150919605Y-127500000D01*
X150560395Y-127500000D01*
X149840984Y-126780590D01*
X149610389Y-126836271D01*
X149442378Y-127319078D01*
X148346000Y-127319078D01*
X148346000Y-126600984D01*
X150020590Y-126600984D01*
X150740000Y-127320395D01*
X151459410Y-126600984D01*
X151403729Y-126370389D01*
X150920922Y-126202378D01*
X150410572Y-126231917D01*
X150076271Y-126370389D01*
X150020590Y-126600984D01*
X148346000Y-126600984D01*
X148346000Y-124449592D01*
X149953792Y-122841800D01*
X151272278Y-122841800D01*
X150152542Y-123961536D01*
X150090000Y-123961536D01*
X149948810Y-123988103D01*
X149819135Y-124071546D01*
X149732141Y-124198866D01*
X149701536Y-124350000D01*
X149701536Y-125650000D01*
X149728103Y-125791190D01*
X149811546Y-125920865D01*
X149938866Y-126007859D01*
X150090000Y-126038464D01*
X151390000Y-126038464D01*
X151531190Y-126011897D01*
X151660865Y-125928454D01*
X151747859Y-125801134D01*
X151778464Y-125650000D01*
X151778464Y-124827458D01*
X152414922Y-124191000D01*
X154080000Y-124191000D01*
X154271687Y-124152871D01*
X154590892Y-124163878D01*
X154671066Y-124218659D01*
X154822200Y-124249264D01*
X156432130Y-124249264D01*
X156480478Y-124361600D01*
X154822422Y-126019656D01*
X154773119Y-126019613D01*
X154375663Y-126183838D01*
X154071307Y-126487663D01*
X153906388Y-126884832D01*
X153906013Y-127314881D01*
X154070238Y-127712337D01*
X154374063Y-128016693D01*
X154771232Y-128181612D01*
X155201281Y-128181987D01*
X155554416Y-128036075D01*
X159231531Y-128036075D01*
X159293369Y-128271842D01*
X159794322Y-128448219D01*
X160324640Y-128419464D01*
X160603633Y-128303901D01*
X161925926Y-128303901D01*
X162166112Y-128885195D01*
X162610466Y-129330325D01*
X163191340Y-129571525D01*
X163820301Y-129572074D01*
X164401595Y-129331888D01*
X164846725Y-128887534D01*
X165087925Y-128306660D01*
X165087927Y-128303901D01*
X165425926Y-128303901D01*
X165666112Y-128885195D01*
X166110466Y-129330325D01*
X166691340Y-129571525D01*
X167320301Y-129572074D01*
X167901595Y-129331888D01*
X168346725Y-128887534D01*
X168587925Y-128306660D01*
X168587927Y-128303901D01*
X169435926Y-128303901D01*
X169676112Y-128885195D01*
X170120466Y-129330325D01*
X170701340Y-129571525D01*
X171330301Y-129572074D01*
X171911595Y-129331888D01*
X172356725Y-128887534D01*
X172597925Y-128306660D01*
X172597927Y-128303901D01*
X172935926Y-128303901D01*
X173176112Y-128885195D01*
X173620466Y-129330325D01*
X174201340Y-129571525D01*
X174830301Y-129572074D01*
X175411595Y-129331888D01*
X175643907Y-129099980D01*
X177315580Y-129099980D01*
X177859606Y-130416624D01*
X178866078Y-131424854D01*
X180181770Y-131971177D01*
X181606380Y-131972420D01*
X182923024Y-131428394D01*
X183931254Y-130421922D01*
X184477577Y-129106230D01*
X184478820Y-127681620D01*
X183934794Y-126364976D01*
X182928322Y-125356746D01*
X181612630Y-124810423D01*
X180188020Y-124809180D01*
X178871376Y-125353206D01*
X177863146Y-126359678D01*
X177316823Y-127675370D01*
X177315580Y-129099980D01*
X175643907Y-129099980D01*
X175856725Y-128887534D01*
X176097925Y-128306660D01*
X176098474Y-127677699D01*
X175858288Y-127096405D01*
X175413934Y-126651275D01*
X174833060Y-126410075D01*
X174204099Y-126409526D01*
X173622805Y-126649712D01*
X173177675Y-127094066D01*
X172936475Y-127674940D01*
X172935926Y-128303901D01*
X172597927Y-128303901D01*
X172598474Y-127677699D01*
X172358288Y-127096405D01*
X171913934Y-126651275D01*
X171333060Y-126410075D01*
X170704099Y-126409526D01*
X170122805Y-126649712D01*
X169677675Y-127094066D01*
X169436475Y-127674940D01*
X169435926Y-128303901D01*
X168587927Y-128303901D01*
X168588474Y-127677699D01*
X168348288Y-127096405D01*
X167903934Y-126651275D01*
X167323060Y-126410075D01*
X166694099Y-126409526D01*
X166112805Y-126649712D01*
X165667675Y-127094066D01*
X165426475Y-127674940D01*
X165425926Y-128303901D01*
X165087927Y-128303901D01*
X165088474Y-127677699D01*
X164848288Y-127096405D01*
X164403934Y-126651275D01*
X163823060Y-126410075D01*
X163194099Y-126409526D01*
X162612805Y-126649712D01*
X162167675Y-127094066D01*
X161926475Y-127674940D01*
X161925926Y-128303901D01*
X160603633Y-128303901D01*
X160681031Y-128271842D01*
X160742869Y-128036075D01*
X159987200Y-127280405D01*
X159231531Y-128036075D01*
X155554416Y-128036075D01*
X155598737Y-128017762D01*
X155903093Y-127713937D01*
X156068012Y-127316768D01*
X156068056Y-127265866D01*
X156426000Y-126907922D01*
X158639781Y-126907922D01*
X158668536Y-127438240D01*
X158816158Y-127794631D01*
X159051925Y-127856469D01*
X159807595Y-127100800D01*
X160166805Y-127100800D01*
X160922475Y-127856469D01*
X161158242Y-127794631D01*
X161334619Y-127293678D01*
X161305864Y-126763360D01*
X161158242Y-126406969D01*
X160922475Y-126345131D01*
X160166805Y-127100800D01*
X159807595Y-127100800D01*
X159051925Y-126345131D01*
X158816158Y-126406969D01*
X158639781Y-126907922D01*
X156426000Y-126907922D01*
X157168397Y-126165525D01*
X159231531Y-126165525D01*
X159987200Y-126921195D01*
X160742869Y-126165525D01*
X160681031Y-125929758D01*
X160180078Y-125753381D01*
X159649760Y-125782136D01*
X159293369Y-125929758D01*
X159231531Y-126165525D01*
X157168397Y-126165525D01*
X158060161Y-125273761D01*
X158251138Y-124987944D01*
X158318200Y-124650800D01*
X158318200Y-123785722D01*
X158600161Y-123503761D01*
X158791138Y-123217944D01*
X158858200Y-122880800D01*
X158834331Y-122760800D01*
X161633736Y-122760800D01*
X161633736Y-123210800D01*
X161653243Y-123314470D01*
X161633736Y-123410800D01*
X161633736Y-123860800D01*
X161660303Y-124001990D01*
X161743746Y-124131665D01*
X161765743Y-124146695D01*
X161781598Y-124170410D01*
X161907949Y-124253529D01*
X162056683Y-124280941D01*
X163766683Y-124250941D01*
X163820038Y-124246240D01*
X164439270Y-124147426D01*
X164453133Y-124221100D01*
X164536576Y-124350775D01*
X164663896Y-124437769D01*
X164815030Y-124468374D01*
X166514290Y-124468374D01*
X166655480Y-124441807D01*
X166785155Y-124358364D01*
X166872149Y-124231044D01*
X166902754Y-124079910D01*
X166902754Y-123495033D01*
X166958897Y-123495033D01*
X167145855Y-123947505D01*
X167491734Y-124293989D01*
X167943879Y-124481735D01*
X168433453Y-124482163D01*
X168885925Y-124295205D01*
X169232409Y-123949326D01*
X169420155Y-123497181D01*
X169420583Y-123007607D01*
X169233625Y-122555135D01*
X168887746Y-122208651D01*
X168435601Y-122020905D01*
X167946027Y-122020477D01*
X167493555Y-122207435D01*
X167147071Y-122553314D01*
X166959325Y-123005459D01*
X166958897Y-123495033D01*
X166902754Y-123495033D01*
X166902754Y-122380650D01*
X166876187Y-122239460D01*
X166792744Y-122109785D01*
X166665424Y-122022791D01*
X166514290Y-121992186D01*
X164815030Y-121992186D01*
X164673840Y-122018753D01*
X164544165Y-122102196D01*
X164457171Y-122229516D01*
X164426566Y-122380650D01*
X164426566Y-122388012D01*
X163826176Y-122383266D01*
X163772200Y-122372336D01*
X162443498Y-122372336D01*
X162023012Y-122369012D01*
X161872314Y-122398788D01*
X161747308Y-122483917D01*
X161696581Y-122562481D01*
X161664341Y-122609666D01*
X161633736Y-122760800D01*
X158834331Y-122760800D01*
X158791138Y-122543656D01*
X158600161Y-122257839D01*
X158314344Y-122066862D01*
X157977200Y-121999800D01*
X157640056Y-122066862D01*
X157354239Y-122257839D01*
X157116258Y-122495820D01*
X156960664Y-122460891D01*
X156960664Y-122110800D01*
X156941157Y-122007130D01*
X156960664Y-121910800D01*
X156960664Y-121460800D01*
X156941157Y-121357130D01*
X156960664Y-121260800D01*
X156960664Y-120810800D01*
X156934097Y-120669610D01*
X156850654Y-120539935D01*
X156723334Y-120452941D01*
X156572200Y-120422336D01*
X154822200Y-120422336D01*
X154681010Y-120448903D01*
X154555292Y-120529800D01*
X149324200Y-120529800D01*
X149130562Y-120568317D01*
X148966404Y-120678004D01*
X144880408Y-124764000D01*
X143190543Y-124764000D01*
X143295623Y-124659103D01*
X143470001Y-124239154D01*
X143470398Y-123784441D01*
X143308664Y-123393012D01*
X143423946Y-123440882D01*
X143694865Y-123441118D01*
X143945252Y-123337661D01*
X144136987Y-123146259D01*
X144240882Y-122896054D01*
X144241118Y-122625135D01*
X144137661Y-122374748D01*
X143946259Y-122183013D01*
X143696054Y-122079118D01*
X143425135Y-122078882D01*
X143272905Y-122141782D01*
X143295623Y-122119103D01*
X143470001Y-121699154D01*
X143470398Y-121244441D01*
X143346874Y-120945488D01*
X143383946Y-120960882D01*
X143654865Y-120961118D01*
X143905252Y-120857661D01*
X144096987Y-120666259D01*
X144200882Y-120416054D01*
X144201118Y-120145135D01*
X144097661Y-119894748D01*
X143906259Y-119703013D01*
X143656054Y-119599118D01*
X143385135Y-119598882D01*
X143198602Y-119675955D01*
X143295623Y-119579103D01*
X143470001Y-119159154D01*
X143470398Y-118704441D01*
X143296754Y-118284188D01*
X143257998Y-118245364D01*
X143463946Y-118330882D01*
X143734865Y-118331118D01*
X143985252Y-118227661D01*
X144176987Y-118036259D01*
X144280882Y-117786054D01*
X144281118Y-117515135D01*
X144177661Y-117264748D01*
X143986259Y-117073013D01*
X143736054Y-116969118D01*
X143465135Y-116968882D01*
X143295714Y-117038885D01*
X143470001Y-116619154D01*
X143470398Y-116164441D01*
X143296754Y-115744188D01*
X142975503Y-115422377D01*
X142555554Y-115247999D01*
X142517630Y-115247966D01*
X142819592Y-114946004D01*
X145550412Y-114946004D01*
X150698004Y-120093596D01*
X150862162Y-120203283D01*
X151055800Y-120241800D01*
X154558579Y-120241800D01*
X154671066Y-120318659D01*
X154822200Y-120349264D01*
X156572200Y-120349264D01*
X156713390Y-120322697D01*
X156843065Y-120239254D01*
X156890119Y-120170387D01*
X161629142Y-120170387D01*
X161633736Y-120338834D01*
X161633736Y-120610800D01*
X161642411Y-120656901D01*
X161645080Y-120754781D01*
X161633736Y-120810800D01*
X161633736Y-121260800D01*
X161660303Y-121401990D01*
X161743746Y-121531665D01*
X161871066Y-121618659D01*
X162022200Y-121649264D01*
X163772200Y-121649264D01*
X163881922Y-121628618D01*
X165565980Y-121582353D01*
X165710000Y-121611000D01*
X168925078Y-121611000D01*
X169492252Y-122178174D01*
X169457171Y-122229516D01*
X169426566Y-122380650D01*
X169426566Y-124079910D01*
X169453133Y-124221100D01*
X169536576Y-124350775D01*
X169663896Y-124437769D01*
X169815030Y-124468374D01*
X171514290Y-124468374D01*
X171655480Y-124441807D01*
X171785155Y-124358364D01*
X171872149Y-124231044D01*
X171902754Y-124079910D01*
X171902754Y-123484233D01*
X171961697Y-123484233D01*
X172148655Y-123936705D01*
X172494534Y-124283189D01*
X172946679Y-124470935D01*
X173436253Y-124471363D01*
X173888725Y-124284405D01*
X174235209Y-123938526D01*
X174422955Y-123486381D01*
X174423383Y-122996807D01*
X174236425Y-122544335D01*
X173890546Y-122197851D01*
X173438401Y-122010105D01*
X172948827Y-122009677D01*
X172496355Y-122196635D01*
X172149871Y-122542514D01*
X171962125Y-122994659D01*
X171961697Y-123484233D01*
X171902754Y-123484233D01*
X171902754Y-122380650D01*
X171876187Y-122239460D01*
X171792744Y-122109785D01*
X171665424Y-122022791D01*
X171523665Y-121994085D01*
X171478598Y-121767516D01*
X171287621Y-121481699D01*
X169912961Y-120107039D01*
X169627144Y-119916062D01*
X169290000Y-119849000D01*
X169285835Y-119849000D01*
X169373938Y-119717144D01*
X169441000Y-119380000D01*
X169373938Y-119042856D01*
X169182961Y-118757039D01*
X168897144Y-118566062D01*
X168560000Y-118499000D01*
X166082516Y-118499000D01*
X163784969Y-118469032D01*
X163775646Y-118469025D01*
X163485934Y-118472336D01*
X162022200Y-118472336D01*
X161881010Y-118498903D01*
X161751335Y-118582346D01*
X161664341Y-118709666D01*
X161633736Y-118860800D01*
X161633736Y-119310800D01*
X161649000Y-119391920D01*
X161649000Y-119435423D01*
X161633736Y-119510800D01*
X161633736Y-119960800D01*
X161650313Y-120048900D01*
X161629142Y-120170387D01*
X156890119Y-120170387D01*
X156930059Y-120111934D01*
X156960664Y-119960800D01*
X156960664Y-119654300D01*
X157582200Y-119654300D01*
X157799756Y-119611026D01*
X157984190Y-119487790D01*
X159479190Y-117992790D01*
X159602426Y-117808356D01*
X159645700Y-117590800D01*
X159645700Y-116260800D01*
X161633736Y-116260800D01*
X161633736Y-116710800D01*
X161639000Y-116738775D01*
X161639000Y-116884805D01*
X161633736Y-116910800D01*
X161633736Y-117360800D01*
X161660303Y-117501990D01*
X161743746Y-117631665D01*
X161871066Y-117718659D01*
X162022200Y-117749264D01*
X163772200Y-117749264D01*
X163778270Y-117748122D01*
X164488458Y-117750997D01*
X164508384Y-117750556D01*
X166578384Y-117650556D01*
X166620024Y-117641000D01*
X171625078Y-117641000D01*
X174786460Y-120802382D01*
X174786460Y-121987289D01*
X174676640Y-122007953D01*
X174546965Y-122091396D01*
X174459971Y-122218716D01*
X174429366Y-122369850D01*
X174429366Y-124069110D01*
X174455933Y-124210300D01*
X174539376Y-124339975D01*
X174666696Y-124426969D01*
X174817830Y-124457574D01*
X176517090Y-124457574D01*
X176658280Y-124431007D01*
X176787955Y-124347564D01*
X176874949Y-124220244D01*
X176905554Y-124069110D01*
X176905554Y-123566173D01*
X177058655Y-123936705D01*
X177404534Y-124283189D01*
X177856679Y-124470935D01*
X178346253Y-124471363D01*
X178798725Y-124284405D01*
X179145209Y-123938526D01*
X179332955Y-123486381D01*
X179333383Y-122996807D01*
X179146425Y-122544335D01*
X178972245Y-122369850D01*
X179419366Y-122369850D01*
X179419366Y-124069110D01*
X179445933Y-124210300D01*
X179529376Y-124339975D01*
X179656696Y-124426969D01*
X179807830Y-124457574D01*
X181507090Y-124457574D01*
X181648280Y-124431007D01*
X181777955Y-124347564D01*
X181864949Y-124220244D01*
X181895554Y-124069110D01*
X181895554Y-123493568D01*
X182078655Y-123936705D01*
X182424534Y-124283189D01*
X182876679Y-124470935D01*
X183366253Y-124471363D01*
X183818725Y-124284405D01*
X184165209Y-123938526D01*
X184352955Y-123486381D01*
X184353383Y-122996807D01*
X184166425Y-122544335D01*
X183820546Y-122197851D01*
X183368401Y-122010105D01*
X182878827Y-122009677D01*
X182426355Y-122196635D01*
X182079871Y-122542514D01*
X181895554Y-122986401D01*
X181895554Y-122369850D01*
X181868987Y-122228660D01*
X181785544Y-122098985D01*
X181658224Y-122011991D01*
X181507090Y-121981386D01*
X179807830Y-121981386D01*
X179666640Y-122007953D01*
X179536965Y-122091396D01*
X179449971Y-122218716D01*
X179419366Y-122369850D01*
X178972245Y-122369850D01*
X178800546Y-122197851D01*
X178348401Y-122010105D01*
X177858827Y-122009677D01*
X177406355Y-122196635D01*
X177059871Y-122542514D01*
X176905554Y-122914153D01*
X176905554Y-122369850D01*
X176878987Y-122228660D01*
X176795544Y-122098985D01*
X176668224Y-122011991D01*
X176548460Y-121987739D01*
X176548460Y-120437460D01*
X176481398Y-120100316D01*
X176290421Y-119814499D01*
X172612961Y-116137039D01*
X172327144Y-115946062D01*
X171990000Y-115879000D01*
X166113222Y-115879000D01*
X165804944Y-115850606D01*
X165766952Y-115849012D01*
X162851452Y-115872336D01*
X162022200Y-115872336D01*
X161881010Y-115898903D01*
X161751335Y-115982346D01*
X161664341Y-116109666D01*
X161633736Y-116260800D01*
X159645700Y-116260800D01*
X159645700Y-114430800D01*
X159602426Y-114213244D01*
X159590954Y-114196075D01*
X162151531Y-114196075D01*
X162213369Y-114431842D01*
X162714322Y-114608219D01*
X163244640Y-114579464D01*
X163601031Y-114431842D01*
X163662869Y-114196075D01*
X163580765Y-114113970D01*
X164800575Y-114113970D01*
X164880802Y-114365233D01*
X165436027Y-114566630D01*
X166026059Y-114540221D01*
X166448518Y-114365233D01*
X166528745Y-114113970D01*
X165664660Y-113249885D01*
X164800575Y-114113970D01*
X163580765Y-114113970D01*
X162907200Y-113440405D01*
X162151531Y-114196075D01*
X159590954Y-114196075D01*
X159479190Y-114028810D01*
X158970154Y-113519774D01*
X158988012Y-113476768D01*
X158988368Y-113067922D01*
X161559781Y-113067922D01*
X161588536Y-113598240D01*
X161736158Y-113954631D01*
X161971925Y-114016469D01*
X162727595Y-113260800D01*
X163086805Y-113260800D01*
X163842475Y-114016469D01*
X164078242Y-113954631D01*
X164231284Y-113519955D01*
X164369707Y-113854138D01*
X164620970Y-113934365D01*
X165485055Y-113070280D01*
X165844265Y-113070280D01*
X166708350Y-113934365D01*
X166951646Y-113856682D01*
X166951646Y-113940950D01*
X166978213Y-114082140D01*
X167061656Y-114211815D01*
X167188976Y-114298809D01*
X167340110Y-114329414D01*
X169039370Y-114329414D01*
X169180560Y-114302847D01*
X169310235Y-114219404D01*
X169382274Y-114113970D01*
X169800575Y-114113970D01*
X169880802Y-114365233D01*
X170436027Y-114566630D01*
X171026059Y-114540221D01*
X171448518Y-114365233D01*
X171528745Y-114113970D01*
X170664660Y-113249885D01*
X169800575Y-114113970D01*
X169382274Y-114113970D01*
X169397229Y-114092084D01*
X169427834Y-113940950D01*
X169427834Y-113872698D01*
X169620970Y-113934365D01*
X170485055Y-113070280D01*
X170844265Y-113070280D01*
X171708350Y-113934365D01*
X171954446Y-113855788D01*
X171954446Y-113930150D01*
X171981013Y-114071340D01*
X172064456Y-114201015D01*
X172191776Y-114288009D01*
X172342910Y-114318614D01*
X174042170Y-114318614D01*
X174183360Y-114292047D01*
X174313035Y-114208604D01*
X174385074Y-114103170D01*
X174803375Y-114103170D01*
X174883602Y-114354433D01*
X175438827Y-114555830D01*
X176028859Y-114529421D01*
X176451318Y-114354433D01*
X176531545Y-114103170D01*
X175667460Y-113239085D01*
X174803375Y-114103170D01*
X174385074Y-114103170D01*
X174400029Y-114081284D01*
X174430634Y-113930150D01*
X174430634Y-113861898D01*
X174623770Y-113923565D01*
X175487855Y-113059480D01*
X175847065Y-113059480D01*
X176711150Y-113923565D01*
X176864446Y-113874618D01*
X176864446Y-113930150D01*
X176891013Y-114071340D01*
X176974456Y-114201015D01*
X177101776Y-114288009D01*
X177252910Y-114318614D01*
X178952170Y-114318614D01*
X179093360Y-114292047D01*
X179223035Y-114208604D01*
X179295074Y-114103170D01*
X179793375Y-114103170D01*
X179873602Y-114354433D01*
X180428827Y-114555830D01*
X181018859Y-114529421D01*
X181441318Y-114354433D01*
X181521545Y-114103170D01*
X180657460Y-113239085D01*
X179793375Y-114103170D01*
X179295074Y-114103170D01*
X179310029Y-114081284D01*
X179340634Y-113930150D01*
X179340634Y-113790532D01*
X179362507Y-113843338D01*
X179613770Y-113923565D01*
X180477855Y-113059480D01*
X180837065Y-113059480D01*
X181701150Y-113923565D01*
X181884446Y-113865040D01*
X181884446Y-113930150D01*
X181911013Y-114071340D01*
X181994456Y-114201015D01*
X182121776Y-114288009D01*
X182272910Y-114318614D01*
X183972170Y-114318614D01*
X184113360Y-114292047D01*
X184243035Y-114208604D01*
X184330029Y-114081284D01*
X184360634Y-113930150D01*
X184360634Y-112230890D01*
X184334067Y-112089700D01*
X184250624Y-111960025D01*
X184123304Y-111873031D01*
X183972170Y-111842426D01*
X182272910Y-111842426D01*
X182131720Y-111868993D01*
X182002045Y-111952436D01*
X181915051Y-112079756D01*
X181884446Y-112230890D01*
X181884446Y-112253920D01*
X181701150Y-112195395D01*
X180837065Y-113059480D01*
X180477855Y-113059480D01*
X179613770Y-112195395D01*
X179362507Y-112275622D01*
X179340634Y-112335923D01*
X179340634Y-112230890D01*
X179314067Y-112089700D01*
X179266508Y-112015790D01*
X179793375Y-112015790D01*
X180657460Y-112879875D01*
X181521545Y-112015790D01*
X181441318Y-111764527D01*
X180886093Y-111563130D01*
X180296061Y-111589539D01*
X179873602Y-111764527D01*
X179793375Y-112015790D01*
X179266508Y-112015790D01*
X179230624Y-111960025D01*
X179103304Y-111873031D01*
X178952170Y-111842426D01*
X177252910Y-111842426D01*
X177111720Y-111868993D01*
X176982045Y-111952436D01*
X176895051Y-112079756D01*
X176864446Y-112230890D01*
X176864446Y-112244342D01*
X176711150Y-112195395D01*
X175847065Y-113059480D01*
X175487855Y-113059480D01*
X174623770Y-112195395D01*
X174430634Y-112257062D01*
X174430634Y-112230890D01*
X174404067Y-112089700D01*
X174356508Y-112015790D01*
X174803375Y-112015790D01*
X175667460Y-112879875D01*
X176531545Y-112015790D01*
X176451318Y-111764527D01*
X175896093Y-111563130D01*
X175306061Y-111589539D01*
X174883602Y-111764527D01*
X174803375Y-112015790D01*
X174356508Y-112015790D01*
X174320624Y-111960025D01*
X174193304Y-111873031D01*
X174042170Y-111842426D01*
X172342910Y-111842426D01*
X172201720Y-111868993D01*
X172072045Y-111952436D01*
X171985051Y-112079756D01*
X171954446Y-112230890D01*
X171954446Y-112284772D01*
X171708350Y-112206195D01*
X170844265Y-113070280D01*
X170485055Y-113070280D01*
X169620970Y-112206195D01*
X169427834Y-112267862D01*
X169427834Y-112241690D01*
X169401267Y-112100500D01*
X169353708Y-112026590D01*
X169800575Y-112026590D01*
X170664660Y-112890675D01*
X171528745Y-112026590D01*
X171448518Y-111775327D01*
X170893293Y-111573930D01*
X170303261Y-111600339D01*
X169880802Y-111775327D01*
X169800575Y-112026590D01*
X169353708Y-112026590D01*
X169317824Y-111970825D01*
X169190504Y-111883831D01*
X169039370Y-111853226D01*
X167340110Y-111853226D01*
X167198920Y-111879793D01*
X167069245Y-111963236D01*
X166982251Y-112090556D01*
X166951646Y-112241690D01*
X166951646Y-112283878D01*
X166708350Y-112206195D01*
X165844265Y-113070280D01*
X165485055Y-113070280D01*
X164620970Y-112206195D01*
X164369707Y-112286422D01*
X164179378Y-112811133D01*
X164078242Y-112566969D01*
X163842475Y-112505131D01*
X163086805Y-113260800D01*
X162727595Y-113260800D01*
X161971925Y-112505131D01*
X161736158Y-112566969D01*
X161559781Y-113067922D01*
X158988368Y-113067922D01*
X158988387Y-113046719D01*
X158824162Y-112649263D01*
X158520337Y-112344907D01*
X158473660Y-112325525D01*
X162151531Y-112325525D01*
X162907200Y-113081195D01*
X163662869Y-112325525D01*
X163601031Y-112089758D01*
X163421619Y-112026590D01*
X164800575Y-112026590D01*
X165664660Y-112890675D01*
X166528745Y-112026590D01*
X166448518Y-111775327D01*
X165893293Y-111573930D01*
X165303261Y-111600339D01*
X164880802Y-111775327D01*
X164800575Y-112026590D01*
X163421619Y-112026590D01*
X163100078Y-111913381D01*
X162569760Y-111942136D01*
X162213369Y-112089758D01*
X162151531Y-112325525D01*
X158473660Y-112325525D01*
X158123168Y-112179988D01*
X157693119Y-112179613D01*
X157295663Y-112343838D01*
X156991307Y-112647663D01*
X156972772Y-112692300D01*
X156115664Y-112692300D01*
X156115664Y-112610800D01*
X156089097Y-112469610D01*
X156005654Y-112339935D01*
X155878334Y-112252941D01*
X155727200Y-112222336D01*
X155645700Y-112222336D01*
X155645700Y-112027200D01*
X155602426Y-111809644D01*
X155479190Y-111625210D01*
X153568172Y-109714192D01*
X161116471Y-109714192D01*
X161326195Y-110221763D01*
X161714194Y-110610440D01*
X162221399Y-110821049D01*
X162770592Y-110821529D01*
X163278163Y-110611805D01*
X163666840Y-110223806D01*
X163877449Y-109716601D01*
X163877521Y-109633983D01*
X164608804Y-109633983D01*
X164780625Y-110049823D01*
X165098503Y-110368256D01*
X165514043Y-110540804D01*
X165963983Y-110541196D01*
X166379823Y-110369375D01*
X166698256Y-110051497D01*
X166870804Y-109635957D01*
X166871196Y-109186017D01*
X166699375Y-108770177D01*
X166554252Y-108624800D01*
X179012736Y-108624800D01*
X179012736Y-110656800D01*
X179039303Y-110797990D01*
X179122746Y-110927665D01*
X179250066Y-111014659D01*
X179401200Y-111045264D01*
X181433200Y-111045264D01*
X181574390Y-111018697D01*
X181704065Y-110935254D01*
X181791059Y-110807934D01*
X181821664Y-110656800D01*
X181821664Y-110434937D01*
X181969372Y-110655997D01*
X182422591Y-110958829D01*
X182957200Y-111065169D01*
X183491809Y-110958829D01*
X183945028Y-110655997D01*
X184247860Y-110202778D01*
X184354200Y-109668169D01*
X184354200Y-109613431D01*
X184247860Y-109078822D01*
X183945028Y-108625603D01*
X183491809Y-108322771D01*
X182957200Y-108216431D01*
X182422591Y-108322771D01*
X181969372Y-108625603D01*
X181821664Y-108846663D01*
X181821664Y-108624800D01*
X181795097Y-108483610D01*
X181711654Y-108353935D01*
X181584334Y-108266941D01*
X181433200Y-108236336D01*
X179401200Y-108236336D01*
X179260010Y-108262903D01*
X179130335Y-108346346D01*
X179043341Y-108473666D01*
X179012736Y-108624800D01*
X166554252Y-108624800D01*
X166381497Y-108451744D01*
X165965957Y-108279196D01*
X165516017Y-108278804D01*
X165100177Y-108450625D01*
X164781744Y-108768503D01*
X164609196Y-109184043D01*
X164608804Y-109633983D01*
X163877521Y-109633983D01*
X163877929Y-109167408D01*
X163668205Y-108659837D01*
X163280206Y-108271160D01*
X162773001Y-108060551D01*
X162223808Y-108060071D01*
X161716237Y-108269795D01*
X161327560Y-108657794D01*
X161116951Y-109164999D01*
X161116471Y-109714192D01*
X153568172Y-109714192D01*
X151293806Y-107439826D01*
X155649842Y-107439826D01*
X155652491Y-107455591D01*
X155906468Y-107982836D01*
X156342880Y-108372754D01*
X156895287Y-108565984D01*
X157130200Y-108421724D01*
X157130200Y-107207800D01*
X157384200Y-107207800D01*
X157384200Y-108421724D01*
X157619113Y-108565984D01*
X158171520Y-108372754D01*
X158607932Y-107982836D01*
X158861909Y-107455591D01*
X158864558Y-107439826D01*
X158743417Y-107207800D01*
X157384200Y-107207800D01*
X157130200Y-107207800D01*
X155770983Y-107207800D01*
X155649842Y-107439826D01*
X151293806Y-107439826D01*
X150575754Y-106721774D01*
X155649842Y-106721774D01*
X155770983Y-106953800D01*
X157130200Y-106953800D01*
X157130200Y-106933800D01*
X157384200Y-106933800D01*
X157384200Y-106953800D01*
X158743417Y-106953800D01*
X158864558Y-106721774D01*
X158861909Y-106706009D01*
X158607932Y-106178764D01*
X158422774Y-106013332D01*
X165774273Y-106013332D01*
X165872936Y-106280187D01*
X166482661Y-106506708D01*
X167132660Y-106482656D01*
X167621464Y-106280187D01*
X167720127Y-106013332D01*
X166747200Y-105040405D01*
X165774273Y-106013332D01*
X158422774Y-106013332D01*
X158171520Y-105788846D01*
X157898957Y-105693504D01*
X157913257Y-105690660D01*
X158317034Y-105420865D01*
X158586829Y-105017088D01*
X158670537Y-104596261D01*
X165101292Y-104596261D01*
X165125344Y-105246260D01*
X165327813Y-105735064D01*
X165594668Y-105833727D01*
X166567595Y-104860800D01*
X166926805Y-104860800D01*
X167899732Y-105833727D01*
X168077572Y-105767975D01*
X170419630Y-105767975D01*
X170542765Y-106055588D01*
X171224934Y-106315507D01*
X171954643Y-106294586D01*
X172531635Y-106055588D01*
X172654770Y-105767975D01*
X171537200Y-104650405D01*
X170419630Y-105767975D01*
X168077572Y-105767975D01*
X168166587Y-105735064D01*
X168393108Y-105125339D01*
X168369056Y-104475340D01*
X168237831Y-104158534D01*
X169692493Y-104158534D01*
X169713414Y-104888243D01*
X169952412Y-105465235D01*
X170240025Y-105588370D01*
X171357595Y-104470800D01*
X170240025Y-103353230D01*
X169952412Y-103476365D01*
X169692493Y-104158534D01*
X168237831Y-104158534D01*
X168166587Y-103986536D01*
X167899732Y-103887873D01*
X166926805Y-104860800D01*
X166567595Y-104860800D01*
X165594668Y-103887873D01*
X165327813Y-103986536D01*
X165101292Y-104596261D01*
X158670537Y-104596261D01*
X158681569Y-104540800D01*
X158586829Y-104064512D01*
X158317034Y-103660735D01*
X157913257Y-103390940D01*
X157436969Y-103296200D01*
X157077431Y-103296200D01*
X156601143Y-103390940D01*
X156197366Y-103660735D01*
X155927571Y-104064512D01*
X155832831Y-104540800D01*
X155927571Y-105017088D01*
X156197366Y-105420865D01*
X156601143Y-105690660D01*
X156615443Y-105693504D01*
X156342880Y-105788846D01*
X155906468Y-106178764D01*
X155652491Y-106706009D01*
X155649842Y-106721774D01*
X150575754Y-106721774D01*
X150571990Y-106718010D01*
X150387556Y-106594774D01*
X150170000Y-106551500D01*
X142110000Y-106551500D01*
X141892444Y-106594774D01*
X141708010Y-106718010D01*
X141041699Y-107384321D01*
X140677200Y-107311817D01*
X140200912Y-107406557D01*
X139797135Y-107676352D01*
X139572662Y-108012300D01*
X136975321Y-108012300D01*
X136846259Y-107883013D01*
X136596054Y-107779118D01*
X136325135Y-107778882D01*
X136074748Y-107882339D01*
X135883013Y-108073741D01*
X135779118Y-108323946D01*
X135778882Y-108594865D01*
X135882339Y-108845252D01*
X136073741Y-109036987D01*
X136323946Y-109140882D01*
X136539423Y-109141070D01*
X136580800Y-109149300D01*
X139572662Y-109149300D01*
X139797135Y-109485248D01*
X140200912Y-109755043D01*
X140677200Y-109849783D01*
X141153488Y-109755043D01*
X141557265Y-109485248D01*
X141827060Y-109081471D01*
X141921800Y-108605183D01*
X141921800Y-108556417D01*
X141848096Y-108185884D01*
X142295869Y-107738111D01*
X142067340Y-108080129D01*
X141972600Y-108556417D01*
X141972600Y-108605183D01*
X142067340Y-109081471D01*
X142337135Y-109485248D01*
X142740912Y-109755043D01*
X143217200Y-109849783D01*
X143693488Y-109755043D01*
X144097265Y-109485248D01*
X144367060Y-109081471D01*
X144461800Y-108605183D01*
X144461800Y-108556417D01*
X144367060Y-108080129D01*
X144105382Y-107688500D01*
X144869018Y-107688500D01*
X144607340Y-108080129D01*
X144512600Y-108556417D01*
X144512600Y-108605183D01*
X144607340Y-109081471D01*
X144877135Y-109485248D01*
X145280912Y-109755043D01*
X145757200Y-109849783D01*
X146233488Y-109755043D01*
X146637265Y-109485248D01*
X146907060Y-109081471D01*
X146907524Y-109079138D01*
X147090379Y-109469290D01*
X147522253Y-109863488D01*
X147783372Y-109971641D01*
X147417135Y-110216352D01*
X147147340Y-110620129D01*
X147052600Y-111096417D01*
X147052600Y-111145183D01*
X147147340Y-111621471D01*
X147417135Y-112025248D01*
X147820912Y-112295043D01*
X148297200Y-112389783D01*
X148437959Y-112361784D01*
X151857790Y-112361784D01*
X152577200Y-113081195D01*
X153296610Y-112361784D01*
X153240929Y-112131189D01*
X152758122Y-111963178D01*
X152247772Y-111992717D01*
X151913471Y-112131189D01*
X151857790Y-112361784D01*
X148437959Y-112361784D01*
X148773488Y-112295043D01*
X149177265Y-112025248D01*
X149447060Y-111621471D01*
X149541800Y-111145183D01*
X149541800Y-111096417D01*
X149447060Y-110620129D01*
X149177265Y-110216352D01*
X148811028Y-109971641D01*
X149072147Y-109863488D01*
X149504021Y-109469290D01*
X149752168Y-108939827D01*
X149631669Y-108707800D01*
X148424200Y-108707800D01*
X148424200Y-108727800D01*
X148170200Y-108727800D01*
X148170200Y-108707800D01*
X148150200Y-108707800D01*
X148150200Y-108453800D01*
X148170200Y-108453800D01*
X148170200Y-108433800D01*
X148424200Y-108433800D01*
X148424200Y-108453800D01*
X149631669Y-108453800D01*
X149752168Y-108221773D01*
X149504021Y-107692310D01*
X149499847Y-107688500D01*
X149934520Y-107688500D01*
X154468356Y-112222336D01*
X154427200Y-112222336D01*
X154286010Y-112248903D01*
X154156335Y-112332346D01*
X154069341Y-112459666D01*
X154038736Y-112610800D01*
X154038736Y-113910800D01*
X154065303Y-114051990D01*
X154148746Y-114181665D01*
X154276066Y-114268659D01*
X154427200Y-114299264D01*
X155727200Y-114299264D01*
X155868390Y-114272697D01*
X155998065Y-114189254D01*
X156085059Y-114061934D01*
X156115664Y-113910800D01*
X156115664Y-113829300D01*
X156972456Y-113829300D01*
X156990238Y-113872337D01*
X157294063Y-114176693D01*
X157691232Y-114341612D01*
X158121281Y-114341987D01*
X158165950Y-114323530D01*
X158508700Y-114666280D01*
X158508700Y-115463408D01*
X158463196Y-115433004D01*
X158430759Y-115392213D01*
X158302140Y-115312649D01*
X158152700Y-115289393D01*
X158122806Y-115290752D01*
X157967200Y-115259800D01*
X157957200Y-115259800D01*
X157620056Y-115326862D01*
X157604787Y-115337065D01*
X157562016Y-115348032D01*
X156501474Y-115869000D01*
X154810000Y-115869000D01*
X154656236Y-115901406D01*
X154532728Y-115988694D01*
X154452910Y-116117155D01*
X154429360Y-116266550D01*
X154433736Y-116367198D01*
X154433736Y-116629800D01*
X152245392Y-116629800D01*
X150630979Y-115015387D01*
X150631196Y-114766017D01*
X150459375Y-114350177D01*
X150269346Y-114159816D01*
X151857790Y-114159816D01*
X151913471Y-114390411D01*
X152396278Y-114558422D01*
X152906628Y-114528883D01*
X153240929Y-114390411D01*
X153296610Y-114159816D01*
X152577200Y-113440405D01*
X151857790Y-114159816D01*
X150269346Y-114159816D01*
X150141497Y-114031744D01*
X149725957Y-113859196D01*
X149276017Y-113858804D01*
X149140422Y-113914830D01*
X148305470Y-113079878D01*
X151279578Y-113079878D01*
X151309117Y-113590228D01*
X151447589Y-113924529D01*
X151678184Y-113980210D01*
X152397595Y-113260800D01*
X152756805Y-113260800D01*
X153476216Y-113980210D01*
X153706811Y-113924529D01*
X153874822Y-113441722D01*
X153845283Y-112931372D01*
X153706811Y-112597071D01*
X153476216Y-112541390D01*
X152756805Y-113260800D01*
X152397595Y-113260800D01*
X151678184Y-112541390D01*
X151447589Y-112597071D01*
X151279578Y-113079878D01*
X148305470Y-113079878D01*
X147677796Y-112452204D01*
X147513638Y-112342517D01*
X147320000Y-112304000D01*
X146188458Y-112304000D01*
X146233488Y-112295043D01*
X146637265Y-112025248D01*
X146907060Y-111621471D01*
X147001800Y-111145183D01*
X147001800Y-111096417D01*
X146907060Y-110620129D01*
X146637265Y-110216352D01*
X146233488Y-109946557D01*
X145757200Y-109851817D01*
X145280912Y-109946557D01*
X144877135Y-110216352D01*
X144607340Y-110620129D01*
X144512600Y-111096417D01*
X144512600Y-111145183D01*
X144607340Y-111621471D01*
X144877135Y-112025248D01*
X145280912Y-112295043D01*
X145325942Y-112304000D01*
X143648458Y-112304000D01*
X143693488Y-112295043D01*
X144097265Y-112025248D01*
X144367060Y-111621471D01*
X144461800Y-111145183D01*
X144461800Y-111096417D01*
X144367060Y-110620129D01*
X144097265Y-110216352D01*
X143693488Y-109946557D01*
X143217200Y-109851817D01*
X142740912Y-109946557D01*
X142337135Y-110216352D01*
X142067340Y-110620129D01*
X141972600Y-111096417D01*
X141972600Y-111145183D01*
X142067340Y-111621471D01*
X142337135Y-112025248D01*
X142740912Y-112295043D01*
X142785942Y-112304000D01*
X141072800Y-112304000D01*
X141381288Y-112176536D01*
X141731705Y-111826730D01*
X141921583Y-111369452D01*
X141922015Y-110874320D01*
X141732936Y-110416712D01*
X141383130Y-110066295D01*
X140925852Y-109876417D01*
X140430720Y-109875985D01*
X139973112Y-110065064D01*
X139622695Y-110414870D01*
X139432817Y-110872148D01*
X139432385Y-111367280D01*
X139621464Y-111824888D01*
X139971270Y-112175305D01*
X140281203Y-112304000D01*
X128520000Y-112304000D01*
X128326362Y-112342517D01*
X128162204Y-112452204D01*
X126729404Y-113885004D01*
X126619717Y-114049162D01*
X126613634Y-114079745D01*
X126440588Y-114151246D01*
X126118777Y-114472497D01*
X125944399Y-114892446D01*
X125944002Y-115347159D01*
X126117646Y-115767412D01*
X126438897Y-116089223D01*
X126858846Y-116263601D01*
X127313559Y-116263998D01*
X127733812Y-116090354D01*
X128055623Y-115769103D01*
X128230001Y-115349154D01*
X128230398Y-114894441D01*
X128056754Y-114474188D01*
X127814290Y-114231302D01*
X128729592Y-113316000D01*
X130078408Y-113316000D01*
X129416792Y-113977616D01*
X129400841Y-113977602D01*
X128980588Y-114151246D01*
X128658777Y-114472497D01*
X128484399Y-114892446D01*
X128484002Y-115347159D01*
X128657646Y-115767412D01*
X128978897Y-116089223D01*
X129398846Y-116263601D01*
X129853559Y-116263998D01*
X130273812Y-116090354D01*
X130595623Y-115769103D01*
X130770001Y-115349154D01*
X130770398Y-114894441D01*
X130596754Y-114474188D01*
X130474186Y-114351406D01*
X130779592Y-114046000D01*
X131775304Y-114046000D01*
X131520588Y-114151246D01*
X131198777Y-114472497D01*
X131024399Y-114892446D01*
X131024002Y-115347159D01*
X131197646Y-115767412D01*
X131518897Y-116089223D01*
X131938846Y-116263601D01*
X131970779Y-116263629D01*
X131498100Y-116736308D01*
X131498318Y-116485935D01*
X131394861Y-116235548D01*
X131203459Y-116043813D01*
X130953254Y-115939918D01*
X130682335Y-115939682D01*
X130431948Y-116043139D01*
X130240213Y-116234541D01*
X130136318Y-116484746D01*
X130136230Y-116586178D01*
X119677608Y-127044800D01*
X118708792Y-127044800D01*
X128451761Y-117301831D01*
X128552065Y-117301918D01*
X128802452Y-117198461D01*
X128994187Y-117007059D01*
X129098082Y-116756854D01*
X129098318Y-116485935D01*
X128994861Y-116235548D01*
X128803459Y-116043813D01*
X128553254Y-115939918D01*
X128282335Y-115939682D01*
X128031948Y-116043139D01*
X127840213Y-116234541D01*
X127736318Y-116484746D01*
X127736230Y-116586178D01*
X118037608Y-126284800D01*
X115417200Y-126284800D01*
X115223562Y-126323317D01*
X115059404Y-126433004D01*
X112216064Y-129276344D01*
X112075554Y-129217999D01*
X111620841Y-129217602D01*
X111200588Y-129391246D01*
X110878777Y-129712497D01*
X110704399Y-130132446D01*
X110704002Y-130587159D01*
X110877646Y-131007412D01*
X111198897Y-131329223D01*
X111618846Y-131503601D01*
X112073559Y-131503998D01*
X112493812Y-131330354D01*
X112815623Y-131009103D01*
X112990001Y-130589154D01*
X112990398Y-130134441D01*
X112931557Y-129992035D01*
X115626792Y-127296800D01*
X116045608Y-127296800D01*
X114099433Y-129242975D01*
X113740588Y-129391246D01*
X113418777Y-129712497D01*
X113244399Y-130132446D01*
X113244002Y-130587159D01*
X113417646Y-131007412D01*
X113738897Y-131329223D01*
X114158846Y-131503601D01*
X114613559Y-131503998D01*
X115033812Y-131330354D01*
X115355623Y-131009103D01*
X115530001Y-130589154D01*
X115530398Y-130134441D01*
X115356754Y-129714188D01*
X115208208Y-129565384D01*
X116716792Y-128056800D01*
X119887200Y-128056800D01*
X120080838Y-128018283D01*
X120244996Y-127908596D01*
X130851761Y-117301831D01*
X130932507Y-117301901D01*
X119109404Y-129125004D01*
X118999717Y-129289162D01*
X118993634Y-129319745D01*
X118820588Y-129391246D01*
X118498777Y-129712497D01*
X118324399Y-130132446D01*
X118324002Y-130587159D01*
X118497646Y-131007412D01*
X118693892Y-131204000D01*
X118289592Y-131204000D01*
X117954032Y-130868440D01*
X118070001Y-130589154D01*
X118070398Y-130134441D01*
X117896754Y-129714188D01*
X117575503Y-129392377D01*
X117155554Y-129217999D01*
X116700841Y-129217602D01*
X116280588Y-129391246D01*
X115958777Y-129712497D01*
X115784399Y-130132446D01*
X115784002Y-130587159D01*
X115957646Y-131007412D01*
X116278897Y-131329223D01*
X116698846Y-131503601D01*
X117153559Y-131503998D01*
X117156989Y-131502581D01*
X117714208Y-132059800D01*
X104802134Y-132059800D01*
X105943024Y-131588394D01*
X106951254Y-130581922D01*
X107497577Y-129266230D01*
X107498820Y-127841620D01*
X106954794Y-126524976D01*
X105948322Y-125516746D01*
X104632630Y-124970423D01*
X103208020Y-124969180D01*
X101891376Y-125513206D01*
X100883146Y-126519678D01*
X100438200Y-127591227D01*
X100438200Y-115347159D01*
X110704002Y-115347159D01*
X110877646Y-115767412D01*
X111198897Y-116089223D01*
X111618846Y-116263601D01*
X112073559Y-116263998D01*
X112468015Y-116101013D01*
X113586592Y-116101013D01*
X113656057Y-116343197D01*
X114179502Y-116529944D01*
X114734568Y-116502162D01*
X115118343Y-116343197D01*
X115187808Y-116101013D01*
X114387200Y-115300405D01*
X113586592Y-116101013D01*
X112468015Y-116101013D01*
X112493812Y-116090354D01*
X112815623Y-115769103D01*
X112990001Y-115349154D01*
X112990170Y-115155140D01*
X113005838Y-115468168D01*
X113164803Y-115851943D01*
X113406987Y-115921408D01*
X114207595Y-115120800D01*
X114566805Y-115120800D01*
X115367413Y-115921408D01*
X115609597Y-115851943D01*
X115787052Y-115354542D01*
X115957646Y-115767412D01*
X116278897Y-116089223D01*
X116698846Y-116263601D01*
X117153559Y-116263998D01*
X117573812Y-116090354D01*
X117895623Y-115769103D01*
X118070001Y-115349154D01*
X118070002Y-115347159D01*
X118324002Y-115347159D01*
X118497646Y-115767412D01*
X118818897Y-116089223D01*
X119238846Y-116263601D01*
X119693559Y-116263998D01*
X120113812Y-116090354D01*
X120435623Y-115769103D01*
X120610001Y-115349154D01*
X120610002Y-115347159D01*
X120864002Y-115347159D01*
X121037646Y-115767412D01*
X121358897Y-116089223D01*
X121778846Y-116263601D01*
X122233559Y-116263998D01*
X122653812Y-116090354D01*
X122975623Y-115769103D01*
X123150001Y-115349154D01*
X123150002Y-115347159D01*
X123404002Y-115347159D01*
X123577646Y-115767412D01*
X123898897Y-116089223D01*
X124318846Y-116263601D01*
X124773559Y-116263998D01*
X125193812Y-116090354D01*
X125515623Y-115769103D01*
X125690001Y-115349154D01*
X125690398Y-114894441D01*
X125516754Y-114474188D01*
X125195503Y-114152377D01*
X125053200Y-114093288D01*
X125053200Y-113320392D01*
X127223682Y-111149910D01*
X127234194Y-111160440D01*
X127741399Y-111371049D01*
X128290592Y-111371529D01*
X128798163Y-111161805D01*
X129186840Y-110773806D01*
X129397449Y-110266601D01*
X129397690Y-109990800D01*
X129868700Y-109990800D01*
X129876675Y-110030893D01*
X129876471Y-110264192D01*
X130086195Y-110771763D01*
X130474194Y-111160440D01*
X130981399Y-111371049D01*
X131530592Y-111371529D01*
X132038163Y-111161805D01*
X132426840Y-110773806D01*
X132637449Y-110266601D01*
X132637451Y-110264192D01*
X133116471Y-110264192D01*
X133326195Y-110771763D01*
X133714194Y-111160440D01*
X134221399Y-111371049D01*
X134770592Y-111371529D01*
X135278163Y-111161805D01*
X135666840Y-110773806D01*
X135877449Y-110266601D01*
X135877929Y-109717408D01*
X135668205Y-109209837D01*
X135280206Y-108821160D01*
X134773001Y-108610551D01*
X134223808Y-108610071D01*
X133716237Y-108819795D01*
X133327560Y-109207794D01*
X133116951Y-109714999D01*
X133116471Y-110264192D01*
X132637451Y-110264192D01*
X132637929Y-109717408D01*
X132428205Y-109209837D01*
X132040206Y-108821160D01*
X131533001Y-108610551D01*
X130983808Y-108610071D01*
X130476237Y-108819795D01*
X130087560Y-109207794D01*
X129876951Y-109714999D01*
X129876745Y-109950353D01*
X129868700Y-109990800D01*
X129397690Y-109990800D01*
X129397929Y-109717408D01*
X129188205Y-109209837D01*
X128800206Y-108821160D01*
X128293001Y-108610551D01*
X127743808Y-108610071D01*
X127236237Y-108819795D01*
X126847560Y-109207794D01*
X126636951Y-109714999D01*
X126636471Y-110264192D01*
X126648676Y-110293732D01*
X124189404Y-112753004D01*
X124079717Y-112917162D01*
X124041200Y-113110800D01*
X124041200Y-114093147D01*
X123900588Y-114151246D01*
X123578777Y-114472497D01*
X123404399Y-114892446D01*
X123404002Y-115347159D01*
X123150002Y-115347159D01*
X123150398Y-114894441D01*
X122976754Y-114474188D01*
X122655503Y-114152377D01*
X122235554Y-113977999D01*
X121780841Y-113977602D01*
X121360588Y-114151246D01*
X121038777Y-114472497D01*
X120864399Y-114892446D01*
X120864002Y-115347159D01*
X120610002Y-115347159D01*
X120610398Y-114894441D01*
X120436754Y-114474188D01*
X120115503Y-114152377D01*
X119695554Y-113977999D01*
X119240841Y-113977602D01*
X118820588Y-114151246D01*
X118498777Y-114472497D01*
X118324399Y-114892446D01*
X118324002Y-115347159D01*
X118070002Y-115347159D01*
X118070398Y-114894441D01*
X117896754Y-114474188D01*
X117575503Y-114152377D01*
X117155554Y-113977999D01*
X116700841Y-113977602D01*
X116280588Y-114151246D01*
X115958777Y-114472497D01*
X115784399Y-114892446D01*
X115784230Y-115086460D01*
X115768562Y-114773432D01*
X115609597Y-114389657D01*
X115367413Y-114320192D01*
X114566805Y-115120800D01*
X114207595Y-115120800D01*
X113406987Y-114320192D01*
X113164803Y-114389657D01*
X112987348Y-114887058D01*
X112816754Y-114474188D01*
X112495503Y-114152377D01*
X112467110Y-114140587D01*
X113586592Y-114140587D01*
X114387200Y-114941195D01*
X115187808Y-114140587D01*
X115118343Y-113898403D01*
X114594898Y-113711656D01*
X114039832Y-113739438D01*
X113656057Y-113898403D01*
X113586592Y-114140587D01*
X112467110Y-114140587D01*
X112075554Y-113977999D01*
X111620841Y-113977602D01*
X111200588Y-114151246D01*
X110878777Y-114472497D01*
X110704399Y-114892446D01*
X110704002Y-115347159D01*
X100438200Y-115347159D01*
X100438200Y-113620800D01*
X101522831Y-113620800D01*
X101629171Y-114155409D01*
X101932003Y-114608628D01*
X102385222Y-114911460D01*
X102919831Y-115017800D01*
X102974569Y-115017800D01*
X103509178Y-114911460D01*
X103962397Y-114608628D01*
X104265229Y-114155409D01*
X104371569Y-113620800D01*
X104294137Y-113231517D01*
X111058088Y-113231517D01*
X111126077Y-113472460D01*
X111645171Y-113657201D01*
X112195448Y-113629230D01*
X112573923Y-113472460D01*
X112641912Y-113231517D01*
X111850000Y-112439605D01*
X111058088Y-113231517D01*
X104294137Y-113231517D01*
X104265229Y-113086191D01*
X103962397Y-112632972D01*
X103536931Y-112348684D01*
X103737503Y-112265810D01*
X103948510Y-112055171D01*
X110452799Y-112055171D01*
X110480770Y-112605448D01*
X110637540Y-112983923D01*
X110878483Y-113051912D01*
X111670395Y-112260000D01*
X112029605Y-112260000D01*
X112821517Y-113051912D01*
X113062460Y-112983923D01*
X113240384Y-112483983D01*
X115838804Y-112483983D01*
X116010625Y-112899823D01*
X116328503Y-113218256D01*
X116744043Y-113390804D01*
X117193983Y-113391196D01*
X117609823Y-113219375D01*
X117928256Y-112901497D01*
X118100804Y-112485957D01*
X118101196Y-112036017D01*
X117929375Y-111620177D01*
X117611497Y-111301744D01*
X117195957Y-111129196D01*
X116746017Y-111128804D01*
X116330177Y-111300625D01*
X116011744Y-111618503D01*
X115839196Y-112034043D01*
X115838804Y-112483983D01*
X113240384Y-112483983D01*
X113247201Y-112464829D01*
X113219230Y-111914552D01*
X113062460Y-111536077D01*
X112821517Y-111468088D01*
X112029605Y-112260000D01*
X111670395Y-112260000D01*
X110878483Y-111468088D01*
X110637540Y-111536077D01*
X110452799Y-112055171D01*
X103948510Y-112055171D01*
X104130829Y-111873170D01*
X104343957Y-111359900D01*
X104344019Y-111288483D01*
X111058088Y-111288483D01*
X111850000Y-112080395D01*
X112641912Y-111288483D01*
X112573923Y-111047540D01*
X112054829Y-110862799D01*
X111504552Y-110890770D01*
X111126077Y-111047540D01*
X111058088Y-111288483D01*
X104344019Y-111288483D01*
X104344442Y-110804139D01*
X104132210Y-110290497D01*
X103832064Y-109989826D01*
X122409842Y-109989826D01*
X122412491Y-110005591D01*
X122666468Y-110532836D01*
X123102880Y-110922754D01*
X123655287Y-111115984D01*
X123890200Y-110971724D01*
X123890200Y-109757800D01*
X124144200Y-109757800D01*
X124144200Y-110971724D01*
X124379113Y-111115984D01*
X124931520Y-110922754D01*
X125367932Y-110532836D01*
X125621909Y-110005591D01*
X125624558Y-109989826D01*
X125503417Y-109757800D01*
X124144200Y-109757800D01*
X123890200Y-109757800D01*
X122530983Y-109757800D01*
X122409842Y-109989826D01*
X103832064Y-109989826D01*
X103739570Y-109897171D01*
X103226300Y-109684043D01*
X102670539Y-109683558D01*
X102156897Y-109895790D01*
X101763571Y-110288430D01*
X101550443Y-110801700D01*
X101549958Y-111357461D01*
X101762190Y-111871103D01*
X102154830Y-112264429D01*
X102357572Y-112348615D01*
X101932003Y-112632972D01*
X101629171Y-113086191D01*
X101522831Y-113620800D01*
X100438200Y-113620800D01*
X100438200Y-109271774D01*
X122409842Y-109271774D01*
X122530983Y-109503800D01*
X123890200Y-109503800D01*
X123890200Y-109483800D01*
X124144200Y-109483800D01*
X124144200Y-109503800D01*
X125503417Y-109503800D01*
X125624558Y-109271774D01*
X125621909Y-109256009D01*
X125367932Y-108728764D01*
X124931520Y-108338846D01*
X124658957Y-108243504D01*
X124673257Y-108240660D01*
X125077034Y-107970865D01*
X125346829Y-107567088D01*
X125441569Y-107090800D01*
X125346829Y-106614512D01*
X125077034Y-106210735D01*
X124781600Y-106013332D01*
X138054273Y-106013332D01*
X138152936Y-106280187D01*
X138762661Y-106506708D01*
X139412660Y-106482656D01*
X139901464Y-106280187D01*
X140000127Y-106013332D01*
X144034273Y-106013332D01*
X144132936Y-106280187D01*
X144742661Y-106506708D01*
X145392660Y-106482656D01*
X145881464Y-106280187D01*
X145980127Y-106013332D01*
X150014273Y-106013332D01*
X150112936Y-106280187D01*
X150722661Y-106506708D01*
X151372660Y-106482656D01*
X151861464Y-106280187D01*
X151960127Y-106013332D01*
X150987200Y-105040405D01*
X150014273Y-106013332D01*
X145980127Y-106013332D01*
X145007200Y-105040405D01*
X144034273Y-106013332D01*
X140000127Y-106013332D01*
X139027200Y-105040405D01*
X138054273Y-106013332D01*
X124781600Y-106013332D01*
X124673257Y-105940940D01*
X124196969Y-105846200D01*
X123837431Y-105846200D01*
X123361143Y-105940940D01*
X122957366Y-106210735D01*
X122687571Y-106614512D01*
X122592831Y-107090800D01*
X122687571Y-107567088D01*
X122957366Y-107970865D01*
X123361143Y-108240660D01*
X123375443Y-108243504D01*
X123102880Y-108338846D01*
X122666468Y-108728764D01*
X122412491Y-109256009D01*
X122409842Y-109271774D01*
X100438200Y-109271774D01*
X100438200Y-104754725D01*
X100959606Y-106016624D01*
X101966078Y-107024854D01*
X103281770Y-107571177D01*
X104706380Y-107572420D01*
X105003080Y-107449826D01*
X117409842Y-107449826D01*
X117412491Y-107465591D01*
X117666468Y-107992836D01*
X118102880Y-108382754D01*
X118655287Y-108575984D01*
X118890200Y-108431724D01*
X118890200Y-107217800D01*
X119144200Y-107217800D01*
X119144200Y-108431724D01*
X119379113Y-108575984D01*
X119931520Y-108382754D01*
X120367932Y-107992836D01*
X120621909Y-107465591D01*
X120624558Y-107449826D01*
X120503417Y-107217800D01*
X119144200Y-107217800D01*
X118890200Y-107217800D01*
X117530983Y-107217800D01*
X117409842Y-107449826D01*
X105003080Y-107449826D01*
X106023024Y-107028394D01*
X106320162Y-106731774D01*
X117409842Y-106731774D01*
X117530983Y-106963800D01*
X118890200Y-106963800D01*
X118890200Y-106943800D01*
X119144200Y-106943800D01*
X119144200Y-106963800D01*
X120503417Y-106963800D01*
X120624558Y-106731774D01*
X120621909Y-106716009D01*
X120367932Y-106188764D01*
X119931520Y-105798846D01*
X119658957Y-105703504D01*
X119673257Y-105700660D01*
X120077034Y-105430865D01*
X120346829Y-105027088D01*
X120441569Y-104550800D01*
X122592831Y-104550800D01*
X122687571Y-105027088D01*
X122957366Y-105430865D01*
X123361143Y-105700660D01*
X123837431Y-105795400D01*
X124196969Y-105795400D01*
X124673257Y-105700660D01*
X125077034Y-105430865D01*
X125346829Y-105027088D01*
X125432526Y-104596261D01*
X137381292Y-104596261D01*
X137405344Y-105246260D01*
X137607813Y-105735064D01*
X137874668Y-105833727D01*
X138847595Y-104860800D01*
X139206805Y-104860800D01*
X140179732Y-105833727D01*
X140446587Y-105735064D01*
X140673108Y-105125339D01*
X140653531Y-104596261D01*
X143361292Y-104596261D01*
X143385344Y-105246260D01*
X143587813Y-105735064D01*
X143854668Y-105833727D01*
X144827595Y-104860800D01*
X145186805Y-104860800D01*
X146159732Y-105833727D01*
X146426587Y-105735064D01*
X146653108Y-105125339D01*
X146633531Y-104596261D01*
X149341292Y-104596261D01*
X149365344Y-105246260D01*
X149567813Y-105735064D01*
X149834668Y-105833727D01*
X150807595Y-104860800D01*
X151166805Y-104860800D01*
X152139732Y-105833727D01*
X152406587Y-105735064D01*
X152633108Y-105125339D01*
X152609056Y-104475340D01*
X152406587Y-103986536D01*
X152139732Y-103887873D01*
X151166805Y-104860800D01*
X150807595Y-104860800D01*
X149834668Y-103887873D01*
X149567813Y-103986536D01*
X149341292Y-104596261D01*
X146633531Y-104596261D01*
X146629056Y-104475340D01*
X146426587Y-103986536D01*
X146159732Y-103887873D01*
X145186805Y-104860800D01*
X144827595Y-104860800D01*
X143854668Y-103887873D01*
X143587813Y-103986536D01*
X143361292Y-104596261D01*
X140653531Y-104596261D01*
X140649056Y-104475340D01*
X140446587Y-103986536D01*
X140179732Y-103887873D01*
X139206805Y-104860800D01*
X138847595Y-104860800D01*
X137874668Y-103887873D01*
X137607813Y-103986536D01*
X137381292Y-104596261D01*
X125432526Y-104596261D01*
X125441569Y-104550800D01*
X125346829Y-104074512D01*
X125077034Y-103670735D01*
X124673257Y-103400940D01*
X124196969Y-103306200D01*
X123837431Y-103306200D01*
X123361143Y-103400940D01*
X122957366Y-103670735D01*
X122687571Y-104074512D01*
X122592831Y-104550800D01*
X120441569Y-104550800D01*
X120346829Y-104074512D01*
X120077034Y-103670735D01*
X119673257Y-103400940D01*
X119196969Y-103306200D01*
X118837431Y-103306200D01*
X118361143Y-103400940D01*
X117957366Y-103670735D01*
X117687571Y-104074512D01*
X117592831Y-104550800D01*
X117687571Y-105027088D01*
X117957366Y-105430865D01*
X118361143Y-105700660D01*
X118375443Y-105703504D01*
X118102880Y-105798846D01*
X117666468Y-106188764D01*
X117412491Y-106716009D01*
X117409842Y-106731774D01*
X106320162Y-106731774D01*
X107031254Y-106021922D01*
X107136701Y-105767975D01*
X109359630Y-105767975D01*
X109482765Y-106055588D01*
X110164934Y-106315507D01*
X110894643Y-106294586D01*
X111471635Y-106055588D01*
X111594770Y-105767975D01*
X110477200Y-104650405D01*
X109359630Y-105767975D01*
X107136701Y-105767975D01*
X107577577Y-104706230D01*
X107578054Y-104158534D01*
X108632493Y-104158534D01*
X108653414Y-104888243D01*
X108892412Y-105465235D01*
X109180025Y-105588370D01*
X110297595Y-104470800D01*
X109180025Y-103353230D01*
X108892412Y-103476365D01*
X108632493Y-104158534D01*
X107578054Y-104158534D01*
X107578820Y-103281620D01*
X107534198Y-103173625D01*
X109359630Y-103173625D01*
X110477200Y-104291195D01*
X110491343Y-104277053D01*
X110670948Y-104456658D01*
X110656805Y-104470800D01*
X111774375Y-105588370D01*
X112061988Y-105465235D01*
X112321907Y-104783066D01*
X112300986Y-104053357D01*
X112066533Y-103487338D01*
X112155536Y-103354137D01*
X112155536Y-103576000D01*
X112182103Y-103717190D01*
X112265546Y-103846865D01*
X112388736Y-103931037D01*
X112388736Y-105670800D01*
X112415303Y-105811990D01*
X112498746Y-105941665D01*
X112626066Y-106028659D01*
X112777200Y-106059264D01*
X115177200Y-106059264D01*
X115318390Y-106032697D01*
X115448065Y-105949254D01*
X115535059Y-105821934D01*
X115565664Y-105670800D01*
X115565664Y-103270800D01*
X115539097Y-103129610D01*
X115455654Y-102999935D01*
X115328334Y-102912941D01*
X115177200Y-102882336D01*
X114964464Y-102882336D01*
X114964464Y-101544000D01*
X114937897Y-101402810D01*
X114854454Y-101273135D01*
X114727134Y-101186141D01*
X114576000Y-101155536D01*
X112544000Y-101155536D01*
X112402810Y-101182103D01*
X112273135Y-101265546D01*
X112186141Y-101392866D01*
X112155536Y-101544000D01*
X112155536Y-101765863D01*
X112007828Y-101544803D01*
X111554609Y-101241971D01*
X111078162Y-101147200D01*
X117612736Y-101147200D01*
X117612736Y-102874400D01*
X117639303Y-103015590D01*
X117722746Y-103145265D01*
X117850066Y-103232259D01*
X118001200Y-103262864D01*
X120033200Y-103262864D01*
X120174390Y-103236297D01*
X120304065Y-103152854D01*
X120391059Y-103025534D01*
X120421664Y-102874400D01*
X120421664Y-101147200D01*
X122612736Y-101147200D01*
X122612736Y-102874400D01*
X122639303Y-103015590D01*
X122722746Y-103145265D01*
X122850066Y-103232259D01*
X123001200Y-103262864D01*
X125033200Y-103262864D01*
X125174390Y-103236297D01*
X125304065Y-103152854D01*
X125391059Y-103025534D01*
X125421664Y-102874400D01*
X125421664Y-102644192D01*
X126636471Y-102644192D01*
X126846195Y-103151763D01*
X127234194Y-103540440D01*
X127741399Y-103751049D01*
X128290592Y-103751529D01*
X128798163Y-103541805D01*
X129186840Y-103153806D01*
X129397449Y-102646601D01*
X129397451Y-102644192D01*
X129876471Y-102644192D01*
X130086195Y-103151763D01*
X130474194Y-103540440D01*
X130981399Y-103751049D01*
X131530592Y-103751529D01*
X132038163Y-103541805D01*
X132426840Y-103153806D01*
X132637449Y-102646601D01*
X132637451Y-102644192D01*
X133116471Y-102644192D01*
X133326195Y-103151763D01*
X133714194Y-103540440D01*
X134221399Y-103751049D01*
X134770592Y-103751529D01*
X135278163Y-103541805D01*
X135666840Y-103153806D01*
X135877449Y-102646601D01*
X135877929Y-102097408D01*
X135668205Y-101589837D01*
X135399638Y-101320800D01*
X137638736Y-101320800D01*
X137638736Y-103320800D01*
X137665303Y-103461990D01*
X137748746Y-103591665D01*
X137876066Y-103678659D01*
X138027200Y-103709264D01*
X138055269Y-103709264D01*
X139027200Y-104681195D01*
X139999131Y-103709264D01*
X140027200Y-103709264D01*
X140168390Y-103682697D01*
X140298065Y-103599254D01*
X140385059Y-103471934D01*
X140415664Y-103320800D01*
X140415664Y-101320800D01*
X143618736Y-101320800D01*
X143618736Y-103320800D01*
X143645303Y-103461990D01*
X143728746Y-103591665D01*
X143856066Y-103678659D01*
X144007200Y-103709264D01*
X144035269Y-103709264D01*
X145007200Y-104681195D01*
X145979131Y-103709264D01*
X146007200Y-103709264D01*
X146148390Y-103682697D01*
X146278065Y-103599254D01*
X146365059Y-103471934D01*
X146395664Y-103320800D01*
X146395664Y-101320800D01*
X149598736Y-101320800D01*
X149598736Y-103320800D01*
X149625303Y-103461990D01*
X149708746Y-103591665D01*
X149836066Y-103678659D01*
X149987200Y-103709264D01*
X150015269Y-103709264D01*
X150987200Y-104681195D01*
X151959131Y-103709264D01*
X151987200Y-103709264D01*
X152128390Y-103682697D01*
X152258065Y-103599254D01*
X152345059Y-103471934D01*
X152375664Y-103320800D01*
X152375664Y-101320800D01*
X152349097Y-101179610D01*
X152321808Y-101137200D01*
X155852736Y-101137200D01*
X155852736Y-102864400D01*
X155879303Y-103005590D01*
X155962746Y-103135265D01*
X156090066Y-103222259D01*
X156241200Y-103252864D01*
X158273200Y-103252864D01*
X158414390Y-103226297D01*
X158544065Y-103142854D01*
X158631059Y-103015534D01*
X158661664Y-102864400D01*
X158661664Y-101137200D01*
X158635097Y-100996010D01*
X158551654Y-100866335D01*
X158424334Y-100779341D01*
X158273200Y-100748736D01*
X156241200Y-100748736D01*
X156100010Y-100775303D01*
X155970335Y-100858746D01*
X155883341Y-100986066D01*
X155852736Y-101137200D01*
X152321808Y-101137200D01*
X152265654Y-101049935D01*
X152138334Y-100962941D01*
X151987200Y-100932336D01*
X149987200Y-100932336D01*
X149846010Y-100958903D01*
X149716335Y-101042346D01*
X149629341Y-101169666D01*
X149598736Y-101320800D01*
X146395664Y-101320800D01*
X146369097Y-101179610D01*
X146285654Y-101049935D01*
X146158334Y-100962941D01*
X146007200Y-100932336D01*
X144007200Y-100932336D01*
X143866010Y-100958903D01*
X143736335Y-101042346D01*
X143649341Y-101169666D01*
X143618736Y-101320800D01*
X140415664Y-101320800D01*
X140389097Y-101179610D01*
X140305654Y-101049935D01*
X140178334Y-100962941D01*
X140027200Y-100932336D01*
X138027200Y-100932336D01*
X137886010Y-100958903D01*
X137756335Y-101042346D01*
X137669341Y-101169666D01*
X137638736Y-101320800D01*
X135399638Y-101320800D01*
X135280206Y-101201160D01*
X134773001Y-100990551D01*
X134223808Y-100990071D01*
X133716237Y-101199795D01*
X133327560Y-101587794D01*
X133116951Y-102094999D01*
X133116471Y-102644192D01*
X132637451Y-102644192D01*
X132637929Y-102097408D01*
X132428205Y-101589837D01*
X132040206Y-101201160D01*
X131533001Y-100990551D01*
X130983808Y-100990071D01*
X130476237Y-101199795D01*
X130087560Y-101587794D01*
X129876951Y-102094999D01*
X129876471Y-102644192D01*
X129397451Y-102644192D01*
X129397929Y-102097408D01*
X129188205Y-101589837D01*
X128800206Y-101201160D01*
X128293001Y-100990551D01*
X127743808Y-100990071D01*
X127236237Y-101199795D01*
X126847560Y-101587794D01*
X126636951Y-102094999D01*
X126636471Y-102644192D01*
X125421664Y-102644192D01*
X125421664Y-101147200D01*
X125395097Y-101006010D01*
X125311654Y-100876335D01*
X125184334Y-100789341D01*
X125033200Y-100758736D01*
X123001200Y-100758736D01*
X122860010Y-100785303D01*
X122730335Y-100868746D01*
X122643341Y-100996066D01*
X122612736Y-101147200D01*
X120421664Y-101147200D01*
X120395097Y-101006010D01*
X120311654Y-100876335D01*
X120184334Y-100789341D01*
X120033200Y-100758736D01*
X118001200Y-100758736D01*
X117860010Y-100785303D01*
X117730335Y-100868746D01*
X117643341Y-100996066D01*
X117612736Y-101147200D01*
X111078162Y-101147200D01*
X111020000Y-101135631D01*
X110485391Y-101241971D01*
X110032172Y-101544803D01*
X109729340Y-101998022D01*
X109623000Y-102532631D01*
X109623000Y-102587369D01*
X109667207Y-102809614D01*
X109482765Y-102886012D01*
X109359630Y-103173625D01*
X107534198Y-103173625D01*
X107034794Y-101964976D01*
X106028322Y-100956746D01*
X104812277Y-100451800D01*
X162195422Y-100451800D01*
X161716237Y-100649795D01*
X161716237Y-100649795D01*
G37*
X161716237Y-100649795D02*
X161327560Y-101037794D01*
X161116951Y-101544999D01*
X161116471Y-102094192D01*
X161326195Y-102601763D01*
X161714194Y-102990440D01*
X162221399Y-103201049D01*
X162770592Y-103201529D01*
X163278163Y-102991805D01*
X163666840Y-102603806D01*
X163877449Y-102096601D01*
X163877929Y-101547408D01*
X163784297Y-101320800D01*
X165358736Y-101320800D01*
X165358736Y-103320800D01*
X165385303Y-103461990D01*
X165468746Y-103591665D01*
X165596066Y-103678659D01*
X165747200Y-103709264D01*
X165775269Y-103709264D01*
X166747200Y-104681195D01*
X167719131Y-103709264D01*
X167747200Y-103709264D01*
X167888390Y-103682697D01*
X168018065Y-103599254D01*
X168105059Y-103471934D01*
X168135664Y-103320800D01*
X168135664Y-103173625D01*
X170419630Y-103173625D01*
X171537200Y-104291195D01*
X171551343Y-104277053D01*
X171730948Y-104456658D01*
X171716805Y-104470800D01*
X172834375Y-105588370D01*
X173121988Y-105465235D01*
X173381907Y-104783066D01*
X173360986Y-104053357D01*
X173352111Y-104031931D01*
X173414000Y-104044464D01*
X173448736Y-104044464D01*
X173448736Y-105670800D01*
X173475303Y-105811990D01*
X173558746Y-105941665D01*
X173686066Y-106028659D01*
X173837200Y-106059264D01*
X176237200Y-106059264D01*
X176378390Y-106032697D01*
X176508065Y-105949254D01*
X176595059Y-105821934D01*
X176625664Y-105670800D01*
X176625664Y-103270800D01*
X176599097Y-103129610D01*
X176515654Y-102999935D01*
X176388334Y-102912941D01*
X176237200Y-102882336D01*
X175834464Y-102882336D01*
X175834464Y-101624000D01*
X175807897Y-101482810D01*
X175724454Y-101353135D01*
X175597134Y-101266141D01*
X175446000Y-101235536D01*
X173414000Y-101235536D01*
X173272810Y-101262103D01*
X173143135Y-101345546D01*
X173056141Y-101472866D01*
X173025536Y-101624000D01*
X173025536Y-101845863D01*
X172877828Y-101624803D01*
X172424609Y-101321971D01*
X171890000Y-101215631D01*
X171355391Y-101321971D01*
X170902172Y-101624803D01*
X170599340Y-102078022D01*
X170493000Y-102612631D01*
X170493000Y-102667369D01*
X170538481Y-102896018D01*
X170419630Y-103173625D01*
X168135664Y-103173625D01*
X168135664Y-101320800D01*
X168109097Y-101179610D01*
X168025654Y-101049935D01*
X167898334Y-100962941D01*
X167747200Y-100932336D01*
X165747200Y-100932336D01*
X165606010Y-100958903D01*
X165476335Y-101042346D01*
X165389341Y-101169666D01*
X165358736Y-101320800D01*
X163784297Y-101320800D01*
X163668205Y-101039837D01*
X163280206Y-100651160D01*
X162800092Y-100451800D01*
X180084872Y-100451800D01*
X178871376Y-100953206D01*
X177863146Y-101959678D01*
X177316823Y-103275370D01*
X177315580Y-104699980D01*
X177859606Y-106016624D01*
X178866078Y-107024854D01*
X180181770Y-107571177D01*
X181606380Y-107572420D01*
X182923024Y-107028394D01*
X183931254Y-106021922D01*
X184477577Y-104706230D01*
X184478820Y-103281620D01*
X183934794Y-101964976D01*
X182928322Y-100956746D01*
X181712277Y-100451800D01*
X184576200Y-100451800D01*
X184576200Y-132059800D01*
X146065792Y-132059800D01*
X147480316Y-130645276D01*
X147614043Y-130700804D01*
X148063983Y-130701196D01*
X148479823Y-130529375D01*
X148798256Y-130211497D01*
X148970804Y-129795957D01*
X148971196Y-129346017D01*
X148799375Y-128930177D01*
X148481497Y-128611744D01*
X148346000Y-128555480D01*
X148346000Y-128399016D01*
X150020590Y-128399016D01*
X150076271Y-128629611D01*
X150559078Y-128797622D01*
X151069428Y-128768083D01*
X151403729Y-128629611D01*
X151459410Y-128399016D01*
X150740000Y-127679605D01*
X150020590Y-128399016D01*
X148346000Y-128399016D01*
X148346000Y-127319078D01*
X149442378Y-127319078D01*
X149471917Y-127829428D01*
X149610389Y-128163729D01*
X149840984Y-128219410D01*
X150560395Y-127500000D01*
X150919605Y-127500000D01*
X151639016Y-128219410D01*
X151869611Y-128163729D01*
X152037622Y-127680922D01*
X152008083Y-127170572D01*
X151869611Y-126836271D01*
X151639016Y-126780590D01*
X150919605Y-127500000D01*
X150560395Y-127500000D01*
X149840984Y-126780590D01*
X149610389Y-126836271D01*
X149442378Y-127319078D01*
X148346000Y-127319078D01*
X148346000Y-126600984D01*
X150020590Y-126600984D01*
X150740000Y-127320395D01*
X151459410Y-126600984D01*
X151403729Y-126370389D01*
X150920922Y-126202378D01*
X150410572Y-126231917D01*
X150076271Y-126370389D01*
X150020590Y-126600984D01*
X148346000Y-126600984D01*
X148346000Y-124449592D01*
X149953792Y-122841800D01*
X151272278Y-122841800D01*
X150152542Y-123961536D01*
X150090000Y-123961536D01*
X149948810Y-123988103D01*
X149819135Y-124071546D01*
X149732141Y-124198866D01*
X149701536Y-124350000D01*
X149701536Y-125650000D01*
X149728103Y-125791190D01*
X149811546Y-125920865D01*
X149938866Y-126007859D01*
X150090000Y-126038464D01*
X151390000Y-126038464D01*
X151531190Y-126011897D01*
X151660865Y-125928454D01*
X151747859Y-125801134D01*
X151778464Y-125650000D01*
X151778464Y-124827458D01*
X152414922Y-124191000D01*
X154080000Y-124191000D01*
X154271687Y-124152871D01*
X154590892Y-124163878D01*
X154671066Y-124218659D01*
X154822200Y-124249264D01*
X156432130Y-124249264D01*
X156480478Y-124361600D01*
X154822422Y-126019656D01*
X154773119Y-126019613D01*
X154375663Y-126183838D01*
X154071307Y-126487663D01*
X153906388Y-126884832D01*
X153906013Y-127314881D01*
X154070238Y-127712337D01*
X154374063Y-128016693D01*
X154771232Y-128181612D01*
X155201281Y-128181987D01*
X155554416Y-128036075D01*
X159231531Y-128036075D01*
X159293369Y-128271842D01*
X159794322Y-128448219D01*
X160324640Y-128419464D01*
X160603633Y-128303901D01*
X161925926Y-128303901D01*
X162166112Y-128885195D01*
X162610466Y-129330325D01*
X163191340Y-129571525D01*
X163820301Y-129572074D01*
X164401595Y-129331888D01*
X164846725Y-128887534D01*
X165087925Y-128306660D01*
X165087927Y-128303901D01*
X165425926Y-128303901D01*
X165666112Y-128885195D01*
X166110466Y-129330325D01*
X166691340Y-129571525D01*
X167320301Y-129572074D01*
X167901595Y-129331888D01*
X168346725Y-128887534D01*
X168587925Y-128306660D01*
X168587927Y-128303901D01*
X169435926Y-128303901D01*
X169676112Y-128885195D01*
X170120466Y-129330325D01*
X170701340Y-129571525D01*
X171330301Y-129572074D01*
X171911595Y-129331888D01*
X172356725Y-128887534D01*
X172597925Y-128306660D01*
X172597927Y-128303901D01*
X172935926Y-128303901D01*
X173176112Y-128885195D01*
X173620466Y-129330325D01*
X174201340Y-129571525D01*
X174830301Y-129572074D01*
X175411595Y-129331888D01*
X175643907Y-129099980D01*
X177315580Y-129099980D01*
X177859606Y-130416624D01*
X178866078Y-131424854D01*
X180181770Y-131971177D01*
X181606380Y-131972420D01*
X182923024Y-131428394D01*
X183931254Y-130421922D01*
X184477577Y-129106230D01*
X184478820Y-127681620D01*
X183934794Y-126364976D01*
X182928322Y-125356746D01*
X181612630Y-124810423D01*
X180188020Y-124809180D01*
X178871376Y-125353206D01*
X177863146Y-126359678D01*
X177316823Y-127675370D01*
X177315580Y-129099980D01*
X175643907Y-129099980D01*
X175856725Y-128887534D01*
X176097925Y-128306660D01*
X176098474Y-127677699D01*
X175858288Y-127096405D01*
X175413934Y-126651275D01*
X174833060Y-126410075D01*
X174204099Y-126409526D01*
X173622805Y-126649712D01*
X173177675Y-127094066D01*
X172936475Y-127674940D01*
X172935926Y-128303901D01*
X172597927Y-128303901D01*
X172598474Y-127677699D01*
X172358288Y-127096405D01*
X171913934Y-126651275D01*
X171333060Y-126410075D01*
X170704099Y-126409526D01*
X170122805Y-126649712D01*
X169677675Y-127094066D01*
X169436475Y-127674940D01*
X169435926Y-128303901D01*
X168587927Y-128303901D01*
X168588474Y-127677699D01*
X168348288Y-127096405D01*
X167903934Y-126651275D01*
X167323060Y-126410075D01*
X166694099Y-126409526D01*
X166112805Y-126649712D01*
X165667675Y-127094066D01*
X165426475Y-127674940D01*
X165425926Y-128303901D01*
X165087927Y-128303901D01*
X165088474Y-127677699D01*
X164848288Y-127096405D01*
X164403934Y-126651275D01*
X163823060Y-126410075D01*
X163194099Y-126409526D01*
X162612805Y-126649712D01*
X162167675Y-127094066D01*
X161926475Y-127674940D01*
X161925926Y-128303901D01*
X160603633Y-128303901D01*
X160681031Y-128271842D01*
X160742869Y-128036075D01*
X159987200Y-127280405D01*
X159231531Y-128036075D01*
X155554416Y-128036075D01*
X155598737Y-128017762D01*
X155903093Y-127713937D01*
X156068012Y-127316768D01*
X156068056Y-127265866D01*
X156426000Y-126907922D01*
X158639781Y-126907922D01*
X158668536Y-127438240D01*
X158816158Y-127794631D01*
X159051925Y-127856469D01*
X159807595Y-127100800D01*
X160166805Y-127100800D01*
X160922475Y-127856469D01*
X161158242Y-127794631D01*
X161334619Y-127293678D01*
X161305864Y-126763360D01*
X161158242Y-126406969D01*
X160922475Y-126345131D01*
X160166805Y-127100800D01*
X159807595Y-127100800D01*
X159051925Y-126345131D01*
X158816158Y-126406969D01*
X158639781Y-126907922D01*
X156426000Y-126907922D01*
X157168397Y-126165525D01*
X159231531Y-126165525D01*
X159987200Y-126921195D01*
X160742869Y-126165525D01*
X160681031Y-125929758D01*
X160180078Y-125753381D01*
X159649760Y-125782136D01*
X159293369Y-125929758D01*
X159231531Y-126165525D01*
X157168397Y-126165525D01*
X158060161Y-125273761D01*
X158251138Y-124987944D01*
X158318200Y-124650800D01*
X158318200Y-123785722D01*
X158600161Y-123503761D01*
X158791138Y-123217944D01*
X158858200Y-122880800D01*
X158834331Y-122760800D01*
X161633736Y-122760800D01*
X161633736Y-123210800D01*
X161653243Y-123314470D01*
X161633736Y-123410800D01*
X161633736Y-123860800D01*
X161660303Y-124001990D01*
X161743746Y-124131665D01*
X161765743Y-124146695D01*
X161781598Y-124170410D01*
X161907949Y-124253529D01*
X162056683Y-124280941D01*
X163766683Y-124250941D01*
X163820038Y-124246240D01*
X164439270Y-124147426D01*
X164453133Y-124221100D01*
X164536576Y-124350775D01*
X164663896Y-124437769D01*
X164815030Y-124468374D01*
X166514290Y-124468374D01*
X166655480Y-124441807D01*
X166785155Y-124358364D01*
X166872149Y-124231044D01*
X166902754Y-124079910D01*
X166902754Y-123495033D01*
X166958897Y-123495033D01*
X167145855Y-123947505D01*
X167491734Y-124293989D01*
X167943879Y-124481735D01*
X168433453Y-124482163D01*
X168885925Y-124295205D01*
X169232409Y-123949326D01*
X169420155Y-123497181D01*
X169420583Y-123007607D01*
X169233625Y-122555135D01*
X168887746Y-122208651D01*
X168435601Y-122020905D01*
X167946027Y-122020477D01*
X167493555Y-122207435D01*
X167147071Y-122553314D01*
X166959325Y-123005459D01*
X166958897Y-123495033D01*
X166902754Y-123495033D01*
X166902754Y-122380650D01*
X166876187Y-122239460D01*
X166792744Y-122109785D01*
X166665424Y-122022791D01*
X166514290Y-121992186D01*
X164815030Y-121992186D01*
X164673840Y-122018753D01*
X164544165Y-122102196D01*
X164457171Y-122229516D01*
X164426566Y-122380650D01*
X164426566Y-122388012D01*
X163826176Y-122383266D01*
X163772200Y-122372336D01*
X162443498Y-122372336D01*
X162023012Y-122369012D01*
X161872314Y-122398788D01*
X161747308Y-122483917D01*
X161696581Y-122562481D01*
X161664341Y-122609666D01*
X161633736Y-122760800D01*
X158834331Y-122760800D01*
X158791138Y-122543656D01*
X158600161Y-122257839D01*
X158314344Y-122066862D01*
X157977200Y-121999800D01*
X157640056Y-122066862D01*
X157354239Y-122257839D01*
X157116258Y-122495820D01*
X156960664Y-122460891D01*
X156960664Y-122110800D01*
X156941157Y-122007130D01*
X156960664Y-121910800D01*
X156960664Y-121460800D01*
X156941157Y-121357130D01*
X156960664Y-121260800D01*
X156960664Y-120810800D01*
X156934097Y-120669610D01*
X156850654Y-120539935D01*
X156723334Y-120452941D01*
X156572200Y-120422336D01*
X154822200Y-120422336D01*
X154681010Y-120448903D01*
X154555292Y-120529800D01*
X149324200Y-120529800D01*
X149130562Y-120568317D01*
X148966404Y-120678004D01*
X144880408Y-124764000D01*
X143190543Y-124764000D01*
X143295623Y-124659103D01*
X143470001Y-124239154D01*
X143470398Y-123784441D01*
X143308664Y-123393012D01*
X143423946Y-123440882D01*
X143694865Y-123441118D01*
X143945252Y-123337661D01*
X144136987Y-123146259D01*
X144240882Y-122896054D01*
X144241118Y-122625135D01*
X144137661Y-122374748D01*
X143946259Y-122183013D01*
X143696054Y-122079118D01*
X143425135Y-122078882D01*
X143272905Y-122141782D01*
X143295623Y-122119103D01*
X143470001Y-121699154D01*
X143470398Y-121244441D01*
X143346874Y-120945488D01*
X143383946Y-120960882D01*
X143654865Y-120961118D01*
X143905252Y-120857661D01*
X144096987Y-120666259D01*
X144200882Y-120416054D01*
X144201118Y-120145135D01*
X144097661Y-119894748D01*
X143906259Y-119703013D01*
X143656054Y-119599118D01*
X143385135Y-119598882D01*
X143198602Y-119675955D01*
X143295623Y-119579103D01*
X143470001Y-119159154D01*
X143470398Y-118704441D01*
X143296754Y-118284188D01*
X143257998Y-118245364D01*
X143463946Y-118330882D01*
X143734865Y-118331118D01*
X143985252Y-118227661D01*
X144176987Y-118036259D01*
X144280882Y-117786054D01*
X144281118Y-117515135D01*
X144177661Y-117264748D01*
X143986259Y-117073013D01*
X143736054Y-116969118D01*
X143465135Y-116968882D01*
X143295714Y-117038885D01*
X143470001Y-116619154D01*
X143470398Y-116164441D01*
X143296754Y-115744188D01*
X142975503Y-115422377D01*
X142555554Y-115247999D01*
X142517630Y-115247966D01*
X142819592Y-114946004D01*
X145550412Y-114946004D01*
X150698004Y-120093596D01*
X150862162Y-120203283D01*
X151055800Y-120241800D01*
X154558579Y-120241800D01*
X154671066Y-120318659D01*
X154822200Y-120349264D01*
X156572200Y-120349264D01*
X156713390Y-120322697D01*
X156843065Y-120239254D01*
X156890119Y-120170387D01*
X161629142Y-120170387D01*
X161633736Y-120338834D01*
X161633736Y-120610800D01*
X161642411Y-120656901D01*
X161645080Y-120754781D01*
X161633736Y-120810800D01*
X161633736Y-121260800D01*
X161660303Y-121401990D01*
X161743746Y-121531665D01*
X161871066Y-121618659D01*
X162022200Y-121649264D01*
X163772200Y-121649264D01*
X163881922Y-121628618D01*
X165565980Y-121582353D01*
X165710000Y-121611000D01*
X168925078Y-121611000D01*
X169492252Y-122178174D01*
X169457171Y-122229516D01*
X169426566Y-122380650D01*
X169426566Y-124079910D01*
X169453133Y-124221100D01*
X169536576Y-124350775D01*
X169663896Y-124437769D01*
X169815030Y-124468374D01*
X171514290Y-124468374D01*
X171655480Y-124441807D01*
X171785155Y-124358364D01*
X171872149Y-124231044D01*
X171902754Y-124079910D01*
X171902754Y-123484233D01*
X171961697Y-123484233D01*
X172148655Y-123936705D01*
X172494534Y-124283189D01*
X172946679Y-124470935D01*
X173436253Y-124471363D01*
X173888725Y-124284405D01*
X174235209Y-123938526D01*
X174422955Y-123486381D01*
X174423383Y-122996807D01*
X174236425Y-122544335D01*
X173890546Y-122197851D01*
X173438401Y-122010105D01*
X172948827Y-122009677D01*
X172496355Y-122196635D01*
X172149871Y-122542514D01*
X171962125Y-122994659D01*
X171961697Y-123484233D01*
X171902754Y-123484233D01*
X171902754Y-122380650D01*
X171876187Y-122239460D01*
X171792744Y-122109785D01*
X171665424Y-122022791D01*
X171523665Y-121994085D01*
X171478598Y-121767516D01*
X171287621Y-121481699D01*
X169912961Y-120107039D01*
X169627144Y-119916062D01*
X169290000Y-119849000D01*
X169285835Y-119849000D01*
X169373938Y-119717144D01*
X169441000Y-119380000D01*
X169373938Y-119042856D01*
X169182961Y-118757039D01*
X168897144Y-118566062D01*
X168560000Y-118499000D01*
X166082516Y-118499000D01*
X163784969Y-118469032D01*
X163775646Y-118469025D01*
X163485934Y-118472336D01*
X162022200Y-118472336D01*
X161881010Y-118498903D01*
X161751335Y-118582346D01*
X161664341Y-118709666D01*
X161633736Y-118860800D01*
X161633736Y-119310800D01*
X161649000Y-119391920D01*
X161649000Y-119435423D01*
X161633736Y-119510800D01*
X161633736Y-119960800D01*
X161650313Y-120048900D01*
X161629142Y-120170387D01*
X156890119Y-120170387D01*
X156930059Y-120111934D01*
X156960664Y-119960800D01*
X156960664Y-119654300D01*
X157582200Y-119654300D01*
X157799756Y-119611026D01*
X157984190Y-119487790D01*
X159479190Y-117992790D01*
X159602426Y-117808356D01*
X159645700Y-117590800D01*
X159645700Y-116260800D01*
X161633736Y-116260800D01*
X161633736Y-116710800D01*
X161639000Y-116738775D01*
X161639000Y-116884805D01*
X161633736Y-116910800D01*
X161633736Y-117360800D01*
X161660303Y-117501990D01*
X161743746Y-117631665D01*
X161871066Y-117718659D01*
X162022200Y-117749264D01*
X163772200Y-117749264D01*
X163778270Y-117748122D01*
X164488458Y-117750997D01*
X164508384Y-117750556D01*
X166578384Y-117650556D01*
X166620024Y-117641000D01*
X171625078Y-117641000D01*
X174786460Y-120802382D01*
X174786460Y-121987289D01*
X174676640Y-122007953D01*
X174546965Y-122091396D01*
X174459971Y-122218716D01*
X174429366Y-122369850D01*
X174429366Y-124069110D01*
X174455933Y-124210300D01*
X174539376Y-124339975D01*
X174666696Y-124426969D01*
X174817830Y-124457574D01*
X176517090Y-124457574D01*
X176658280Y-124431007D01*
X176787955Y-124347564D01*
X176874949Y-124220244D01*
X176905554Y-124069110D01*
X176905554Y-123566173D01*
X177058655Y-123936705D01*
X177404534Y-124283189D01*
X177856679Y-124470935D01*
X178346253Y-124471363D01*
X178798725Y-124284405D01*
X179145209Y-123938526D01*
X179332955Y-123486381D01*
X179333383Y-122996807D01*
X179146425Y-122544335D01*
X178972245Y-122369850D01*
X179419366Y-122369850D01*
X179419366Y-124069110D01*
X179445933Y-124210300D01*
X179529376Y-124339975D01*
X179656696Y-124426969D01*
X179807830Y-124457574D01*
X181507090Y-124457574D01*
X181648280Y-124431007D01*
X181777955Y-124347564D01*
X181864949Y-124220244D01*
X181895554Y-124069110D01*
X181895554Y-123493568D01*
X182078655Y-123936705D01*
X182424534Y-124283189D01*
X182876679Y-124470935D01*
X183366253Y-124471363D01*
X183818725Y-124284405D01*
X184165209Y-123938526D01*
X184352955Y-123486381D01*
X184353383Y-122996807D01*
X184166425Y-122544335D01*
X183820546Y-122197851D01*
X183368401Y-122010105D01*
X182878827Y-122009677D01*
X182426355Y-122196635D01*
X182079871Y-122542514D01*
X181895554Y-122986401D01*
X181895554Y-122369850D01*
X181868987Y-122228660D01*
X181785544Y-122098985D01*
X181658224Y-122011991D01*
X181507090Y-121981386D01*
X179807830Y-121981386D01*
X179666640Y-122007953D01*
X179536965Y-122091396D01*
X179449971Y-122218716D01*
X179419366Y-122369850D01*
X178972245Y-122369850D01*
X178800546Y-122197851D01*
X178348401Y-122010105D01*
X177858827Y-122009677D01*
X177406355Y-122196635D01*
X177059871Y-122542514D01*
X176905554Y-122914153D01*
X176905554Y-122369850D01*
X176878987Y-122228660D01*
X176795544Y-122098985D01*
X176668224Y-122011991D01*
X176548460Y-121987739D01*
X176548460Y-120437460D01*
X176481398Y-120100316D01*
X176290421Y-119814499D01*
X172612961Y-116137039D01*
X172327144Y-115946062D01*
X171990000Y-115879000D01*
X166113222Y-115879000D01*
X165804944Y-115850606D01*
X165766952Y-115849012D01*
X162851452Y-115872336D01*
X162022200Y-115872336D01*
X161881010Y-115898903D01*
X161751335Y-115982346D01*
X161664341Y-116109666D01*
X161633736Y-116260800D01*
X159645700Y-116260800D01*
X159645700Y-114430800D01*
X159602426Y-114213244D01*
X159590954Y-114196075D01*
X162151531Y-114196075D01*
X162213369Y-114431842D01*
X162714322Y-114608219D01*
X163244640Y-114579464D01*
X163601031Y-114431842D01*
X163662869Y-114196075D01*
X163580765Y-114113970D01*
X164800575Y-114113970D01*
X164880802Y-114365233D01*
X165436027Y-114566630D01*
X166026059Y-114540221D01*
X166448518Y-114365233D01*
X166528745Y-114113970D01*
X165664660Y-113249885D01*
X164800575Y-114113970D01*
X163580765Y-114113970D01*
X162907200Y-113440405D01*
X162151531Y-114196075D01*
X159590954Y-114196075D01*
X159479190Y-114028810D01*
X158970154Y-113519774D01*
X158988012Y-113476768D01*
X158988368Y-113067922D01*
X161559781Y-113067922D01*
X161588536Y-113598240D01*
X161736158Y-113954631D01*
X161971925Y-114016469D01*
X162727595Y-113260800D01*
X163086805Y-113260800D01*
X163842475Y-114016469D01*
X164078242Y-113954631D01*
X164231284Y-113519955D01*
X164369707Y-113854138D01*
X164620970Y-113934365D01*
X165485055Y-113070280D01*
X165844265Y-113070280D01*
X166708350Y-113934365D01*
X166951646Y-113856682D01*
X166951646Y-113940950D01*
X166978213Y-114082140D01*
X167061656Y-114211815D01*
X167188976Y-114298809D01*
X167340110Y-114329414D01*
X169039370Y-114329414D01*
X169180560Y-114302847D01*
X169310235Y-114219404D01*
X169382274Y-114113970D01*
X169800575Y-114113970D01*
X169880802Y-114365233D01*
X170436027Y-114566630D01*
X171026059Y-114540221D01*
X171448518Y-114365233D01*
X171528745Y-114113970D01*
X170664660Y-113249885D01*
X169800575Y-114113970D01*
X169382274Y-114113970D01*
X169397229Y-114092084D01*
X169427834Y-113940950D01*
X169427834Y-113872698D01*
X169620970Y-113934365D01*
X170485055Y-113070280D01*
X170844265Y-113070280D01*
X171708350Y-113934365D01*
X171954446Y-113855788D01*
X171954446Y-113930150D01*
X171981013Y-114071340D01*
X172064456Y-114201015D01*
X172191776Y-114288009D01*
X172342910Y-114318614D01*
X174042170Y-114318614D01*
X174183360Y-114292047D01*
X174313035Y-114208604D01*
X174385074Y-114103170D01*
X174803375Y-114103170D01*
X174883602Y-114354433D01*
X175438827Y-114555830D01*
X176028859Y-114529421D01*
X176451318Y-114354433D01*
X176531545Y-114103170D01*
X175667460Y-113239085D01*
X174803375Y-114103170D01*
X174385074Y-114103170D01*
X174400029Y-114081284D01*
X174430634Y-113930150D01*
X174430634Y-113861898D01*
X174623770Y-113923565D01*
X175487855Y-113059480D01*
X175847065Y-113059480D01*
X176711150Y-113923565D01*
X176864446Y-113874618D01*
X176864446Y-113930150D01*
X176891013Y-114071340D01*
X176974456Y-114201015D01*
X177101776Y-114288009D01*
X177252910Y-114318614D01*
X178952170Y-114318614D01*
X179093360Y-114292047D01*
X179223035Y-114208604D01*
X179295074Y-114103170D01*
X179793375Y-114103170D01*
X179873602Y-114354433D01*
X180428827Y-114555830D01*
X181018859Y-114529421D01*
X181441318Y-114354433D01*
X181521545Y-114103170D01*
X180657460Y-113239085D01*
X179793375Y-114103170D01*
X179295074Y-114103170D01*
X179310029Y-114081284D01*
X179340634Y-113930150D01*
X179340634Y-113790532D01*
X179362507Y-113843338D01*
X179613770Y-113923565D01*
X180477855Y-113059480D01*
X180837065Y-113059480D01*
X181701150Y-113923565D01*
X181884446Y-113865040D01*
X181884446Y-113930150D01*
X181911013Y-114071340D01*
X181994456Y-114201015D01*
X182121776Y-114288009D01*
X182272910Y-114318614D01*
X183972170Y-114318614D01*
X184113360Y-114292047D01*
X184243035Y-114208604D01*
X184330029Y-114081284D01*
X184360634Y-113930150D01*
X184360634Y-112230890D01*
X184334067Y-112089700D01*
X184250624Y-111960025D01*
X184123304Y-111873031D01*
X183972170Y-111842426D01*
X182272910Y-111842426D01*
X182131720Y-111868993D01*
X182002045Y-111952436D01*
X181915051Y-112079756D01*
X181884446Y-112230890D01*
X181884446Y-112253920D01*
X181701150Y-112195395D01*
X180837065Y-113059480D01*
X180477855Y-113059480D01*
X179613770Y-112195395D01*
X179362507Y-112275622D01*
X179340634Y-112335923D01*
X179340634Y-112230890D01*
X179314067Y-112089700D01*
X179266508Y-112015790D01*
X179793375Y-112015790D01*
X180657460Y-112879875D01*
X181521545Y-112015790D01*
X181441318Y-111764527D01*
X180886093Y-111563130D01*
X180296061Y-111589539D01*
X179873602Y-111764527D01*
X179793375Y-112015790D01*
X179266508Y-112015790D01*
X179230624Y-111960025D01*
X179103304Y-111873031D01*
X178952170Y-111842426D01*
X177252910Y-111842426D01*
X177111720Y-111868993D01*
X176982045Y-111952436D01*
X176895051Y-112079756D01*
X176864446Y-112230890D01*
X176864446Y-112244342D01*
X176711150Y-112195395D01*
X175847065Y-113059480D01*
X175487855Y-113059480D01*
X174623770Y-112195395D01*
X174430634Y-112257062D01*
X174430634Y-112230890D01*
X174404067Y-112089700D01*
X174356508Y-112015790D01*
X174803375Y-112015790D01*
X175667460Y-112879875D01*
X176531545Y-112015790D01*
X176451318Y-111764527D01*
X175896093Y-111563130D01*
X175306061Y-111589539D01*
X174883602Y-111764527D01*
X174803375Y-112015790D01*
X174356508Y-112015790D01*
X174320624Y-111960025D01*
X174193304Y-111873031D01*
X174042170Y-111842426D01*
X172342910Y-111842426D01*
X172201720Y-111868993D01*
X172072045Y-111952436D01*
X171985051Y-112079756D01*
X171954446Y-112230890D01*
X171954446Y-112284772D01*
X171708350Y-112206195D01*
X170844265Y-113070280D01*
X170485055Y-113070280D01*
X169620970Y-112206195D01*
X169427834Y-112267862D01*
X169427834Y-112241690D01*
X169401267Y-112100500D01*
X169353708Y-112026590D01*
X169800575Y-112026590D01*
X170664660Y-112890675D01*
X171528745Y-112026590D01*
X171448518Y-111775327D01*
X170893293Y-111573930D01*
X170303261Y-111600339D01*
X169880802Y-111775327D01*
X169800575Y-112026590D01*
X169353708Y-112026590D01*
X169317824Y-111970825D01*
X169190504Y-111883831D01*
X169039370Y-111853226D01*
X167340110Y-111853226D01*
X167198920Y-111879793D01*
X167069245Y-111963236D01*
X166982251Y-112090556D01*
X166951646Y-112241690D01*
X166951646Y-112283878D01*
X166708350Y-112206195D01*
X165844265Y-113070280D01*
X165485055Y-113070280D01*
X164620970Y-112206195D01*
X164369707Y-112286422D01*
X164179378Y-112811133D01*
X164078242Y-112566969D01*
X163842475Y-112505131D01*
X163086805Y-113260800D01*
X162727595Y-113260800D01*
X161971925Y-112505131D01*
X161736158Y-112566969D01*
X161559781Y-113067922D01*
X158988368Y-113067922D01*
X158988387Y-113046719D01*
X158824162Y-112649263D01*
X158520337Y-112344907D01*
X158473660Y-112325525D01*
X162151531Y-112325525D01*
X162907200Y-113081195D01*
X163662869Y-112325525D01*
X163601031Y-112089758D01*
X163421619Y-112026590D01*
X164800575Y-112026590D01*
X165664660Y-112890675D01*
X166528745Y-112026590D01*
X166448518Y-111775327D01*
X165893293Y-111573930D01*
X165303261Y-111600339D01*
X164880802Y-111775327D01*
X164800575Y-112026590D01*
X163421619Y-112026590D01*
X163100078Y-111913381D01*
X162569760Y-111942136D01*
X162213369Y-112089758D01*
X162151531Y-112325525D01*
X158473660Y-112325525D01*
X158123168Y-112179988D01*
X157693119Y-112179613D01*
X157295663Y-112343838D01*
X156991307Y-112647663D01*
X156972772Y-112692300D01*
X156115664Y-112692300D01*
X156115664Y-112610800D01*
X156089097Y-112469610D01*
X156005654Y-112339935D01*
X155878334Y-112252941D01*
X155727200Y-112222336D01*
X155645700Y-112222336D01*
X155645700Y-112027200D01*
X155602426Y-111809644D01*
X155479190Y-111625210D01*
X153568172Y-109714192D01*
X161116471Y-109714192D01*
X161326195Y-110221763D01*
X161714194Y-110610440D01*
X162221399Y-110821049D01*
X162770592Y-110821529D01*
X163278163Y-110611805D01*
X163666840Y-110223806D01*
X163877449Y-109716601D01*
X163877521Y-109633983D01*
X164608804Y-109633983D01*
X164780625Y-110049823D01*
X165098503Y-110368256D01*
X165514043Y-110540804D01*
X165963983Y-110541196D01*
X166379823Y-110369375D01*
X166698256Y-110051497D01*
X166870804Y-109635957D01*
X166871196Y-109186017D01*
X166699375Y-108770177D01*
X166554252Y-108624800D01*
X179012736Y-108624800D01*
X179012736Y-110656800D01*
X179039303Y-110797990D01*
X179122746Y-110927665D01*
X179250066Y-111014659D01*
X179401200Y-111045264D01*
X181433200Y-111045264D01*
X181574390Y-111018697D01*
X181704065Y-110935254D01*
X181791059Y-110807934D01*
X181821664Y-110656800D01*
X181821664Y-110434937D01*
X181969372Y-110655997D01*
X182422591Y-110958829D01*
X182957200Y-111065169D01*
X183491809Y-110958829D01*
X183945028Y-110655997D01*
X184247860Y-110202778D01*
X184354200Y-109668169D01*
X184354200Y-109613431D01*
X184247860Y-109078822D01*
X183945028Y-108625603D01*
X183491809Y-108322771D01*
X182957200Y-108216431D01*
X182422591Y-108322771D01*
X181969372Y-108625603D01*
X181821664Y-108846663D01*
X181821664Y-108624800D01*
X181795097Y-108483610D01*
X181711654Y-108353935D01*
X181584334Y-108266941D01*
X181433200Y-108236336D01*
X179401200Y-108236336D01*
X179260010Y-108262903D01*
X179130335Y-108346346D01*
X179043341Y-108473666D01*
X179012736Y-108624800D01*
X166554252Y-108624800D01*
X166381497Y-108451744D01*
X165965957Y-108279196D01*
X165516017Y-108278804D01*
X165100177Y-108450625D01*
X164781744Y-108768503D01*
X164609196Y-109184043D01*
X164608804Y-109633983D01*
X163877521Y-109633983D01*
X163877929Y-109167408D01*
X163668205Y-108659837D01*
X163280206Y-108271160D01*
X162773001Y-108060551D01*
X162223808Y-108060071D01*
X161716237Y-108269795D01*
X161327560Y-108657794D01*
X161116951Y-109164999D01*
X161116471Y-109714192D01*
X153568172Y-109714192D01*
X151293806Y-107439826D01*
X155649842Y-107439826D01*
X155652491Y-107455591D01*
X155906468Y-107982836D01*
X156342880Y-108372754D01*
X156895287Y-108565984D01*
X157130200Y-108421724D01*
X157130200Y-107207800D01*
X157384200Y-107207800D01*
X157384200Y-108421724D01*
X157619113Y-108565984D01*
X158171520Y-108372754D01*
X158607932Y-107982836D01*
X158861909Y-107455591D01*
X158864558Y-107439826D01*
X158743417Y-107207800D01*
X157384200Y-107207800D01*
X157130200Y-107207800D01*
X155770983Y-107207800D01*
X155649842Y-107439826D01*
X151293806Y-107439826D01*
X150575754Y-106721774D01*
X155649842Y-106721774D01*
X155770983Y-106953800D01*
X157130200Y-106953800D01*
X157130200Y-106933800D01*
X157384200Y-106933800D01*
X157384200Y-106953800D01*
X158743417Y-106953800D01*
X158864558Y-106721774D01*
X158861909Y-106706009D01*
X158607932Y-106178764D01*
X158422774Y-106013332D01*
X165774273Y-106013332D01*
X165872936Y-106280187D01*
X166482661Y-106506708D01*
X167132660Y-106482656D01*
X167621464Y-106280187D01*
X167720127Y-106013332D01*
X166747200Y-105040405D01*
X165774273Y-106013332D01*
X158422774Y-106013332D01*
X158171520Y-105788846D01*
X157898957Y-105693504D01*
X157913257Y-105690660D01*
X158317034Y-105420865D01*
X158586829Y-105017088D01*
X158670537Y-104596261D01*
X165101292Y-104596261D01*
X165125344Y-105246260D01*
X165327813Y-105735064D01*
X165594668Y-105833727D01*
X166567595Y-104860800D01*
X166926805Y-104860800D01*
X167899732Y-105833727D01*
X168077572Y-105767975D01*
X170419630Y-105767975D01*
X170542765Y-106055588D01*
X171224934Y-106315507D01*
X171954643Y-106294586D01*
X172531635Y-106055588D01*
X172654770Y-105767975D01*
X171537200Y-104650405D01*
X170419630Y-105767975D01*
X168077572Y-105767975D01*
X168166587Y-105735064D01*
X168393108Y-105125339D01*
X168369056Y-104475340D01*
X168237831Y-104158534D01*
X169692493Y-104158534D01*
X169713414Y-104888243D01*
X169952412Y-105465235D01*
X170240025Y-105588370D01*
X171357595Y-104470800D01*
X170240025Y-103353230D01*
X169952412Y-103476365D01*
X169692493Y-104158534D01*
X168237831Y-104158534D01*
X168166587Y-103986536D01*
X167899732Y-103887873D01*
X166926805Y-104860800D01*
X166567595Y-104860800D01*
X165594668Y-103887873D01*
X165327813Y-103986536D01*
X165101292Y-104596261D01*
X158670537Y-104596261D01*
X158681569Y-104540800D01*
X158586829Y-104064512D01*
X158317034Y-103660735D01*
X157913257Y-103390940D01*
X157436969Y-103296200D01*
X157077431Y-103296200D01*
X156601143Y-103390940D01*
X156197366Y-103660735D01*
X155927571Y-104064512D01*
X155832831Y-104540800D01*
X155927571Y-105017088D01*
X156197366Y-105420865D01*
X156601143Y-105690660D01*
X156615443Y-105693504D01*
X156342880Y-105788846D01*
X155906468Y-106178764D01*
X155652491Y-106706009D01*
X155649842Y-106721774D01*
X150575754Y-106721774D01*
X150571990Y-106718010D01*
X150387556Y-106594774D01*
X150170000Y-106551500D01*
X142110000Y-106551500D01*
X141892444Y-106594774D01*
X141708010Y-106718010D01*
X141041699Y-107384321D01*
X140677200Y-107311817D01*
X140200912Y-107406557D01*
X139797135Y-107676352D01*
X139572662Y-108012300D01*
X136975321Y-108012300D01*
X136846259Y-107883013D01*
X136596054Y-107779118D01*
X136325135Y-107778882D01*
X136074748Y-107882339D01*
X135883013Y-108073741D01*
X135779118Y-108323946D01*
X135778882Y-108594865D01*
X135882339Y-108845252D01*
X136073741Y-109036987D01*
X136323946Y-109140882D01*
X136539423Y-109141070D01*
X136580800Y-109149300D01*
X139572662Y-109149300D01*
X139797135Y-109485248D01*
X140200912Y-109755043D01*
X140677200Y-109849783D01*
X141153488Y-109755043D01*
X141557265Y-109485248D01*
X141827060Y-109081471D01*
X141921800Y-108605183D01*
X141921800Y-108556417D01*
X141848096Y-108185884D01*
X142295869Y-107738111D01*
X142067340Y-108080129D01*
X141972600Y-108556417D01*
X141972600Y-108605183D01*
X142067340Y-109081471D01*
X142337135Y-109485248D01*
X142740912Y-109755043D01*
X143217200Y-109849783D01*
X143693488Y-109755043D01*
X144097265Y-109485248D01*
X144367060Y-109081471D01*
X144461800Y-108605183D01*
X144461800Y-108556417D01*
X144367060Y-108080129D01*
X144105382Y-107688500D01*
X144869018Y-107688500D01*
X144607340Y-108080129D01*
X144512600Y-108556417D01*
X144512600Y-108605183D01*
X144607340Y-109081471D01*
X144877135Y-109485248D01*
X145280912Y-109755043D01*
X145757200Y-109849783D01*
X146233488Y-109755043D01*
X146637265Y-109485248D01*
X146907060Y-109081471D01*
X146907524Y-109079138D01*
X147090379Y-109469290D01*
X147522253Y-109863488D01*
X147783372Y-109971641D01*
X147417135Y-110216352D01*
X147147340Y-110620129D01*
X147052600Y-111096417D01*
X147052600Y-111145183D01*
X147147340Y-111621471D01*
X147417135Y-112025248D01*
X147820912Y-112295043D01*
X148297200Y-112389783D01*
X148437959Y-112361784D01*
X151857790Y-112361784D01*
X152577200Y-113081195D01*
X153296610Y-112361784D01*
X153240929Y-112131189D01*
X152758122Y-111963178D01*
X152247772Y-111992717D01*
X151913471Y-112131189D01*
X151857790Y-112361784D01*
X148437959Y-112361784D01*
X148773488Y-112295043D01*
X149177265Y-112025248D01*
X149447060Y-111621471D01*
X149541800Y-111145183D01*
X149541800Y-111096417D01*
X149447060Y-110620129D01*
X149177265Y-110216352D01*
X148811028Y-109971641D01*
X149072147Y-109863488D01*
X149504021Y-109469290D01*
X149752168Y-108939827D01*
X149631669Y-108707800D01*
X148424200Y-108707800D01*
X148424200Y-108727800D01*
X148170200Y-108727800D01*
X148170200Y-108707800D01*
X148150200Y-108707800D01*
X148150200Y-108453800D01*
X148170200Y-108453800D01*
X148170200Y-108433800D01*
X148424200Y-108433800D01*
X148424200Y-108453800D01*
X149631669Y-108453800D01*
X149752168Y-108221773D01*
X149504021Y-107692310D01*
X149499847Y-107688500D01*
X149934520Y-107688500D01*
X154468356Y-112222336D01*
X154427200Y-112222336D01*
X154286010Y-112248903D01*
X154156335Y-112332346D01*
X154069341Y-112459666D01*
X154038736Y-112610800D01*
X154038736Y-113910800D01*
X154065303Y-114051990D01*
X154148746Y-114181665D01*
X154276066Y-114268659D01*
X154427200Y-114299264D01*
X155727200Y-114299264D01*
X155868390Y-114272697D01*
X155998065Y-114189254D01*
X156085059Y-114061934D01*
X156115664Y-113910800D01*
X156115664Y-113829300D01*
X156972456Y-113829300D01*
X156990238Y-113872337D01*
X157294063Y-114176693D01*
X157691232Y-114341612D01*
X158121281Y-114341987D01*
X158165950Y-114323530D01*
X158508700Y-114666280D01*
X158508700Y-115463408D01*
X158463196Y-115433004D01*
X158430759Y-115392213D01*
X158302140Y-115312649D01*
X158152700Y-115289393D01*
X158122806Y-115290752D01*
X157967200Y-115259800D01*
X157957200Y-115259800D01*
X157620056Y-115326862D01*
X157604787Y-115337065D01*
X157562016Y-115348032D01*
X156501474Y-115869000D01*
X154810000Y-115869000D01*
X154656236Y-115901406D01*
X154532728Y-115988694D01*
X154452910Y-116117155D01*
X154429360Y-116266550D01*
X154433736Y-116367198D01*
X154433736Y-116629800D01*
X152245392Y-116629800D01*
X150630979Y-115015387D01*
X150631196Y-114766017D01*
X150459375Y-114350177D01*
X150269346Y-114159816D01*
X151857790Y-114159816D01*
X151913471Y-114390411D01*
X152396278Y-114558422D01*
X152906628Y-114528883D01*
X153240929Y-114390411D01*
X153296610Y-114159816D01*
X152577200Y-113440405D01*
X151857790Y-114159816D01*
X150269346Y-114159816D01*
X150141497Y-114031744D01*
X149725957Y-113859196D01*
X149276017Y-113858804D01*
X149140422Y-113914830D01*
X148305470Y-113079878D01*
X151279578Y-113079878D01*
X151309117Y-113590228D01*
X151447589Y-113924529D01*
X151678184Y-113980210D01*
X152397595Y-113260800D01*
X152756805Y-113260800D01*
X153476216Y-113980210D01*
X153706811Y-113924529D01*
X153874822Y-113441722D01*
X153845283Y-112931372D01*
X153706811Y-112597071D01*
X153476216Y-112541390D01*
X152756805Y-113260800D01*
X152397595Y-113260800D01*
X151678184Y-112541390D01*
X151447589Y-112597071D01*
X151279578Y-113079878D01*
X148305470Y-113079878D01*
X147677796Y-112452204D01*
X147513638Y-112342517D01*
X147320000Y-112304000D01*
X146188458Y-112304000D01*
X146233488Y-112295043D01*
X146637265Y-112025248D01*
X146907060Y-111621471D01*
X147001800Y-111145183D01*
X147001800Y-111096417D01*
X146907060Y-110620129D01*
X146637265Y-110216352D01*
X146233488Y-109946557D01*
X145757200Y-109851817D01*
X145280912Y-109946557D01*
X144877135Y-110216352D01*
X144607340Y-110620129D01*
X144512600Y-111096417D01*
X144512600Y-111145183D01*
X144607340Y-111621471D01*
X144877135Y-112025248D01*
X145280912Y-112295043D01*
X145325942Y-112304000D01*
X143648458Y-112304000D01*
X143693488Y-112295043D01*
X144097265Y-112025248D01*
X144367060Y-111621471D01*
X144461800Y-111145183D01*
X144461800Y-111096417D01*
X144367060Y-110620129D01*
X144097265Y-110216352D01*
X143693488Y-109946557D01*
X143217200Y-109851817D01*
X142740912Y-109946557D01*
X142337135Y-110216352D01*
X142067340Y-110620129D01*
X141972600Y-111096417D01*
X141972600Y-111145183D01*
X142067340Y-111621471D01*
X142337135Y-112025248D01*
X142740912Y-112295043D01*
X142785942Y-112304000D01*
X141072800Y-112304000D01*
X141381288Y-112176536D01*
X141731705Y-111826730D01*
X141921583Y-111369452D01*
X141922015Y-110874320D01*
X141732936Y-110416712D01*
X141383130Y-110066295D01*
X140925852Y-109876417D01*
X140430720Y-109875985D01*
X139973112Y-110065064D01*
X139622695Y-110414870D01*
X139432817Y-110872148D01*
X139432385Y-111367280D01*
X139621464Y-111824888D01*
X139971270Y-112175305D01*
X140281203Y-112304000D01*
X128520000Y-112304000D01*
X128326362Y-112342517D01*
X128162204Y-112452204D01*
X126729404Y-113885004D01*
X126619717Y-114049162D01*
X126613634Y-114079745D01*
X126440588Y-114151246D01*
X126118777Y-114472497D01*
X125944399Y-114892446D01*
X125944002Y-115347159D01*
X126117646Y-115767412D01*
X126438897Y-116089223D01*
X126858846Y-116263601D01*
X127313559Y-116263998D01*
X127733812Y-116090354D01*
X128055623Y-115769103D01*
X128230001Y-115349154D01*
X128230398Y-114894441D01*
X128056754Y-114474188D01*
X127814290Y-114231302D01*
X128729592Y-113316000D01*
X130078408Y-113316000D01*
X129416792Y-113977616D01*
X129400841Y-113977602D01*
X128980588Y-114151246D01*
X128658777Y-114472497D01*
X128484399Y-114892446D01*
X128484002Y-115347159D01*
X128657646Y-115767412D01*
X128978897Y-116089223D01*
X129398846Y-116263601D01*
X129853559Y-116263998D01*
X130273812Y-116090354D01*
X130595623Y-115769103D01*
X130770001Y-115349154D01*
X130770398Y-114894441D01*
X130596754Y-114474188D01*
X130474186Y-114351406D01*
X130779592Y-114046000D01*
X131775304Y-114046000D01*
X131520588Y-114151246D01*
X131198777Y-114472497D01*
X131024399Y-114892446D01*
X131024002Y-115347159D01*
X131197646Y-115767412D01*
X131518897Y-116089223D01*
X131938846Y-116263601D01*
X131970779Y-116263629D01*
X131498100Y-116736308D01*
X131498318Y-116485935D01*
X131394861Y-116235548D01*
X131203459Y-116043813D01*
X130953254Y-115939918D01*
X130682335Y-115939682D01*
X130431948Y-116043139D01*
X130240213Y-116234541D01*
X130136318Y-116484746D01*
X130136230Y-116586178D01*
X119677608Y-127044800D01*
X118708792Y-127044800D01*
X128451761Y-117301831D01*
X128552065Y-117301918D01*
X128802452Y-117198461D01*
X128994187Y-117007059D01*
X129098082Y-116756854D01*
X129098318Y-116485935D01*
X128994861Y-116235548D01*
X128803459Y-116043813D01*
X128553254Y-115939918D01*
X128282335Y-115939682D01*
X128031948Y-116043139D01*
X127840213Y-116234541D01*
X127736318Y-116484746D01*
X127736230Y-116586178D01*
X118037608Y-126284800D01*
X115417200Y-126284800D01*
X115223562Y-126323317D01*
X115059404Y-126433004D01*
X112216064Y-129276344D01*
X112075554Y-129217999D01*
X111620841Y-129217602D01*
X111200588Y-129391246D01*
X110878777Y-129712497D01*
X110704399Y-130132446D01*
X110704002Y-130587159D01*
X110877646Y-131007412D01*
X111198897Y-131329223D01*
X111618846Y-131503601D01*
X112073559Y-131503998D01*
X112493812Y-131330354D01*
X112815623Y-131009103D01*
X112990001Y-130589154D01*
X112990398Y-130134441D01*
X112931557Y-129992035D01*
X115626792Y-127296800D01*
X116045608Y-127296800D01*
X114099433Y-129242975D01*
X113740588Y-129391246D01*
X113418777Y-129712497D01*
X113244399Y-130132446D01*
X113244002Y-130587159D01*
X113417646Y-131007412D01*
X113738897Y-131329223D01*
X114158846Y-131503601D01*
X114613559Y-131503998D01*
X115033812Y-131330354D01*
X115355623Y-131009103D01*
X115530001Y-130589154D01*
X115530398Y-130134441D01*
X115356754Y-129714188D01*
X115208208Y-129565384D01*
X116716792Y-128056800D01*
X119887200Y-128056800D01*
X120080838Y-128018283D01*
X120244996Y-127908596D01*
X130851761Y-117301831D01*
X130932507Y-117301901D01*
X119109404Y-129125004D01*
X118999717Y-129289162D01*
X118993634Y-129319745D01*
X118820588Y-129391246D01*
X118498777Y-129712497D01*
X118324399Y-130132446D01*
X118324002Y-130587159D01*
X118497646Y-131007412D01*
X118693892Y-131204000D01*
X118289592Y-131204000D01*
X117954032Y-130868440D01*
X118070001Y-130589154D01*
X118070398Y-130134441D01*
X117896754Y-129714188D01*
X117575503Y-129392377D01*
X117155554Y-129217999D01*
X116700841Y-129217602D01*
X116280588Y-129391246D01*
X115958777Y-129712497D01*
X115784399Y-130132446D01*
X115784002Y-130587159D01*
X115957646Y-131007412D01*
X116278897Y-131329223D01*
X116698846Y-131503601D01*
X117153559Y-131503998D01*
X117156989Y-131502581D01*
X117714208Y-132059800D01*
X104802134Y-132059800D01*
X105943024Y-131588394D01*
X106951254Y-130581922D01*
X107497577Y-129266230D01*
X107498820Y-127841620D01*
X106954794Y-126524976D01*
X105948322Y-125516746D01*
X104632630Y-124970423D01*
X103208020Y-124969180D01*
X101891376Y-125513206D01*
X100883146Y-126519678D01*
X100438200Y-127591227D01*
X100438200Y-115347159D01*
X110704002Y-115347159D01*
X110877646Y-115767412D01*
X111198897Y-116089223D01*
X111618846Y-116263601D01*
X112073559Y-116263998D01*
X112468015Y-116101013D01*
X113586592Y-116101013D01*
X113656057Y-116343197D01*
X114179502Y-116529944D01*
X114734568Y-116502162D01*
X115118343Y-116343197D01*
X115187808Y-116101013D01*
X114387200Y-115300405D01*
X113586592Y-116101013D01*
X112468015Y-116101013D01*
X112493812Y-116090354D01*
X112815623Y-115769103D01*
X112990001Y-115349154D01*
X112990170Y-115155140D01*
X113005838Y-115468168D01*
X113164803Y-115851943D01*
X113406987Y-115921408D01*
X114207595Y-115120800D01*
X114566805Y-115120800D01*
X115367413Y-115921408D01*
X115609597Y-115851943D01*
X115787052Y-115354542D01*
X115957646Y-115767412D01*
X116278897Y-116089223D01*
X116698846Y-116263601D01*
X117153559Y-116263998D01*
X117573812Y-116090354D01*
X117895623Y-115769103D01*
X118070001Y-115349154D01*
X118070002Y-115347159D01*
X118324002Y-115347159D01*
X118497646Y-115767412D01*
X118818897Y-116089223D01*
X119238846Y-116263601D01*
X119693559Y-116263998D01*
X120113812Y-116090354D01*
X120435623Y-115769103D01*
X120610001Y-115349154D01*
X120610002Y-115347159D01*
X120864002Y-115347159D01*
X121037646Y-115767412D01*
X121358897Y-116089223D01*
X121778846Y-116263601D01*
X122233559Y-116263998D01*
X122653812Y-116090354D01*
X122975623Y-115769103D01*
X123150001Y-115349154D01*
X123150002Y-115347159D01*
X123404002Y-115347159D01*
X123577646Y-115767412D01*
X123898897Y-116089223D01*
X124318846Y-116263601D01*
X124773559Y-116263998D01*
X125193812Y-116090354D01*
X125515623Y-115769103D01*
X125690001Y-115349154D01*
X125690398Y-114894441D01*
X125516754Y-114474188D01*
X125195503Y-114152377D01*
X125053200Y-114093288D01*
X125053200Y-113320392D01*
X127223682Y-111149910D01*
X127234194Y-111160440D01*
X127741399Y-111371049D01*
X128290592Y-111371529D01*
X128798163Y-111161805D01*
X129186840Y-110773806D01*
X129397449Y-110266601D01*
X129397690Y-109990800D01*
X129868700Y-109990800D01*
X129876675Y-110030893D01*
X129876471Y-110264192D01*
X130086195Y-110771763D01*
X130474194Y-111160440D01*
X130981399Y-111371049D01*
X131530592Y-111371529D01*
X132038163Y-111161805D01*
X132426840Y-110773806D01*
X132637449Y-110266601D01*
X132637451Y-110264192D01*
X133116471Y-110264192D01*
X133326195Y-110771763D01*
X133714194Y-111160440D01*
X134221399Y-111371049D01*
X134770592Y-111371529D01*
X135278163Y-111161805D01*
X135666840Y-110773806D01*
X135877449Y-110266601D01*
X135877929Y-109717408D01*
X135668205Y-109209837D01*
X135280206Y-108821160D01*
X134773001Y-108610551D01*
X134223808Y-108610071D01*
X133716237Y-108819795D01*
X133327560Y-109207794D01*
X133116951Y-109714999D01*
X133116471Y-110264192D01*
X132637451Y-110264192D01*
X132637929Y-109717408D01*
X132428205Y-109209837D01*
X132040206Y-108821160D01*
X131533001Y-108610551D01*
X130983808Y-108610071D01*
X130476237Y-108819795D01*
X130087560Y-109207794D01*
X129876951Y-109714999D01*
X129876745Y-109950353D01*
X129868700Y-109990800D01*
X129397690Y-109990800D01*
X129397929Y-109717408D01*
X129188205Y-109209837D01*
X128800206Y-108821160D01*
X128293001Y-108610551D01*
X127743808Y-108610071D01*
X127236237Y-108819795D01*
X126847560Y-109207794D01*
X126636951Y-109714999D01*
X126636471Y-110264192D01*
X126648676Y-110293732D01*
X124189404Y-112753004D01*
X124079717Y-112917162D01*
X124041200Y-113110800D01*
X124041200Y-114093147D01*
X123900588Y-114151246D01*
X123578777Y-114472497D01*
X123404399Y-114892446D01*
X123404002Y-115347159D01*
X123150002Y-115347159D01*
X123150398Y-114894441D01*
X122976754Y-114474188D01*
X122655503Y-114152377D01*
X122235554Y-113977999D01*
X121780841Y-113977602D01*
X121360588Y-114151246D01*
X121038777Y-114472497D01*
X120864399Y-114892446D01*
X120864002Y-115347159D01*
X120610002Y-115347159D01*
X120610398Y-114894441D01*
X120436754Y-114474188D01*
X120115503Y-114152377D01*
X119695554Y-113977999D01*
X119240841Y-113977602D01*
X118820588Y-114151246D01*
X118498777Y-114472497D01*
X118324399Y-114892446D01*
X118324002Y-115347159D01*
X118070002Y-115347159D01*
X118070398Y-114894441D01*
X117896754Y-114474188D01*
X117575503Y-114152377D01*
X117155554Y-113977999D01*
X116700841Y-113977602D01*
X116280588Y-114151246D01*
X115958777Y-114472497D01*
X115784399Y-114892446D01*
X115784230Y-115086460D01*
X115768562Y-114773432D01*
X115609597Y-114389657D01*
X115367413Y-114320192D01*
X114566805Y-115120800D01*
X114207595Y-115120800D01*
X113406987Y-114320192D01*
X113164803Y-114389657D01*
X112987348Y-114887058D01*
X112816754Y-114474188D01*
X112495503Y-114152377D01*
X112467110Y-114140587D01*
X113586592Y-114140587D01*
X114387200Y-114941195D01*
X115187808Y-114140587D01*
X115118343Y-113898403D01*
X114594898Y-113711656D01*
X114039832Y-113739438D01*
X113656057Y-113898403D01*
X113586592Y-114140587D01*
X112467110Y-114140587D01*
X112075554Y-113977999D01*
X111620841Y-113977602D01*
X111200588Y-114151246D01*
X110878777Y-114472497D01*
X110704399Y-114892446D01*
X110704002Y-115347159D01*
X100438200Y-115347159D01*
X100438200Y-113620800D01*
X101522831Y-113620800D01*
X101629171Y-114155409D01*
X101932003Y-114608628D01*
X102385222Y-114911460D01*
X102919831Y-115017800D01*
X102974569Y-115017800D01*
X103509178Y-114911460D01*
X103962397Y-114608628D01*
X104265229Y-114155409D01*
X104371569Y-113620800D01*
X104294137Y-113231517D01*
X111058088Y-113231517D01*
X111126077Y-113472460D01*
X111645171Y-113657201D01*
X112195448Y-113629230D01*
X112573923Y-113472460D01*
X112641912Y-113231517D01*
X111850000Y-112439605D01*
X111058088Y-113231517D01*
X104294137Y-113231517D01*
X104265229Y-113086191D01*
X103962397Y-112632972D01*
X103536931Y-112348684D01*
X103737503Y-112265810D01*
X103948510Y-112055171D01*
X110452799Y-112055171D01*
X110480770Y-112605448D01*
X110637540Y-112983923D01*
X110878483Y-113051912D01*
X111670395Y-112260000D01*
X112029605Y-112260000D01*
X112821517Y-113051912D01*
X113062460Y-112983923D01*
X113240384Y-112483983D01*
X115838804Y-112483983D01*
X116010625Y-112899823D01*
X116328503Y-113218256D01*
X116744043Y-113390804D01*
X117193983Y-113391196D01*
X117609823Y-113219375D01*
X117928256Y-112901497D01*
X118100804Y-112485957D01*
X118101196Y-112036017D01*
X117929375Y-111620177D01*
X117611497Y-111301744D01*
X117195957Y-111129196D01*
X116746017Y-111128804D01*
X116330177Y-111300625D01*
X116011744Y-111618503D01*
X115839196Y-112034043D01*
X115838804Y-112483983D01*
X113240384Y-112483983D01*
X113247201Y-112464829D01*
X113219230Y-111914552D01*
X113062460Y-111536077D01*
X112821517Y-111468088D01*
X112029605Y-112260000D01*
X111670395Y-112260000D01*
X110878483Y-111468088D01*
X110637540Y-111536077D01*
X110452799Y-112055171D01*
X103948510Y-112055171D01*
X104130829Y-111873170D01*
X104343957Y-111359900D01*
X104344019Y-111288483D01*
X111058088Y-111288483D01*
X111850000Y-112080395D01*
X112641912Y-111288483D01*
X112573923Y-111047540D01*
X112054829Y-110862799D01*
X111504552Y-110890770D01*
X111126077Y-111047540D01*
X111058088Y-111288483D01*
X104344019Y-111288483D01*
X104344442Y-110804139D01*
X104132210Y-110290497D01*
X103832064Y-109989826D01*
X122409842Y-109989826D01*
X122412491Y-110005591D01*
X122666468Y-110532836D01*
X123102880Y-110922754D01*
X123655287Y-111115984D01*
X123890200Y-110971724D01*
X123890200Y-109757800D01*
X124144200Y-109757800D01*
X124144200Y-110971724D01*
X124379113Y-111115984D01*
X124931520Y-110922754D01*
X125367932Y-110532836D01*
X125621909Y-110005591D01*
X125624558Y-109989826D01*
X125503417Y-109757800D01*
X124144200Y-109757800D01*
X123890200Y-109757800D01*
X122530983Y-109757800D01*
X122409842Y-109989826D01*
X103832064Y-109989826D01*
X103739570Y-109897171D01*
X103226300Y-109684043D01*
X102670539Y-109683558D01*
X102156897Y-109895790D01*
X101763571Y-110288430D01*
X101550443Y-110801700D01*
X101549958Y-111357461D01*
X101762190Y-111871103D01*
X102154830Y-112264429D01*
X102357572Y-112348615D01*
X101932003Y-112632972D01*
X101629171Y-113086191D01*
X101522831Y-113620800D01*
X100438200Y-113620800D01*
X100438200Y-109271774D01*
X122409842Y-109271774D01*
X122530983Y-109503800D01*
X123890200Y-109503800D01*
X123890200Y-109483800D01*
X124144200Y-109483800D01*
X124144200Y-109503800D01*
X125503417Y-109503800D01*
X125624558Y-109271774D01*
X125621909Y-109256009D01*
X125367932Y-108728764D01*
X124931520Y-108338846D01*
X124658957Y-108243504D01*
X124673257Y-108240660D01*
X125077034Y-107970865D01*
X125346829Y-107567088D01*
X125441569Y-107090800D01*
X125346829Y-106614512D01*
X125077034Y-106210735D01*
X124781600Y-106013332D01*
X138054273Y-106013332D01*
X138152936Y-106280187D01*
X138762661Y-106506708D01*
X139412660Y-106482656D01*
X139901464Y-106280187D01*
X140000127Y-106013332D01*
X144034273Y-106013332D01*
X144132936Y-106280187D01*
X144742661Y-106506708D01*
X145392660Y-106482656D01*
X145881464Y-106280187D01*
X145980127Y-106013332D01*
X150014273Y-106013332D01*
X150112936Y-106280187D01*
X150722661Y-106506708D01*
X151372660Y-106482656D01*
X151861464Y-106280187D01*
X151960127Y-106013332D01*
X150987200Y-105040405D01*
X150014273Y-106013332D01*
X145980127Y-106013332D01*
X145007200Y-105040405D01*
X144034273Y-106013332D01*
X140000127Y-106013332D01*
X139027200Y-105040405D01*
X138054273Y-106013332D01*
X124781600Y-106013332D01*
X124673257Y-105940940D01*
X124196969Y-105846200D01*
X123837431Y-105846200D01*
X123361143Y-105940940D01*
X122957366Y-106210735D01*
X122687571Y-106614512D01*
X122592831Y-107090800D01*
X122687571Y-107567088D01*
X122957366Y-107970865D01*
X123361143Y-108240660D01*
X123375443Y-108243504D01*
X123102880Y-108338846D01*
X122666468Y-108728764D01*
X122412491Y-109256009D01*
X122409842Y-109271774D01*
X100438200Y-109271774D01*
X100438200Y-104754725D01*
X100959606Y-106016624D01*
X101966078Y-107024854D01*
X103281770Y-107571177D01*
X104706380Y-107572420D01*
X105003080Y-107449826D01*
X117409842Y-107449826D01*
X117412491Y-107465591D01*
X117666468Y-107992836D01*
X118102880Y-108382754D01*
X118655287Y-108575984D01*
X118890200Y-108431724D01*
X118890200Y-107217800D01*
X119144200Y-107217800D01*
X119144200Y-108431724D01*
X119379113Y-108575984D01*
X119931520Y-108382754D01*
X120367932Y-107992836D01*
X120621909Y-107465591D01*
X120624558Y-107449826D01*
X120503417Y-107217800D01*
X119144200Y-107217800D01*
X118890200Y-107217800D01*
X117530983Y-107217800D01*
X117409842Y-107449826D01*
X105003080Y-107449826D01*
X106023024Y-107028394D01*
X106320162Y-106731774D01*
X117409842Y-106731774D01*
X117530983Y-106963800D01*
X118890200Y-106963800D01*
X118890200Y-106943800D01*
X119144200Y-106943800D01*
X119144200Y-106963800D01*
X120503417Y-106963800D01*
X120624558Y-106731774D01*
X120621909Y-106716009D01*
X120367932Y-106188764D01*
X119931520Y-105798846D01*
X119658957Y-105703504D01*
X119673257Y-105700660D01*
X120077034Y-105430865D01*
X120346829Y-105027088D01*
X120441569Y-104550800D01*
X122592831Y-104550800D01*
X122687571Y-105027088D01*
X122957366Y-105430865D01*
X123361143Y-105700660D01*
X123837431Y-105795400D01*
X124196969Y-105795400D01*
X124673257Y-105700660D01*
X125077034Y-105430865D01*
X125346829Y-105027088D01*
X125432526Y-104596261D01*
X137381292Y-104596261D01*
X137405344Y-105246260D01*
X137607813Y-105735064D01*
X137874668Y-105833727D01*
X138847595Y-104860800D01*
X139206805Y-104860800D01*
X140179732Y-105833727D01*
X140446587Y-105735064D01*
X140673108Y-105125339D01*
X140653531Y-104596261D01*
X143361292Y-104596261D01*
X143385344Y-105246260D01*
X143587813Y-105735064D01*
X143854668Y-105833727D01*
X144827595Y-104860800D01*
X145186805Y-104860800D01*
X146159732Y-105833727D01*
X146426587Y-105735064D01*
X146653108Y-105125339D01*
X146633531Y-104596261D01*
X149341292Y-104596261D01*
X149365344Y-105246260D01*
X149567813Y-105735064D01*
X149834668Y-105833727D01*
X150807595Y-104860800D01*
X151166805Y-104860800D01*
X152139732Y-105833727D01*
X152406587Y-105735064D01*
X152633108Y-105125339D01*
X152609056Y-104475340D01*
X152406587Y-103986536D01*
X152139732Y-103887873D01*
X151166805Y-104860800D01*
X150807595Y-104860800D01*
X149834668Y-103887873D01*
X149567813Y-103986536D01*
X149341292Y-104596261D01*
X146633531Y-104596261D01*
X146629056Y-104475340D01*
X146426587Y-103986536D01*
X146159732Y-103887873D01*
X145186805Y-104860800D01*
X144827595Y-104860800D01*
X143854668Y-103887873D01*
X143587813Y-103986536D01*
X143361292Y-104596261D01*
X140653531Y-104596261D01*
X140649056Y-104475340D01*
X140446587Y-103986536D01*
X140179732Y-103887873D01*
X139206805Y-104860800D01*
X138847595Y-104860800D01*
X137874668Y-103887873D01*
X137607813Y-103986536D01*
X137381292Y-104596261D01*
X125432526Y-104596261D01*
X125441569Y-104550800D01*
X125346829Y-104074512D01*
X125077034Y-103670735D01*
X124673257Y-103400940D01*
X124196969Y-103306200D01*
X123837431Y-103306200D01*
X123361143Y-103400940D01*
X122957366Y-103670735D01*
X122687571Y-104074512D01*
X122592831Y-104550800D01*
X120441569Y-104550800D01*
X120346829Y-104074512D01*
X120077034Y-103670735D01*
X119673257Y-103400940D01*
X119196969Y-103306200D01*
X118837431Y-103306200D01*
X118361143Y-103400940D01*
X117957366Y-103670735D01*
X117687571Y-104074512D01*
X117592831Y-104550800D01*
X117687571Y-105027088D01*
X117957366Y-105430865D01*
X118361143Y-105700660D01*
X118375443Y-105703504D01*
X118102880Y-105798846D01*
X117666468Y-106188764D01*
X117412491Y-106716009D01*
X117409842Y-106731774D01*
X106320162Y-106731774D01*
X107031254Y-106021922D01*
X107136701Y-105767975D01*
X109359630Y-105767975D01*
X109482765Y-106055588D01*
X110164934Y-106315507D01*
X110894643Y-106294586D01*
X111471635Y-106055588D01*
X111594770Y-105767975D01*
X110477200Y-104650405D01*
X109359630Y-105767975D01*
X107136701Y-105767975D01*
X107577577Y-104706230D01*
X107578054Y-104158534D01*
X108632493Y-104158534D01*
X108653414Y-104888243D01*
X108892412Y-105465235D01*
X109180025Y-105588370D01*
X110297595Y-104470800D01*
X109180025Y-103353230D01*
X108892412Y-103476365D01*
X108632493Y-104158534D01*
X107578054Y-104158534D01*
X107578820Y-103281620D01*
X107534198Y-103173625D01*
X109359630Y-103173625D01*
X110477200Y-104291195D01*
X110491343Y-104277053D01*
X110670948Y-104456658D01*
X110656805Y-104470800D01*
X111774375Y-105588370D01*
X112061988Y-105465235D01*
X112321907Y-104783066D01*
X112300986Y-104053357D01*
X112066533Y-103487338D01*
X112155536Y-103354137D01*
X112155536Y-103576000D01*
X112182103Y-103717190D01*
X112265546Y-103846865D01*
X112388736Y-103931037D01*
X112388736Y-105670800D01*
X112415303Y-105811990D01*
X112498746Y-105941665D01*
X112626066Y-106028659D01*
X112777200Y-106059264D01*
X115177200Y-106059264D01*
X115318390Y-106032697D01*
X115448065Y-105949254D01*
X115535059Y-105821934D01*
X115565664Y-105670800D01*
X115565664Y-103270800D01*
X115539097Y-103129610D01*
X115455654Y-102999935D01*
X115328334Y-102912941D01*
X115177200Y-102882336D01*
X114964464Y-102882336D01*
X114964464Y-101544000D01*
X114937897Y-101402810D01*
X114854454Y-101273135D01*
X114727134Y-101186141D01*
X114576000Y-101155536D01*
X112544000Y-101155536D01*
X112402810Y-101182103D01*
X112273135Y-101265546D01*
X112186141Y-101392866D01*
X112155536Y-101544000D01*
X112155536Y-101765863D01*
X112007828Y-101544803D01*
X111554609Y-101241971D01*
X111078162Y-101147200D01*
X117612736Y-101147200D01*
X117612736Y-102874400D01*
X117639303Y-103015590D01*
X117722746Y-103145265D01*
X117850066Y-103232259D01*
X118001200Y-103262864D01*
X120033200Y-103262864D01*
X120174390Y-103236297D01*
X120304065Y-103152854D01*
X120391059Y-103025534D01*
X120421664Y-102874400D01*
X120421664Y-101147200D01*
X122612736Y-101147200D01*
X122612736Y-102874400D01*
X122639303Y-103015590D01*
X122722746Y-103145265D01*
X122850066Y-103232259D01*
X123001200Y-103262864D01*
X125033200Y-103262864D01*
X125174390Y-103236297D01*
X125304065Y-103152854D01*
X125391059Y-103025534D01*
X125421664Y-102874400D01*
X125421664Y-102644192D01*
X126636471Y-102644192D01*
X126846195Y-103151763D01*
X127234194Y-103540440D01*
X127741399Y-103751049D01*
X128290592Y-103751529D01*
X128798163Y-103541805D01*
X129186840Y-103153806D01*
X129397449Y-102646601D01*
X129397451Y-102644192D01*
X129876471Y-102644192D01*
X130086195Y-103151763D01*
X130474194Y-103540440D01*
X130981399Y-103751049D01*
X131530592Y-103751529D01*
X132038163Y-103541805D01*
X132426840Y-103153806D01*
X132637449Y-102646601D01*
X132637451Y-102644192D01*
X133116471Y-102644192D01*
X133326195Y-103151763D01*
X133714194Y-103540440D01*
X134221399Y-103751049D01*
X134770592Y-103751529D01*
X135278163Y-103541805D01*
X135666840Y-103153806D01*
X135877449Y-102646601D01*
X135877929Y-102097408D01*
X135668205Y-101589837D01*
X135399638Y-101320800D01*
X137638736Y-101320800D01*
X137638736Y-103320800D01*
X137665303Y-103461990D01*
X137748746Y-103591665D01*
X137876066Y-103678659D01*
X138027200Y-103709264D01*
X138055269Y-103709264D01*
X139027200Y-104681195D01*
X139999131Y-103709264D01*
X140027200Y-103709264D01*
X140168390Y-103682697D01*
X140298065Y-103599254D01*
X140385059Y-103471934D01*
X140415664Y-103320800D01*
X140415664Y-101320800D01*
X143618736Y-101320800D01*
X143618736Y-103320800D01*
X143645303Y-103461990D01*
X143728746Y-103591665D01*
X143856066Y-103678659D01*
X144007200Y-103709264D01*
X144035269Y-103709264D01*
X145007200Y-104681195D01*
X145979131Y-103709264D01*
X146007200Y-103709264D01*
X146148390Y-103682697D01*
X146278065Y-103599254D01*
X146365059Y-103471934D01*
X146395664Y-103320800D01*
X146395664Y-101320800D01*
X149598736Y-101320800D01*
X149598736Y-103320800D01*
X149625303Y-103461990D01*
X149708746Y-103591665D01*
X149836066Y-103678659D01*
X149987200Y-103709264D01*
X150015269Y-103709264D01*
X150987200Y-104681195D01*
X151959131Y-103709264D01*
X151987200Y-103709264D01*
X152128390Y-103682697D01*
X152258065Y-103599254D01*
X152345059Y-103471934D01*
X152375664Y-103320800D01*
X152375664Y-101320800D01*
X152349097Y-101179610D01*
X152321808Y-101137200D01*
X155852736Y-101137200D01*
X155852736Y-102864400D01*
X155879303Y-103005590D01*
X155962746Y-103135265D01*
X156090066Y-103222259D01*
X156241200Y-103252864D01*
X158273200Y-103252864D01*
X158414390Y-103226297D01*
X158544065Y-103142854D01*
X158631059Y-103015534D01*
X158661664Y-102864400D01*
X158661664Y-101137200D01*
X158635097Y-100996010D01*
X158551654Y-100866335D01*
X158424334Y-100779341D01*
X158273200Y-100748736D01*
X156241200Y-100748736D01*
X156100010Y-100775303D01*
X155970335Y-100858746D01*
X155883341Y-100986066D01*
X155852736Y-101137200D01*
X152321808Y-101137200D01*
X152265654Y-101049935D01*
X152138334Y-100962941D01*
X151987200Y-100932336D01*
X149987200Y-100932336D01*
X149846010Y-100958903D01*
X149716335Y-101042346D01*
X149629341Y-101169666D01*
X149598736Y-101320800D01*
X146395664Y-101320800D01*
X146369097Y-101179610D01*
X146285654Y-101049935D01*
X146158334Y-100962941D01*
X146007200Y-100932336D01*
X144007200Y-100932336D01*
X143866010Y-100958903D01*
X143736335Y-101042346D01*
X143649341Y-101169666D01*
X143618736Y-101320800D01*
X140415664Y-101320800D01*
X140389097Y-101179610D01*
X140305654Y-101049935D01*
X140178334Y-100962941D01*
X140027200Y-100932336D01*
X138027200Y-100932336D01*
X137886010Y-100958903D01*
X137756335Y-101042346D01*
X137669341Y-101169666D01*
X137638736Y-101320800D01*
X135399638Y-101320800D01*
X135280206Y-101201160D01*
X134773001Y-100990551D01*
X134223808Y-100990071D01*
X133716237Y-101199795D01*
X133327560Y-101587794D01*
X133116951Y-102094999D01*
X133116471Y-102644192D01*
X132637451Y-102644192D01*
X132637929Y-102097408D01*
X132428205Y-101589837D01*
X132040206Y-101201160D01*
X131533001Y-100990551D01*
X130983808Y-100990071D01*
X130476237Y-101199795D01*
X130087560Y-101587794D01*
X129876951Y-102094999D01*
X129876471Y-102644192D01*
X129397451Y-102644192D01*
X129397929Y-102097408D01*
X129188205Y-101589837D01*
X128800206Y-101201160D01*
X128293001Y-100990551D01*
X127743808Y-100990071D01*
X127236237Y-101199795D01*
X126847560Y-101587794D01*
X126636951Y-102094999D01*
X126636471Y-102644192D01*
X125421664Y-102644192D01*
X125421664Y-101147200D01*
X125395097Y-101006010D01*
X125311654Y-100876335D01*
X125184334Y-100789341D01*
X125033200Y-100758736D01*
X123001200Y-100758736D01*
X122860010Y-100785303D01*
X122730335Y-100868746D01*
X122643341Y-100996066D01*
X122612736Y-101147200D01*
X120421664Y-101147200D01*
X120395097Y-101006010D01*
X120311654Y-100876335D01*
X120184334Y-100789341D01*
X120033200Y-100758736D01*
X118001200Y-100758736D01*
X117860010Y-100785303D01*
X117730335Y-100868746D01*
X117643341Y-100996066D01*
X117612736Y-101147200D01*
X111078162Y-101147200D01*
X111020000Y-101135631D01*
X110485391Y-101241971D01*
X110032172Y-101544803D01*
X109729340Y-101998022D01*
X109623000Y-102532631D01*
X109623000Y-102587369D01*
X109667207Y-102809614D01*
X109482765Y-102886012D01*
X109359630Y-103173625D01*
X107534198Y-103173625D01*
X107034794Y-101964976D01*
X106028322Y-100956746D01*
X104812277Y-100451800D01*
X162195422Y-100451800D01*
X161716237Y-100649795D01*
G36*
X166232429Y-120357154D02*
X166283548Y-120963275D01*
X165598144Y-121073278D01*
X163799348Y-121122696D01*
X163772200Y-121117198D01*
X162163152Y-121117198D01*
X162140986Y-120304402D01*
X163772200Y-120304402D01*
X163864683Y-120287000D01*
X165434429Y-120287000D01*
X166232429Y-120357154D01*
X166232429Y-120357154D01*
G37*
X166232429Y-120357154D02*
X166283548Y-120963275D01*
X165598144Y-121073278D01*
X163799348Y-121122696D01*
X163772200Y-121117198D01*
X162163152Y-121117198D01*
X162140986Y-120304402D01*
X163772200Y-120304402D01*
X163864683Y-120287000D01*
X165434429Y-120287000D01*
X166232429Y-120357154D01*
G36*
X164531941Y-122896861D02*
X164811465Y-122975701D01*
X164803886Y-123453174D01*
X164642443Y-123600578D01*
X163748823Y-123743177D01*
X162173673Y-123770811D01*
X162150805Y-122894206D01*
X163772200Y-122894206D01*
X163789290Y-122890990D01*
X164531941Y-122896861D01*
X164531941Y-122896861D01*
G37*
X164531941Y-122896861D02*
X164811465Y-122975701D01*
X164803886Y-123453174D01*
X164642443Y-123600578D01*
X163748823Y-123743177D01*
X162173673Y-123770811D01*
X162150805Y-122894206D01*
X163772200Y-122894206D01*
X163789290Y-122890990D01*
X164531941Y-122896861D01*
G36*
X158275053Y-116103367D02*
X158089258Y-116460094D01*
X156662045Y-116595588D01*
X156572200Y-116577394D01*
X154951355Y-116577394D01*
X154942642Y-116377000D01*
X156590000Y-116377000D01*
X156645995Y-116363989D01*
X157762223Y-115815666D01*
X158098889Y-115800363D01*
X158275053Y-116103367D01*
X158275053Y-116103367D01*
G37*
X158275053Y-116103367D02*
X158089258Y-116460094D01*
X156662045Y-116595588D01*
X156572200Y-116577394D01*
X154951355Y-116577394D01*
X154942642Y-116377000D01*
X156590000Y-116377000D01*
X156645995Y-116363989D01*
X157762223Y-115815666D01*
X158098889Y-115800363D01*
X158275053Y-116103367D01*
G36*
X166048671Y-119006602D02*
X166424644Y-119198588D01*
X166431824Y-119536082D01*
X166192842Y-119760127D01*
X165717177Y-119733203D01*
X165704740Y-119733109D01*
X163777734Y-119812985D01*
X162157000Y-119803724D01*
X162157000Y-119004402D01*
X163772200Y-119004402D01*
X163897085Y-118980903D01*
X163900687Y-118978585D01*
X166048671Y-119006602D01*
X166048671Y-119006602D01*
G37*
X166048671Y-119006602D02*
X166424644Y-119198588D01*
X166431824Y-119536082D01*
X166192842Y-119760127D01*
X165717177Y-119733203D01*
X165704740Y-119733109D01*
X163777734Y-119812985D01*
X162157000Y-119803724D01*
X162157000Y-119004402D01*
X163772200Y-119004402D01*
X163897085Y-118980903D01*
X163900687Y-118978585D01*
X166048671Y-119006602D01*
M02*
