G04 #@! TF.FileFunction,Copper,L1,Top,Signal*
%FSLAX46Y46*%
G04 Gerber Fmt 4.6, Leading zero omitted, Abs format (unit mm)*
G04 Created by KiCad (PCBNEW 4.0.5) date Thursday, March 02, 2017 'AMt' 11:59:14 AM*
%MOMM*%
%LPD*%
G01*
G04 APERTURE LIST*
%ADD10C,0.100000*%
%ADD11C,1.524000*%
%ADD12C,6.400000*%
%ADD13C,1.727200*%
%ADD14O,1.727200X1.727200*%
%ADD15C,2.000000*%
%ADD16R,2.000000X2.000000*%
%ADD17C,1.400000*%
%ADD18R,1.300000X1.300000*%
%ADD19C,1.300000*%
%ADD20C,2.400000*%
%ADD21C,1.699260*%
%ADD22R,1.699260X1.699260*%
%ADD23R,2.400000X2.400000*%
%ADD24R,2.032000X1.727200*%
%ADD25O,2.032000X1.727200*%
%ADD26C,2.032000*%
%ADD27O,2.032000X2.032000*%
%ADD28R,2.032000X2.032000*%
%ADD29C,1.998980*%
%ADD30C,1.500000*%
%ADD31C,0.600000*%
%ADD32C,1.000000*%
%ADD33C,0.750000*%
%ADD34C,0.250000*%
%ADD35C,0.500000*%
%ADD36C,0.375000*%
G04 APERTURE END LIST*
D10*
D11*
X111847200Y-130360800D03*
X114387200Y-130360800D03*
X116927200Y-130360800D03*
X119467200Y-130360800D03*
X122007200Y-130360800D03*
X124547200Y-130360800D03*
X127087200Y-130360800D03*
X129627200Y-130360800D03*
X132167200Y-130360800D03*
X134707200Y-130360800D03*
X137247200Y-130360800D03*
X139787200Y-130360800D03*
X127087200Y-127820800D03*
X129627200Y-127820800D03*
X111847200Y-115120800D03*
X114387200Y-115120800D03*
X116927200Y-115120800D03*
X119467200Y-115120800D03*
X122007200Y-115120800D03*
X124547200Y-115120800D03*
X127087200Y-115120800D03*
X129627200Y-115120800D03*
X132167200Y-115120800D03*
X134707200Y-115120800D03*
X137247200Y-115120800D03*
X139787200Y-115120800D03*
X142327200Y-116390800D03*
X142327200Y-118930800D03*
X142327200Y-121470800D03*
X142327200Y-124010800D03*
X142327200Y-126550800D03*
X142327200Y-129090800D03*
D12*
X103997200Y-103990800D03*
D13*
X140677200Y-111120800D03*
D14*
X140677200Y-108580800D03*
X143217200Y-111120800D03*
X143217200Y-108580800D03*
X145757200Y-111120800D03*
X145757200Y-108580800D03*
X148297200Y-111120800D03*
X148297200Y-108580800D03*
D15*
X139027200Y-104860800D03*
D16*
X139027200Y-102320800D03*
D17*
X157907200Y-113260800D03*
X162907200Y-113260800D03*
D18*
X150740000Y-125000000D03*
D19*
X150740000Y-127500000D03*
D15*
X166747200Y-104860800D03*
D16*
X166747200Y-102320800D03*
D18*
X155077200Y-113260800D03*
D19*
X152577200Y-113260800D03*
D20*
X174517200Y-127990800D03*
X171017200Y-127990800D03*
D17*
X154987200Y-127100800D03*
X159987200Y-127100800D03*
D21*
X183122540Y-123240520D03*
D22*
X183122540Y-113080520D03*
D21*
X180657460Y-113059480D03*
D22*
X180657460Y-123219480D03*
D21*
X178102540Y-123240520D03*
D22*
X178102540Y-113080520D03*
D21*
X175667460Y-113059480D03*
D22*
X175667460Y-123219480D03*
D21*
X173192540Y-123240520D03*
D22*
X173192540Y-113080520D03*
D21*
X170664660Y-113070280D03*
D22*
X170664660Y-123230280D03*
D21*
X168189740Y-123251320D03*
D22*
X168189740Y-113091320D03*
D21*
X165664660Y-113070280D03*
D22*
X165664660Y-123230280D03*
D20*
X110477200Y-104470800D03*
D23*
X113977200Y-104470800D03*
D20*
X167007200Y-127990800D03*
X163507200Y-127990800D03*
X171537200Y-104470800D03*
D23*
X175037200Y-104470800D03*
D24*
X124017200Y-102010800D03*
D25*
X124017200Y-104550800D03*
X124017200Y-107090800D03*
X124017200Y-109630800D03*
D24*
X119017200Y-102010800D03*
D25*
X119017200Y-104550800D03*
X119017200Y-107090800D03*
D24*
X157257200Y-102000800D03*
D25*
X157257200Y-104540800D03*
X157257200Y-107080800D03*
D12*
X103917200Y-128550800D03*
X180897200Y-128390800D03*
X180897200Y-103990800D03*
D26*
X102947200Y-111080800D03*
D27*
X102947200Y-113620800D03*
D28*
X180417200Y-109640800D03*
D27*
X182957200Y-109640800D03*
D15*
X145007200Y-104860800D03*
D16*
X145007200Y-102320800D03*
D15*
X150987200Y-104860800D03*
D16*
X150987200Y-102320800D03*
D29*
X134497200Y-109990800D03*
X134497200Y-102370800D03*
X131257200Y-109990800D03*
X131257200Y-102370800D03*
X128017200Y-109990800D03*
X128017200Y-102370800D03*
X162497200Y-109440800D03*
X162497200Y-101820800D03*
D28*
X113560000Y-102560000D03*
D27*
X111020000Y-102560000D03*
D28*
X174430000Y-102640000D03*
D27*
X171890000Y-102640000D03*
D30*
X111850000Y-112260000D03*
X165740000Y-109410000D03*
X116970000Y-112260000D03*
X147840000Y-129570000D03*
X149500000Y-114990000D03*
D31*
X157977200Y-122880800D03*
X157977200Y-116150800D03*
X168560000Y-119380000D03*
X128417200Y-116620800D03*
X136460000Y-108460000D03*
X143560000Y-122760000D03*
X143520000Y-120280000D03*
X130817200Y-116620800D03*
X143600000Y-117650000D03*
D32*
X183122540Y-113080520D02*
X183122540Y-114017460D01*
X178102540Y-113972540D02*
X178102540Y-113080520D01*
X178850000Y-114720000D02*
X178102540Y-113972540D01*
X182420000Y-114720000D02*
X178850000Y-114720000D01*
X183122540Y-114017460D02*
X182420000Y-114720000D01*
X182957200Y-109640800D02*
X182957200Y-111237200D01*
X183122540Y-111402540D02*
X183122540Y-113080520D01*
X182957200Y-111237200D02*
X183122540Y-111402540D01*
X173192540Y-113080520D02*
X173192540Y-114022540D01*
X173192540Y-114022540D02*
X174000000Y-114830000D01*
X174000000Y-114830000D02*
X177380000Y-114830000D01*
X177380000Y-114830000D02*
X178102540Y-114107460D01*
X178102540Y-114107460D02*
X178102540Y-113080520D01*
X168189740Y-113091320D02*
X168189740Y-114099740D01*
X173189740Y-114090260D02*
X173189740Y-113091320D01*
X172390000Y-114890000D02*
X173189740Y-114090260D01*
X168980000Y-114890000D02*
X172390000Y-114890000D01*
X168189740Y-114099740D02*
X168980000Y-114890000D01*
X162497200Y-109440800D02*
X166440800Y-109440800D01*
X168189740Y-111189740D02*
X168189740Y-113091320D01*
X166440800Y-109440800D02*
X168189740Y-111189740D01*
X173189740Y-113923340D02*
X173189740Y-113091320D01*
X157977200Y-116150800D02*
X157977200Y-122880800D01*
X162497200Y-109440800D02*
X162497200Y-109500800D01*
X162497200Y-109500800D02*
X159957200Y-112040800D01*
X159957200Y-112040800D02*
X159957200Y-114170800D01*
X159957200Y-114170800D02*
X157977200Y-116150800D01*
X148297200Y-108580800D02*
X148297200Y-106607200D01*
X148297200Y-106607200D02*
X150043600Y-104860800D01*
X150043600Y-104860800D02*
X150987200Y-104860800D01*
X180657460Y-123219480D02*
X180657460Y-121517460D01*
X178520000Y-119380000D02*
X168560000Y-119380000D01*
X180657460Y-121517460D02*
X178520000Y-119380000D01*
X180657460Y-123219480D02*
X183101500Y-123219480D01*
X183101500Y-123219480D02*
X183122540Y-123240520D01*
X174517200Y-127990800D02*
X176630800Y-127990800D01*
X178700000Y-125140000D02*
X180620520Y-123219480D01*
X177970000Y-125140000D02*
X178700000Y-125140000D01*
X176590000Y-126520000D02*
X177970000Y-125140000D01*
X176590000Y-127950000D02*
X176590000Y-126520000D01*
X176630800Y-127990800D02*
X176590000Y-127950000D01*
X180620520Y-123219480D02*
X180657460Y-123219480D01*
X175667460Y-123219480D02*
X178081500Y-123219480D01*
X178081500Y-123219480D02*
X178102540Y-123240520D01*
X171017200Y-127990800D02*
X171017200Y-126802800D01*
X171017200Y-126802800D02*
X172600000Y-125220000D01*
X172600000Y-125220000D02*
X174570000Y-125220000D01*
X174570000Y-125220000D02*
X175667460Y-124122540D01*
X175667460Y-124122540D02*
X175667460Y-123219480D01*
X167007200Y-127990800D02*
X167007200Y-126440800D01*
X170664660Y-124383340D02*
X170664660Y-123230280D01*
X169767200Y-125280800D02*
X170664660Y-124383340D01*
X168167200Y-125280800D02*
X169767200Y-125280800D01*
X167007200Y-126440800D02*
X168167200Y-125280800D01*
X173189740Y-123251320D02*
X170685700Y-123251320D01*
D33*
X173168700Y-123230280D02*
X173189740Y-123251320D01*
D32*
X165664660Y-123230280D02*
X165664660Y-123873340D01*
X165664660Y-123873340D02*
X163507200Y-126030800D01*
X163507200Y-126030800D02*
X163507200Y-127990800D01*
X168189740Y-123251320D02*
X165685700Y-123251320D01*
X165685700Y-123251320D02*
X165707200Y-123272820D01*
D34*
X131237200Y-109990800D02*
X128417200Y-112810800D01*
X128417200Y-112810800D02*
X128417200Y-116620800D01*
X131257200Y-109990800D02*
X131237200Y-109990800D01*
D35*
X102947200Y-113620800D02*
X106007200Y-113620800D01*
X107507200Y-115120800D02*
X111847200Y-115120800D01*
X106007200Y-113620800D02*
X107507200Y-115120800D01*
D36*
X116970000Y-112260000D02*
X116970000Y-112623600D01*
X116970000Y-112623600D02*
X119467200Y-115120800D01*
X119017200Y-102010800D02*
X118289200Y-102010800D01*
X118289200Y-102010800D02*
X116970000Y-103330000D01*
X116970000Y-103330000D02*
X116970000Y-112260000D01*
X124017200Y-102010800D02*
X124530800Y-102010800D01*
X124530800Y-102010800D02*
X127690000Y-105170000D01*
X133170000Y-105170000D02*
X136460000Y-108460000D01*
X127690000Y-105170000D02*
X133170000Y-105170000D01*
D34*
X157257200Y-102000800D02*
X157967200Y-102000800D01*
X157967200Y-102000800D02*
X158947200Y-102980800D01*
X158947200Y-112220800D02*
X157907200Y-113260800D01*
X158947200Y-102980800D02*
X158947200Y-112220800D01*
D36*
X119017200Y-102010800D02*
X124017200Y-102010800D01*
D34*
X124017200Y-104800800D02*
X125817200Y-106600800D01*
X125817200Y-106600800D02*
X125817200Y-110530800D01*
X125817200Y-110530800D02*
X123327200Y-113020800D01*
X123327200Y-113020800D02*
X123327200Y-125890800D01*
X123327200Y-125890800D02*
X126547200Y-129110800D01*
X126547200Y-129110800D02*
X128377200Y-129110800D01*
X128377200Y-129110800D02*
X129627200Y-130360800D01*
X124017200Y-104550800D02*
X124017200Y-104800800D01*
X124017200Y-104550800D02*
X124017200Y-104730800D01*
X119117200Y-104550800D02*
X120757200Y-106190800D01*
X120757200Y-124030800D02*
X127087200Y-130360800D01*
X120757200Y-106190800D02*
X120757200Y-124030800D01*
X119017200Y-104550800D02*
X119117200Y-104550800D01*
X143560000Y-122760000D02*
X148060000Y-118260000D01*
X148060000Y-118260000D02*
X148060000Y-113738000D01*
X148060000Y-113738000D02*
X157257200Y-104540800D01*
X132167200Y-130360800D02*
X132167200Y-130517200D01*
X157257200Y-104540800D02*
X157147200Y-104540800D01*
X143520000Y-120280000D02*
X147410000Y-116390000D01*
X147410000Y-116390000D02*
X147410000Y-112008000D01*
X147410000Y-112008000D02*
X148297200Y-111120800D01*
X124547200Y-130360800D02*
X124547200Y-130500800D01*
X148250000Y-111180000D02*
X148297200Y-111120800D01*
X143217200Y-111120800D02*
X143217200Y-112600800D01*
X143217200Y-112600800D02*
X141037200Y-114780800D01*
X141037200Y-114780800D02*
X141037200Y-129110800D01*
X141037200Y-129110800D02*
X139787200Y-130360800D01*
X142890800Y-108580800D02*
X141460000Y-107150000D01*
X136260000Y-113568000D02*
X134707200Y-115120800D01*
X136260000Y-109970000D02*
X136260000Y-113568000D01*
X139080000Y-107150000D02*
X136260000Y-109970000D01*
X141460000Y-107150000D02*
X139080000Y-107150000D01*
X143217200Y-108580800D02*
X142890800Y-108580800D01*
X137247200Y-115120800D02*
X137247200Y-110970800D01*
X137247200Y-110970800D02*
X138417200Y-109800800D01*
X138417200Y-109800800D02*
X144367200Y-109800800D01*
X144367200Y-109800800D02*
X145587200Y-108580800D01*
X145587200Y-108580800D02*
X145757200Y-108580800D01*
X140677200Y-111120800D02*
X140677200Y-114230800D01*
X140677200Y-114230800D02*
X139787200Y-115120800D01*
X124017200Y-107090800D02*
X123837200Y-107090800D01*
X123837200Y-107090800D02*
X122007200Y-108920800D01*
X122007200Y-108920800D02*
X122007200Y-115120800D01*
X130817200Y-116620800D02*
X130897200Y-116540800D01*
X130897200Y-116540800D02*
X130897200Y-113590800D01*
X130897200Y-113590800D02*
X134497200Y-109990800D01*
X143600000Y-117650000D02*
X145757200Y-115492800D01*
X145757200Y-115492800D02*
X145757200Y-111120800D01*
X145757200Y-111120800D02*
X145669200Y-111120800D01*
D35*
X113977200Y-104470800D02*
X113977200Y-106292800D01*
X109189200Y-111080800D02*
X102947200Y-111080800D01*
X113977200Y-106292800D02*
X109189200Y-111080800D01*
X113977200Y-104470800D02*
X113977200Y-104300800D01*
D32*
X175037200Y-104470800D02*
X175037200Y-106647200D01*
X178030800Y-109640800D02*
X180417200Y-109640800D01*
X175037200Y-106647200D02*
X178030800Y-109640800D01*
X175037200Y-104470800D02*
X175117200Y-104470800D01*
D34*
X134497200Y-102370800D02*
X138977200Y-102370800D01*
X138977200Y-102370800D02*
X139027200Y-102320800D01*
X131257200Y-102370800D02*
X131907200Y-102370800D01*
X131907200Y-102370800D02*
X133447200Y-100830800D01*
X143517200Y-100830800D02*
X145007200Y-102320800D01*
X133447200Y-100830800D02*
X143517200Y-100830800D01*
D36*
X131257200Y-102370800D02*
X132097200Y-102370800D01*
D34*
X128017200Y-102810800D02*
X128947200Y-103740800D01*
X128947200Y-103740800D02*
X134867200Y-103740800D01*
X134867200Y-103740800D02*
X137657200Y-106530800D01*
X137657200Y-106530800D02*
X146607200Y-106530800D01*
X146607200Y-106530800D02*
X148477200Y-104660800D01*
X148477200Y-104660800D02*
X148477200Y-103290800D01*
X148477200Y-103290800D02*
X149447200Y-102320800D01*
X149447200Y-102320800D02*
X150987200Y-102320800D01*
X128017200Y-102370800D02*
X128017200Y-102810800D01*
D36*
X128017200Y-102370800D02*
X128637200Y-102370800D01*
D34*
X128697200Y-102080800D02*
X128877200Y-102080800D01*
X162497200Y-101820800D02*
X164077200Y-101820800D01*
X164577200Y-102320800D02*
X166747200Y-102320800D01*
X164077200Y-101820800D02*
X164577200Y-102320800D01*
M02*
