G04 #@! TF.FileFunction,Legend,Top*
%FSLAX46Y46*%
G04 Gerber Fmt 4.6, Leading zero omitted, Abs format (unit mm)*
G04 Created by KiCad (PCBNEW 4.0.5) date Thursday, March 02, 2017 'AMt' 11:59:14 AM*
%MOMM*%
%LPD*%
G01*
G04 APERTURE LIST*
%ADD10C,0.100000*%
%ADD11C,0.075000*%
%ADD12C,0.125000*%
%ADD13C,0.150000*%
%ADD14C,0.187500*%
%ADD15C,0.200000*%
%ADD16C,0.250000*%
%ADD17C,0.010000*%
G04 APERTURE END LIST*
D10*
D11*
X168302381Y-101556429D02*
X168797619Y-101556429D01*
X168550000Y-101804048D02*
X168550000Y-101308810D01*
X140522381Y-101556429D02*
X141017619Y-101556429D01*
X140770000Y-101804048D02*
X140770000Y-101308810D01*
X146522381Y-101556429D02*
X147017619Y-101556429D01*
X146770000Y-101804048D02*
X146770000Y-101308810D01*
X152512381Y-101556429D02*
X153007619Y-101556429D01*
X152760000Y-101804048D02*
X152760000Y-101308810D01*
D12*
X140436191Y-113386190D02*
X140269524Y-113148095D01*
X140150477Y-113386190D02*
X140150477Y-112886190D01*
X140340953Y-112886190D01*
X140388572Y-112910000D01*
X140412381Y-112933810D01*
X140436191Y-112981429D01*
X140436191Y-113052857D01*
X140412381Y-113100476D01*
X140388572Y-113124286D01*
X140340953Y-113148095D01*
X140150477Y-113148095D01*
X140626667Y-113362381D02*
X140698096Y-113386190D01*
X140817143Y-113386190D01*
X140864762Y-113362381D01*
X140888572Y-113338571D01*
X140912381Y-113290952D01*
X140912381Y-113243333D01*
X140888572Y-113195714D01*
X140864762Y-113171905D01*
X140817143Y-113148095D01*
X140721905Y-113124286D01*
X140674286Y-113100476D01*
X140650477Y-113076667D01*
X140626667Y-113029048D01*
X140626667Y-112981429D01*
X140650477Y-112933810D01*
X140674286Y-112910000D01*
X140721905Y-112886190D01*
X140840953Y-112886190D01*
X140912381Y-112910000D01*
X141055238Y-112886190D02*
X141340952Y-112886190D01*
X141198095Y-113386190D02*
X141198095Y-112886190D01*
X140464763Y-106706190D02*
X140226668Y-106706190D01*
X140202858Y-106944286D01*
X140226668Y-106920476D01*
X140274287Y-106896667D01*
X140393334Y-106896667D01*
X140440953Y-106920476D01*
X140464763Y-106944286D01*
X140488572Y-106991905D01*
X140488572Y-107110952D01*
X140464763Y-107158571D01*
X140440953Y-107182381D01*
X140393334Y-107206190D01*
X140274287Y-107206190D01*
X140226668Y-107182381D01*
X140202858Y-107158571D01*
X140631429Y-106706190D02*
X140798096Y-107206190D01*
X140964762Y-106706190D01*
X147869047Y-106790000D02*
X147821428Y-106766190D01*
X147750000Y-106766190D01*
X147678571Y-106790000D01*
X147630952Y-106837619D01*
X147607143Y-106885238D01*
X147583333Y-106980476D01*
X147583333Y-107051905D01*
X147607143Y-107147143D01*
X147630952Y-107194762D01*
X147678571Y-107242381D01*
X147750000Y-107266190D01*
X147797619Y-107266190D01*
X147869047Y-107242381D01*
X147892857Y-107218571D01*
X147892857Y-107051905D01*
X147797619Y-107051905D01*
X148107143Y-107266190D02*
X148107143Y-106766190D01*
X148392857Y-107266190D01*
X148392857Y-106766190D01*
X148630953Y-107266190D02*
X148630953Y-106766190D01*
X148750000Y-106766190D01*
X148821429Y-106790000D01*
X148869048Y-106837619D01*
X148892857Y-106885238D01*
X148916667Y-106980476D01*
X148916667Y-107051905D01*
X148892857Y-107147143D01*
X148869048Y-107194762D01*
X148821429Y-107242381D01*
X148750000Y-107266190D01*
X148630953Y-107266190D01*
D13*
X122511248Y-105242943D02*
X121861248Y-105242943D01*
X121861248Y-105088181D01*
X121892200Y-104995324D01*
X121954105Y-104933419D01*
X122016010Y-104902467D01*
X122139819Y-104871515D01*
X122232676Y-104871515D01*
X122356486Y-104902467D01*
X122418390Y-104933419D01*
X122480295Y-104995324D01*
X122511248Y-105088181D01*
X122511248Y-105242943D01*
X122511248Y-104592943D02*
X121861248Y-104592943D01*
X122480295Y-104314371D02*
X122511248Y-104221514D01*
X122511248Y-104066752D01*
X122480295Y-104004848D01*
X122449343Y-103973895D01*
X122387438Y-103942943D01*
X122325533Y-103942943D01*
X122263629Y-103973895D01*
X122232676Y-104004848D01*
X122201724Y-104066752D01*
X122170771Y-104190562D01*
X122139819Y-104252467D01*
X122108867Y-104283419D01*
X122046962Y-104314371D01*
X121985057Y-104314371D01*
X121923152Y-104283419D01*
X121892200Y-104252467D01*
X121861248Y-104190562D01*
X121861248Y-104035800D01*
X121892200Y-103942943D01*
X121861248Y-103757228D02*
X121861248Y-103385800D01*
X122511248Y-103571514D02*
X121861248Y-103571514D01*
D14*
X152630952Y-123591429D02*
X151869047Y-123591429D01*
X152249999Y-123972381D02*
X152249999Y-123210476D01*
D13*
X151007199Y-130031157D02*
X150935771Y-129995443D01*
X150792914Y-129995443D01*
X150721485Y-130031157D01*
X150650056Y-130102586D01*
X150614342Y-130174014D01*
X150614342Y-130316871D01*
X150650056Y-130388300D01*
X150721485Y-130459729D01*
X150792914Y-130495443D01*
X150935771Y-130495443D01*
X151007199Y-130459729D01*
X150864342Y-129745443D02*
X150685771Y-129781157D01*
X150507199Y-129888300D01*
X150400056Y-130066871D01*
X150364342Y-130245443D01*
X150400056Y-130424014D01*
X150507199Y-130602586D01*
X150685771Y-130709729D01*
X150864342Y-130745443D01*
X151042914Y-130709729D01*
X151221485Y-130602586D01*
X151328628Y-130424014D01*
X151364342Y-130245443D01*
X151328628Y-130066871D01*
X151221485Y-129888300D01*
X151042914Y-129781157D01*
X150864342Y-129745443D01*
X151650056Y-129924014D02*
X151685770Y-129888300D01*
X151757199Y-129852586D01*
X151935770Y-129852586D01*
X152007199Y-129888300D01*
X152042913Y-129924014D01*
X152078628Y-129995443D01*
X152078628Y-130066871D01*
X152042913Y-130174014D01*
X151614342Y-130602586D01*
X152078628Y-130602586D01*
X152542914Y-129852586D02*
X152614342Y-129852586D01*
X152685771Y-129888300D01*
X152721485Y-129924014D01*
X152757199Y-129995443D01*
X152792914Y-130138300D01*
X152792914Y-130316871D01*
X152757199Y-130459729D01*
X152721485Y-130531157D01*
X152685771Y-130566871D01*
X152614342Y-130602586D01*
X152542914Y-130602586D01*
X152471485Y-130566871D01*
X152435771Y-130531157D01*
X152400056Y-130459729D01*
X152364342Y-130316871D01*
X152364342Y-130138300D01*
X152400056Y-129995443D01*
X152435771Y-129924014D01*
X152471485Y-129888300D01*
X152542914Y-129852586D01*
X153507200Y-130602586D02*
X153078628Y-130602586D01*
X153292914Y-130602586D02*
X153292914Y-129852586D01*
X153221485Y-129959729D01*
X153150057Y-130031157D01*
X153078628Y-130066871D01*
X153757200Y-129852586D02*
X154257200Y-129852586D01*
X153935771Y-130602586D01*
X155042915Y-129852586D02*
X155221486Y-130602586D01*
X155364343Y-130066871D01*
X155507201Y-130602586D01*
X155685772Y-129852586D01*
X156221486Y-130209729D02*
X155971486Y-130209729D01*
X155971486Y-130602586D02*
X155971486Y-129852586D01*
X156328629Y-129852586D01*
X156614343Y-130602586D02*
X156614343Y-129852586D01*
X156900058Y-129852586D01*
X156971486Y-129888300D01*
X157007201Y-129924014D01*
X157042915Y-129995443D01*
X157042915Y-130102586D01*
X157007201Y-130174014D01*
X156971486Y-130209729D01*
X156900058Y-130245443D01*
X156614343Y-130245443D01*
X157721486Y-130602586D02*
X157364343Y-130602586D01*
X157364343Y-129852586D01*
X150328630Y-131806157D02*
X150292916Y-131841871D01*
X150185773Y-131877586D01*
X150114344Y-131877586D01*
X150007201Y-131841871D01*
X149935773Y-131770443D01*
X149900058Y-131699014D01*
X149864344Y-131556157D01*
X149864344Y-131449014D01*
X149900058Y-131306157D01*
X149935773Y-131234729D01*
X150007201Y-131163300D01*
X150114344Y-131127586D01*
X150185773Y-131127586D01*
X150292916Y-131163300D01*
X150328630Y-131199014D01*
X151078630Y-131806157D02*
X151042916Y-131841871D01*
X150935773Y-131877586D01*
X150864344Y-131877586D01*
X150757201Y-131841871D01*
X150685773Y-131770443D01*
X150650058Y-131699014D01*
X150614344Y-131556157D01*
X150614344Y-131449014D01*
X150650058Y-131306157D01*
X150685773Y-131234729D01*
X150757201Y-131163300D01*
X150864344Y-131127586D01*
X150935773Y-131127586D01*
X151042916Y-131163300D01*
X151078630Y-131199014D01*
X151400058Y-131591871D02*
X151971487Y-131591871D01*
X152578629Y-131484729D02*
X152685772Y-131520443D01*
X152721487Y-131556157D01*
X152757201Y-131627586D01*
X152757201Y-131734729D01*
X152721487Y-131806157D01*
X152685772Y-131841871D01*
X152614344Y-131877586D01*
X152328629Y-131877586D01*
X152328629Y-131127586D01*
X152578629Y-131127586D01*
X152650058Y-131163300D01*
X152685772Y-131199014D01*
X152721487Y-131270443D01*
X152721487Y-131341871D01*
X152685772Y-131413300D01*
X152650058Y-131449014D01*
X152578629Y-131484729D01*
X152328629Y-131484729D01*
X153221487Y-131520443D02*
X153221487Y-131877586D01*
X152971487Y-131127586D02*
X153221487Y-131520443D01*
X153471487Y-131127586D01*
X153721486Y-131591871D02*
X154292915Y-131591871D01*
X154650057Y-131877586D02*
X154650057Y-131127586D01*
X155078629Y-131877586D01*
X155078629Y-131127586D01*
X155864343Y-131806157D02*
X155828629Y-131841871D01*
X155721486Y-131877586D01*
X155650057Y-131877586D01*
X155542914Y-131841871D01*
X155471486Y-131770443D01*
X155435771Y-131699014D01*
X155400057Y-131556157D01*
X155400057Y-131449014D01*
X155435771Y-131306157D01*
X155471486Y-131234729D01*
X155542914Y-131163300D01*
X155650057Y-131127586D01*
X155721486Y-131127586D01*
X155828629Y-131163300D01*
X155864343Y-131199014D01*
X156185771Y-131591871D02*
X156757200Y-131591871D01*
X157078628Y-131841871D02*
X157185771Y-131877586D01*
X157364342Y-131877586D01*
X157435771Y-131841871D01*
X157471485Y-131806157D01*
X157507200Y-131734729D01*
X157507200Y-131663300D01*
X157471485Y-131591871D01*
X157435771Y-131556157D01*
X157364342Y-131520443D01*
X157221485Y-131484729D01*
X157150057Y-131449014D01*
X157114342Y-131413300D01*
X157078628Y-131341871D01*
X157078628Y-131270443D01*
X157114342Y-131199014D01*
X157150057Y-131163300D01*
X157221485Y-131127586D01*
X157400057Y-131127586D01*
X157507200Y-131163300D01*
X157792914Y-131663300D02*
X158150057Y-131663300D01*
X157721486Y-131877586D02*
X157971486Y-131127586D01*
X158221486Y-131877586D01*
D15*
X153044761Y-121942381D02*
X153044761Y-120942381D01*
X153044761Y-121418571D02*
X153616190Y-121418571D01*
X153616190Y-121942381D02*
X153616190Y-120942381D01*
X154520952Y-121942381D02*
X154520952Y-121418571D01*
X154473333Y-121323333D01*
X154378095Y-121275714D01*
X154187618Y-121275714D01*
X154092380Y-121323333D01*
X154520952Y-121894762D02*
X154425714Y-121942381D01*
X154187618Y-121942381D01*
X154092380Y-121894762D01*
X154044761Y-121799524D01*
X154044761Y-121704286D01*
X154092380Y-121609048D01*
X154187618Y-121561429D01*
X154425714Y-121561429D01*
X154520952Y-121513810D01*
X154854285Y-121275714D02*
X155235237Y-121275714D01*
X154997142Y-120942381D02*
X154997142Y-121799524D01*
X155044761Y-121894762D01*
X155139999Y-121942381D01*
X155235237Y-121942381D01*
X155997143Y-121894762D02*
X155901905Y-121942381D01*
X155711428Y-121942381D01*
X155616190Y-121894762D01*
X155568571Y-121847143D01*
X155520952Y-121751905D01*
X155520952Y-121466190D01*
X155568571Y-121370952D01*
X155616190Y-121323333D01*
X155711428Y-121275714D01*
X155901905Y-121275714D01*
X155997143Y-121323333D01*
X156425714Y-121942381D02*
X156425714Y-120942381D01*
X156854286Y-121942381D02*
X156854286Y-121418571D01*
X156806667Y-121323333D01*
X156711429Y-121275714D01*
X156568571Y-121275714D01*
X156473333Y-121323333D01*
X156425714Y-121370952D01*
X157663810Y-121418571D02*
X157806667Y-121466190D01*
X157854286Y-121513810D01*
X157901905Y-121609048D01*
X157901905Y-121751905D01*
X157854286Y-121847143D01*
X157806667Y-121894762D01*
X157711429Y-121942381D01*
X157330476Y-121942381D01*
X157330476Y-120942381D01*
X157663810Y-120942381D01*
X157759048Y-120990000D01*
X157806667Y-121037619D01*
X157854286Y-121132857D01*
X157854286Y-121228095D01*
X157806667Y-121323333D01*
X157759048Y-121370952D01*
X157663810Y-121418571D01*
X157330476Y-121418571D01*
X158473333Y-121942381D02*
X158378095Y-121894762D01*
X158330476Y-121847143D01*
X158282857Y-121751905D01*
X158282857Y-121466190D01*
X158330476Y-121370952D01*
X158378095Y-121323333D01*
X158473333Y-121275714D01*
X158616191Y-121275714D01*
X158711429Y-121323333D01*
X158759048Y-121370952D01*
X158806667Y-121466190D01*
X158806667Y-121751905D01*
X158759048Y-121847143D01*
X158711429Y-121894762D01*
X158616191Y-121942381D01*
X158473333Y-121942381D01*
X159092381Y-121275714D02*
X159473333Y-121275714D01*
X159235238Y-120942381D02*
X159235238Y-121799524D01*
X159282857Y-121894762D01*
X159378095Y-121942381D01*
X159473333Y-121942381D01*
X160473334Y-121275714D02*
X160711429Y-121942381D01*
X160949525Y-121275714D01*
X161282858Y-121037619D02*
X161330477Y-120990000D01*
X161425715Y-120942381D01*
X161663811Y-120942381D01*
X161759049Y-120990000D01*
X161806668Y-121037619D01*
X161854287Y-121132857D01*
X161854287Y-121228095D01*
X161806668Y-121370952D01*
X161235239Y-121942381D01*
X161854287Y-121942381D01*
X162282858Y-121847143D02*
X162330477Y-121894762D01*
X162282858Y-121942381D01*
X162235239Y-121894762D01*
X162282858Y-121847143D01*
X162282858Y-121942381D01*
X162949524Y-120942381D02*
X163044763Y-120942381D01*
X163140001Y-120990000D01*
X163187620Y-121037619D01*
X163235239Y-121132857D01*
X163282858Y-121323333D01*
X163282858Y-121561429D01*
X163235239Y-121751905D01*
X163187620Y-121847143D01*
X163140001Y-121894762D01*
X163044763Y-121942381D01*
X162949524Y-121942381D01*
X162854286Y-121894762D01*
X162806667Y-121847143D01*
X162759048Y-121751905D01*
X162711429Y-121561429D01*
X162711429Y-121323333D01*
X162759048Y-121132857D01*
X162806667Y-121037619D01*
X162854286Y-120990000D01*
X162949524Y-120942381D01*
D14*
X155350952Y-111871429D02*
X154589047Y-111871429D01*
X154969999Y-112252381D02*
X154969999Y-111490476D01*
D12*
X145566667Y-107156190D02*
X145400000Y-106918095D01*
X145280953Y-107156190D02*
X145280953Y-106656190D01*
X145471429Y-106656190D01*
X145519048Y-106680000D01*
X145542857Y-106703810D01*
X145566667Y-106751429D01*
X145566667Y-106822857D01*
X145542857Y-106870476D01*
X145519048Y-106894286D01*
X145471429Y-106918095D01*
X145280953Y-106918095D01*
X145733334Y-106656190D02*
X146066667Y-107156190D01*
X146066667Y-106656190D02*
X145733334Y-107156190D01*
X142779048Y-106676190D02*
X143064762Y-106676190D01*
X142921905Y-107176190D02*
X142921905Y-106676190D01*
X143183810Y-106676190D02*
X143517143Y-107176190D01*
X143517143Y-106676190D02*
X143183810Y-107176190D01*
X143002858Y-112903333D02*
X143240953Y-112903333D01*
X142955239Y-113046190D02*
X143121906Y-112546190D01*
X143288572Y-113046190D01*
X143693334Y-112546190D02*
X143455239Y-112546190D01*
X143431429Y-112784286D01*
X143455239Y-112760476D01*
X143502858Y-112736667D01*
X143621905Y-112736667D01*
X143669524Y-112760476D01*
X143693334Y-112784286D01*
X143717143Y-112831905D01*
X143717143Y-112950952D01*
X143693334Y-112998571D01*
X143669524Y-113022381D01*
X143621905Y-113046190D01*
X143502858Y-113046190D01*
X143455239Y-113022381D01*
X143431429Y-112998571D01*
X145432858Y-112873333D02*
X145670953Y-112873333D01*
X145385239Y-113016190D02*
X145551906Y-112516190D01*
X145718572Y-113016190D01*
X146099524Y-112516190D02*
X146004286Y-112516190D01*
X145956667Y-112540000D01*
X145932858Y-112563810D01*
X145885239Y-112635238D01*
X145861429Y-112730476D01*
X145861429Y-112920952D01*
X145885239Y-112968571D01*
X145909048Y-112992381D01*
X145956667Y-113016190D01*
X146051905Y-113016190D01*
X146099524Y-112992381D01*
X146123334Y-112968571D01*
X146147143Y-112920952D01*
X146147143Y-112801905D01*
X146123334Y-112754286D01*
X146099524Y-112730476D01*
X146051905Y-112706667D01*
X145956667Y-112706667D01*
X145909048Y-112730476D01*
X145885239Y-112754286D01*
X145861429Y-112801905D01*
X147550477Y-112963333D02*
X147788572Y-112963333D01*
X147502858Y-113106190D02*
X147669525Y-112606190D01*
X147836191Y-113106190D01*
X148288572Y-113106190D02*
X148121905Y-112868095D01*
X148002858Y-113106190D02*
X148002858Y-112606190D01*
X148193334Y-112606190D01*
X148240953Y-112630000D01*
X148264762Y-112653810D01*
X148288572Y-112701429D01*
X148288572Y-112772857D01*
X148264762Y-112820476D01*
X148240953Y-112844286D01*
X148193334Y-112868095D01*
X148002858Y-112868095D01*
X148502858Y-112844286D02*
X148669524Y-112844286D01*
X148740953Y-113106190D02*
X148502858Y-113106190D01*
X148502858Y-112606190D01*
X148740953Y-112606190D01*
X149121905Y-112844286D02*
X148955239Y-112844286D01*
X148955239Y-113106190D02*
X148955239Y-112606190D01*
X149193334Y-112606190D01*
D16*
X173959524Y-107922381D02*
X174578572Y-107922381D01*
X174245238Y-108303333D01*
X174388096Y-108303333D01*
X174483334Y-108350952D01*
X174530953Y-108398571D01*
X174578572Y-108493810D01*
X174578572Y-108731905D01*
X174530953Y-108827143D01*
X174483334Y-108874762D01*
X174388096Y-108922381D01*
X174102381Y-108922381D01*
X174007143Y-108874762D01*
X173959524Y-108827143D01*
X174911905Y-108255714D02*
X175150000Y-108922381D01*
X175388096Y-108255714D01*
X175673810Y-107922381D02*
X176292858Y-107922381D01*
X175959524Y-108303333D01*
X176102382Y-108303333D01*
X176197620Y-108350952D01*
X176245239Y-108398571D01*
X176292858Y-108493810D01*
X176292858Y-108731905D01*
X176245239Y-108827143D01*
X176197620Y-108874762D01*
X176102382Y-108922381D01*
X175816667Y-108922381D01*
X175721429Y-108874762D01*
X175673810Y-108827143D01*
X170398096Y-107970000D02*
X170302858Y-107922381D01*
X170160001Y-107922381D01*
X170017143Y-107970000D01*
X169921905Y-108065238D01*
X169874286Y-108160476D01*
X169826667Y-108350952D01*
X169826667Y-108493810D01*
X169874286Y-108684286D01*
X169921905Y-108779524D01*
X170017143Y-108874762D01*
X170160001Y-108922381D01*
X170255239Y-108922381D01*
X170398096Y-108874762D01*
X170445715Y-108827143D01*
X170445715Y-108493810D01*
X170255239Y-108493810D01*
X170874286Y-108922381D02*
X170874286Y-107922381D01*
X171445715Y-108922381D01*
X171445715Y-107922381D01*
X171921905Y-108922381D02*
X171921905Y-107922381D01*
X172160000Y-107922381D01*
X172302858Y-107970000D01*
X172398096Y-108065238D01*
X172445715Y-108160476D01*
X172493334Y-108350952D01*
X172493334Y-108493810D01*
X172445715Y-108684286D01*
X172398096Y-108779524D01*
X172302858Y-108874762D01*
X172160000Y-108922381D01*
X171921905Y-108922381D01*
X109615296Y-108010800D02*
X109520058Y-107963181D01*
X109377201Y-107963181D01*
X109234343Y-108010800D01*
X109139105Y-108106038D01*
X109091486Y-108201276D01*
X109043867Y-108391752D01*
X109043867Y-108534610D01*
X109091486Y-108725086D01*
X109139105Y-108820324D01*
X109234343Y-108915562D01*
X109377201Y-108963181D01*
X109472439Y-108963181D01*
X109615296Y-108915562D01*
X109662915Y-108867943D01*
X109662915Y-108534610D01*
X109472439Y-108534610D01*
X110091486Y-108963181D02*
X110091486Y-107963181D01*
X110662915Y-108963181D01*
X110662915Y-107963181D01*
X111139105Y-108963181D02*
X111139105Y-107963181D01*
X111377200Y-107963181D01*
X111520058Y-108010800D01*
X111615296Y-108106038D01*
X111662915Y-108201276D01*
X111710534Y-108391752D01*
X111710534Y-108534610D01*
X111662915Y-108725086D01*
X111615296Y-108820324D01*
X111520058Y-108915562D01*
X111377200Y-108963181D01*
X111139105Y-108963181D01*
X113709105Y-107963181D02*
X113518628Y-107963181D01*
X113423390Y-108010800D01*
X113375771Y-108058419D01*
X113280533Y-108201276D01*
X113232914Y-108391752D01*
X113232914Y-108772705D01*
X113280533Y-108867943D01*
X113328152Y-108915562D01*
X113423390Y-108963181D01*
X113613867Y-108963181D01*
X113709105Y-108915562D01*
X113756724Y-108867943D01*
X113804343Y-108772705D01*
X113804343Y-108534610D01*
X113756724Y-108439371D01*
X113709105Y-108391752D01*
X113613867Y-108344133D01*
X113423390Y-108344133D01*
X113328152Y-108391752D01*
X113280533Y-108439371D01*
X113232914Y-108534610D01*
X114090057Y-107963181D02*
X114423390Y-108963181D01*
X114756724Y-107963181D01*
D13*
X155102200Y-107726038D02*
X155071248Y-107787943D01*
X155071248Y-107880800D01*
X155102200Y-107973657D01*
X155164105Y-108035562D01*
X155226010Y-108066514D01*
X155349819Y-108097466D01*
X155442676Y-108097466D01*
X155566486Y-108066514D01*
X155628390Y-108035562D01*
X155690295Y-107973657D01*
X155721248Y-107880800D01*
X155721248Y-107818895D01*
X155690295Y-107726038D01*
X155659343Y-107695086D01*
X155442676Y-107695086D01*
X155442676Y-107818895D01*
X155721248Y-107416514D02*
X155071248Y-107416514D01*
X155721248Y-107045086D01*
X155071248Y-107045086D01*
X155721248Y-106735562D02*
X155071248Y-106735562D01*
X155071248Y-106580800D01*
X155102200Y-106487943D01*
X155164105Y-106426038D01*
X155226010Y-106395086D01*
X155349819Y-106364134D01*
X155442676Y-106364134D01*
X155566486Y-106395086D01*
X155628390Y-106426038D01*
X155690295Y-106487943D01*
X155721248Y-106580800D01*
X155721248Y-106735562D01*
X155721248Y-105387467D02*
X155411724Y-105604133D01*
X155721248Y-105758895D02*
X155071248Y-105758895D01*
X155071248Y-105511276D01*
X155102200Y-105449371D01*
X155133152Y-105418419D01*
X155195057Y-105387467D01*
X155287914Y-105387467D01*
X155349819Y-105418419D01*
X155380771Y-105449371D01*
X155411724Y-105511276D01*
X155411724Y-105758895D01*
X155721248Y-105108895D02*
X155071248Y-105108895D01*
X155102200Y-104458895D02*
X155071248Y-104520800D01*
X155071248Y-104613657D01*
X155102200Y-104706514D01*
X155164105Y-104768419D01*
X155226010Y-104799371D01*
X155349819Y-104830323D01*
X155442676Y-104830323D01*
X155566486Y-104799371D01*
X155628390Y-104768419D01*
X155690295Y-104706514D01*
X155721248Y-104613657D01*
X155721248Y-104551752D01*
X155690295Y-104458895D01*
X155659343Y-104427943D01*
X155442676Y-104427943D01*
X155442676Y-104551752D01*
X155721248Y-104149371D02*
X155071248Y-104149371D01*
X155380771Y-104149371D02*
X155380771Y-103777943D01*
X155721248Y-103777943D02*
X155071248Y-103777943D01*
X155071248Y-103561276D02*
X155071248Y-103189848D01*
X155721248Y-103375562D02*
X155071248Y-103375562D01*
X154891248Y-101184609D02*
X154891248Y-101494133D01*
X155200771Y-101525085D01*
X155169819Y-101494133D01*
X155138867Y-101432228D01*
X155138867Y-101277466D01*
X155169819Y-101215562D01*
X155200771Y-101184609D01*
X155262676Y-101153657D01*
X155417438Y-101153657D01*
X155479343Y-101184609D01*
X155510295Y-101215562D01*
X155541248Y-101277466D01*
X155541248Y-101432228D01*
X155510295Y-101494133D01*
X155479343Y-101525085D01*
X154891248Y-100967942D02*
X155541248Y-100751276D01*
X154891248Y-100534609D01*
X121571248Y-101194609D02*
X121571248Y-101504133D01*
X121880771Y-101535085D01*
X121849819Y-101504133D01*
X121818867Y-101442228D01*
X121818867Y-101287466D01*
X121849819Y-101225562D01*
X121880771Y-101194609D01*
X121942676Y-101163657D01*
X122097438Y-101163657D01*
X122159343Y-101194609D01*
X122190295Y-101225562D01*
X122221248Y-101287466D01*
X122221248Y-101442228D01*
X122190295Y-101504133D01*
X122159343Y-101535085D01*
X121571248Y-100977942D02*
X122221248Y-100761276D01*
X121571248Y-100544609D01*
X121861248Y-108111276D02*
X121861248Y-107739848D01*
X122511248Y-107925562D02*
X121861248Y-107925562D01*
X122511248Y-107151753D02*
X122201724Y-107368419D01*
X122511248Y-107523181D02*
X121861248Y-107523181D01*
X121861248Y-107275562D01*
X121892200Y-107213657D01*
X121923152Y-107182705D01*
X121985057Y-107151753D01*
X122077914Y-107151753D01*
X122139819Y-107182705D01*
X122170771Y-107213657D01*
X122201724Y-107275562D01*
X122201724Y-107523181D01*
X122511248Y-106873181D02*
X121861248Y-106873181D01*
X121892200Y-106223181D02*
X121861248Y-106285086D01*
X121861248Y-106377943D01*
X121892200Y-106470800D01*
X121954105Y-106532705D01*
X122016010Y-106563657D01*
X122139819Y-106594609D01*
X122232676Y-106594609D01*
X122356486Y-106563657D01*
X122418390Y-106532705D01*
X122480295Y-106470800D01*
X122511248Y-106377943D01*
X122511248Y-106316038D01*
X122480295Y-106223181D01*
X122449343Y-106192229D01*
X122232676Y-106192229D01*
X122232676Y-106316038D01*
X121892200Y-110266038D02*
X121861248Y-110327943D01*
X121861248Y-110420800D01*
X121892200Y-110513657D01*
X121954105Y-110575562D01*
X122016010Y-110606514D01*
X122139819Y-110637466D01*
X122232676Y-110637466D01*
X122356486Y-110606514D01*
X122418390Y-110575562D01*
X122480295Y-110513657D01*
X122511248Y-110420800D01*
X122511248Y-110358895D01*
X122480295Y-110266038D01*
X122449343Y-110235086D01*
X122232676Y-110235086D01*
X122232676Y-110358895D01*
X122511248Y-109956514D02*
X121861248Y-109956514D01*
X122511248Y-109585086D01*
X121861248Y-109585086D01*
X122511248Y-109275562D02*
X121861248Y-109275562D01*
X121861248Y-109120800D01*
X121892200Y-109027943D01*
X121954105Y-108966038D01*
X122016010Y-108935086D01*
X122139819Y-108904134D01*
X122232676Y-108904134D01*
X122356486Y-108935086D01*
X122418390Y-108966038D01*
X122480295Y-109027943D01*
X122511248Y-109120800D01*
X122511248Y-109275562D01*
X116892200Y-107586038D02*
X116861248Y-107647943D01*
X116861248Y-107740800D01*
X116892200Y-107833657D01*
X116954105Y-107895562D01*
X117016010Y-107926514D01*
X117139819Y-107957466D01*
X117232676Y-107957466D01*
X117356486Y-107926514D01*
X117418390Y-107895562D01*
X117480295Y-107833657D01*
X117511248Y-107740800D01*
X117511248Y-107678895D01*
X117480295Y-107586038D01*
X117449343Y-107555086D01*
X117232676Y-107555086D01*
X117232676Y-107678895D01*
X117511248Y-107276514D02*
X116861248Y-107276514D01*
X117511248Y-106905086D01*
X116861248Y-106905086D01*
X117511248Y-106595562D02*
X116861248Y-106595562D01*
X116861248Y-106440800D01*
X116892200Y-106347943D01*
X116954105Y-106286038D01*
X117016010Y-106255086D01*
X117139819Y-106224134D01*
X117232676Y-106224134D01*
X117356486Y-106255086D01*
X117418390Y-106286038D01*
X117480295Y-106347943D01*
X117511248Y-106440800D01*
X117511248Y-106595562D01*
X117511248Y-105089847D02*
X117511248Y-105399371D01*
X116861248Y-105399371D01*
X117170771Y-104873181D02*
X117170771Y-104656514D01*
X117511248Y-104563657D02*
X117511248Y-104873181D01*
X116861248Y-104873181D01*
X116861248Y-104563657D01*
X117170771Y-104068419D02*
X117170771Y-104285086D01*
X117511248Y-104285086D02*
X116861248Y-104285086D01*
X116861248Y-103975562D01*
X116861248Y-103820800D02*
X116861248Y-103449372D01*
X117511248Y-103635086D02*
X116861248Y-103635086D01*
X116591248Y-101254609D02*
X116591248Y-101564133D01*
X116900771Y-101595085D01*
X116869819Y-101564133D01*
X116838867Y-101502228D01*
X116838867Y-101347466D01*
X116869819Y-101285562D01*
X116900771Y-101254609D01*
X116962676Y-101223657D01*
X117117438Y-101223657D01*
X117179343Y-101254609D01*
X117210295Y-101285562D01*
X117241248Y-101347466D01*
X117241248Y-101502228D01*
X117210295Y-101564133D01*
X117179343Y-101595085D01*
X116591248Y-101037942D02*
X117241248Y-100821276D01*
X116591248Y-100604609D01*
X108037200Y-131630800D02*
X108037200Y-113850800D01*
X108037200Y-113850800D02*
X146137200Y-113850800D01*
X146137200Y-113850800D02*
X146137200Y-131630800D01*
X146137200Y-131630800D02*
X108037200Y-131630800D01*
X141947200Y-112390800D02*
X149567200Y-112390800D01*
X149567200Y-112390800D02*
X149567200Y-107310800D01*
X149567200Y-107310800D02*
X139407200Y-107310800D01*
X139407200Y-107310800D02*
X139407200Y-109850800D01*
X139127200Y-111120800D02*
X139127200Y-112670800D01*
X139407200Y-109850800D02*
X141947200Y-109850800D01*
X141947200Y-109850800D02*
X141947200Y-112390800D01*
X139127200Y-112670800D02*
X140677200Y-112670800D01*
X140341200Y-105059800D02*
X140141200Y-105059800D01*
X137747200Y-105059800D02*
X137927200Y-105059800D01*
X138057557Y-101832056D02*
G75*
G03X137741200Y-105059800I1003643J-1727744D01*
G01*
X137928132Y-102507794D02*
G75*
G03X137927200Y-104610800I1133068J-1052006D01*
G01*
X140367926Y-105047020D02*
G75*
G03X140021200Y-101809800I-1306726J1497220D01*
G01*
X140140453Y-104573689D02*
G75*
G03X140121200Y-102525800I-1079253J1013889D01*
G01*
X156657200Y-111010800D02*
X164157200Y-111010800D01*
X164157200Y-111010800D02*
X164157200Y-115510800D01*
X164157200Y-115510800D02*
X156657200Y-115510800D01*
X156657200Y-115510800D02*
X156657200Y-111010800D01*
X153239000Y-126325000D02*
X148241000Y-126325000D01*
X153231000Y-126465000D02*
X148249000Y-126465000D01*
X153215000Y-126605000D02*
X150835000Y-126605000D01*
X150645000Y-126605000D02*
X148265000Y-126605000D01*
X153191000Y-126745000D02*
X151230000Y-126745000D01*
X150250000Y-126745000D02*
X148289000Y-126745000D01*
X153158000Y-126885000D02*
X151397000Y-126885000D01*
X150083000Y-126885000D02*
X148322000Y-126885000D01*
X153117000Y-127025000D02*
X151504000Y-127025000D01*
X149976000Y-127025000D02*
X148363000Y-127025000D01*
X153067000Y-127165000D02*
X151575000Y-127165000D01*
X149905000Y-127165000D02*
X148413000Y-127165000D01*
X153006000Y-127305000D02*
X151619000Y-127305000D01*
X149861000Y-127305000D02*
X148474000Y-127305000D01*
X152936000Y-127445000D02*
X151638000Y-127445000D01*
X149842000Y-127445000D02*
X148544000Y-127445000D01*
X152854000Y-127585000D02*
X151636000Y-127585000D01*
X149844000Y-127585000D02*
X148626000Y-127585000D01*
X152759000Y-127725000D02*
X151611000Y-127725000D01*
X149869000Y-127725000D02*
X148721000Y-127725000D01*
X152648000Y-127865000D02*
X151563000Y-127865000D01*
X149917000Y-127865000D02*
X148832000Y-127865000D01*
X152520000Y-128005000D02*
X151485000Y-128005000D01*
X149995000Y-128005000D02*
X148960000Y-128005000D01*
X152371000Y-128145000D02*
X151368000Y-128145000D01*
X150112000Y-128145000D02*
X149109000Y-128145000D01*
X152192000Y-128285000D02*
X151180000Y-128285000D01*
X150300000Y-128285000D02*
X149288000Y-128285000D01*
X151973000Y-128425000D02*
X149507000Y-128425000D01*
X151684000Y-128565000D02*
X149796000Y-128565000D01*
X151212000Y-128705000D02*
X150268000Y-128705000D01*
X151640000Y-127500000D02*
G75*
G03X151640000Y-127500000I-900000J0D01*
G01*
X153277500Y-126250000D02*
G75*
G03X153277500Y-126250000I-2537500J0D01*
G01*
X168061200Y-105059800D02*
X167861200Y-105059800D01*
X165467200Y-105059800D02*
X165647200Y-105059800D01*
X165777557Y-101832056D02*
G75*
G03X165461200Y-105059800I1003643J-1727744D01*
G01*
X165648132Y-102507794D02*
G75*
G03X165647200Y-104610800I1133068J-1052006D01*
G01*
X168087926Y-105047020D02*
G75*
G03X167741200Y-101809800I-1306726J1497220D01*
G01*
X167860453Y-104573689D02*
G75*
G03X167841200Y-102525800I-1079253J1013889D01*
G01*
X153752200Y-115759800D02*
X153752200Y-110761800D01*
X153612200Y-115751800D02*
X153612200Y-110769800D01*
X153472200Y-115735800D02*
X153472200Y-113355800D01*
X153472200Y-113165800D02*
X153472200Y-110785800D01*
X153332200Y-115711800D02*
X153332200Y-113750800D01*
X153332200Y-112770800D02*
X153332200Y-110809800D01*
X153192200Y-115678800D02*
X153192200Y-113917800D01*
X153192200Y-112603800D02*
X153192200Y-110842800D01*
X153052200Y-115637800D02*
X153052200Y-114024800D01*
X153052200Y-112496800D02*
X153052200Y-110883800D01*
X152912200Y-115587800D02*
X152912200Y-114095800D01*
X152912200Y-112425800D02*
X152912200Y-110933800D01*
X152772200Y-115526800D02*
X152772200Y-114139800D01*
X152772200Y-112381800D02*
X152772200Y-110994800D01*
X152632200Y-115456800D02*
X152632200Y-114158800D01*
X152632200Y-112362800D02*
X152632200Y-111064800D01*
X152492200Y-115374800D02*
X152492200Y-114156800D01*
X152492200Y-112364800D02*
X152492200Y-111146800D01*
X152352200Y-115279800D02*
X152352200Y-114131800D01*
X152352200Y-112389800D02*
X152352200Y-111241800D01*
X152212200Y-115168800D02*
X152212200Y-114083800D01*
X152212200Y-112437800D02*
X152212200Y-111352800D01*
X152072200Y-115040800D02*
X152072200Y-114005800D01*
X152072200Y-112515800D02*
X152072200Y-111480800D01*
X151932200Y-114891800D02*
X151932200Y-113888800D01*
X151932200Y-112632800D02*
X151932200Y-111629800D01*
X151792200Y-114712800D02*
X151792200Y-113700800D01*
X151792200Y-112820800D02*
X151792200Y-111808800D01*
X151652200Y-114493800D02*
X151652200Y-112027800D01*
X151512200Y-114204800D02*
X151512200Y-112316800D01*
X151372200Y-113732800D02*
X151372200Y-112788800D01*
X153477200Y-113260800D02*
G75*
G03X153477200Y-113260800I-900000J0D01*
G01*
X156364700Y-113260800D02*
G75*
G03X156364700Y-113260800I-2537500J0D01*
G01*
X172767200Y-132090800D02*
X172767200Y-132490800D01*
X169267200Y-130990800D02*
X176267200Y-130990800D01*
X169267200Y-132090800D02*
X176267200Y-132090800D01*
X169267200Y-124890800D02*
X169267200Y-132490800D01*
X176267200Y-132490800D02*
X176267200Y-124890800D01*
X176267200Y-124890800D02*
X169267200Y-124890800D01*
X153737200Y-124850800D02*
X161237200Y-124850800D01*
X161237200Y-124850800D02*
X161237200Y-129350800D01*
X161237200Y-129350800D02*
X153737200Y-129350800D01*
X153737200Y-129350800D02*
X153737200Y-124850800D01*
X183122540Y-120446520D02*
X183122540Y-121843520D01*
X183122540Y-116001520D02*
X183122540Y-114477520D01*
X183884540Y-116382520D02*
X182360540Y-116382520D01*
X183884540Y-116128520D02*
X182360540Y-116128520D01*
X183122540Y-115874520D02*
X182360540Y-115874520D01*
X182360540Y-115874520D02*
X182360540Y-120446520D01*
X182360540Y-120446520D02*
X183884540Y-120446520D01*
X183884540Y-120446520D02*
X183884540Y-115874520D01*
X183884540Y-115874520D02*
X183122540Y-115874520D01*
X180657460Y-115853480D02*
X180657460Y-114456480D01*
X180657460Y-120298480D02*
X180657460Y-121822480D01*
X179895460Y-119917480D02*
X181419460Y-119917480D01*
X179895460Y-120171480D02*
X181419460Y-120171480D01*
X180657460Y-120425480D02*
X181419460Y-120425480D01*
X181419460Y-120425480D02*
X181419460Y-115853480D01*
X181419460Y-115853480D02*
X179895460Y-115853480D01*
X179895460Y-115853480D02*
X179895460Y-120425480D01*
X179895460Y-120425480D02*
X180657460Y-120425480D01*
X178102540Y-120446520D02*
X178102540Y-121843520D01*
X178102540Y-116001520D02*
X178102540Y-114477520D01*
X178864540Y-116382520D02*
X177340540Y-116382520D01*
X178864540Y-116128520D02*
X177340540Y-116128520D01*
X178102540Y-115874520D02*
X177340540Y-115874520D01*
X177340540Y-115874520D02*
X177340540Y-120446520D01*
X177340540Y-120446520D02*
X178864540Y-120446520D01*
X178864540Y-120446520D02*
X178864540Y-115874520D01*
X178864540Y-115874520D02*
X178102540Y-115874520D01*
X175667460Y-115853480D02*
X175667460Y-114456480D01*
X175667460Y-120298480D02*
X175667460Y-121822480D01*
X174905460Y-119917480D02*
X176429460Y-119917480D01*
X174905460Y-120171480D02*
X176429460Y-120171480D01*
X175667460Y-120425480D02*
X176429460Y-120425480D01*
X176429460Y-120425480D02*
X176429460Y-115853480D01*
X176429460Y-115853480D02*
X174905460Y-115853480D01*
X174905460Y-115853480D02*
X174905460Y-120425480D01*
X174905460Y-120425480D02*
X175667460Y-120425480D01*
X173192540Y-120446520D02*
X173192540Y-121843520D01*
X173192540Y-116001520D02*
X173192540Y-114477520D01*
X173954540Y-116382520D02*
X172430540Y-116382520D01*
X173954540Y-116128520D02*
X172430540Y-116128520D01*
X173192540Y-115874520D02*
X172430540Y-115874520D01*
X172430540Y-115874520D02*
X172430540Y-120446520D01*
X172430540Y-120446520D02*
X173954540Y-120446520D01*
X173954540Y-120446520D02*
X173954540Y-115874520D01*
X173954540Y-115874520D02*
X173192540Y-115874520D01*
X170664660Y-115864280D02*
X170664660Y-114467280D01*
X170664660Y-120309280D02*
X170664660Y-121833280D01*
X169902660Y-119928280D02*
X171426660Y-119928280D01*
X169902660Y-120182280D02*
X171426660Y-120182280D01*
X170664660Y-120436280D02*
X171426660Y-120436280D01*
X171426660Y-120436280D02*
X171426660Y-115864280D01*
X171426660Y-115864280D02*
X169902660Y-115864280D01*
X169902660Y-115864280D02*
X169902660Y-120436280D01*
X169902660Y-120436280D02*
X170664660Y-120436280D01*
X168189740Y-120457320D02*
X168189740Y-121854320D01*
X168189740Y-116012320D02*
X168189740Y-114488320D01*
X168951740Y-116393320D02*
X167427740Y-116393320D01*
X168951740Y-116139320D02*
X167427740Y-116139320D01*
X168189740Y-115885320D02*
X167427740Y-115885320D01*
X167427740Y-115885320D02*
X167427740Y-120457320D01*
X167427740Y-120457320D02*
X168951740Y-120457320D01*
X168951740Y-120457320D02*
X168951740Y-115885320D01*
X168951740Y-115885320D02*
X168189740Y-115885320D01*
X165664660Y-115864280D02*
X165664660Y-114467280D01*
X165664660Y-120309280D02*
X165664660Y-121833280D01*
X164902660Y-119928280D02*
X166426660Y-119928280D01*
X164902660Y-120182280D02*
X166426660Y-120182280D01*
X165664660Y-120436280D02*
X166426660Y-120436280D01*
X166426660Y-120436280D02*
X166426660Y-115864280D01*
X166426660Y-115864280D02*
X164902660Y-115864280D01*
X164902660Y-115864280D02*
X164902660Y-120436280D01*
X164902660Y-120436280D02*
X165664660Y-120436280D01*
X112227200Y-100370800D02*
X112227200Y-99970800D01*
X115727200Y-101470800D02*
X108727200Y-101470800D01*
X115727200Y-100370800D02*
X108727200Y-100370800D01*
X115727200Y-107570800D02*
X115727200Y-99970800D01*
X108727200Y-99970800D02*
X108727200Y-107570800D01*
X108727200Y-107570800D02*
X115727200Y-107570800D01*
X165257200Y-132090800D02*
X165257200Y-132490800D01*
X161757200Y-130990800D02*
X168757200Y-130990800D01*
X161757200Y-132090800D02*
X168757200Y-132090800D01*
X161757200Y-124890800D02*
X161757200Y-132490800D01*
X168757200Y-132490800D02*
X168757200Y-124890800D01*
X168757200Y-124890800D02*
X161757200Y-124890800D01*
X173287200Y-100370800D02*
X173287200Y-99970800D01*
X176787200Y-101470800D02*
X169787200Y-101470800D01*
X176787200Y-100370800D02*
X169787200Y-100370800D01*
X176787200Y-107570800D02*
X176787200Y-99970800D01*
X169787200Y-99970800D02*
X169787200Y-107570800D01*
X169787200Y-107570800D02*
X176787200Y-107570800D01*
X122747200Y-103280800D02*
X122747200Y-110900800D01*
X125287200Y-103280800D02*
X125287200Y-110900800D01*
X125567200Y-100460800D02*
X125567200Y-102010800D01*
X122747200Y-110900800D02*
X125287200Y-110900800D01*
X125287200Y-103280800D02*
X122747200Y-103280800D01*
X122467200Y-102010800D02*
X122467200Y-100460800D01*
X122467200Y-100460800D02*
X125567200Y-100460800D01*
X117747200Y-103280800D02*
X117747200Y-108360800D01*
X117747200Y-108360800D02*
X120287200Y-108360800D01*
X120287200Y-108360800D02*
X120287200Y-103280800D01*
X120567200Y-100460800D02*
X120567200Y-102010800D01*
X120287200Y-103280800D02*
X117747200Y-103280800D01*
X117467200Y-102010800D02*
X117467200Y-100460800D01*
X117467200Y-100460800D02*
X120567200Y-100460800D01*
X155987200Y-103270800D02*
X155987200Y-108350800D01*
X155987200Y-108350800D02*
X158527200Y-108350800D01*
X158527200Y-108350800D02*
X158527200Y-103270800D01*
X158807200Y-100450800D02*
X158807200Y-102000800D01*
X158527200Y-103270800D02*
X155987200Y-103270800D01*
X155707200Y-102000800D02*
X155707200Y-100450800D01*
X155707200Y-100450800D02*
X158807200Y-100450800D01*
X104217200Y-112350800D02*
X104217200Y-114890800D01*
X104497200Y-109530800D02*
X104497200Y-111080800D01*
X104217200Y-112350800D02*
X101677200Y-112350800D01*
X101397200Y-111080800D02*
X101397200Y-109530800D01*
X101397200Y-109530800D02*
X104497200Y-109530800D01*
X101677200Y-112350800D02*
X101677200Y-114890800D01*
X101677200Y-114890800D02*
X104217200Y-114890800D01*
X181687200Y-108370800D02*
X184227200Y-108370800D01*
X178867200Y-108090800D02*
X180417200Y-108090800D01*
X181687200Y-108370800D02*
X181687200Y-110910800D01*
X180417200Y-111190800D02*
X178867200Y-111190800D01*
X178867200Y-111190800D02*
X178867200Y-108090800D01*
X181687200Y-110910800D02*
X184227200Y-110910800D01*
X184227200Y-110910800D02*
X184227200Y-108370800D01*
X146321200Y-105059800D02*
X146121200Y-105059800D01*
X143727200Y-105059800D02*
X143907200Y-105059800D01*
X144037557Y-101832056D02*
G75*
G03X143721200Y-105059800I1003643J-1727744D01*
G01*
X143908132Y-102507794D02*
G75*
G03X143907200Y-104610800I1133068J-1052006D01*
G01*
X146347926Y-105047020D02*
G75*
G03X146001200Y-101809800I-1306726J1497220D01*
G01*
X146120453Y-104573689D02*
G75*
G03X146101200Y-102525800I-1079253J1013889D01*
G01*
X152301200Y-105059800D02*
X152101200Y-105059800D01*
X149707200Y-105059800D02*
X149887200Y-105059800D01*
X150017557Y-101832056D02*
G75*
G03X149701200Y-105059800I1003643J-1727744D01*
G01*
X149888132Y-102507794D02*
G75*
G03X149887200Y-104610800I1133068J-1052006D01*
G01*
X152327926Y-105047020D02*
G75*
G03X151981200Y-101809800I-1306726J1497220D01*
G01*
X152100453Y-104573689D02*
G75*
G03X152081200Y-102525800I-1079253J1013889D01*
G01*
X133227200Y-108720800D02*
X133227200Y-103640800D01*
X133227200Y-103640800D02*
X135767200Y-103640800D01*
X135767200Y-103640800D02*
X135767200Y-108720800D01*
X135767200Y-108720800D02*
X133227200Y-108720800D01*
X129987200Y-108720800D02*
X129987200Y-103640800D01*
X129987200Y-103640800D02*
X132527200Y-103640800D01*
X132527200Y-103640800D02*
X132527200Y-108720800D01*
X132527200Y-108720800D02*
X129987200Y-108720800D01*
X126747200Y-108720800D02*
X126747200Y-103640800D01*
X126747200Y-103640800D02*
X129287200Y-103640800D01*
X129287200Y-103640800D02*
X129287200Y-108720800D01*
X129287200Y-108720800D02*
X126747200Y-108720800D01*
X161227200Y-108170800D02*
X161227200Y-103090800D01*
X161227200Y-103090800D02*
X163767200Y-103090800D01*
X163767200Y-103090800D02*
X163767200Y-108170800D01*
X163767200Y-108170800D02*
X161227200Y-108170800D01*
X112290000Y-103830000D02*
X109750000Y-103830000D01*
X115110000Y-104110000D02*
X113560000Y-104110000D01*
X112290000Y-103830000D02*
X112290000Y-101290000D01*
X113560000Y-101010000D02*
X115110000Y-101010000D01*
X115110000Y-101010000D02*
X115110000Y-104110000D01*
X112290000Y-101290000D02*
X109750000Y-101290000D01*
X109750000Y-101290000D02*
X109750000Y-103830000D01*
X173160000Y-103910000D02*
X170620000Y-103910000D01*
X175980000Y-104190000D02*
X174430000Y-104190000D01*
X173160000Y-103910000D02*
X173160000Y-101370000D01*
X174430000Y-101090000D02*
X175980000Y-101090000D01*
X175980000Y-101090000D02*
X175980000Y-104190000D01*
X173160000Y-101370000D02*
X170620000Y-101370000D01*
X170620000Y-101370000D02*
X170620000Y-103910000D01*
D17*
G36*
X159048830Y-119323263D02*
X159083369Y-119364890D01*
X159109584Y-119401831D01*
X159148634Y-119454600D01*
X159180998Y-119488771D01*
X159194250Y-119496073D01*
X159219380Y-119481948D01*
X159263718Y-119445654D01*
X159310590Y-119401870D01*
X159405763Y-119308163D01*
X159512384Y-119413460D01*
X159568695Y-119467628D01*
X159604268Y-119495564D01*
X159627750Y-119501510D01*
X159647788Y-119489708D01*
X159654558Y-119483203D01*
X159677441Y-119463366D01*
X159692579Y-119465148D01*
X159705200Y-119494998D01*
X159720536Y-119559363D01*
X159722093Y-119566455D01*
X159744737Y-119620573D01*
X159784278Y-119679588D01*
X159793339Y-119690244D01*
X159868374Y-119744790D01*
X159961454Y-119769915D01*
X160057972Y-119763141D01*
X160109325Y-119743851D01*
X160161754Y-119699592D01*
X160211383Y-119630205D01*
X160248443Y-119552316D01*
X160263165Y-119482553D01*
X160263167Y-119481998D01*
X160271840Y-119443105D01*
X160284125Y-119430472D01*
X160313616Y-119428270D01*
X160374333Y-119428535D01*
X160456650Y-119430800D01*
X160550945Y-119434599D01*
X160647592Y-119439463D01*
X160736969Y-119444925D01*
X160809451Y-119450518D01*
X160855414Y-119455774D01*
X160866476Y-119458753D01*
X160868607Y-119485984D01*
X160858555Y-119542025D01*
X160839484Y-119616233D01*
X160814561Y-119697966D01*
X160786952Y-119776580D01*
X160759822Y-119841433D01*
X160743665Y-119871609D01*
X160659978Y-119977355D01*
X160550083Y-120078683D01*
X160429196Y-120162448D01*
X160372707Y-120192106D01*
X160313034Y-120217417D01*
X160256137Y-120234282D01*
X160190188Y-120244703D01*
X160103361Y-120250682D01*
X160009167Y-120253654D01*
X159885190Y-120254653D01*
X159791591Y-120250196D01*
X159716641Y-120239213D01*
X159649334Y-120220878D01*
X159550721Y-120185506D01*
X159476920Y-120150144D01*
X159411487Y-120105300D01*
X159337981Y-120041484D01*
X159337072Y-120040647D01*
X159209083Y-119900367D01*
X159115846Y-119744815D01*
X159083089Y-119666461D01*
X159059533Y-119591997D01*
X159039851Y-119510004D01*
X159025591Y-119430537D01*
X159018300Y-119363650D01*
X159019526Y-119319396D01*
X159027770Y-119307046D01*
X159048830Y-119323263D01*
X159048830Y-119323263D01*
G37*
X159048830Y-119323263D02*
X159083369Y-119364890D01*
X159109584Y-119401831D01*
X159148634Y-119454600D01*
X159180998Y-119488771D01*
X159194250Y-119496073D01*
X159219380Y-119481948D01*
X159263718Y-119445654D01*
X159310590Y-119401870D01*
X159405763Y-119308163D01*
X159512384Y-119413460D01*
X159568695Y-119467628D01*
X159604268Y-119495564D01*
X159627750Y-119501510D01*
X159647788Y-119489708D01*
X159654558Y-119483203D01*
X159677441Y-119463366D01*
X159692579Y-119465148D01*
X159705200Y-119494998D01*
X159720536Y-119559363D01*
X159722093Y-119566455D01*
X159744737Y-119620573D01*
X159784278Y-119679588D01*
X159793339Y-119690244D01*
X159868374Y-119744790D01*
X159961454Y-119769915D01*
X160057972Y-119763141D01*
X160109325Y-119743851D01*
X160161754Y-119699592D01*
X160211383Y-119630205D01*
X160248443Y-119552316D01*
X160263165Y-119482553D01*
X160263167Y-119481998D01*
X160271840Y-119443105D01*
X160284125Y-119430472D01*
X160313616Y-119428270D01*
X160374333Y-119428535D01*
X160456650Y-119430800D01*
X160550945Y-119434599D01*
X160647592Y-119439463D01*
X160736969Y-119444925D01*
X160809451Y-119450518D01*
X160855414Y-119455774D01*
X160866476Y-119458753D01*
X160868607Y-119485984D01*
X160858555Y-119542025D01*
X160839484Y-119616233D01*
X160814561Y-119697966D01*
X160786952Y-119776580D01*
X160759822Y-119841433D01*
X160743665Y-119871609D01*
X160659978Y-119977355D01*
X160550083Y-120078683D01*
X160429196Y-120162448D01*
X160372707Y-120192106D01*
X160313034Y-120217417D01*
X160256137Y-120234282D01*
X160190188Y-120244703D01*
X160103361Y-120250682D01*
X160009167Y-120253654D01*
X159885190Y-120254653D01*
X159791591Y-120250196D01*
X159716641Y-120239213D01*
X159649334Y-120220878D01*
X159550721Y-120185506D01*
X159476920Y-120150144D01*
X159411487Y-120105300D01*
X159337981Y-120041484D01*
X159337072Y-120040647D01*
X159209083Y-119900367D01*
X159115846Y-119744815D01*
X159083089Y-119666461D01*
X159059533Y-119591997D01*
X159039851Y-119510004D01*
X159025591Y-119430537D01*
X159018300Y-119363650D01*
X159019526Y-119319396D01*
X159027770Y-119307046D01*
X159048830Y-119323263D01*
G36*
X154000979Y-119299529D02*
X154121768Y-119419058D01*
X154389226Y-119195576D01*
X154460463Y-119280327D01*
X154531701Y-119365078D01*
X154686914Y-119309644D01*
X154842128Y-119254210D01*
X155002145Y-119333388D01*
X155162161Y-119412566D01*
X155220289Y-119306753D01*
X155260897Y-119243691D01*
X155295705Y-119210141D01*
X155310167Y-119206624D01*
X155320321Y-119213733D01*
X155328290Y-119234147D01*
X155334416Y-119272600D01*
X155339040Y-119333827D01*
X155342504Y-119422561D01*
X155345149Y-119543536D01*
X155347317Y-119701486D01*
X155347585Y-119725321D01*
X155353253Y-120238333D01*
X154675167Y-120238333D01*
X154675167Y-119412833D01*
X154188334Y-119412833D01*
X154188334Y-120238333D01*
X153532167Y-120238333D01*
X153532167Y-119180000D01*
X153880189Y-119180000D01*
X154000979Y-119299529D01*
X154000979Y-119299529D01*
G37*
X154000979Y-119299529D02*
X154121768Y-119419058D01*
X154389226Y-119195576D01*
X154460463Y-119280327D01*
X154531701Y-119365078D01*
X154686914Y-119309644D01*
X154842128Y-119254210D01*
X155002145Y-119333388D01*
X155162161Y-119412566D01*
X155220289Y-119306753D01*
X155260897Y-119243691D01*
X155295705Y-119210141D01*
X155310167Y-119206624D01*
X155320321Y-119213733D01*
X155328290Y-119234147D01*
X155334416Y-119272600D01*
X155339040Y-119333827D01*
X155342504Y-119422561D01*
X155345149Y-119543536D01*
X155347317Y-119701486D01*
X155347585Y-119725321D01*
X155353253Y-120238333D01*
X154675167Y-120238333D01*
X154675167Y-119412833D01*
X154188334Y-119412833D01*
X154188334Y-120238333D01*
X153532167Y-120238333D01*
X153532167Y-119180000D01*
X153880189Y-119180000D01*
X154000979Y-119299529D01*
G36*
X157151128Y-119252451D02*
X157173202Y-119303477D01*
X157197759Y-119320217D01*
X157214776Y-119317707D01*
X157233536Y-119317674D01*
X157251137Y-119334744D01*
X157270827Y-119375223D01*
X157295857Y-119445420D01*
X157320679Y-119523263D01*
X157358685Y-119644411D01*
X157402508Y-119782754D01*
X157444834Y-119915245D01*
X157460565Y-119964097D01*
X157489753Y-120056642D01*
X157513271Y-120135392D01*
X157528408Y-120191000D01*
X157532667Y-120212806D01*
X157520390Y-120223144D01*
X157480880Y-120230544D01*
X157410119Y-120235314D01*
X157304088Y-120237760D01*
X157199292Y-120238253D01*
X156865917Y-120238174D01*
X156744563Y-119815000D01*
X156188309Y-119815000D01*
X156127182Y-120026667D01*
X156066055Y-120238333D01*
X155791680Y-120238333D01*
X155679634Y-120237916D01*
X155603611Y-120236064D01*
X155557302Y-120231881D01*
X155534400Y-120224467D01*
X155528596Y-120212925D01*
X155531564Y-120201292D01*
X155541691Y-120170897D01*
X155562131Y-120106351D01*
X155590907Y-120014011D01*
X155626044Y-119900237D01*
X155665563Y-119771386D01*
X155684559Y-119709167D01*
X155724925Y-119577277D01*
X155761371Y-119459184D01*
X155792036Y-119360839D01*
X155815057Y-119288195D01*
X155828573Y-119247203D01*
X155831159Y-119240481D01*
X155854016Y-119238289D01*
X155904286Y-119247252D01*
X155946373Y-119258347D01*
X156006779Y-119272948D01*
X156061664Y-119276432D01*
X156122370Y-119267193D01*
X156200238Y-119243626D01*
X156293276Y-119209259D01*
X156317804Y-119204099D01*
X156324833Y-119221255D01*
X156317966Y-119269987D01*
X156317621Y-119271835D01*
X156303082Y-119349333D01*
X156473374Y-119349333D01*
X156559088Y-119346823D01*
X156618159Y-119339907D01*
X156643276Y-119329508D01*
X156643667Y-119327868D01*
X156658221Y-119301643D01*
X156694741Y-119261454D01*
X156711802Y-119245525D01*
X156779937Y-119184646D01*
X156889033Y-119277850D01*
X156998130Y-119371054D01*
X157061864Y-119273075D01*
X157125599Y-119175096D01*
X157151128Y-119252451D01*
X157151128Y-119252451D01*
G37*
X157151128Y-119252451D02*
X157173202Y-119303477D01*
X157197759Y-119320217D01*
X157214776Y-119317707D01*
X157233536Y-119317674D01*
X157251137Y-119334744D01*
X157270827Y-119375223D01*
X157295857Y-119445420D01*
X157320679Y-119523263D01*
X157358685Y-119644411D01*
X157402508Y-119782754D01*
X157444834Y-119915245D01*
X157460565Y-119964097D01*
X157489753Y-120056642D01*
X157513271Y-120135392D01*
X157528408Y-120191000D01*
X157532667Y-120212806D01*
X157520390Y-120223144D01*
X157480880Y-120230544D01*
X157410119Y-120235314D01*
X157304088Y-120237760D01*
X157199292Y-120238253D01*
X156865917Y-120238174D01*
X156744563Y-119815000D01*
X156188309Y-119815000D01*
X156127182Y-120026667D01*
X156066055Y-120238333D01*
X155791680Y-120238333D01*
X155679634Y-120237916D01*
X155603611Y-120236064D01*
X155557302Y-120231881D01*
X155534400Y-120224467D01*
X155528596Y-120212925D01*
X155531564Y-120201292D01*
X155541691Y-120170897D01*
X155562131Y-120106351D01*
X155590907Y-120014011D01*
X155626044Y-119900237D01*
X155665563Y-119771386D01*
X155684559Y-119709167D01*
X155724925Y-119577277D01*
X155761371Y-119459184D01*
X155792036Y-119360839D01*
X155815057Y-119288195D01*
X155828573Y-119247203D01*
X155831159Y-119240481D01*
X155854016Y-119238289D01*
X155904286Y-119247252D01*
X155946373Y-119258347D01*
X156006779Y-119272948D01*
X156061664Y-119276432D01*
X156122370Y-119267193D01*
X156200238Y-119243626D01*
X156293276Y-119209259D01*
X156317804Y-119204099D01*
X156324833Y-119221255D01*
X156317966Y-119269987D01*
X156317621Y-119271835D01*
X156303082Y-119349333D01*
X156473374Y-119349333D01*
X156559088Y-119346823D01*
X156618159Y-119339907D01*
X156643276Y-119329508D01*
X156643667Y-119327868D01*
X156658221Y-119301643D01*
X156694741Y-119261454D01*
X156711802Y-119245525D01*
X156779937Y-119184646D01*
X156889033Y-119277850D01*
X156998130Y-119371054D01*
X157061864Y-119273075D01*
X157125599Y-119175096D01*
X157151128Y-119252451D01*
G36*
X158037497Y-119282938D02*
X158057894Y-119329837D01*
X158072334Y-119370251D01*
X158095576Y-119432182D01*
X158116893Y-119475767D01*
X158126355Y-119487548D01*
X158147446Y-119477933D01*
X158183683Y-119441260D01*
X158222611Y-119391658D01*
X158265220Y-119336657D01*
X158299545Y-119300112D01*
X158316598Y-119290236D01*
X158336215Y-119309829D01*
X158370936Y-119354854D01*
X158409224Y-119409669D01*
X158485167Y-119522921D01*
X158485167Y-120238333D01*
X157850167Y-120238333D01*
X157850167Y-119421425D01*
X157930434Y-119343046D01*
X157977779Y-119299064D01*
X158012814Y-119270626D01*
X158023983Y-119264667D01*
X158037497Y-119282938D01*
X158037497Y-119282938D01*
G37*
X158037497Y-119282938D02*
X158057894Y-119329837D01*
X158072334Y-119370251D01*
X158095576Y-119432182D01*
X158116893Y-119475767D01*
X158126355Y-119487548D01*
X158147446Y-119477933D01*
X158183683Y-119441260D01*
X158222611Y-119391658D01*
X158265220Y-119336657D01*
X158299545Y-119300112D01*
X158316598Y-119290236D01*
X158336215Y-119309829D01*
X158370936Y-119354854D01*
X158409224Y-119409669D01*
X158485167Y-119522921D01*
X158485167Y-120238333D01*
X157850167Y-120238333D01*
X157850167Y-119421425D01*
X157930434Y-119343046D01*
X157977779Y-119299064D01*
X158012814Y-119270626D01*
X158023983Y-119264667D01*
X158037497Y-119282938D01*
G36*
X162848035Y-119213061D02*
X162909000Y-119244587D01*
X162909000Y-120238333D01*
X162252834Y-120238333D01*
X162252834Y-119412833D01*
X161766000Y-119412833D01*
X161766000Y-120238333D01*
X161087825Y-120238333D01*
X161093538Y-119792482D01*
X161099250Y-119346630D01*
X161158836Y-119310940D01*
X161218423Y-119275250D01*
X161322047Y-119386375D01*
X161375103Y-119440941D01*
X161417780Y-119480574D01*
X161441491Y-119497345D01*
X161442378Y-119497462D01*
X161462079Y-119481056D01*
X161495266Y-119438807D01*
X161522584Y-119398528D01*
X161559923Y-119340531D01*
X161588285Y-119296764D01*
X161598243Y-119281619D01*
X161622206Y-119280262D01*
X161672445Y-119294728D01*
X161728907Y-119317860D01*
X161847410Y-119372112D01*
X162061770Y-119240216D01*
X162124936Y-119285194D01*
X162164292Y-119310530D01*
X162197953Y-119319464D01*
X162242270Y-119313188D01*
X162297295Y-119297745D01*
X162406487Y-119265319D01*
X162507223Y-119349659D01*
X162561662Y-119393788D01*
X162602634Y-119424316D01*
X162619599Y-119434000D01*
X162635627Y-119417363D01*
X162666796Y-119373607D01*
X162706557Y-119311966D01*
X162709155Y-119307767D01*
X162787070Y-119181534D01*
X162848035Y-119213061D01*
X162848035Y-119213061D01*
G37*
X162848035Y-119213061D02*
X162909000Y-119244587D01*
X162909000Y-120238333D01*
X162252834Y-120238333D01*
X162252834Y-119412833D01*
X161766000Y-119412833D01*
X161766000Y-120238333D01*
X161087825Y-120238333D01*
X161093538Y-119792482D01*
X161099250Y-119346630D01*
X161158836Y-119310940D01*
X161218423Y-119275250D01*
X161322047Y-119386375D01*
X161375103Y-119440941D01*
X161417780Y-119480574D01*
X161441491Y-119497345D01*
X161442378Y-119497462D01*
X161462079Y-119481056D01*
X161495266Y-119438807D01*
X161522584Y-119398528D01*
X161559923Y-119340531D01*
X161588285Y-119296764D01*
X161598243Y-119281619D01*
X161622206Y-119280262D01*
X161672445Y-119294728D01*
X161728907Y-119317860D01*
X161847410Y-119372112D01*
X162061770Y-119240216D01*
X162124936Y-119285194D01*
X162164292Y-119310530D01*
X162197953Y-119319464D01*
X162242270Y-119313188D01*
X162297295Y-119297745D01*
X162406487Y-119265319D01*
X162507223Y-119349659D01*
X162561662Y-119393788D01*
X162602634Y-119424316D01*
X162619599Y-119434000D01*
X162635627Y-119417363D01*
X162666796Y-119373607D01*
X162706557Y-119311966D01*
X162709155Y-119307767D01*
X162787070Y-119181534D01*
X162848035Y-119213061D01*
G36*
X162909000Y-118630411D02*
X162908843Y-118793595D01*
X162908148Y-118919097D01*
X162906576Y-119011570D01*
X162903789Y-119075664D01*
X162899451Y-119116031D01*
X162893222Y-119137322D01*
X162884764Y-119144190D01*
X162873741Y-119141285D01*
X162871959Y-119140355D01*
X162831902Y-119111171D01*
X162785982Y-119068057D01*
X162784215Y-119066179D01*
X162745863Y-119033092D01*
X162717684Y-119022404D01*
X162715021Y-119023400D01*
X162695798Y-119047420D01*
X162666045Y-119097034D01*
X162643658Y-119139164D01*
X162611870Y-119196545D01*
X162585680Y-119234441D01*
X162574449Y-119243500D01*
X162555902Y-119226775D01*
X162523536Y-119183103D01*
X162487555Y-119127083D01*
X162450242Y-119067337D01*
X162421905Y-119025340D01*
X162409265Y-119010667D01*
X162394497Y-119026865D01*
X162365748Y-119068001D01*
X162348257Y-119095058D01*
X162294983Y-119179450D01*
X162178660Y-119122399D01*
X162062337Y-119065349D01*
X161971576Y-119154425D01*
X161919132Y-119202035D01*
X161876005Y-119234356D01*
X161855587Y-119243500D01*
X161831542Y-119226217D01*
X161800324Y-119182624D01*
X161787167Y-119158833D01*
X161758964Y-119108018D01*
X161737793Y-119077808D01*
X161732659Y-119074167D01*
X161710699Y-119085114D01*
X161663871Y-119113846D01*
X161602212Y-119154197D01*
X161600797Y-119155147D01*
X161521549Y-119208060D01*
X161470905Y-119240577D01*
X161442509Y-119256167D01*
X161430003Y-119258305D01*
X161427028Y-119250460D01*
X161427019Y-119250041D01*
X161414194Y-119225225D01*
X161381840Y-119180963D01*
X161358227Y-119152045D01*
X161289750Y-119071174D01*
X161188841Y-119127602D01*
X161087931Y-119184030D01*
X161093591Y-118647557D01*
X161099250Y-118111083D01*
X161755417Y-118111083D01*
X161766955Y-118883667D01*
X162252834Y-118883667D01*
X162252834Y-118100500D01*
X162909000Y-118100500D01*
X162909000Y-118630411D01*
X162909000Y-118630411D01*
G37*
X162909000Y-118630411D02*
X162908843Y-118793595D01*
X162908148Y-118919097D01*
X162906576Y-119011570D01*
X162903789Y-119075664D01*
X162899451Y-119116031D01*
X162893222Y-119137322D01*
X162884764Y-119144190D01*
X162873741Y-119141285D01*
X162871959Y-119140355D01*
X162831902Y-119111171D01*
X162785982Y-119068057D01*
X162784215Y-119066179D01*
X162745863Y-119033092D01*
X162717684Y-119022404D01*
X162715021Y-119023400D01*
X162695798Y-119047420D01*
X162666045Y-119097034D01*
X162643658Y-119139164D01*
X162611870Y-119196545D01*
X162585680Y-119234441D01*
X162574449Y-119243500D01*
X162555902Y-119226775D01*
X162523536Y-119183103D01*
X162487555Y-119127083D01*
X162450242Y-119067337D01*
X162421905Y-119025340D01*
X162409265Y-119010667D01*
X162394497Y-119026865D01*
X162365748Y-119068001D01*
X162348257Y-119095058D01*
X162294983Y-119179450D01*
X162178660Y-119122399D01*
X162062337Y-119065349D01*
X161971576Y-119154425D01*
X161919132Y-119202035D01*
X161876005Y-119234356D01*
X161855587Y-119243500D01*
X161831542Y-119226217D01*
X161800324Y-119182624D01*
X161787167Y-119158833D01*
X161758964Y-119108018D01*
X161737793Y-119077808D01*
X161732659Y-119074167D01*
X161710699Y-119085114D01*
X161663871Y-119113846D01*
X161602212Y-119154197D01*
X161600797Y-119155147D01*
X161521549Y-119208060D01*
X161470905Y-119240577D01*
X161442509Y-119256167D01*
X161430003Y-119258305D01*
X161427028Y-119250460D01*
X161427019Y-119250041D01*
X161414194Y-119225225D01*
X161381840Y-119180963D01*
X161358227Y-119152045D01*
X161289750Y-119071174D01*
X161188841Y-119127602D01*
X161087931Y-119184030D01*
X161093591Y-118647557D01*
X161099250Y-118111083D01*
X161755417Y-118111083D01*
X161766955Y-118883667D01*
X162252834Y-118883667D01*
X162252834Y-118100500D01*
X162909000Y-118100500D01*
X162909000Y-118630411D01*
G36*
X154188334Y-118883667D02*
X154674212Y-118883667D01*
X154685750Y-118111083D01*
X155341917Y-118111083D01*
X155347605Y-118605638D01*
X155353292Y-119100193D01*
X155280759Y-119086586D01*
X155218781Y-119084506D01*
X155145418Y-119103008D01*
X155085971Y-119127046D01*
X154963715Y-119181113D01*
X154852207Y-119122732D01*
X154740700Y-119064350D01*
X154623313Y-119121923D01*
X154505925Y-119179495D01*
X154385876Y-119122655D01*
X154265827Y-119065814D01*
X154165120Y-119122042D01*
X154064412Y-119178269D01*
X153962331Y-119063263D01*
X153860250Y-118948258D01*
X153703944Y-119021795D01*
X153630822Y-119055783D01*
X153573925Y-119081448D01*
X153542802Y-119094511D01*
X153539902Y-119095333D01*
X153537724Y-119075141D01*
X153535784Y-119018461D01*
X153534172Y-118931140D01*
X153532978Y-118819022D01*
X153532295Y-118687954D01*
X153532167Y-118597917D01*
X153532167Y-118100500D01*
X154188334Y-118100500D01*
X154188334Y-118883667D01*
X154188334Y-118883667D01*
G37*
X154188334Y-118883667D02*
X154674212Y-118883667D01*
X154685750Y-118111083D01*
X155341917Y-118111083D01*
X155347605Y-118605638D01*
X155353292Y-119100193D01*
X155280759Y-119086586D01*
X155218781Y-119084506D01*
X155145418Y-119103008D01*
X155085971Y-119127046D01*
X154963715Y-119181113D01*
X154852207Y-119122732D01*
X154740700Y-119064350D01*
X154623313Y-119121923D01*
X154505925Y-119179495D01*
X154385876Y-119122655D01*
X154265827Y-119065814D01*
X154165120Y-119122042D01*
X154064412Y-119178269D01*
X153962331Y-119063263D01*
X153860250Y-118948258D01*
X153703944Y-119021795D01*
X153630822Y-119055783D01*
X153573925Y-119081448D01*
X153542802Y-119094511D01*
X153539902Y-119095333D01*
X153537724Y-119075141D01*
X153535784Y-119018461D01*
X153534172Y-118931140D01*
X153532978Y-118819022D01*
X153532295Y-118687954D01*
X153532167Y-118597917D01*
X153532167Y-118100500D01*
X154188334Y-118100500D01*
X154188334Y-118883667D01*
G36*
X158929667Y-118629667D02*
X158485167Y-118629667D01*
X158485167Y-118852840D01*
X158484427Y-118954090D01*
X158481047Y-119022583D01*
X158473288Y-119067889D01*
X158459410Y-119099574D01*
X158437673Y-119127208D01*
X158434689Y-119130452D01*
X158384211Y-119184890D01*
X158302801Y-119029965D01*
X158221391Y-118875041D01*
X158196155Y-118958729D01*
X158179368Y-119024289D01*
X158169891Y-119080164D01*
X158169294Y-119088792D01*
X158158898Y-119135686D01*
X158133193Y-119143590D01*
X158093415Y-119112482D01*
X158074966Y-119090554D01*
X158021212Y-119021870D01*
X157950557Y-119090351D01*
X157905613Y-119131070D01*
X157872881Y-119155596D01*
X157865034Y-119158833D01*
X157859402Y-119139004D01*
X157854749Y-119084859D01*
X157851525Y-119004412D01*
X157850181Y-118905679D01*
X157850167Y-118894250D01*
X157850167Y-118629667D01*
X157429323Y-118629667D01*
X157422786Y-118373823D01*
X157420951Y-118274379D01*
X157420753Y-118191472D01*
X157422120Y-118133620D01*
X157424979Y-118109344D01*
X157425070Y-118109240D01*
X157447539Y-118107214D01*
X157507499Y-118105353D01*
X157600107Y-118103715D01*
X157720520Y-118102355D01*
X157863896Y-118101329D01*
X158025393Y-118100693D01*
X158181778Y-118100500D01*
X158929667Y-118100500D01*
X158929667Y-118629667D01*
X158929667Y-118629667D01*
G37*
X158929667Y-118629667D02*
X158485167Y-118629667D01*
X158485167Y-118852840D01*
X158484427Y-118954090D01*
X158481047Y-119022583D01*
X158473288Y-119067889D01*
X158459410Y-119099574D01*
X158437673Y-119127208D01*
X158434689Y-119130452D01*
X158384211Y-119184890D01*
X158302801Y-119029965D01*
X158221391Y-118875041D01*
X158196155Y-118958729D01*
X158179368Y-119024289D01*
X158169891Y-119080164D01*
X158169294Y-119088792D01*
X158158898Y-119135686D01*
X158133193Y-119143590D01*
X158093415Y-119112482D01*
X158074966Y-119090554D01*
X158021212Y-119021870D01*
X157950557Y-119090351D01*
X157905613Y-119131070D01*
X157872881Y-119155596D01*
X157865034Y-119158833D01*
X157859402Y-119139004D01*
X157854749Y-119084859D01*
X157851525Y-119004412D01*
X157850181Y-118905679D01*
X157850167Y-118894250D01*
X157850167Y-118629667D01*
X157429323Y-118629667D01*
X157422786Y-118373823D01*
X157420951Y-118274379D01*
X157420753Y-118191472D01*
X157422120Y-118133620D01*
X157424979Y-118109344D01*
X157425070Y-118109240D01*
X157447539Y-118107214D01*
X157507499Y-118105353D01*
X157600107Y-118103715D01*
X157720520Y-118102355D01*
X157863896Y-118101329D01*
X158025393Y-118100693D01*
X158181778Y-118100500D01*
X158929667Y-118100500D01*
X158929667Y-118629667D01*
G36*
X160174528Y-118094128D02*
X160347554Y-118138112D01*
X160443605Y-118179935D01*
X160525644Y-118235336D01*
X160613280Y-118315914D01*
X160694202Y-118408484D01*
X160756099Y-118499863D01*
X160772213Y-118531851D01*
X160799307Y-118602751D01*
X160824741Y-118685771D01*
X160846092Y-118770310D01*
X160860939Y-118845764D01*
X160866863Y-118901532D01*
X160862297Y-118926386D01*
X160835928Y-118932987D01*
X160775534Y-118940321D01*
X160689399Y-118947599D01*
X160585804Y-118954034D01*
X160556633Y-118955490D01*
X160435454Y-118960807D01*
X160350231Y-118961948D01*
X160294636Y-118956779D01*
X160262341Y-118943163D01*
X160247016Y-118918968D01*
X160242334Y-118882057D01*
X160242000Y-118849342D01*
X160224912Y-118769387D01*
X160180696Y-118687400D01*
X160119927Y-118620600D01*
X160088386Y-118599202D01*
X159997065Y-118569405D01*
X159912369Y-118579034D01*
X159837288Y-118625339D01*
X159774812Y-118705569D01*
X159727930Y-118816974D01*
X159699632Y-118956802D01*
X159699623Y-118956880D01*
X159686895Y-119032105D01*
X159666395Y-119079625D01*
X159631519Y-119114055D01*
X159627195Y-119117192D01*
X159581254Y-119145701D01*
X159548583Y-119158748D01*
X159547076Y-119158833D01*
X159527623Y-119141063D01*
X159498610Y-119094800D01*
X159470721Y-119039317D01*
X159416004Y-118919801D01*
X159330421Y-119039317D01*
X159285886Y-119098735D01*
X159250084Y-119141445D01*
X159230490Y-119158556D01*
X159230127Y-119158582D01*
X159213502Y-119141262D01*
X159183535Y-119095903D01*
X159146458Y-119032002D01*
X159143326Y-119026290D01*
X159104953Y-118959045D01*
X159072349Y-118907310D01*
X159052289Y-118881804D01*
X159051735Y-118881408D01*
X159043728Y-118852565D01*
X159053013Y-118794571D01*
X159077194Y-118715751D01*
X159113872Y-118624432D01*
X159144051Y-118560783D01*
X159247752Y-118395951D01*
X159375133Y-118265884D01*
X159526710Y-118170285D01*
X159703001Y-118108856D01*
X159904520Y-118081297D01*
X159976572Y-118079584D01*
X160174528Y-118094128D01*
X160174528Y-118094128D01*
G37*
X160174528Y-118094128D02*
X160347554Y-118138112D01*
X160443605Y-118179935D01*
X160525644Y-118235336D01*
X160613280Y-118315914D01*
X160694202Y-118408484D01*
X160756099Y-118499863D01*
X160772213Y-118531851D01*
X160799307Y-118602751D01*
X160824741Y-118685771D01*
X160846092Y-118770310D01*
X160860939Y-118845764D01*
X160866863Y-118901532D01*
X160862297Y-118926386D01*
X160835928Y-118932987D01*
X160775534Y-118940321D01*
X160689399Y-118947599D01*
X160585804Y-118954034D01*
X160556633Y-118955490D01*
X160435454Y-118960807D01*
X160350231Y-118961948D01*
X160294636Y-118956779D01*
X160262341Y-118943163D01*
X160247016Y-118918968D01*
X160242334Y-118882057D01*
X160242000Y-118849342D01*
X160224912Y-118769387D01*
X160180696Y-118687400D01*
X160119927Y-118620600D01*
X160088386Y-118599202D01*
X159997065Y-118569405D01*
X159912369Y-118579034D01*
X159837288Y-118625339D01*
X159774812Y-118705569D01*
X159727930Y-118816974D01*
X159699632Y-118956802D01*
X159699623Y-118956880D01*
X159686895Y-119032105D01*
X159666395Y-119079625D01*
X159631519Y-119114055D01*
X159627195Y-119117192D01*
X159581254Y-119145701D01*
X159548583Y-119158748D01*
X159547076Y-119158833D01*
X159527623Y-119141063D01*
X159498610Y-119094800D01*
X159470721Y-119039317D01*
X159416004Y-118919801D01*
X159330421Y-119039317D01*
X159285886Y-119098735D01*
X159250084Y-119141445D01*
X159230490Y-119158556D01*
X159230127Y-119158582D01*
X159213502Y-119141262D01*
X159183535Y-119095903D01*
X159146458Y-119032002D01*
X159143326Y-119026290D01*
X159104953Y-118959045D01*
X159072349Y-118907310D01*
X159052289Y-118881804D01*
X159051735Y-118881408D01*
X159043728Y-118852565D01*
X159053013Y-118794571D01*
X159077194Y-118715751D01*
X159113872Y-118624432D01*
X159144051Y-118560783D01*
X159247752Y-118395951D01*
X159375133Y-118265884D01*
X159526710Y-118170285D01*
X159703001Y-118108856D01*
X159904520Y-118081297D01*
X159976572Y-118079584D01*
X160174528Y-118094128D01*
G36*
X156972770Y-118412708D02*
X157009476Y-118529140D01*
X157044163Y-118638711D01*
X157073717Y-118731611D01*
X157095021Y-118798031D01*
X157100740Y-118815615D01*
X157121396Y-118880473D01*
X157127613Y-118912430D01*
X157118200Y-118918790D01*
X157091966Y-118906860D01*
X157086354Y-118903863D01*
X157057853Y-118889328D01*
X157040538Y-118889742D01*
X157027529Y-118912711D01*
X157011946Y-118965841D01*
X157004117Y-118994792D01*
X156984147Y-119052843D01*
X156963542Y-119089163D01*
X156954017Y-119095333D01*
X156926782Y-119081580D01*
X156882609Y-119046497D01*
X156854677Y-119020609D01*
X156778153Y-118945885D01*
X156684451Y-118988394D01*
X156624950Y-119013512D01*
X156580278Y-119029016D01*
X156568293Y-119031368D01*
X156551167Y-119012907D01*
X156530938Y-118964903D01*
X156517984Y-118920708D01*
X156494530Y-118833897D01*
X156476391Y-118787313D01*
X156461154Y-118779561D01*
X156446405Y-118809248D01*
X156430771Y-118870306D01*
X156413615Y-118937099D01*
X156397139Y-118985173D01*
X156387478Y-119001436D01*
X156359436Y-119000465D01*
X156308781Y-118985965D01*
X156288956Y-118978497D01*
X156246862Y-118962901D01*
X156213639Y-118958250D01*
X156177622Y-118967221D01*
X156127145Y-118992498D01*
X156060355Y-119031026D01*
X155978073Y-119078126D01*
X155925385Y-119104976D01*
X155895994Y-119113772D01*
X155883601Y-119106709D01*
X155881667Y-119093336D01*
X155887701Y-119067457D01*
X155904680Y-119006777D01*
X155930919Y-118916899D01*
X155964731Y-118803425D01*
X156004430Y-118671961D01*
X156048331Y-118528108D01*
X156094747Y-118377470D01*
X156141994Y-118225651D01*
X156159666Y-118169291D01*
X156181283Y-118100500D01*
X156874559Y-118100500D01*
X156972770Y-118412708D01*
X156972770Y-118412708D01*
G37*
X156972770Y-118412708D02*
X157009476Y-118529140D01*
X157044163Y-118638711D01*
X157073717Y-118731611D01*
X157095021Y-118798031D01*
X157100740Y-118815615D01*
X157121396Y-118880473D01*
X157127613Y-118912430D01*
X157118200Y-118918790D01*
X157091966Y-118906860D01*
X157086354Y-118903863D01*
X157057853Y-118889328D01*
X157040538Y-118889742D01*
X157027529Y-118912711D01*
X157011946Y-118965841D01*
X157004117Y-118994792D01*
X156984147Y-119052843D01*
X156963542Y-119089163D01*
X156954017Y-119095333D01*
X156926782Y-119081580D01*
X156882609Y-119046497D01*
X156854677Y-119020609D01*
X156778153Y-118945885D01*
X156684451Y-118988394D01*
X156624950Y-119013512D01*
X156580278Y-119029016D01*
X156568293Y-119031368D01*
X156551167Y-119012907D01*
X156530938Y-118964903D01*
X156517984Y-118920708D01*
X156494530Y-118833897D01*
X156476391Y-118787313D01*
X156461154Y-118779561D01*
X156446405Y-118809248D01*
X156430771Y-118870306D01*
X156413615Y-118937099D01*
X156397139Y-118985173D01*
X156387478Y-119001436D01*
X156359436Y-119000465D01*
X156308781Y-118985965D01*
X156288956Y-118978497D01*
X156246862Y-118962901D01*
X156213639Y-118958250D01*
X156177622Y-118967221D01*
X156127145Y-118992498D01*
X156060355Y-119031026D01*
X155978073Y-119078126D01*
X155925385Y-119104976D01*
X155895994Y-119113772D01*
X155883601Y-119106709D01*
X155881667Y-119093336D01*
X155887701Y-119067457D01*
X155904680Y-119006777D01*
X155930919Y-118916899D01*
X155964731Y-118803425D01*
X156004430Y-118671961D01*
X156048331Y-118528108D01*
X156094747Y-118377470D01*
X156141994Y-118225651D01*
X156159666Y-118169291D01*
X156181283Y-118100500D01*
X156874559Y-118100500D01*
X156972770Y-118412708D01*
D13*
X106559581Y-124874134D02*
X106559581Y-124302705D01*
X107559581Y-124588420D02*
X106559581Y-124588420D01*
X107559581Y-123969372D02*
X106892914Y-123969372D01*
X107083390Y-123969372D02*
X106988152Y-123921753D01*
X106940533Y-123874134D01*
X106892914Y-123778896D01*
X106892914Y-123683657D01*
X107559581Y-123350324D02*
X106892914Y-123350324D01*
X106559581Y-123350324D02*
X106607200Y-123397943D01*
X106654819Y-123350324D01*
X106607200Y-123302705D01*
X106559581Y-123350324D01*
X106654819Y-123350324D01*
X106892914Y-122874134D02*
X107559581Y-122874134D01*
X106988152Y-122874134D02*
X106940533Y-122826515D01*
X106892914Y-122731277D01*
X106892914Y-122588419D01*
X106940533Y-122493181D01*
X107035771Y-122445562D01*
X107559581Y-122445562D01*
X107559581Y-121969372D02*
X106559581Y-121969372D01*
X107178629Y-121874134D02*
X107559581Y-121588419D01*
X106892914Y-121588419D02*
X107273867Y-121969372D01*
X107511962Y-120778895D02*
X107559581Y-120874133D01*
X107559581Y-121064610D01*
X107511962Y-121159848D01*
X107416724Y-121207467D01*
X107035771Y-121207467D01*
X106940533Y-121159848D01*
X106892914Y-121064610D01*
X106892914Y-120874133D01*
X106940533Y-120778895D01*
X107035771Y-120731276D01*
X107131010Y-120731276D01*
X107226248Y-121207467D01*
X106892914Y-120445562D02*
X106892914Y-120064610D01*
X106559581Y-120302705D02*
X107416724Y-120302705D01*
X107511962Y-120255086D01*
X107559581Y-120159848D01*
X107559581Y-120064610D01*
X107559581Y-118969371D02*
X106559581Y-118969371D01*
X106559581Y-118588418D01*
X106607200Y-118493180D01*
X106654819Y-118445561D01*
X106750057Y-118397942D01*
X106892914Y-118397942D01*
X106988152Y-118445561D01*
X107035771Y-118493180D01*
X107083390Y-118588418D01*
X107083390Y-118969371D01*
X107559581Y-117969371D02*
X106892914Y-117969371D01*
X107083390Y-117969371D02*
X106988152Y-117921752D01*
X106940533Y-117874133D01*
X106892914Y-117778895D01*
X106892914Y-117683656D01*
X107559581Y-117207466D02*
X107511962Y-117302704D01*
X107464343Y-117350323D01*
X107369105Y-117397942D01*
X107083390Y-117397942D01*
X106988152Y-117350323D01*
X106940533Y-117302704D01*
X106892914Y-117207466D01*
X106892914Y-117064608D01*
X106940533Y-116969370D01*
X106988152Y-116921751D01*
X107083390Y-116874132D01*
X107369105Y-116874132D01*
X107464343Y-116921751D01*
X107511962Y-116969370D01*
X107559581Y-117064608D01*
X107559581Y-117207466D01*
X106559581Y-115207465D02*
X106559581Y-115683656D01*
X107035771Y-115731275D01*
X106988152Y-115683656D01*
X106940533Y-115588418D01*
X106940533Y-115350322D01*
X106988152Y-115255084D01*
X107035771Y-115207465D01*
X107131010Y-115159846D01*
X107369105Y-115159846D01*
X107464343Y-115207465D01*
X107511962Y-115255084D01*
X107559581Y-115350322D01*
X107559581Y-115588418D01*
X107511962Y-115683656D01*
X107464343Y-115731275D01*
X106559581Y-114874132D02*
X107559581Y-114540799D01*
X106559581Y-114207465D01*
X137889581Y-112650324D02*
X138889581Y-111983657D01*
X137889581Y-111983657D02*
X138889581Y-112650324D01*
X138889581Y-111602705D02*
X137889581Y-111602705D01*
X137889581Y-111221752D01*
X137937200Y-111126514D01*
X137984819Y-111078895D01*
X138080057Y-111031276D01*
X138222914Y-111031276D01*
X138318152Y-111078895D01*
X138365771Y-111126514D01*
X138413390Y-111221752D01*
X138413390Y-111602705D01*
X138889581Y-110078895D02*
X138889581Y-110650324D01*
X138889581Y-110364610D02*
X137889581Y-110364610D01*
X138032438Y-110459848D01*
X138127676Y-110555086D01*
X138175295Y-110650324D01*
D11*
X138329820Y-101044848D02*
X138020296Y-101044848D01*
X138020296Y-100394848D01*
X138546486Y-100704371D02*
X138763153Y-100704371D01*
X138856010Y-101044848D02*
X138546486Y-101044848D01*
X138546486Y-100394848D01*
X138856010Y-100394848D01*
X139134581Y-101044848D02*
X139134581Y-100394848D01*
X139289343Y-100394848D01*
X139382200Y-100425800D01*
X139444105Y-100487705D01*
X139475057Y-100549610D01*
X139506009Y-100673419D01*
X139506009Y-100766276D01*
X139475057Y-100890086D01*
X139444105Y-100951990D01*
X139382200Y-101013895D01*
X139289343Y-101044848D01*
X139134581Y-101044848D01*
X140125057Y-101044848D02*
X139753629Y-101044848D01*
X139939343Y-101044848D02*
X139939343Y-100394848D01*
X139877438Y-100487705D01*
X139815533Y-100549610D01*
X139753629Y-100580562D01*
D13*
X160170534Y-113537943D02*
X160122915Y-113585562D01*
X159980058Y-113633181D01*
X159884820Y-113633181D01*
X159741962Y-113585562D01*
X159646724Y-113490324D01*
X159599105Y-113395086D01*
X159551486Y-113204610D01*
X159551486Y-113061752D01*
X159599105Y-112871276D01*
X159646724Y-112776038D01*
X159741962Y-112680800D01*
X159884820Y-112633181D01*
X159980058Y-112633181D01*
X160122915Y-112680800D01*
X160170534Y-112728419D01*
X161122915Y-113633181D02*
X160551486Y-113633181D01*
X160837200Y-113633181D02*
X160837200Y-112633181D01*
X160741962Y-112776038D01*
X160646724Y-112871276D01*
X160551486Y-112918895D01*
D11*
X159332914Y-114314848D02*
X159394819Y-114314848D01*
X159456724Y-114345800D01*
X159487676Y-114376752D01*
X159518629Y-114438657D01*
X159549581Y-114562467D01*
X159549581Y-114717229D01*
X159518629Y-114841038D01*
X159487676Y-114902943D01*
X159456724Y-114933895D01*
X159394819Y-114964848D01*
X159332914Y-114964848D01*
X159271010Y-114933895D01*
X159240057Y-114902943D01*
X159209105Y-114841038D01*
X159178153Y-114717229D01*
X159178153Y-114562467D01*
X159209105Y-114438657D01*
X159240057Y-114376752D01*
X159271010Y-114345800D01*
X159332914Y-114314848D01*
X159828153Y-114902943D02*
X159859105Y-114933895D01*
X159828153Y-114964848D01*
X159797201Y-114933895D01*
X159828153Y-114902943D01*
X159828153Y-114964848D01*
X160478153Y-114964848D02*
X160106725Y-114964848D01*
X160292439Y-114964848D02*
X160292439Y-114314848D01*
X160230534Y-114407705D01*
X160168629Y-114469610D01*
X160106725Y-114500562D01*
X160756725Y-114531514D02*
X160756725Y-115181514D01*
X161066249Y-114871990D02*
X161097201Y-114933895D01*
X161159106Y-114964848D01*
X160756725Y-114871990D02*
X160787677Y-114933895D01*
X160849582Y-114964848D01*
X160973392Y-114964848D01*
X161035296Y-114933895D01*
X161066249Y-114871990D01*
X161066249Y-114531514D01*
X161654344Y-114624371D02*
X161437677Y-114624371D01*
X161437677Y-114964848D02*
X161437677Y-114314848D01*
X161747201Y-114314848D01*
D13*
X148006134Y-123906343D02*
X147958515Y-123953962D01*
X147815658Y-124001581D01*
X147720420Y-124001581D01*
X147577562Y-123953962D01*
X147482324Y-123858724D01*
X147434705Y-123763486D01*
X147387086Y-123573010D01*
X147387086Y-123430152D01*
X147434705Y-123239676D01*
X147482324Y-123144438D01*
X147577562Y-123049200D01*
X147720420Y-123001581D01*
X147815658Y-123001581D01*
X147958515Y-123049200D01*
X148006134Y-123096819D01*
X148863277Y-123334914D02*
X148863277Y-124001581D01*
X148625181Y-122953962D02*
X148387086Y-123668248D01*
X149006134Y-123668248D01*
D11*
X149889943Y-123283248D02*
X149518515Y-123283248D01*
X149704229Y-123283248D02*
X149704229Y-122633248D01*
X149642324Y-122726105D01*
X149580419Y-122788010D01*
X149518515Y-122818962D01*
X150292324Y-122633248D02*
X150354229Y-122633248D01*
X150416134Y-122664200D01*
X150447086Y-122695152D01*
X150478039Y-122757057D01*
X150508991Y-122880867D01*
X150508991Y-123035629D01*
X150478039Y-123159438D01*
X150447086Y-123221343D01*
X150416134Y-123252295D01*
X150354229Y-123283248D01*
X150292324Y-123283248D01*
X150230420Y-123252295D01*
X150199467Y-123221343D01*
X150168515Y-123159438D01*
X150137563Y-123035629D01*
X150137563Y-122880867D01*
X150168515Y-122757057D01*
X150199467Y-122695152D01*
X150230420Y-122664200D01*
X150292324Y-122633248D01*
X150787563Y-122849914D02*
X150787563Y-123499914D01*
X151097087Y-123190390D02*
X151128039Y-123252295D01*
X151189944Y-123283248D01*
X150787563Y-123190390D02*
X150818515Y-123252295D01*
X150880420Y-123283248D01*
X151004230Y-123283248D01*
X151066134Y-123252295D01*
X151097087Y-123190390D01*
X151097087Y-122849914D01*
X151685182Y-122942771D02*
X151468515Y-122942771D01*
X151468515Y-123283248D02*
X151468515Y-122633248D01*
X151778039Y-122633248D01*
X166069820Y-101154848D02*
X165760296Y-101154848D01*
X165760296Y-100504848D01*
X166286486Y-100814371D02*
X166503153Y-100814371D01*
X166596010Y-101154848D02*
X166286486Y-101154848D01*
X166286486Y-100504848D01*
X166596010Y-100504848D01*
X166874581Y-101154848D02*
X166874581Y-100504848D01*
X167029343Y-100504848D01*
X167122200Y-100535800D01*
X167184105Y-100597705D01*
X167215057Y-100659610D01*
X167246009Y-100783419D01*
X167246009Y-100876276D01*
X167215057Y-101000086D01*
X167184105Y-101061990D01*
X167122200Y-101123895D01*
X167029343Y-101154848D01*
X166874581Y-101154848D01*
X167803152Y-100721514D02*
X167803152Y-101154848D01*
X167648390Y-100473895D02*
X167493629Y-100938181D01*
X167896009Y-100938181D01*
D13*
X152493334Y-110277143D02*
X152445715Y-110324762D01*
X152302858Y-110372381D01*
X152207620Y-110372381D01*
X152064762Y-110324762D01*
X151969524Y-110229524D01*
X151921905Y-110134286D01*
X151874286Y-109943810D01*
X151874286Y-109800952D01*
X151921905Y-109610476D01*
X151969524Y-109515238D01*
X152064762Y-109420000D01*
X152207620Y-109372381D01*
X152302858Y-109372381D01*
X152445715Y-109420000D01*
X152493334Y-109467619D01*
X152874286Y-109467619D02*
X152921905Y-109420000D01*
X153017143Y-109372381D01*
X153255239Y-109372381D01*
X153350477Y-109420000D01*
X153398096Y-109467619D01*
X153445715Y-109562857D01*
X153445715Y-109658095D01*
X153398096Y-109800952D01*
X152826667Y-110372381D01*
X153445715Y-110372381D01*
D11*
X153034343Y-116834848D02*
X152662915Y-116834848D01*
X152848629Y-116834848D02*
X152848629Y-116184848D01*
X152786724Y-116277705D01*
X152724819Y-116339610D01*
X152662915Y-116370562D01*
X153436724Y-116184848D02*
X153498629Y-116184848D01*
X153560534Y-116215800D01*
X153591486Y-116246752D01*
X153622439Y-116308657D01*
X153653391Y-116432467D01*
X153653391Y-116587229D01*
X153622439Y-116711038D01*
X153591486Y-116772943D01*
X153560534Y-116803895D01*
X153498629Y-116834848D01*
X153436724Y-116834848D01*
X153374820Y-116803895D01*
X153343867Y-116772943D01*
X153312915Y-116711038D01*
X153281963Y-116587229D01*
X153281963Y-116432467D01*
X153312915Y-116308657D01*
X153343867Y-116246752D01*
X153374820Y-116215800D01*
X153436724Y-116184848D01*
X153931963Y-116401514D02*
X153931963Y-117051514D01*
X154241487Y-116741990D02*
X154272439Y-116803895D01*
X154334344Y-116834848D01*
X153931963Y-116741990D02*
X153962915Y-116803895D01*
X154024820Y-116834848D01*
X154148630Y-116834848D01*
X154210534Y-116803895D01*
X154241487Y-116741990D01*
X154241487Y-116401514D01*
X154829582Y-116494371D02*
X154612915Y-116494371D01*
X154612915Y-116834848D02*
X154612915Y-116184848D01*
X154922439Y-116184848D01*
D13*
X176697676Y-131963181D02*
X176697676Y-130963181D01*
X177031010Y-131677467D01*
X177364343Y-130963181D01*
X177364343Y-131963181D01*
X178364343Y-131963181D02*
X177792914Y-131963181D01*
X178078628Y-131963181D02*
X178078628Y-130963181D01*
X177983390Y-131106038D01*
X177888152Y-131201276D01*
X177792914Y-131248895D01*
X157340534Y-127527943D02*
X157292915Y-127575562D01*
X157150058Y-127623181D01*
X157054820Y-127623181D01*
X156911962Y-127575562D01*
X156816724Y-127480324D01*
X156769105Y-127385086D01*
X156721486Y-127194610D01*
X156721486Y-127051752D01*
X156769105Y-126861276D01*
X156816724Y-126766038D01*
X156911962Y-126670800D01*
X157054820Y-126623181D01*
X157150058Y-126623181D01*
X157292915Y-126670800D01*
X157340534Y-126718419D01*
X157673867Y-126623181D02*
X158292915Y-126623181D01*
X157959581Y-127004133D01*
X158102439Y-127004133D01*
X158197677Y-127051752D01*
X158245296Y-127099371D01*
X158292915Y-127194610D01*
X158292915Y-127432705D01*
X158245296Y-127527943D01*
X158197677Y-127575562D01*
X158102439Y-127623181D01*
X157816724Y-127623181D01*
X157721486Y-127575562D01*
X157673867Y-127527943D01*
D11*
X156452914Y-128204848D02*
X156514819Y-128204848D01*
X156576724Y-128235800D01*
X156607676Y-128266752D01*
X156638629Y-128328657D01*
X156669581Y-128452467D01*
X156669581Y-128607229D01*
X156638629Y-128731038D01*
X156607676Y-128792943D01*
X156576724Y-128823895D01*
X156514819Y-128854848D01*
X156452914Y-128854848D01*
X156391010Y-128823895D01*
X156360057Y-128792943D01*
X156329105Y-128731038D01*
X156298153Y-128607229D01*
X156298153Y-128452467D01*
X156329105Y-128328657D01*
X156360057Y-128266752D01*
X156391010Y-128235800D01*
X156452914Y-128204848D01*
X156948153Y-128792943D02*
X156979105Y-128823895D01*
X156948153Y-128854848D01*
X156917201Y-128823895D01*
X156948153Y-128792943D01*
X156948153Y-128854848D01*
X157598153Y-128854848D02*
X157226725Y-128854848D01*
X157412439Y-128854848D02*
X157412439Y-128204848D01*
X157350534Y-128297705D01*
X157288629Y-128359610D01*
X157226725Y-128390562D01*
X157876725Y-128421514D02*
X157876725Y-129071514D01*
X158186249Y-128761990D02*
X158217201Y-128823895D01*
X158279106Y-128854848D01*
X157876725Y-128761990D02*
X157907677Y-128823895D01*
X157969582Y-128854848D01*
X158093392Y-128854848D01*
X158155296Y-128823895D01*
X158186249Y-128761990D01*
X158186249Y-128421514D01*
X158774344Y-128514371D02*
X158557677Y-128514371D01*
X158557677Y-128854848D02*
X158557677Y-128204848D01*
X158867201Y-128204848D01*
D13*
X183625181Y-118827295D02*
X182625181Y-118827295D01*
X182625181Y-118589200D01*
X182672800Y-118446342D01*
X182768038Y-118351104D01*
X182863276Y-118303485D01*
X183053752Y-118255866D01*
X183196610Y-118255866D01*
X183387086Y-118303485D01*
X183482324Y-118351104D01*
X183577562Y-118446342D01*
X183625181Y-118589200D01*
X183625181Y-118827295D01*
X183625181Y-117303485D02*
X183625181Y-117874914D01*
X183625181Y-117589200D02*
X182625181Y-117589200D01*
X182768038Y-117684438D01*
X182863276Y-117779676D01*
X182910895Y-117874914D01*
X181165181Y-118827295D02*
X180165181Y-118827295D01*
X180165181Y-118589200D01*
X180212800Y-118446342D01*
X180308038Y-118351104D01*
X180403276Y-118303485D01*
X180593752Y-118255866D01*
X180736610Y-118255866D01*
X180927086Y-118303485D01*
X181022324Y-118351104D01*
X181117562Y-118446342D01*
X181165181Y-118589200D01*
X181165181Y-118827295D01*
X180260419Y-117874914D02*
X180212800Y-117827295D01*
X180165181Y-117732057D01*
X180165181Y-117493961D01*
X180212800Y-117398723D01*
X180260419Y-117351104D01*
X180355657Y-117303485D01*
X180450895Y-117303485D01*
X180593752Y-117351104D01*
X181165181Y-117922533D01*
X181165181Y-117303485D01*
X178595181Y-118827295D02*
X177595181Y-118827295D01*
X177595181Y-118589200D01*
X177642800Y-118446342D01*
X177738038Y-118351104D01*
X177833276Y-118303485D01*
X178023752Y-118255866D01*
X178166610Y-118255866D01*
X178357086Y-118303485D01*
X178452324Y-118351104D01*
X178547562Y-118446342D01*
X178595181Y-118589200D01*
X178595181Y-118827295D01*
X177595181Y-117922533D02*
X177595181Y-117303485D01*
X177976133Y-117636819D01*
X177976133Y-117493961D01*
X178023752Y-117398723D01*
X178071371Y-117351104D01*
X178166610Y-117303485D01*
X178404705Y-117303485D01*
X178499943Y-117351104D01*
X178547562Y-117398723D01*
X178595181Y-117493961D01*
X178595181Y-117779676D01*
X178547562Y-117874914D01*
X178499943Y-117922533D01*
X176165181Y-118827295D02*
X175165181Y-118827295D01*
X175165181Y-118589200D01*
X175212800Y-118446342D01*
X175308038Y-118351104D01*
X175403276Y-118303485D01*
X175593752Y-118255866D01*
X175736610Y-118255866D01*
X175927086Y-118303485D01*
X176022324Y-118351104D01*
X176117562Y-118446342D01*
X176165181Y-118589200D01*
X176165181Y-118827295D01*
X175498514Y-117398723D02*
X176165181Y-117398723D01*
X175117562Y-117636819D02*
X175831848Y-117874914D01*
X175831848Y-117255866D01*
X173675181Y-118827295D02*
X172675181Y-118827295D01*
X172675181Y-118589200D01*
X172722800Y-118446342D01*
X172818038Y-118351104D01*
X172913276Y-118303485D01*
X173103752Y-118255866D01*
X173246610Y-118255866D01*
X173437086Y-118303485D01*
X173532324Y-118351104D01*
X173627562Y-118446342D01*
X173675181Y-118589200D01*
X173675181Y-118827295D01*
X172675181Y-117351104D02*
X172675181Y-117827295D01*
X173151371Y-117874914D01*
X173103752Y-117827295D01*
X173056133Y-117732057D01*
X173056133Y-117493961D01*
X173103752Y-117398723D01*
X173151371Y-117351104D01*
X173246610Y-117303485D01*
X173484705Y-117303485D01*
X173579943Y-117351104D01*
X173627562Y-117398723D01*
X173675181Y-117493961D01*
X173675181Y-117732057D01*
X173627562Y-117827295D01*
X173579943Y-117874914D01*
X171192381Y-118838095D02*
X170192381Y-118838095D01*
X170192381Y-118600000D01*
X170240000Y-118457142D01*
X170335238Y-118361904D01*
X170430476Y-118314285D01*
X170620952Y-118266666D01*
X170763810Y-118266666D01*
X170954286Y-118314285D01*
X171049524Y-118361904D01*
X171144762Y-118457142D01*
X171192381Y-118600000D01*
X171192381Y-118838095D01*
X170192381Y-117409523D02*
X170192381Y-117600000D01*
X170240000Y-117695238D01*
X170287619Y-117742857D01*
X170430476Y-117838095D01*
X170620952Y-117885714D01*
X171001905Y-117885714D01*
X171097143Y-117838095D01*
X171144762Y-117790476D01*
X171192381Y-117695238D01*
X171192381Y-117504761D01*
X171144762Y-117409523D01*
X171097143Y-117361904D01*
X171001905Y-117314285D01*
X170763810Y-117314285D01*
X170668571Y-117361904D01*
X170620952Y-117409523D01*
X170573333Y-117504761D01*
X170573333Y-117695238D01*
X170620952Y-117790476D01*
X170668571Y-117838095D01*
X170763810Y-117885714D01*
X168682381Y-118838095D02*
X167682381Y-118838095D01*
X167682381Y-118600000D01*
X167730000Y-118457142D01*
X167825238Y-118361904D01*
X167920476Y-118314285D01*
X168110952Y-118266666D01*
X168253810Y-118266666D01*
X168444286Y-118314285D01*
X168539524Y-118361904D01*
X168634762Y-118457142D01*
X168682381Y-118600000D01*
X168682381Y-118838095D01*
X167682381Y-117933333D02*
X167682381Y-117266666D01*
X168682381Y-117695238D01*
X166172381Y-118838095D02*
X165172381Y-118838095D01*
X165172381Y-118600000D01*
X165220000Y-118457142D01*
X165315238Y-118361904D01*
X165410476Y-118314285D01*
X165600952Y-118266666D01*
X165743810Y-118266666D01*
X165934286Y-118314285D01*
X166029524Y-118361904D01*
X166124762Y-118457142D01*
X166172381Y-118600000D01*
X166172381Y-118838095D01*
X165600952Y-117695238D02*
X165553333Y-117790476D01*
X165505714Y-117838095D01*
X165410476Y-117885714D01*
X165362857Y-117885714D01*
X165267619Y-117838095D01*
X165220000Y-117790476D01*
X165172381Y-117695238D01*
X165172381Y-117504761D01*
X165220000Y-117409523D01*
X165267619Y-117361904D01*
X165362857Y-117314285D01*
X165410476Y-117314285D01*
X165505714Y-117361904D01*
X165553333Y-117409523D01*
X165600952Y-117504761D01*
X165600952Y-117695238D01*
X165648571Y-117790476D01*
X165696190Y-117838095D01*
X165791429Y-117885714D01*
X165981905Y-117885714D01*
X166077143Y-117838095D01*
X166124762Y-117790476D01*
X166172381Y-117695238D01*
X166172381Y-117504761D01*
X166124762Y-117409523D01*
X166077143Y-117361904D01*
X165981905Y-117314285D01*
X165791429Y-117314285D01*
X165696190Y-117361904D01*
X165648571Y-117409523D01*
X165600952Y-117504761D01*
X108350057Y-110653181D02*
X107873866Y-110653181D01*
X107873866Y-109653181D01*
X108826247Y-110653181D02*
X108731009Y-110605562D01*
X108683390Y-110557943D01*
X108635771Y-110462705D01*
X108635771Y-110176990D01*
X108683390Y-110081752D01*
X108731009Y-110034133D01*
X108826247Y-109986514D01*
X108969105Y-109986514D01*
X109064343Y-110034133D01*
X109111962Y-110081752D01*
X109159581Y-110176990D01*
X109159581Y-110462705D01*
X109111962Y-110557943D01*
X109064343Y-110605562D01*
X108969105Y-110653181D01*
X108826247Y-110653181D01*
X110016724Y-109986514D02*
X110016724Y-110796038D01*
X109969105Y-110891276D01*
X109921486Y-110938895D01*
X109826247Y-110986514D01*
X109683390Y-110986514D01*
X109588152Y-110938895D01*
X110016724Y-110605562D02*
X109921486Y-110653181D01*
X109731009Y-110653181D01*
X109635771Y-110605562D01*
X109588152Y-110557943D01*
X109540533Y-110462705D01*
X109540533Y-110176990D01*
X109588152Y-110081752D01*
X109635771Y-110034133D01*
X109731009Y-109986514D01*
X109921486Y-109986514D01*
X110016724Y-110034133D01*
X110492914Y-110653181D02*
X110492914Y-109986514D01*
X110492914Y-109653181D02*
X110445295Y-109700800D01*
X110492914Y-109748419D01*
X110540533Y-109700800D01*
X110492914Y-109653181D01*
X110492914Y-109748419D01*
X111397676Y-110605562D02*
X111302438Y-110653181D01*
X111111961Y-110653181D01*
X111016723Y-110605562D01*
X110969104Y-110557943D01*
X110921485Y-110462705D01*
X110921485Y-110176990D01*
X110969104Y-110081752D01*
X111016723Y-110034133D01*
X111111961Y-109986514D01*
X111302438Y-109986514D01*
X111397676Y-110034133D01*
X112588152Y-110653181D02*
X112588152Y-109653181D01*
X112969105Y-109653181D01*
X113064343Y-109700800D01*
X113111962Y-109748419D01*
X113159581Y-109843657D01*
X113159581Y-109986514D01*
X113111962Y-110081752D01*
X113064343Y-110129371D01*
X112969105Y-110176990D01*
X112588152Y-110176990D01*
X113731009Y-110653181D02*
X113635771Y-110605562D01*
X113588152Y-110557943D01*
X113540533Y-110462705D01*
X113540533Y-110176990D01*
X113588152Y-110081752D01*
X113635771Y-110034133D01*
X113731009Y-109986514D01*
X113873867Y-109986514D01*
X113969105Y-110034133D01*
X114016724Y-110081752D01*
X114064343Y-110176990D01*
X114064343Y-110462705D01*
X114016724Y-110557943D01*
X113969105Y-110605562D01*
X113873867Y-110653181D01*
X113731009Y-110653181D01*
X114397676Y-109986514D02*
X114588152Y-110653181D01*
X114778629Y-110176990D01*
X114969105Y-110653181D01*
X115159581Y-109986514D01*
X115921486Y-110605562D02*
X115826248Y-110653181D01*
X115635771Y-110653181D01*
X115540533Y-110605562D01*
X115492914Y-110510324D01*
X115492914Y-110129371D01*
X115540533Y-110034133D01*
X115635771Y-109986514D01*
X115826248Y-109986514D01*
X115921486Y-110034133D01*
X115969105Y-110129371D01*
X115969105Y-110224610D01*
X115492914Y-110319848D01*
X116397676Y-110653181D02*
X116397676Y-109986514D01*
X116397676Y-110176990D02*
X116445295Y-110081752D01*
X116492914Y-110034133D01*
X116588152Y-109986514D01*
X116683391Y-109986514D01*
X159707676Y-131963181D02*
X159707676Y-130963181D01*
X160041010Y-131677467D01*
X160374343Y-130963181D01*
X160374343Y-131963181D01*
X160802914Y-131058419D02*
X160850533Y-131010800D01*
X160945771Y-130963181D01*
X161183867Y-130963181D01*
X161279105Y-131010800D01*
X161326724Y-131058419D01*
X161374343Y-131153657D01*
X161374343Y-131248895D01*
X161326724Y-131391752D01*
X160755295Y-131963181D01*
X161374343Y-131963181D01*
X167428628Y-110593181D02*
X167428628Y-109593181D01*
X167761962Y-110307467D01*
X168095295Y-109593181D01*
X168095295Y-110593181D01*
X168714342Y-110593181D02*
X168619104Y-110545562D01*
X168571485Y-110497943D01*
X168523866Y-110402705D01*
X168523866Y-110116990D01*
X168571485Y-110021752D01*
X168619104Y-109974133D01*
X168714342Y-109926514D01*
X168857200Y-109926514D01*
X168952438Y-109974133D01*
X169000057Y-110021752D01*
X169047676Y-110116990D01*
X169047676Y-110402705D01*
X169000057Y-110497943D01*
X168952438Y-110545562D01*
X168857200Y-110593181D01*
X168714342Y-110593181D01*
X169333390Y-109926514D02*
X169714342Y-109926514D01*
X169476247Y-109593181D02*
X169476247Y-110450324D01*
X169523866Y-110545562D01*
X169619104Y-110593181D01*
X169714342Y-110593181D01*
X170190533Y-110593181D02*
X170095295Y-110545562D01*
X170047676Y-110497943D01*
X170000057Y-110402705D01*
X170000057Y-110116990D01*
X170047676Y-110021752D01*
X170095295Y-109974133D01*
X170190533Y-109926514D01*
X170333391Y-109926514D01*
X170428629Y-109974133D01*
X170476248Y-110021752D01*
X170523867Y-110116990D01*
X170523867Y-110402705D01*
X170476248Y-110497943D01*
X170428629Y-110545562D01*
X170333391Y-110593181D01*
X170190533Y-110593181D01*
X170952438Y-110593181D02*
X170952438Y-109926514D01*
X170952438Y-110116990D02*
X171000057Y-110021752D01*
X171047676Y-109974133D01*
X171142914Y-109926514D01*
X171238153Y-109926514D01*
X172333391Y-110593181D02*
X172333391Y-109593181D01*
X172714344Y-109593181D01*
X172809582Y-109640800D01*
X172857201Y-109688419D01*
X172904820Y-109783657D01*
X172904820Y-109926514D01*
X172857201Y-110021752D01*
X172809582Y-110069371D01*
X172714344Y-110116990D01*
X172333391Y-110116990D01*
X173476248Y-110593181D02*
X173381010Y-110545562D01*
X173333391Y-110497943D01*
X173285772Y-110402705D01*
X173285772Y-110116990D01*
X173333391Y-110021752D01*
X173381010Y-109974133D01*
X173476248Y-109926514D01*
X173619106Y-109926514D01*
X173714344Y-109974133D01*
X173761963Y-110021752D01*
X173809582Y-110116990D01*
X173809582Y-110402705D01*
X173761963Y-110497943D01*
X173714344Y-110545562D01*
X173619106Y-110593181D01*
X173476248Y-110593181D01*
X174142915Y-109926514D02*
X174333391Y-110593181D01*
X174523868Y-110116990D01*
X174714344Y-110593181D01*
X174904820Y-109926514D01*
X175666725Y-110545562D02*
X175571487Y-110593181D01*
X175381010Y-110593181D01*
X175285772Y-110545562D01*
X175238153Y-110450324D01*
X175238153Y-110069371D01*
X175285772Y-109974133D01*
X175381010Y-109926514D01*
X175571487Y-109926514D01*
X175666725Y-109974133D01*
X175714344Y-110069371D01*
X175714344Y-110164610D01*
X175238153Y-110259848D01*
X176142915Y-110593181D02*
X176142915Y-109926514D01*
X176142915Y-110116990D02*
X176190534Y-110021752D01*
X176238153Y-109974133D01*
X176333391Y-109926514D01*
X176428630Y-109926514D01*
X122750057Y-112293181D02*
X122750057Y-111293181D01*
X122988152Y-111293181D01*
X123131010Y-111340800D01*
X123226248Y-111436038D01*
X123273867Y-111531276D01*
X123321486Y-111721752D01*
X123321486Y-111864610D01*
X123273867Y-112055086D01*
X123226248Y-112150324D01*
X123131010Y-112245562D01*
X122988152Y-112293181D01*
X122750057Y-112293181D01*
X123750057Y-112293181D02*
X123750057Y-111293181D01*
X124178628Y-112245562D02*
X124321485Y-112293181D01*
X124559581Y-112293181D01*
X124654819Y-112245562D01*
X124702438Y-112197943D01*
X124750057Y-112102705D01*
X124750057Y-112007467D01*
X124702438Y-111912229D01*
X124654819Y-111864610D01*
X124559581Y-111816990D01*
X124369104Y-111769371D01*
X124273866Y-111721752D01*
X124226247Y-111674133D01*
X124178628Y-111578895D01*
X124178628Y-111483657D01*
X124226247Y-111388419D01*
X124273866Y-111340800D01*
X124369104Y-111293181D01*
X124607200Y-111293181D01*
X124750057Y-111340800D01*
X125035771Y-111293181D02*
X125607200Y-111293181D01*
X125321485Y-112293181D02*
X125321485Y-111293181D01*
X118084819Y-109803181D02*
X117608628Y-109803181D01*
X117608628Y-108803181D01*
X118418152Y-109279371D02*
X118751486Y-109279371D01*
X118894343Y-109803181D02*
X118418152Y-109803181D01*
X118418152Y-108803181D01*
X118894343Y-108803181D01*
X119656248Y-109279371D02*
X119322914Y-109279371D01*
X119322914Y-109803181D02*
X119322914Y-108803181D01*
X119799105Y-108803181D01*
X120037200Y-108803181D02*
X120608629Y-108803181D01*
X120322914Y-109803181D02*
X120322914Y-108803181D01*
X155863867Y-109693181D02*
X155530533Y-109216990D01*
X155292438Y-109693181D02*
X155292438Y-108693181D01*
X155673391Y-108693181D01*
X155768629Y-108740800D01*
X155816248Y-108788419D01*
X155863867Y-108883657D01*
X155863867Y-109026514D01*
X155816248Y-109121752D01*
X155768629Y-109169371D01*
X155673391Y-109216990D01*
X155292438Y-109216990D01*
X156292438Y-109693181D02*
X156292438Y-108693181D01*
X157292438Y-108740800D02*
X157197200Y-108693181D01*
X157054343Y-108693181D01*
X156911485Y-108740800D01*
X156816247Y-108836038D01*
X156768628Y-108931276D01*
X156721009Y-109121752D01*
X156721009Y-109264610D01*
X156768628Y-109455086D01*
X156816247Y-109550324D01*
X156911485Y-109645562D01*
X157054343Y-109693181D01*
X157149581Y-109693181D01*
X157292438Y-109645562D01*
X157340057Y-109597943D01*
X157340057Y-109264610D01*
X157149581Y-109264610D01*
X157768628Y-109693181D02*
X157768628Y-108693181D01*
X157768628Y-109169371D02*
X158340057Y-109169371D01*
X158340057Y-109693181D02*
X158340057Y-108693181D01*
X158673390Y-108693181D02*
X159244819Y-108693181D01*
X158959104Y-109693181D02*
X158959104Y-108693181D01*
X102233867Y-108133181D02*
X102233867Y-108847467D01*
X102186247Y-108990324D01*
X102091009Y-109085562D01*
X101948152Y-109133181D01*
X101852914Y-109133181D01*
X102710057Y-109133181D02*
X102710057Y-108133181D01*
X103091010Y-108133181D01*
X103186248Y-108180800D01*
X103233867Y-108228419D01*
X103281486Y-108323657D01*
X103281486Y-108466514D01*
X103233867Y-108561752D01*
X103186248Y-108609371D01*
X103091010Y-108656990D01*
X102710057Y-108656990D01*
X104233867Y-109133181D02*
X103662438Y-109133181D01*
X103948152Y-109133181D02*
X103948152Y-108133181D01*
X103852914Y-108276038D01*
X103757676Y-108371276D01*
X103662438Y-108418895D01*
X177859581Y-110564133D02*
X178573867Y-110564133D01*
X178716724Y-110611753D01*
X178811962Y-110706991D01*
X178859581Y-110849848D01*
X178859581Y-110945086D01*
X178859581Y-110087943D02*
X177859581Y-110087943D01*
X177859581Y-109706990D01*
X177907200Y-109611752D01*
X177954819Y-109564133D01*
X178050057Y-109516514D01*
X178192914Y-109516514D01*
X178288152Y-109564133D01*
X178335771Y-109611752D01*
X178383390Y-109706990D01*
X178383390Y-110087943D01*
X177954819Y-109135562D02*
X177907200Y-109087943D01*
X177859581Y-108992705D01*
X177859581Y-108754609D01*
X177907200Y-108659371D01*
X177954819Y-108611752D01*
X178050057Y-108564133D01*
X178145295Y-108564133D01*
X178288152Y-108611752D01*
X178859581Y-109183181D01*
X178859581Y-108564133D01*
D11*
X144309820Y-101044848D02*
X144000296Y-101044848D01*
X144000296Y-100394848D01*
X144526486Y-100704371D02*
X144743153Y-100704371D01*
X144836010Y-101044848D02*
X144526486Y-101044848D01*
X144526486Y-100394848D01*
X144836010Y-100394848D01*
X145114581Y-101044848D02*
X145114581Y-100394848D01*
X145269343Y-100394848D01*
X145362200Y-100425800D01*
X145424105Y-100487705D01*
X145455057Y-100549610D01*
X145486009Y-100673419D01*
X145486009Y-100766276D01*
X145455057Y-100890086D01*
X145424105Y-100951990D01*
X145362200Y-101013895D01*
X145269343Y-101044848D01*
X145114581Y-101044848D01*
X145733629Y-100456752D02*
X145764581Y-100425800D01*
X145826486Y-100394848D01*
X145981248Y-100394848D01*
X146043152Y-100425800D01*
X146074105Y-100456752D01*
X146105057Y-100518657D01*
X146105057Y-100580562D01*
X146074105Y-100673419D01*
X145702676Y-101044848D01*
X146105057Y-101044848D01*
X150319820Y-101044848D02*
X150010296Y-101044848D01*
X150010296Y-100394848D01*
X150536486Y-100704371D02*
X150753153Y-100704371D01*
X150846010Y-101044848D02*
X150536486Y-101044848D01*
X150536486Y-100394848D01*
X150846010Y-100394848D01*
X151124581Y-101044848D02*
X151124581Y-100394848D01*
X151279343Y-100394848D01*
X151372200Y-100425800D01*
X151434105Y-100487705D01*
X151465057Y-100549610D01*
X151496009Y-100673419D01*
X151496009Y-100766276D01*
X151465057Y-100890086D01*
X151434105Y-100951990D01*
X151372200Y-101013895D01*
X151279343Y-101044848D01*
X151124581Y-101044848D01*
X151712676Y-100394848D02*
X152115057Y-100394848D01*
X151898390Y-100642467D01*
X151991248Y-100642467D01*
X152053152Y-100673419D01*
X152084105Y-100704371D01*
X152115057Y-100766276D01*
X152115057Y-100921038D01*
X152084105Y-100982943D01*
X152053152Y-101013895D01*
X151991248Y-101044848D01*
X151805533Y-101044848D01*
X151743629Y-101013895D01*
X151712676Y-100982943D01*
D13*
X134409581Y-107777466D02*
X133933390Y-108110800D01*
X134409581Y-108348895D02*
X133409581Y-108348895D01*
X133409581Y-107967942D01*
X133457200Y-107872704D01*
X133504819Y-107825085D01*
X133600057Y-107777466D01*
X133742914Y-107777466D01*
X133838152Y-107825085D01*
X133885771Y-107872704D01*
X133933390Y-107967942D01*
X133933390Y-108348895D01*
X134409581Y-106825085D02*
X134409581Y-107396514D01*
X134409581Y-107110800D02*
X133409581Y-107110800D01*
X133552438Y-107206038D01*
X133647676Y-107301276D01*
X133695295Y-107396514D01*
D11*
X135571248Y-106195800D02*
X135571248Y-106567228D01*
X135571248Y-106381514D02*
X134921248Y-106381514D01*
X135014105Y-106443419D01*
X135076010Y-106505324D01*
X135106962Y-106567228D01*
X135509343Y-105917228D02*
X135540295Y-105886276D01*
X135571248Y-105917228D01*
X135540295Y-105948180D01*
X135509343Y-105917228D01*
X135571248Y-105917228D01*
X134983152Y-105638656D02*
X134952200Y-105607704D01*
X134921248Y-105545799D01*
X134921248Y-105391037D01*
X134952200Y-105329133D01*
X134983152Y-105298180D01*
X135045057Y-105267228D01*
X135106962Y-105267228D01*
X135199819Y-105298180D01*
X135571248Y-105669609D01*
X135571248Y-105267228D01*
X135571248Y-104988656D02*
X134921248Y-104988656D01*
X135571248Y-104617228D02*
X135199819Y-104895799D01*
X134921248Y-104617228D02*
X135292676Y-104988656D01*
X135571248Y-104369608D02*
X135571248Y-104214847D01*
X135447438Y-104214847D01*
X135416486Y-104276751D01*
X135354581Y-104338656D01*
X135261724Y-104369608D01*
X135106962Y-104369608D01*
X135014105Y-104338656D01*
X134952200Y-104276751D01*
X134921248Y-104183894D01*
X134921248Y-104060085D01*
X134952200Y-103967228D01*
X135014105Y-103905323D01*
X135106962Y-103874370D01*
X135261724Y-103874370D01*
X135354581Y-103905323D01*
X135416486Y-103967228D01*
X135447438Y-104029132D01*
X135571248Y-104029132D01*
X135571248Y-103874370D01*
D13*
X131259581Y-107907466D02*
X130783390Y-108240800D01*
X131259581Y-108478895D02*
X130259581Y-108478895D01*
X130259581Y-108097942D01*
X130307200Y-108002704D01*
X130354819Y-107955085D01*
X130450057Y-107907466D01*
X130592914Y-107907466D01*
X130688152Y-107955085D01*
X130735771Y-108002704D01*
X130783390Y-108097942D01*
X130783390Y-108478895D01*
X130354819Y-107526514D02*
X130307200Y-107478895D01*
X130259581Y-107383657D01*
X130259581Y-107145561D01*
X130307200Y-107050323D01*
X130354819Y-107002704D01*
X130450057Y-106955085D01*
X130545295Y-106955085D01*
X130688152Y-107002704D01*
X131259581Y-107574133D01*
X131259581Y-106955085D01*
D11*
X132331248Y-106175800D02*
X132331248Y-106547228D01*
X132331248Y-106361514D02*
X131681248Y-106361514D01*
X131774105Y-106423419D01*
X131836010Y-106485324D01*
X131866962Y-106547228D01*
X132269343Y-105897228D02*
X132300295Y-105866276D01*
X132331248Y-105897228D01*
X132300295Y-105928180D01*
X132269343Y-105897228D01*
X132331248Y-105897228D01*
X131743152Y-105618656D02*
X131712200Y-105587704D01*
X131681248Y-105525799D01*
X131681248Y-105371037D01*
X131712200Y-105309133D01*
X131743152Y-105278180D01*
X131805057Y-105247228D01*
X131866962Y-105247228D01*
X131959819Y-105278180D01*
X132331248Y-105649609D01*
X132331248Y-105247228D01*
X132331248Y-104968656D02*
X131681248Y-104968656D01*
X132331248Y-104597228D02*
X131959819Y-104875799D01*
X131681248Y-104597228D02*
X132052676Y-104968656D01*
X132331248Y-104349608D02*
X132331248Y-104194847D01*
X132207438Y-104194847D01*
X132176486Y-104256751D01*
X132114581Y-104318656D01*
X132021724Y-104349608D01*
X131866962Y-104349608D01*
X131774105Y-104318656D01*
X131712200Y-104256751D01*
X131681248Y-104163894D01*
X131681248Y-104040085D01*
X131712200Y-103947228D01*
X131774105Y-103885323D01*
X131866962Y-103854370D01*
X132021724Y-103854370D01*
X132114581Y-103885323D01*
X132176486Y-103947228D01*
X132207438Y-104009132D01*
X132331248Y-104009132D01*
X132331248Y-103854370D01*
D13*
X128009581Y-107907466D02*
X127533390Y-108240800D01*
X128009581Y-108478895D02*
X127009581Y-108478895D01*
X127009581Y-108097942D01*
X127057200Y-108002704D01*
X127104819Y-107955085D01*
X127200057Y-107907466D01*
X127342914Y-107907466D01*
X127438152Y-107955085D01*
X127485771Y-108002704D01*
X127533390Y-108097942D01*
X127533390Y-108478895D01*
X127009581Y-107574133D02*
X127009581Y-106955085D01*
X127390533Y-107288419D01*
X127390533Y-107145561D01*
X127438152Y-107050323D01*
X127485771Y-107002704D01*
X127581010Y-106955085D01*
X127819105Y-106955085D01*
X127914343Y-107002704D01*
X127961962Y-107050323D01*
X128009581Y-107145561D01*
X128009581Y-107431276D01*
X127961962Y-107526514D01*
X127914343Y-107574133D01*
D11*
X129041248Y-106255800D02*
X129041248Y-106627228D01*
X129041248Y-106441514D02*
X128391248Y-106441514D01*
X128484105Y-106503419D01*
X128546010Y-106565324D01*
X128576962Y-106627228D01*
X128979343Y-105977228D02*
X129010295Y-105946276D01*
X129041248Y-105977228D01*
X129010295Y-106008180D01*
X128979343Y-105977228D01*
X129041248Y-105977228D01*
X128453152Y-105698656D02*
X128422200Y-105667704D01*
X128391248Y-105605799D01*
X128391248Y-105451037D01*
X128422200Y-105389133D01*
X128453152Y-105358180D01*
X128515057Y-105327228D01*
X128576962Y-105327228D01*
X128669819Y-105358180D01*
X129041248Y-105729609D01*
X129041248Y-105327228D01*
X129041248Y-105048656D02*
X128391248Y-105048656D01*
X129041248Y-104677228D02*
X128669819Y-104955799D01*
X128391248Y-104677228D02*
X128762676Y-105048656D01*
X129041248Y-104429608D02*
X129041248Y-104274847D01*
X128917438Y-104274847D01*
X128886486Y-104336751D01*
X128824581Y-104398656D01*
X128731724Y-104429608D01*
X128576962Y-104429608D01*
X128484105Y-104398656D01*
X128422200Y-104336751D01*
X128391248Y-104243894D01*
X128391248Y-104120085D01*
X128422200Y-104027228D01*
X128484105Y-103965323D01*
X128576962Y-103934370D01*
X128731724Y-103934370D01*
X128824581Y-103965323D01*
X128886486Y-104027228D01*
X128917438Y-104089132D01*
X129041248Y-104089132D01*
X129041248Y-103934370D01*
D13*
X162459581Y-107417466D02*
X161983390Y-107750800D01*
X162459581Y-107988895D02*
X161459581Y-107988895D01*
X161459581Y-107607942D01*
X161507200Y-107512704D01*
X161554819Y-107465085D01*
X161650057Y-107417466D01*
X161792914Y-107417466D01*
X161888152Y-107465085D01*
X161935771Y-107512704D01*
X161983390Y-107607942D01*
X161983390Y-107988895D01*
X161792914Y-106560323D02*
X162459581Y-106560323D01*
X161411962Y-106798419D02*
X162126248Y-107036514D01*
X162126248Y-106417466D01*
D11*
X162985952Y-105616190D02*
X162955000Y-105585238D01*
X162924048Y-105523333D01*
X162924048Y-105368571D01*
X162955000Y-105306667D01*
X162985952Y-105275714D01*
X163047857Y-105244762D01*
X163109762Y-105244762D01*
X163202619Y-105275714D01*
X163574048Y-105647143D01*
X163574048Y-105244762D01*
X162924048Y-105028095D02*
X162924048Y-104594762D01*
X163574048Y-104873333D01*
X162924048Y-104223333D02*
X162924048Y-104161428D01*
X162955000Y-104099523D01*
X162985952Y-104068571D01*
X163047857Y-104037618D01*
X163171667Y-104006666D01*
X163326429Y-104006666D01*
X163450238Y-104037618D01*
X163512143Y-104068571D01*
X163543095Y-104099523D01*
X163574048Y-104161428D01*
X163574048Y-104223333D01*
X163543095Y-104285237D01*
X163512143Y-104316190D01*
X163450238Y-104347142D01*
X163326429Y-104378094D01*
X163171667Y-104378094D01*
X163047857Y-104347142D01*
X162985952Y-104316190D01*
X162955000Y-104285237D01*
X162924048Y-104223333D01*
X163574048Y-103759046D02*
X163574048Y-103604285D01*
X163450238Y-103604285D01*
X163419286Y-103666189D01*
X163357381Y-103728094D01*
X163264524Y-103759046D01*
X163109762Y-103759046D01*
X163016905Y-103728094D01*
X162955000Y-103666189D01*
X162924048Y-103573332D01*
X162924048Y-103449523D01*
X162955000Y-103356666D01*
X163016905Y-103294761D01*
X163109762Y-103263808D01*
X163264524Y-103263808D01*
X163357381Y-103294761D01*
X163419286Y-103356666D01*
X163450238Y-103418570D01*
X163574048Y-103418570D01*
X163574048Y-103263808D01*
X108743572Y-111909286D02*
X109172143Y-111909286D01*
X108957857Y-112659286D02*
X108957857Y-111909286D01*
X109422143Y-112659286D02*
X109422143Y-111909286D01*
X109707858Y-111909286D01*
X109779286Y-111945000D01*
X109815001Y-111980714D01*
X109850715Y-112052143D01*
X109850715Y-112159286D01*
X109815001Y-112230714D01*
X109779286Y-112266429D01*
X109707858Y-112302143D01*
X109422143Y-112302143D01*
X110565001Y-112659286D02*
X110136429Y-112659286D01*
X110350715Y-112659286D02*
X110350715Y-111909286D01*
X110279286Y-112016429D01*
X110207858Y-112087857D01*
X110136429Y-112123571D01*
X164793572Y-107329286D02*
X165222143Y-107329286D01*
X165007857Y-108079286D02*
X165007857Y-107329286D01*
X165472143Y-108079286D02*
X165472143Y-107329286D01*
X165757858Y-107329286D01*
X165829286Y-107365000D01*
X165865001Y-107400714D01*
X165900715Y-107472143D01*
X165900715Y-107579286D01*
X165865001Y-107650714D01*
X165829286Y-107686429D01*
X165757858Y-107722143D01*
X165472143Y-107722143D01*
X166186429Y-107400714D02*
X166222143Y-107365000D01*
X166293572Y-107329286D01*
X166472143Y-107329286D01*
X166543572Y-107365000D01*
X166579286Y-107400714D01*
X166615001Y-107472143D01*
X166615001Y-107543571D01*
X166579286Y-107650714D01*
X166150715Y-108079286D01*
X166615001Y-108079286D01*
X118133572Y-111909286D02*
X118562143Y-111909286D01*
X118347857Y-112659286D02*
X118347857Y-111909286D01*
X118812143Y-112659286D02*
X118812143Y-111909286D01*
X119097858Y-111909286D01*
X119169286Y-111945000D01*
X119205001Y-111980714D01*
X119240715Y-112052143D01*
X119240715Y-112159286D01*
X119205001Y-112230714D01*
X119169286Y-112266429D01*
X119097858Y-112302143D01*
X118812143Y-112302143D01*
X119490715Y-111909286D02*
X119955001Y-111909286D01*
X119705001Y-112195000D01*
X119812143Y-112195000D01*
X119883572Y-112230714D01*
X119919286Y-112266429D01*
X119955001Y-112337857D01*
X119955001Y-112516429D01*
X119919286Y-112587857D01*
X119883572Y-112623571D01*
X119812143Y-112659286D01*
X119597858Y-112659286D01*
X119526429Y-112623571D01*
X119490715Y-112587857D01*
X146903572Y-130989286D02*
X147332143Y-130989286D01*
X147117857Y-131739286D02*
X147117857Y-130989286D01*
X147582143Y-131739286D02*
X147582143Y-130989286D01*
X147867858Y-130989286D01*
X147939286Y-131025000D01*
X147975001Y-131060714D01*
X148010715Y-131132143D01*
X148010715Y-131239286D01*
X147975001Y-131310714D01*
X147939286Y-131346429D01*
X147867858Y-131382143D01*
X147582143Y-131382143D01*
X148653572Y-131239286D02*
X148653572Y-131739286D01*
X148475001Y-130953571D02*
X148296429Y-131489286D01*
X148760715Y-131489286D01*
X148643572Y-116489286D02*
X149072143Y-116489286D01*
X148857857Y-117239286D02*
X148857857Y-116489286D01*
X149322143Y-117239286D02*
X149322143Y-116489286D01*
X149607858Y-116489286D01*
X149679286Y-116525000D01*
X149715001Y-116560714D01*
X149750715Y-116632143D01*
X149750715Y-116739286D01*
X149715001Y-116810714D01*
X149679286Y-116846429D01*
X149607858Y-116882143D01*
X149322143Y-116882143D01*
X150429286Y-116489286D02*
X150072143Y-116489286D01*
X150036429Y-116846429D01*
X150072143Y-116810714D01*
X150143572Y-116775000D01*
X150322143Y-116775000D01*
X150393572Y-116810714D01*
X150429286Y-116846429D01*
X150465001Y-116917857D01*
X150465001Y-117096429D01*
X150429286Y-117167857D01*
X150393572Y-117203571D01*
X150322143Y-117239286D01*
X150143572Y-117239286D01*
X150072143Y-117203571D01*
X150036429Y-117167857D01*
M02*
