M48
;DRILL file {KiCad 4.0.5} date Thursday, March 02, 2017 'AMt' 11:59:17 AM
;FORMAT={-:-/ absolute / metric / decimal}
FMAT,2
METRIC,TZ
T1C0.400
T2C0.701
T3C0.762
T4C0.800
T5C0.900
T6C1.001
T7C1.016
T8C1.200
T9C3.200
%
G90
G05
M71
T1
X128.417Y-116.621
X130.817Y-116.621
X136.46Y-108.46
X143.52Y-120.28
X143.56Y-122.76
X143.6Y-117.65
X157.977Y-116.151
X157.977Y-122.881
X168.56Y-119.38
T2
X165.665Y-113.07
X165.665Y-123.23
X168.19Y-113.091
X168.19Y-123.251
X170.665Y-113.07
X170.665Y-123.23
X173.193Y-113.081
X173.193Y-123.241
X175.667Y-113.059
X175.667Y-123.219
X178.103Y-113.081
X178.103Y-123.241
X180.657Y-113.059
X180.657Y-123.219
X183.123Y-113.081
X183.123Y-123.241
T3
X111.847Y-115.121
X111.847Y-130.361
X114.387Y-115.121
X114.387Y-130.361
X116.927Y-115.121
X116.927Y-130.361
X119.467Y-115.121
X119.467Y-130.361
X122.007Y-115.121
X122.007Y-130.361
X124.547Y-115.121
X124.547Y-130.361
X127.087Y-115.121
X127.087Y-127.821
X127.087Y-130.361
X129.627Y-115.121
X129.627Y-127.821
X129.627Y-130.361
X132.167Y-115.121
X132.167Y-130.361
X134.707Y-115.121
X134.707Y-130.361
X137.247Y-115.121
X137.247Y-130.361
X139.787Y-115.121
X139.787Y-130.361
X142.327Y-116.391
X142.327Y-118.931
X142.327Y-121.471
X142.327Y-124.011
X142.327Y-126.551
X142.327Y-129.091
T4
X111.85Y-112.26
X116.97Y-112.26
X147.84Y-129.57
X149.5Y-114.99
X150.74Y-125.
X150.74Y-127.5
X152.577Y-113.261
X155.077Y-113.261
X165.74Y-109.41
T5
X154.987Y-127.101
X157.907Y-113.261
X159.987Y-127.101
X162.907Y-113.261
T6
X128.017Y-102.371
X128.017Y-109.991
X131.257Y-102.371
X131.257Y-109.991
X134.497Y-102.371
X134.497Y-109.991
X139.027Y-102.321
X139.027Y-104.861
X145.007Y-102.321
X145.007Y-104.861
X150.987Y-102.321
X150.987Y-104.861
X162.497Y-101.821
X162.497Y-109.441
X166.747Y-102.321
X166.747Y-104.861
T7
X102.947Y-111.081
X102.947Y-113.621
X111.02Y-102.56
X113.56Y-102.56
X119.017Y-102.011
X119.017Y-104.551
X119.017Y-107.091
X124.017Y-102.011
X124.017Y-104.551
X124.017Y-107.091
X124.017Y-109.631
X140.677Y-108.581
X140.677Y-111.121
X143.217Y-108.581
X143.217Y-111.121
X145.757Y-108.581
X145.757Y-111.121
X148.297Y-108.581
X148.297Y-111.121
X157.257Y-102.001
X157.257Y-104.541
X157.257Y-107.081
X171.89Y-102.64
X174.43Y-102.64
X180.417Y-109.641
X182.957Y-109.641
T8
X110.477Y-104.471
X113.977Y-104.471
X163.507Y-127.991
X167.007Y-127.991
X171.017Y-127.991
X171.537Y-104.471
X174.517Y-127.991
X175.037Y-104.471
T9
X103.917Y-128.551
X103.997Y-103.991
X180.897Y-103.991
X180.897Y-128.391
T0
M30
