G04 #@! TF.FileFunction,Legend,Bot*
%FSLAX46Y46*%
G04 Gerber Fmt 4.6, Leading zero omitted, Abs format (unit mm)*
G04 Created by KiCad (PCBNEW 4.0.5) date Thursday, March 02, 2017 'AMt' 11:59:14 AM*
%MOMM*%
%LPD*%
G01*
G04 APERTURE LIST*
%ADD10C,0.100000*%
%ADD11C,0.300000*%
%ADD12C,0.150000*%
%ADD13C,0.187500*%
%ADD14C,0.125000*%
%ADD15C,0.010000*%
G04 APERTURE END LIST*
D10*
D11*
X164652857Y-116394286D02*
X164652857Y-116680000D01*
X164581428Y-116680000D02*
X164581428Y-116394286D01*
X164510000Y-116322857D02*
X164510000Y-116751429D01*
X164438571Y-116680000D02*
X164438571Y-116394286D01*
X164367142Y-116394286D02*
X164367142Y-116680000D01*
X164652857Y-116608571D02*
X164510000Y-116751429D01*
X164367142Y-116608571D01*
X164652857Y-116465714D02*
X164510000Y-116322857D01*
X164367142Y-116465714D01*
X164652857Y-116394286D02*
X164510000Y-116322857D01*
X164367142Y-116394286D01*
X164295714Y-116537143D01*
X164367142Y-116680000D01*
X164510000Y-116751429D01*
X164652857Y-116680000D01*
X164724285Y-116537143D01*
X164652857Y-116394286D01*
D12*
X138830001Y-117955357D02*
X138901429Y-117919643D01*
X139044286Y-117919643D01*
X139115715Y-117955357D01*
X139187144Y-118026786D01*
X139222858Y-118098214D01*
X139222858Y-118241071D01*
X139187144Y-118312500D01*
X139115715Y-118383929D01*
X139044286Y-118419643D01*
X138901429Y-118419643D01*
X138830001Y-118383929D01*
X138972858Y-117669643D02*
X139151429Y-117705357D01*
X139330001Y-117812500D01*
X139437144Y-117991071D01*
X139472858Y-118169643D01*
X139437144Y-118348214D01*
X139330001Y-118526786D01*
X139151429Y-118633929D01*
X138972858Y-118669643D01*
X138794286Y-118633929D01*
X138615715Y-118526786D01*
X138508572Y-118348214D01*
X138472858Y-118169643D01*
X138508572Y-117991071D01*
X138615715Y-117812500D01*
X138794286Y-117705357D01*
X138972858Y-117669643D01*
X138187144Y-117848214D02*
X138151430Y-117812500D01*
X138080001Y-117776786D01*
X137901430Y-117776786D01*
X137830001Y-117812500D01*
X137794287Y-117848214D01*
X137758572Y-117919643D01*
X137758572Y-117991071D01*
X137794287Y-118098214D01*
X138222858Y-118526786D01*
X137758572Y-118526786D01*
X137294286Y-117776786D02*
X137222858Y-117776786D01*
X137151429Y-117812500D01*
X137115715Y-117848214D01*
X137080001Y-117919643D01*
X137044286Y-118062500D01*
X137044286Y-118241071D01*
X137080001Y-118383929D01*
X137115715Y-118455357D01*
X137151429Y-118491071D01*
X137222858Y-118526786D01*
X137294286Y-118526786D01*
X137365715Y-118491071D01*
X137401429Y-118455357D01*
X137437144Y-118383929D01*
X137472858Y-118241071D01*
X137472858Y-118062500D01*
X137437144Y-117919643D01*
X137401429Y-117848214D01*
X137365715Y-117812500D01*
X137294286Y-117776786D01*
X136330000Y-118526786D02*
X136758572Y-118526786D01*
X136544286Y-118526786D02*
X136544286Y-117776786D01*
X136615715Y-117883929D01*
X136687143Y-117955357D01*
X136758572Y-117991071D01*
X136080000Y-117776786D02*
X135580000Y-117776786D01*
X135901429Y-118526786D01*
X134794285Y-117776786D02*
X134615714Y-118526786D01*
X134472857Y-117991071D01*
X134329999Y-118526786D01*
X134151428Y-117776786D01*
X133615714Y-118133929D02*
X133865714Y-118133929D01*
X133865714Y-118526786D02*
X133865714Y-117776786D01*
X133508571Y-117776786D01*
X133222857Y-118526786D02*
X133222857Y-117776786D01*
X132937142Y-117776786D01*
X132865714Y-117812500D01*
X132829999Y-117848214D01*
X132794285Y-117919643D01*
X132794285Y-118026786D01*
X132829999Y-118098214D01*
X132865714Y-118133929D01*
X132937142Y-118169643D01*
X133222857Y-118169643D01*
X132115714Y-118526786D02*
X132472857Y-118526786D01*
X132472857Y-117776786D01*
X139508570Y-119730357D02*
X139544284Y-119766071D01*
X139651427Y-119801786D01*
X139722856Y-119801786D01*
X139829999Y-119766071D01*
X139901427Y-119694643D01*
X139937142Y-119623214D01*
X139972856Y-119480357D01*
X139972856Y-119373214D01*
X139937142Y-119230357D01*
X139901427Y-119158929D01*
X139829999Y-119087500D01*
X139722856Y-119051786D01*
X139651427Y-119051786D01*
X139544284Y-119087500D01*
X139508570Y-119123214D01*
X138758570Y-119730357D02*
X138794284Y-119766071D01*
X138901427Y-119801786D01*
X138972856Y-119801786D01*
X139079999Y-119766071D01*
X139151427Y-119694643D01*
X139187142Y-119623214D01*
X139222856Y-119480357D01*
X139222856Y-119373214D01*
X139187142Y-119230357D01*
X139151427Y-119158929D01*
X139079999Y-119087500D01*
X138972856Y-119051786D01*
X138901427Y-119051786D01*
X138794284Y-119087500D01*
X138758570Y-119123214D01*
X138437142Y-119516071D02*
X137865713Y-119516071D01*
X137258571Y-119408929D02*
X137151428Y-119444643D01*
X137115713Y-119480357D01*
X137079999Y-119551786D01*
X137079999Y-119658929D01*
X137115713Y-119730357D01*
X137151428Y-119766071D01*
X137222856Y-119801786D01*
X137508571Y-119801786D01*
X137508571Y-119051786D01*
X137258571Y-119051786D01*
X137187142Y-119087500D01*
X137151428Y-119123214D01*
X137115713Y-119194643D01*
X137115713Y-119266071D01*
X137151428Y-119337500D01*
X137187142Y-119373214D01*
X137258571Y-119408929D01*
X137508571Y-119408929D01*
X136615713Y-119444643D02*
X136615713Y-119801786D01*
X136865713Y-119051786D02*
X136615713Y-119444643D01*
X136365713Y-119051786D01*
X136115714Y-119516071D02*
X135544285Y-119516071D01*
X135187143Y-119801786D02*
X135187143Y-119051786D01*
X134758571Y-119801786D01*
X134758571Y-119051786D01*
X133972857Y-119730357D02*
X134008571Y-119766071D01*
X134115714Y-119801786D01*
X134187143Y-119801786D01*
X134294286Y-119766071D01*
X134365714Y-119694643D01*
X134401429Y-119623214D01*
X134437143Y-119480357D01*
X134437143Y-119373214D01*
X134401429Y-119230357D01*
X134365714Y-119158929D01*
X134294286Y-119087500D01*
X134187143Y-119051786D01*
X134115714Y-119051786D01*
X134008571Y-119087500D01*
X133972857Y-119123214D01*
X133651429Y-119516071D02*
X133080000Y-119516071D01*
X132758572Y-119766071D02*
X132651429Y-119801786D01*
X132472858Y-119801786D01*
X132401429Y-119766071D01*
X132365715Y-119730357D01*
X132330000Y-119658929D01*
X132330000Y-119587500D01*
X132365715Y-119516071D01*
X132401429Y-119480357D01*
X132472858Y-119444643D01*
X132615715Y-119408929D01*
X132687143Y-119373214D01*
X132722858Y-119337500D01*
X132758572Y-119266071D01*
X132758572Y-119194643D01*
X132722858Y-119123214D01*
X132687143Y-119087500D01*
X132615715Y-119051786D01*
X132437143Y-119051786D01*
X132330000Y-119087500D01*
X132044286Y-119587500D02*
X131687143Y-119587500D01*
X132115714Y-119801786D02*
X131865714Y-119051786D01*
X131615714Y-119801786D01*
X138901428Y-122351786D02*
X139258571Y-122351786D01*
X139258571Y-121601786D01*
X138544285Y-122351786D02*
X138615713Y-122316071D01*
X138651428Y-122280357D01*
X138687142Y-122208929D01*
X138687142Y-121994643D01*
X138651428Y-121923214D01*
X138615713Y-121887500D01*
X138544285Y-121851786D01*
X138437142Y-121851786D01*
X138365713Y-121887500D01*
X138329999Y-121923214D01*
X138294285Y-121994643D01*
X138294285Y-122208929D01*
X138329999Y-122280357D01*
X138365713Y-122316071D01*
X138437142Y-122351786D01*
X138544285Y-122351786D01*
X137651428Y-121851786D02*
X137651428Y-122458929D01*
X137687142Y-122530357D01*
X137722857Y-122566071D01*
X137794285Y-122601786D01*
X137901428Y-122601786D01*
X137972857Y-122566071D01*
X137651428Y-122316071D02*
X137722857Y-122351786D01*
X137865714Y-122351786D01*
X137937142Y-122316071D01*
X137972857Y-122280357D01*
X138008571Y-122208929D01*
X138008571Y-121994643D01*
X137972857Y-121923214D01*
X137937142Y-121887500D01*
X137865714Y-121851786D01*
X137722857Y-121851786D01*
X137651428Y-121887500D01*
X137294286Y-122351786D02*
X137294286Y-121851786D01*
X137294286Y-121601786D02*
X137330000Y-121637500D01*
X137294286Y-121673214D01*
X137258571Y-121637500D01*
X137294286Y-121601786D01*
X137294286Y-121673214D01*
X136615714Y-122316071D02*
X136687143Y-122351786D01*
X136830000Y-122351786D01*
X136901428Y-122316071D01*
X136937143Y-122280357D01*
X136972857Y-122208929D01*
X136972857Y-121994643D01*
X136937143Y-121923214D01*
X136901428Y-121887500D01*
X136830000Y-121851786D01*
X136687143Y-121851786D01*
X136615714Y-121887500D01*
X135722857Y-122351786D02*
X135722857Y-121601786D01*
X135437142Y-121601786D01*
X135365714Y-121637500D01*
X135329999Y-121673214D01*
X135294285Y-121744643D01*
X135294285Y-121851786D01*
X135329999Y-121923214D01*
X135365714Y-121958929D01*
X135437142Y-121994643D01*
X135722857Y-121994643D01*
X134865714Y-122351786D02*
X134937142Y-122316071D01*
X134972857Y-122280357D01*
X135008571Y-122208929D01*
X135008571Y-121994643D01*
X134972857Y-121923214D01*
X134937142Y-121887500D01*
X134865714Y-121851786D01*
X134758571Y-121851786D01*
X134687142Y-121887500D01*
X134651428Y-121923214D01*
X134615714Y-121994643D01*
X134615714Y-122208929D01*
X134651428Y-122280357D01*
X134687142Y-122316071D01*
X134758571Y-122351786D01*
X134865714Y-122351786D01*
X134365714Y-121851786D02*
X134222857Y-122351786D01*
X134080000Y-121994643D01*
X133937143Y-122351786D01*
X133794286Y-121851786D01*
X133222857Y-122316071D02*
X133294286Y-122351786D01*
X133437143Y-122351786D01*
X133508572Y-122316071D01*
X133544286Y-122244643D01*
X133544286Y-121958929D01*
X133508572Y-121887500D01*
X133437143Y-121851786D01*
X133294286Y-121851786D01*
X133222857Y-121887500D01*
X133187143Y-121958929D01*
X133187143Y-122030357D01*
X133544286Y-122101786D01*
X132865715Y-122351786D02*
X132865715Y-121851786D01*
X132865715Y-121994643D02*
X132830000Y-121923214D01*
X132794286Y-121887500D01*
X132722857Y-121851786D01*
X132651429Y-121851786D01*
X132401429Y-122280357D02*
X132365714Y-122316071D01*
X132401429Y-122351786D01*
X132437143Y-122316071D01*
X132401429Y-122280357D01*
X132401429Y-122351786D01*
X132401429Y-121887500D02*
X132365714Y-121923214D01*
X132401429Y-121958929D01*
X132437143Y-121923214D01*
X132401429Y-121887500D01*
X132401429Y-121958929D01*
X139705001Y-122876786D02*
X139847858Y-122876786D01*
X139919287Y-122912500D01*
X139955001Y-122948214D01*
X140026430Y-123055357D01*
X140062144Y-123198214D01*
X140062144Y-123483929D01*
X140026430Y-123555357D01*
X139990715Y-123591071D01*
X139919287Y-123626786D01*
X139776430Y-123626786D01*
X139705001Y-123591071D01*
X139669287Y-123555357D01*
X139633572Y-123483929D01*
X139633572Y-123305357D01*
X139669287Y-123233929D01*
X139705001Y-123198214D01*
X139776430Y-123162500D01*
X139919287Y-123162500D01*
X139990715Y-123198214D01*
X140026430Y-123233929D01*
X140062144Y-123305357D01*
X139419286Y-122876786D02*
X139169286Y-123626786D01*
X138919286Y-122876786D01*
X138669287Y-123626786D02*
X138669287Y-122876786D01*
X138490715Y-122876786D01*
X138383572Y-122912500D01*
X138312144Y-122983929D01*
X138276429Y-123055357D01*
X138240715Y-123198214D01*
X138240715Y-123305357D01*
X138276429Y-123448214D01*
X138312144Y-123519643D01*
X138383572Y-123591071D01*
X138490715Y-123626786D01*
X138669287Y-123626786D01*
X137490715Y-123555357D02*
X137526429Y-123591071D01*
X137633572Y-123626786D01*
X137705001Y-123626786D01*
X137812144Y-123591071D01*
X137883572Y-123519643D01*
X137919287Y-123448214D01*
X137955001Y-123305357D01*
X137955001Y-123198214D01*
X137919287Y-123055357D01*
X137883572Y-122983929D01*
X137812144Y-122912500D01*
X137705001Y-122876786D01*
X137633572Y-122876786D01*
X137526429Y-122912500D01*
X137490715Y-122948214D01*
X136133572Y-123269643D02*
X136169286Y-123233929D01*
X136240715Y-123198214D01*
X136312143Y-123198214D01*
X136383572Y-123233929D01*
X136419286Y-123269643D01*
X136455000Y-123341071D01*
X136455000Y-123412500D01*
X136419286Y-123483929D01*
X136383572Y-123519643D01*
X136312143Y-123555357D01*
X136240715Y-123555357D01*
X136169286Y-123519643D01*
X136133572Y-123483929D01*
X136133572Y-123198214D02*
X136133572Y-123483929D01*
X136097858Y-123519643D01*
X136062143Y-123519643D01*
X135990715Y-123483929D01*
X135955000Y-123412500D01*
X135955000Y-123233929D01*
X136026429Y-123126786D01*
X136133572Y-123055357D01*
X136276429Y-123019643D01*
X136419286Y-123055357D01*
X136526429Y-123126786D01*
X136597858Y-123233929D01*
X136633572Y-123376786D01*
X136597858Y-123519643D01*
X136526429Y-123626786D01*
X136419286Y-123698214D01*
X136276429Y-123733929D01*
X136133572Y-123698214D01*
X136026429Y-123626786D01*
X134669285Y-123626786D02*
X135097857Y-123626786D01*
X134883571Y-123626786D02*
X134883571Y-122876786D01*
X134955000Y-122983929D01*
X135026428Y-123055357D01*
X135097857Y-123091071D01*
X134204999Y-122876786D02*
X134133571Y-122876786D01*
X134062142Y-122912500D01*
X134026428Y-122948214D01*
X133990714Y-123019643D01*
X133954999Y-123162500D01*
X133954999Y-123341071D01*
X133990714Y-123483929D01*
X134026428Y-123555357D01*
X134062142Y-123591071D01*
X134133571Y-123626786D01*
X134204999Y-123626786D01*
X134276428Y-123591071D01*
X134312142Y-123555357D01*
X134347857Y-123483929D01*
X134383571Y-123341071D01*
X134383571Y-123162500D01*
X134347857Y-123019643D01*
X134312142Y-122948214D01*
X134276428Y-122912500D01*
X134204999Y-122876786D01*
X133490713Y-122876786D02*
X133419285Y-122876786D01*
X133347856Y-122912500D01*
X133312142Y-122948214D01*
X133276428Y-123019643D01*
X133240713Y-123162500D01*
X133240713Y-123341071D01*
X133276428Y-123483929D01*
X133312142Y-123555357D01*
X133347856Y-123591071D01*
X133419285Y-123626786D01*
X133490713Y-123626786D01*
X133562142Y-123591071D01*
X133597856Y-123555357D01*
X133633571Y-123483929D01*
X133669285Y-123341071D01*
X133669285Y-123162500D01*
X133633571Y-123019643D01*
X133597856Y-122948214D01*
X133562142Y-122912500D01*
X133490713Y-122876786D01*
X132919285Y-123626786D02*
X132919285Y-123126786D01*
X132919285Y-123198214D02*
X132883570Y-123162500D01*
X132812142Y-123126786D01*
X132704999Y-123126786D01*
X132633570Y-123162500D01*
X132597856Y-123233929D01*
X132597856Y-123626786D01*
X132597856Y-123233929D02*
X132562142Y-123162500D01*
X132490713Y-123126786D01*
X132383570Y-123126786D01*
X132312142Y-123162500D01*
X132276427Y-123233929D01*
X132276427Y-123626786D01*
X131954999Y-123412500D02*
X131597856Y-123412500D01*
X132026427Y-123626786D02*
X131776427Y-122876786D01*
X131526427Y-123626786D01*
X139330000Y-126176786D02*
X139330000Y-125426786D01*
X139080000Y-125962500D01*
X138830000Y-125426786D01*
X138830000Y-126176786D01*
X138365714Y-126176786D02*
X138437142Y-126141071D01*
X138472857Y-126105357D01*
X138508571Y-126033929D01*
X138508571Y-125819643D01*
X138472857Y-125748214D01*
X138437142Y-125712500D01*
X138365714Y-125676786D01*
X138258571Y-125676786D01*
X138187142Y-125712500D01*
X138151428Y-125748214D01*
X138115714Y-125819643D01*
X138115714Y-126033929D01*
X138151428Y-126105357D01*
X138187142Y-126141071D01*
X138258571Y-126176786D01*
X138365714Y-126176786D01*
X137901428Y-125676786D02*
X137615714Y-125676786D01*
X137794286Y-125426786D02*
X137794286Y-126069643D01*
X137758571Y-126141071D01*
X137687143Y-126176786D01*
X137615714Y-126176786D01*
X137258572Y-126176786D02*
X137330000Y-126141071D01*
X137365715Y-126105357D01*
X137401429Y-126033929D01*
X137401429Y-125819643D01*
X137365715Y-125748214D01*
X137330000Y-125712500D01*
X137258572Y-125676786D01*
X137151429Y-125676786D01*
X137080000Y-125712500D01*
X137044286Y-125748214D01*
X137008572Y-125819643D01*
X137008572Y-126033929D01*
X137044286Y-126105357D01*
X137080000Y-126141071D01*
X137151429Y-126176786D01*
X137258572Y-126176786D01*
X136687144Y-126176786D02*
X136687144Y-125676786D01*
X136687144Y-125819643D02*
X136651429Y-125748214D01*
X136615715Y-125712500D01*
X136544286Y-125676786D01*
X136472858Y-125676786D01*
X135651429Y-126176786D02*
X135651429Y-125426786D01*
X135365714Y-125426786D01*
X135294286Y-125462500D01*
X135258571Y-125498214D01*
X135222857Y-125569643D01*
X135222857Y-125676786D01*
X135258571Y-125748214D01*
X135294286Y-125783929D01*
X135365714Y-125819643D01*
X135651429Y-125819643D01*
X134794286Y-126176786D02*
X134865714Y-126141071D01*
X134901429Y-126105357D01*
X134937143Y-126033929D01*
X134937143Y-125819643D01*
X134901429Y-125748214D01*
X134865714Y-125712500D01*
X134794286Y-125676786D01*
X134687143Y-125676786D01*
X134615714Y-125712500D01*
X134580000Y-125748214D01*
X134544286Y-125819643D01*
X134544286Y-126033929D01*
X134580000Y-126105357D01*
X134615714Y-126141071D01*
X134687143Y-126176786D01*
X134794286Y-126176786D01*
X134294286Y-125676786D02*
X134151429Y-126176786D01*
X134008572Y-125819643D01*
X133865715Y-126176786D01*
X133722858Y-125676786D01*
X133151429Y-126141071D02*
X133222858Y-126176786D01*
X133365715Y-126176786D01*
X133437144Y-126141071D01*
X133472858Y-126069643D01*
X133472858Y-125783929D01*
X133437144Y-125712500D01*
X133365715Y-125676786D01*
X133222858Y-125676786D01*
X133151429Y-125712500D01*
X133115715Y-125783929D01*
X133115715Y-125855357D01*
X133472858Y-125926786D01*
X132794287Y-126176786D02*
X132794287Y-125676786D01*
X132794287Y-125819643D02*
X132758572Y-125748214D01*
X132722858Y-125712500D01*
X132651429Y-125676786D01*
X132580001Y-125676786D01*
X132330001Y-126105357D02*
X132294286Y-126141071D01*
X132330001Y-126176786D01*
X132365715Y-126141071D01*
X132330001Y-126105357D01*
X132330001Y-126176786D01*
X132330001Y-125712500D02*
X132294286Y-125748214D01*
X132330001Y-125783929D01*
X132365715Y-125748214D01*
X132330001Y-125712500D01*
X132330001Y-125783929D01*
X139419286Y-126701786D02*
X138955000Y-126701786D01*
X139205000Y-126987500D01*
X139097858Y-126987500D01*
X139026429Y-127023214D01*
X138990715Y-127058929D01*
X138955000Y-127130357D01*
X138955000Y-127308929D01*
X138990715Y-127380357D01*
X139026429Y-127416071D01*
X139097858Y-127451786D01*
X139312143Y-127451786D01*
X139383572Y-127416071D01*
X139419286Y-127380357D01*
X138633572Y-127380357D02*
X138597857Y-127416071D01*
X138633572Y-127451786D01*
X138669286Y-127416071D01*
X138633572Y-127380357D01*
X138633572Y-127451786D01*
X138347857Y-126701786D02*
X137883571Y-126701786D01*
X138133571Y-126987500D01*
X138026429Y-126987500D01*
X137955000Y-127023214D01*
X137919286Y-127058929D01*
X137883571Y-127130357D01*
X137883571Y-127308929D01*
X137919286Y-127380357D01*
X137955000Y-127416071D01*
X138026429Y-127451786D01*
X138240714Y-127451786D01*
X138312143Y-127416071D01*
X138347857Y-127380357D01*
X137669285Y-126701786D02*
X137419285Y-127451786D01*
X137169285Y-126701786D01*
X136919286Y-127451786D02*
X136919286Y-126701786D01*
X136740714Y-126701786D01*
X136633571Y-126737500D01*
X136562143Y-126808929D01*
X136526428Y-126880357D01*
X136490714Y-127023214D01*
X136490714Y-127130357D01*
X136526428Y-127273214D01*
X136562143Y-127344643D01*
X136633571Y-127416071D01*
X136740714Y-127451786D01*
X136919286Y-127451786D01*
X135740714Y-127380357D02*
X135776428Y-127416071D01*
X135883571Y-127451786D01*
X135955000Y-127451786D01*
X136062143Y-127416071D01*
X136133571Y-127344643D01*
X136169286Y-127273214D01*
X136205000Y-127130357D01*
X136205000Y-127023214D01*
X136169286Y-126880357D01*
X136133571Y-126808929D01*
X136062143Y-126737500D01*
X135955000Y-126701786D01*
X135883571Y-126701786D01*
X135776428Y-126737500D01*
X135740714Y-126773214D01*
X134383571Y-127094643D02*
X134419285Y-127058929D01*
X134490714Y-127023214D01*
X134562142Y-127023214D01*
X134633571Y-127058929D01*
X134669285Y-127094643D01*
X134704999Y-127166071D01*
X134704999Y-127237500D01*
X134669285Y-127308929D01*
X134633571Y-127344643D01*
X134562142Y-127380357D01*
X134490714Y-127380357D01*
X134419285Y-127344643D01*
X134383571Y-127308929D01*
X134383571Y-127023214D02*
X134383571Y-127308929D01*
X134347857Y-127344643D01*
X134312142Y-127344643D01*
X134240714Y-127308929D01*
X134204999Y-127237500D01*
X134204999Y-127058929D01*
X134276428Y-126951786D01*
X134383571Y-126880357D01*
X134526428Y-126844643D01*
X134669285Y-126880357D01*
X134776428Y-126951786D01*
X134847857Y-127058929D01*
X134883571Y-127201786D01*
X134847857Y-127344643D01*
X134776428Y-127451786D01*
X134669285Y-127523214D01*
X134526428Y-127558929D01*
X134383571Y-127523214D01*
X134276428Y-127451786D01*
X133383570Y-126701786D02*
X132919284Y-126701786D01*
X133169284Y-126987500D01*
X133062142Y-126987500D01*
X132990713Y-127023214D01*
X132954999Y-127058929D01*
X132919284Y-127130357D01*
X132919284Y-127308929D01*
X132954999Y-127380357D01*
X132990713Y-127416071D01*
X133062142Y-127451786D01*
X133276427Y-127451786D01*
X133347856Y-127416071D01*
X133383570Y-127380357D01*
X132633570Y-127237500D02*
X132276427Y-127237500D01*
X132704998Y-127451786D02*
X132454998Y-126701786D01*
X132204998Y-127451786D01*
D13*
X155321048Y-116403429D02*
X156082953Y-116403429D01*
X155702001Y-116784381D02*
X155702001Y-116022476D01*
D14*
X121955236Y-118233690D02*
X121955236Y-117733690D01*
X121836189Y-117733690D01*
X121764760Y-117757500D01*
X121717141Y-117805119D01*
X121693332Y-117852738D01*
X121669522Y-117947976D01*
X121669522Y-118019405D01*
X121693332Y-118114643D01*
X121717141Y-118162262D01*
X121764760Y-118209881D01*
X121836189Y-118233690D01*
X121955236Y-118233690D01*
X121193332Y-118233690D02*
X121479046Y-118233690D01*
X121336189Y-118233690D02*
X121336189Y-117733690D01*
X121383808Y-117805119D01*
X121431427Y-117852738D01*
X121479046Y-117876548D01*
X120979046Y-118043214D02*
X120598094Y-118043214D01*
X120288570Y-117947976D02*
X120336189Y-117924167D01*
X120359998Y-117900357D01*
X120383808Y-117852738D01*
X120383808Y-117828929D01*
X120359998Y-117781310D01*
X120336189Y-117757500D01*
X120288570Y-117733690D01*
X120193332Y-117733690D01*
X120145713Y-117757500D01*
X120121903Y-117781310D01*
X120098094Y-117828929D01*
X120098094Y-117852738D01*
X120121903Y-117900357D01*
X120145713Y-117924167D01*
X120193332Y-117947976D01*
X120288570Y-117947976D01*
X120336189Y-117971786D01*
X120359998Y-117995595D01*
X120383808Y-118043214D01*
X120383808Y-118138452D01*
X120359998Y-118186071D01*
X120336189Y-118209881D01*
X120288570Y-118233690D01*
X120193332Y-118233690D01*
X120145713Y-118209881D01*
X120121903Y-118186071D01*
X120098094Y-118138452D01*
X120098094Y-118043214D01*
X120121903Y-117995595D01*
X120145713Y-117971786D01*
X120193332Y-117947976D01*
X119288571Y-118233690D02*
X119288571Y-117971786D01*
X119312380Y-117924167D01*
X119359999Y-117900357D01*
X119455237Y-117900357D01*
X119502856Y-117924167D01*
X119288571Y-118209881D02*
X119336190Y-118233690D01*
X119455237Y-118233690D01*
X119502856Y-118209881D01*
X119526666Y-118162262D01*
X119526666Y-118114643D01*
X119502856Y-118067024D01*
X119455237Y-118043214D01*
X119336190Y-118043214D01*
X119288571Y-118019405D01*
X119050475Y-118233690D02*
X119050475Y-117900357D01*
X119050475Y-117995595D02*
X119026666Y-117947976D01*
X119002856Y-117924167D01*
X118955237Y-117900357D01*
X118907618Y-117900357D01*
X118550475Y-118209881D02*
X118598094Y-118233690D01*
X118693332Y-118233690D01*
X118740951Y-118209881D01*
X118764761Y-118162262D01*
X118764761Y-117971786D01*
X118740951Y-117924167D01*
X118693332Y-117900357D01*
X118598094Y-117900357D01*
X118550475Y-117924167D01*
X118526666Y-117971786D01*
X118526666Y-118019405D01*
X118764761Y-118067024D01*
X117669524Y-118233690D02*
X117955238Y-118233690D01*
X117812381Y-118233690D02*
X117812381Y-117733690D01*
X117860000Y-117805119D01*
X117907619Y-117852738D01*
X117955238Y-117876548D01*
X117455238Y-118233690D02*
X117455238Y-117733690D01*
X117169524Y-118233690D01*
X117169524Y-117733690D01*
X116717143Y-117900357D02*
X116717143Y-118233690D01*
X116836190Y-117709881D02*
X116955238Y-118067024D01*
X116645714Y-118067024D01*
X116360000Y-117733690D02*
X116312381Y-117733690D01*
X116264762Y-117757500D01*
X116240953Y-117781310D01*
X116217143Y-117828929D01*
X116193334Y-117924167D01*
X116193334Y-118043214D01*
X116217143Y-118138452D01*
X116240953Y-118186071D01*
X116264762Y-118209881D01*
X116312381Y-118233690D01*
X116360000Y-118233690D01*
X116407619Y-118209881D01*
X116431429Y-118186071D01*
X116455238Y-118138452D01*
X116479048Y-118043214D01*
X116479048Y-117924167D01*
X116455238Y-117828929D01*
X116431429Y-117781310D01*
X116407619Y-117757500D01*
X116360000Y-117733690D01*
X115883810Y-117733690D02*
X115836191Y-117733690D01*
X115788572Y-117757500D01*
X115764763Y-117781310D01*
X115740953Y-117828929D01*
X115717144Y-117924167D01*
X115717144Y-118043214D01*
X115740953Y-118138452D01*
X115764763Y-118186071D01*
X115788572Y-118209881D01*
X115836191Y-118233690D01*
X115883810Y-118233690D01*
X115931429Y-118209881D01*
X115955239Y-118186071D01*
X115979048Y-118138452D01*
X116002858Y-118043214D01*
X116002858Y-117924167D01*
X115979048Y-117828929D01*
X115955239Y-117781310D01*
X115931429Y-117757500D01*
X115883810Y-117733690D01*
X115240954Y-118233690D02*
X115526668Y-118233690D01*
X115383811Y-118233690D02*
X115383811Y-117733690D01*
X115431430Y-117805119D01*
X115479049Y-117852738D01*
X115526668Y-117876548D01*
X121026666Y-119108690D02*
X121074285Y-119084881D01*
X121098094Y-119061071D01*
X121121904Y-119013452D01*
X121121904Y-118870595D01*
X121098094Y-118822976D01*
X121074285Y-118799167D01*
X121026666Y-118775357D01*
X120955237Y-118775357D01*
X120907618Y-118799167D01*
X120883809Y-118822976D01*
X120859999Y-118870595D01*
X120859999Y-119013452D01*
X120883809Y-119061071D01*
X120907618Y-119084881D01*
X120955237Y-119108690D01*
X121026666Y-119108690D01*
X120645713Y-119108690D02*
X120645713Y-118775357D01*
X120645713Y-118870595D02*
X120621904Y-118822976D01*
X120598094Y-118799167D01*
X120550475Y-118775357D01*
X120502856Y-118775357D01*
X119764761Y-119084881D02*
X119812380Y-119108690D01*
X119907618Y-119108690D01*
X119955237Y-119084881D01*
X119979047Y-119037262D01*
X119979047Y-118846786D01*
X119955237Y-118799167D01*
X119907618Y-118775357D01*
X119812380Y-118775357D01*
X119764761Y-118799167D01*
X119740952Y-118846786D01*
X119740952Y-118894405D01*
X119979047Y-118942024D01*
X119312381Y-118775357D02*
X119312381Y-119275357D01*
X119312381Y-119084881D02*
X119360000Y-119108690D01*
X119455238Y-119108690D01*
X119502857Y-119084881D01*
X119526666Y-119061071D01*
X119550476Y-119013452D01*
X119550476Y-118870595D01*
X119526666Y-118822976D01*
X119502857Y-118799167D01*
X119455238Y-118775357D01*
X119360000Y-118775357D01*
X119312381Y-118799167D01*
X118860000Y-118775357D02*
X118860000Y-119108690D01*
X119074285Y-118775357D02*
X119074285Y-119037262D01*
X119050476Y-119084881D01*
X119002857Y-119108690D01*
X118931428Y-119108690D01*
X118883809Y-119084881D01*
X118860000Y-119061071D01*
X118621904Y-119108690D02*
X118621904Y-118775357D01*
X118621904Y-118608690D02*
X118645714Y-118632500D01*
X118621904Y-118656310D01*
X118598095Y-118632500D01*
X118621904Y-118608690D01*
X118621904Y-118656310D01*
X118431428Y-118775357D02*
X118312381Y-119108690D01*
X118193333Y-118775357D01*
X117788572Y-119108690D02*
X117788572Y-118846786D01*
X117812381Y-118799167D01*
X117860000Y-118775357D01*
X117955238Y-118775357D01*
X118002857Y-118799167D01*
X117788572Y-119084881D02*
X117836191Y-119108690D01*
X117955238Y-119108690D01*
X118002857Y-119084881D01*
X118026667Y-119037262D01*
X118026667Y-118989643D01*
X118002857Y-118942024D01*
X117955238Y-118918214D01*
X117836191Y-118918214D01*
X117788572Y-118894405D01*
X117479048Y-119108690D02*
X117526667Y-119084881D01*
X117550476Y-119037262D01*
X117550476Y-118608690D01*
X117098095Y-119084881D02*
X117145714Y-119108690D01*
X117240952Y-119108690D01*
X117288571Y-119084881D01*
X117312381Y-119037262D01*
X117312381Y-118846786D01*
X117288571Y-118799167D01*
X117240952Y-118775357D01*
X117145714Y-118775357D01*
X117098095Y-118799167D01*
X117074286Y-118846786D01*
X117074286Y-118894405D01*
X117312381Y-118942024D01*
X116860000Y-118775357D02*
X116860000Y-119108690D01*
X116860000Y-118822976D02*
X116836191Y-118799167D01*
X116788572Y-118775357D01*
X116717143Y-118775357D01*
X116669524Y-118799167D01*
X116645715Y-118846786D01*
X116645715Y-119108690D01*
X116479048Y-118775357D02*
X116288572Y-118775357D01*
X116407619Y-118608690D02*
X116407619Y-119037262D01*
X116383810Y-119084881D01*
X116336191Y-119108690D01*
X116288572Y-119108690D01*
X116121905Y-119061071D02*
X116098096Y-119084881D01*
X116121905Y-119108690D01*
X116145715Y-119084881D01*
X116121905Y-119061071D01*
X116121905Y-119108690D01*
X122955237Y-120858690D02*
X123193332Y-120858690D01*
X123193332Y-120358690D01*
X122788570Y-120596786D02*
X122621904Y-120596786D01*
X122550475Y-120858690D02*
X122788570Y-120858690D01*
X122788570Y-120358690D01*
X122550475Y-120358690D01*
X122336189Y-120858690D02*
X122336189Y-120358690D01*
X122217142Y-120358690D01*
X122145713Y-120382500D01*
X122098094Y-120430119D01*
X122074285Y-120477738D01*
X122050475Y-120572976D01*
X122050475Y-120644405D01*
X122074285Y-120739643D01*
X122098094Y-120787262D01*
X122145713Y-120834881D01*
X122217142Y-120858690D01*
X122336189Y-120858690D01*
X121574285Y-120858690D02*
X121859999Y-120858690D01*
X121717142Y-120858690D02*
X121717142Y-120358690D01*
X121764761Y-120430119D01*
X121812380Y-120477738D01*
X121859999Y-120501548D01*
X121359999Y-120668214D02*
X120979047Y-120668214D01*
X120526666Y-120525357D02*
X120526666Y-120858690D01*
X120645713Y-120334881D02*
X120764761Y-120692024D01*
X120455237Y-120692024D01*
X119669524Y-120858690D02*
X119669524Y-120596786D01*
X119693333Y-120549167D01*
X119740952Y-120525357D01*
X119836190Y-120525357D01*
X119883809Y-120549167D01*
X119669524Y-120834881D02*
X119717143Y-120858690D01*
X119836190Y-120858690D01*
X119883809Y-120834881D01*
X119907619Y-120787262D01*
X119907619Y-120739643D01*
X119883809Y-120692024D01*
X119836190Y-120668214D01*
X119717143Y-120668214D01*
X119669524Y-120644405D01*
X119431428Y-120858690D02*
X119431428Y-120525357D01*
X119431428Y-120620595D02*
X119407619Y-120572976D01*
X119383809Y-120549167D01*
X119336190Y-120525357D01*
X119288571Y-120525357D01*
X118931428Y-120834881D02*
X118979047Y-120858690D01*
X119074285Y-120858690D01*
X119121904Y-120834881D01*
X119145714Y-120787262D01*
X119145714Y-120596786D01*
X119121904Y-120549167D01*
X119074285Y-120525357D01*
X118979047Y-120525357D01*
X118931428Y-120549167D01*
X118907619Y-120596786D01*
X118907619Y-120644405D01*
X119145714Y-120692024D01*
X118240953Y-120858690D02*
X118288572Y-120834881D01*
X118312381Y-120787262D01*
X118312381Y-120358690D01*
X117979048Y-120858690D02*
X118026667Y-120834881D01*
X118050476Y-120811071D01*
X118074286Y-120763452D01*
X118074286Y-120620595D01*
X118050476Y-120572976D01*
X118026667Y-120549167D01*
X117979048Y-120525357D01*
X117907619Y-120525357D01*
X117860000Y-120549167D01*
X117836191Y-120572976D01*
X117812381Y-120620595D01*
X117812381Y-120763452D01*
X117836191Y-120811071D01*
X117860000Y-120834881D01*
X117907619Y-120858690D01*
X117979048Y-120858690D01*
X117645714Y-120525357D02*
X117550476Y-120858690D01*
X117455238Y-120620595D01*
X117360000Y-120858690D01*
X117264762Y-120525357D01*
X117074285Y-120668214D02*
X116693333Y-120668214D01*
X116240952Y-120834881D02*
X116288571Y-120858690D01*
X116383809Y-120858690D01*
X116431428Y-120834881D01*
X116455237Y-120811071D01*
X116479047Y-120763452D01*
X116479047Y-120620595D01*
X116455237Y-120572976D01*
X116431428Y-120549167D01*
X116383809Y-120525357D01*
X116288571Y-120525357D01*
X116240952Y-120549167D01*
X115812381Y-120525357D02*
X115812381Y-120858690D01*
X116026666Y-120525357D02*
X116026666Y-120787262D01*
X116002857Y-120834881D01*
X115955238Y-120858690D01*
X115883809Y-120858690D01*
X115836190Y-120834881D01*
X115812381Y-120811071D01*
X115574285Y-120858690D02*
X115574285Y-120525357D01*
X115574285Y-120620595D02*
X115550476Y-120572976D01*
X115526666Y-120549167D01*
X115479047Y-120525357D01*
X115431428Y-120525357D01*
X115264761Y-120858690D02*
X115264761Y-120525357D01*
X115264761Y-120620595D02*
X115240952Y-120572976D01*
X115217142Y-120549167D01*
X115169523Y-120525357D01*
X115121904Y-120525357D01*
X114764761Y-120834881D02*
X114812380Y-120858690D01*
X114907618Y-120858690D01*
X114955237Y-120834881D01*
X114979047Y-120787262D01*
X114979047Y-120596786D01*
X114955237Y-120549167D01*
X114907618Y-120525357D01*
X114812380Y-120525357D01*
X114764761Y-120549167D01*
X114740952Y-120596786D01*
X114740952Y-120644405D01*
X114979047Y-120692024D01*
X114526666Y-120525357D02*
X114526666Y-120858690D01*
X114526666Y-120572976D02*
X114502857Y-120549167D01*
X114455238Y-120525357D01*
X114383809Y-120525357D01*
X114336190Y-120549167D01*
X114312381Y-120596786D01*
X114312381Y-120858690D01*
X114145714Y-120525357D02*
X113955238Y-120525357D01*
X114074285Y-120358690D02*
X114074285Y-120787262D01*
X114050476Y-120834881D01*
X114002857Y-120858690D01*
X113955238Y-120858690D01*
X123883807Y-121733690D02*
X124121902Y-121733690D01*
X124121902Y-121233690D01*
X123717140Y-121471786D02*
X123550474Y-121471786D01*
X123479045Y-121733690D02*
X123717140Y-121733690D01*
X123717140Y-121233690D01*
X123479045Y-121233690D01*
X123264759Y-121733690D02*
X123264759Y-121233690D01*
X123145712Y-121233690D01*
X123074283Y-121257500D01*
X123026664Y-121305119D01*
X123002855Y-121352738D01*
X122979045Y-121447976D01*
X122979045Y-121519405D01*
X123002855Y-121614643D01*
X123026664Y-121662262D01*
X123074283Y-121709881D01*
X123145712Y-121733690D01*
X123264759Y-121733690D01*
X122788569Y-121709881D02*
X122740950Y-121733690D01*
X122645712Y-121733690D01*
X122598093Y-121709881D01*
X122574283Y-121662262D01*
X122574283Y-121638452D01*
X122598093Y-121590833D01*
X122645712Y-121567024D01*
X122717140Y-121567024D01*
X122764759Y-121543214D01*
X122788569Y-121495595D01*
X122788569Y-121471786D01*
X122764759Y-121424167D01*
X122717140Y-121400357D01*
X122645712Y-121400357D01*
X122598093Y-121424167D01*
X121836188Y-121924167D02*
X121859998Y-121900357D01*
X121907617Y-121828929D01*
X121931426Y-121781310D01*
X121955236Y-121709881D01*
X121979045Y-121590833D01*
X121979045Y-121495595D01*
X121955236Y-121376548D01*
X121931426Y-121305119D01*
X121907617Y-121257500D01*
X121859998Y-121186071D01*
X121836188Y-121162262D01*
X121717141Y-121543214D02*
X121693331Y-121519405D01*
X121645712Y-121495595D01*
X121550474Y-121543214D01*
X121502855Y-121519405D01*
X121479046Y-121495595D01*
X121336188Y-121233690D02*
X121026665Y-121233690D01*
X121193331Y-121424167D01*
X121121903Y-121424167D01*
X121074284Y-121447976D01*
X121050474Y-121471786D01*
X121026665Y-121519405D01*
X121026665Y-121638452D01*
X121050474Y-121686071D01*
X121074284Y-121709881D01*
X121121903Y-121733690D01*
X121264760Y-121733690D01*
X121312379Y-121709881D01*
X121336188Y-121686071D01*
X120812379Y-121733690D02*
X120812379Y-121400357D01*
X120812379Y-121447976D02*
X120788570Y-121424167D01*
X120740951Y-121400357D01*
X120669522Y-121400357D01*
X120621903Y-121424167D01*
X120598094Y-121471786D01*
X120598094Y-121733690D01*
X120598094Y-121471786D02*
X120574284Y-121424167D01*
X120526665Y-121400357D01*
X120455237Y-121400357D01*
X120407617Y-121424167D01*
X120383808Y-121471786D01*
X120383808Y-121733690D01*
X120169522Y-121590833D02*
X119931427Y-121590833D01*
X120217141Y-121733690D02*
X120050474Y-121233690D01*
X119883808Y-121733690D01*
X119121904Y-121733690D02*
X119121904Y-121471786D01*
X119145713Y-121424167D01*
X119193332Y-121400357D01*
X119288570Y-121400357D01*
X119336189Y-121424167D01*
X119121904Y-121709881D02*
X119169523Y-121733690D01*
X119288570Y-121733690D01*
X119336189Y-121709881D01*
X119359999Y-121662262D01*
X119359999Y-121614643D01*
X119336189Y-121567024D01*
X119288570Y-121543214D01*
X119169523Y-121543214D01*
X119121904Y-121519405D01*
X118955237Y-121400357D02*
X118764761Y-121400357D01*
X118883808Y-121233690D02*
X118883808Y-121662262D01*
X118859999Y-121709881D01*
X118812380Y-121733690D01*
X118764761Y-121733690D01*
X118240952Y-121281310D02*
X118217142Y-121257500D01*
X118169523Y-121233690D01*
X118050476Y-121233690D01*
X118002857Y-121257500D01*
X117979047Y-121281310D01*
X117955238Y-121328929D01*
X117955238Y-121376548D01*
X117979047Y-121447976D01*
X118264761Y-121733690D01*
X117955238Y-121733690D01*
X117740952Y-121686071D02*
X117717143Y-121709881D01*
X117740952Y-121733690D01*
X117764762Y-121709881D01*
X117740952Y-121686071D01*
X117740952Y-121733690D01*
X117264762Y-121233690D02*
X117502857Y-121233690D01*
X117526667Y-121471786D01*
X117502857Y-121447976D01*
X117455238Y-121424167D01*
X117336191Y-121424167D01*
X117288572Y-121447976D01*
X117264762Y-121471786D01*
X117240953Y-121519405D01*
X117240953Y-121638452D01*
X117264762Y-121686071D01*
X117288572Y-121709881D01*
X117336191Y-121733690D01*
X117455238Y-121733690D01*
X117502857Y-121709881D01*
X117526667Y-121686071D01*
X117098096Y-121233690D02*
X116931429Y-121733690D01*
X116764763Y-121233690D01*
X116288573Y-121400357D02*
X116098097Y-121400357D01*
X116217144Y-121733690D02*
X116217144Y-121305119D01*
X116193335Y-121257500D01*
X116145716Y-121233690D01*
X116098097Y-121233690D01*
X115860002Y-121733690D02*
X115907621Y-121709881D01*
X115931430Y-121686071D01*
X115955240Y-121638452D01*
X115955240Y-121495595D01*
X115931430Y-121447976D01*
X115907621Y-121424167D01*
X115860002Y-121400357D01*
X115788573Y-121400357D01*
X115740954Y-121424167D01*
X115717145Y-121447976D01*
X115693335Y-121495595D01*
X115693335Y-121638452D01*
X115717145Y-121686071D01*
X115740954Y-121709881D01*
X115788573Y-121733690D01*
X115860002Y-121733690D01*
X115479049Y-121733690D02*
X115479049Y-121400357D01*
X115479049Y-121495595D02*
X115455240Y-121447976D01*
X115431430Y-121424167D01*
X115383811Y-121400357D01*
X115336192Y-121400357D01*
X115217144Y-121400357D02*
X115121906Y-121733690D01*
X115026668Y-121495595D01*
X114931430Y-121733690D01*
X114836192Y-121400357D01*
X114431430Y-121733690D02*
X114431430Y-121471786D01*
X114455239Y-121424167D01*
X114502858Y-121400357D01*
X114598096Y-121400357D01*
X114645715Y-121424167D01*
X114431430Y-121709881D02*
X114479049Y-121733690D01*
X114598096Y-121733690D01*
X114645715Y-121709881D01*
X114669525Y-121662262D01*
X114669525Y-121614643D01*
X114645715Y-121567024D01*
X114598096Y-121543214D01*
X114479049Y-121543214D01*
X114431430Y-121519405D01*
X114193334Y-121733690D02*
X114193334Y-121400357D01*
X114193334Y-121495595D02*
X114169525Y-121447976D01*
X114145715Y-121424167D01*
X114098096Y-121400357D01*
X114050477Y-121400357D01*
X113669525Y-121733690D02*
X113669525Y-121233690D01*
X113669525Y-121709881D02*
X113717144Y-121733690D01*
X113812382Y-121733690D01*
X113860001Y-121709881D01*
X113883810Y-121686071D01*
X113907620Y-121638452D01*
X113907620Y-121495595D01*
X113883810Y-121447976D01*
X113860001Y-121424167D01*
X113812382Y-121400357D01*
X113717144Y-121400357D01*
X113669525Y-121424167D01*
X113479048Y-121924167D02*
X113455239Y-121900357D01*
X113407620Y-121828929D01*
X113383810Y-121781310D01*
X113360001Y-121709881D01*
X113336191Y-121590833D01*
X113336191Y-121495595D01*
X113360001Y-121376548D01*
X113383810Y-121305119D01*
X113407620Y-121257500D01*
X113455239Y-121186071D01*
X113479048Y-121162262D01*
X113098096Y-121686071D02*
X113074287Y-121709881D01*
X113098096Y-121733690D01*
X113121906Y-121709881D01*
X113098096Y-121686071D01*
X113098096Y-121733690D01*
X122455237Y-123221786D02*
X122383808Y-123245595D01*
X122359999Y-123269405D01*
X122336189Y-123317024D01*
X122336189Y-123388452D01*
X122359999Y-123436071D01*
X122383808Y-123459881D01*
X122431427Y-123483690D01*
X122621903Y-123483690D01*
X122621903Y-122983690D01*
X122455237Y-122983690D01*
X122407618Y-123007500D01*
X122383808Y-123031310D01*
X122359999Y-123078929D01*
X122359999Y-123126548D01*
X122383808Y-123174167D01*
X122407618Y-123197976D01*
X122455237Y-123221786D01*
X122621903Y-123221786D01*
X121931427Y-123459881D02*
X121979046Y-123483690D01*
X122074284Y-123483690D01*
X122121903Y-123459881D01*
X122145713Y-123412262D01*
X122145713Y-123221786D01*
X122121903Y-123174167D01*
X122074284Y-123150357D01*
X121979046Y-123150357D01*
X121931427Y-123174167D01*
X121907618Y-123221786D01*
X121907618Y-123269405D01*
X122145713Y-123317024D01*
X121098095Y-123459881D02*
X121145714Y-123483690D01*
X121240952Y-123483690D01*
X121288571Y-123459881D01*
X121312380Y-123436071D01*
X121336190Y-123388452D01*
X121336190Y-123245595D01*
X121312380Y-123197976D01*
X121288571Y-123174167D01*
X121240952Y-123150357D01*
X121145714Y-123150357D01*
X121098095Y-123174167D01*
X120669524Y-123483690D02*
X120669524Y-123221786D01*
X120693333Y-123174167D01*
X120740952Y-123150357D01*
X120836190Y-123150357D01*
X120883809Y-123174167D01*
X120669524Y-123459881D02*
X120717143Y-123483690D01*
X120836190Y-123483690D01*
X120883809Y-123459881D01*
X120907619Y-123412262D01*
X120907619Y-123364643D01*
X120883809Y-123317024D01*
X120836190Y-123293214D01*
X120717143Y-123293214D01*
X120669524Y-123269405D01*
X120431428Y-123483690D02*
X120431428Y-123150357D01*
X120431428Y-123245595D02*
X120407619Y-123197976D01*
X120383809Y-123174167D01*
X120336190Y-123150357D01*
X120288571Y-123150357D01*
X119931428Y-123459881D02*
X119979047Y-123483690D01*
X120074285Y-123483690D01*
X120121904Y-123459881D01*
X120145714Y-123412262D01*
X120145714Y-123221786D01*
X120121904Y-123174167D01*
X120074285Y-123150357D01*
X119979047Y-123150357D01*
X119931428Y-123174167D01*
X119907619Y-123221786D01*
X119907619Y-123269405D01*
X120145714Y-123317024D01*
X119764762Y-123150357D02*
X119574286Y-123150357D01*
X119693333Y-123483690D02*
X119693333Y-123055119D01*
X119669524Y-123007500D01*
X119621905Y-122983690D01*
X119574286Y-122983690D01*
X119193334Y-123150357D02*
X119193334Y-123483690D01*
X119407619Y-123150357D02*
X119407619Y-123412262D01*
X119383810Y-123459881D01*
X119336191Y-123483690D01*
X119264762Y-123483690D01*
X119217143Y-123459881D01*
X119193334Y-123436071D01*
X118883810Y-123483690D02*
X118931429Y-123459881D01*
X118955238Y-123412262D01*
X118955238Y-122983690D01*
X118240953Y-123483690D02*
X118288572Y-123459881D01*
X118312381Y-123436071D01*
X118336191Y-123388452D01*
X118336191Y-123245595D01*
X118312381Y-123197976D01*
X118288572Y-123174167D01*
X118240953Y-123150357D01*
X118169524Y-123150357D01*
X118121905Y-123174167D01*
X118098096Y-123197976D01*
X118074286Y-123245595D01*
X118074286Y-123388452D01*
X118098096Y-123436071D01*
X118121905Y-123459881D01*
X118169524Y-123483690D01*
X118240953Y-123483690D01*
X117931429Y-123150357D02*
X117740953Y-123150357D01*
X117860000Y-123483690D02*
X117860000Y-123055119D01*
X117836191Y-123007500D01*
X117788572Y-122983690D01*
X117740953Y-122983690D01*
X117193334Y-123150357D02*
X117193334Y-123650357D01*
X117193334Y-123174167D02*
X117145715Y-123150357D01*
X117050477Y-123150357D01*
X117002858Y-123174167D01*
X116979049Y-123197976D01*
X116955239Y-123245595D01*
X116955239Y-123388452D01*
X116979049Y-123436071D01*
X117002858Y-123459881D01*
X117050477Y-123483690D01*
X117145715Y-123483690D01*
X117193334Y-123459881D01*
X116669525Y-123483690D02*
X116717144Y-123459881D01*
X116740953Y-123436071D01*
X116764763Y-123388452D01*
X116764763Y-123245595D01*
X116740953Y-123197976D01*
X116717144Y-123174167D01*
X116669525Y-123150357D01*
X116598096Y-123150357D01*
X116550477Y-123174167D01*
X116526668Y-123197976D01*
X116502858Y-123245595D01*
X116502858Y-123388452D01*
X116526668Y-123436071D01*
X116550477Y-123459881D01*
X116598096Y-123483690D01*
X116669525Y-123483690D01*
X116217144Y-123483690D02*
X116264763Y-123459881D01*
X116288572Y-123412262D01*
X116288572Y-122983690D01*
X115812382Y-123483690D02*
X115812382Y-123221786D01*
X115836191Y-123174167D01*
X115883810Y-123150357D01*
X115979048Y-123150357D01*
X116026667Y-123174167D01*
X115812382Y-123459881D02*
X115860001Y-123483690D01*
X115979048Y-123483690D01*
X116026667Y-123459881D01*
X116050477Y-123412262D01*
X116050477Y-123364643D01*
X116026667Y-123317024D01*
X115979048Y-123293214D01*
X115860001Y-123293214D01*
X115812382Y-123269405D01*
X115574286Y-123483690D02*
X115574286Y-123150357D01*
X115574286Y-123245595D02*
X115550477Y-123197976D01*
X115526667Y-123174167D01*
X115479048Y-123150357D01*
X115431429Y-123150357D01*
X115264762Y-123483690D02*
X115264762Y-123150357D01*
X115264762Y-122983690D02*
X115288572Y-123007500D01*
X115264762Y-123031310D01*
X115240953Y-123007500D01*
X115264762Y-122983690D01*
X115264762Y-123031310D01*
X115098096Y-123150357D02*
X114907620Y-123150357D01*
X115026667Y-122983690D02*
X115026667Y-123412262D01*
X115002858Y-123459881D01*
X114955239Y-123483690D01*
X114907620Y-123483690D01*
X114788572Y-123150357D02*
X114669525Y-123483690D01*
X114550477Y-123150357D02*
X114669525Y-123483690D01*
X114717144Y-123602738D01*
X114740953Y-123626548D01*
X114788572Y-123650357D01*
X123074284Y-124025357D02*
X122883808Y-124025357D01*
X123002855Y-124358690D02*
X123002855Y-123930119D01*
X122979046Y-123882500D01*
X122931427Y-123858690D01*
X122883808Y-123858690D01*
X122645713Y-124358690D02*
X122693332Y-124334881D01*
X122717141Y-124311071D01*
X122740951Y-124263452D01*
X122740951Y-124120595D01*
X122717141Y-124072976D01*
X122693332Y-124049167D01*
X122645713Y-124025357D01*
X122574284Y-124025357D01*
X122526665Y-124049167D01*
X122502856Y-124072976D01*
X122479046Y-124120595D01*
X122479046Y-124263452D01*
X122502856Y-124311071D01*
X122526665Y-124334881D01*
X122574284Y-124358690D01*
X122645713Y-124358690D01*
X122264760Y-124358690D02*
X122264760Y-124025357D01*
X122264760Y-124120595D02*
X122240951Y-124072976D01*
X122217141Y-124049167D01*
X122169522Y-124025357D01*
X122121903Y-124025357D01*
X121288570Y-124311071D02*
X121312380Y-124334881D01*
X121383808Y-124358690D01*
X121431427Y-124358690D01*
X121502856Y-124334881D01*
X121550475Y-124287262D01*
X121574284Y-124239643D01*
X121598094Y-124144405D01*
X121598094Y-124072976D01*
X121574284Y-123977738D01*
X121550475Y-123930119D01*
X121502856Y-123882500D01*
X121431427Y-123858690D01*
X121383808Y-123858690D01*
X121312380Y-123882500D01*
X121288570Y-123906310D01*
X121098094Y-123906310D02*
X121074284Y-123882500D01*
X121026665Y-123858690D01*
X120907618Y-123858690D01*
X120859999Y-123882500D01*
X120836189Y-123906310D01*
X120812380Y-123953929D01*
X120812380Y-124001548D01*
X120836189Y-124072976D01*
X121121903Y-124358690D01*
X120812380Y-124358690D01*
X120574285Y-124334881D02*
X120574285Y-124358690D01*
X120598094Y-124406310D01*
X120621904Y-124430119D01*
X119693333Y-124311071D02*
X119717143Y-124334881D01*
X119788571Y-124358690D01*
X119836190Y-124358690D01*
X119907619Y-124334881D01*
X119955238Y-124287262D01*
X119979047Y-124239643D01*
X120002857Y-124144405D01*
X120002857Y-124072976D01*
X119979047Y-123977738D01*
X119955238Y-123930119D01*
X119907619Y-123882500D01*
X119836190Y-123858690D01*
X119788571Y-123858690D01*
X119717143Y-123882500D01*
X119693333Y-123906310D01*
X119264762Y-124025357D02*
X119264762Y-124358690D01*
X119383809Y-123834881D02*
X119502857Y-124192024D01*
X119193333Y-124192024D01*
X118979048Y-124334881D02*
X118979048Y-124358690D01*
X119002857Y-124406310D01*
X119026667Y-124430119D01*
X118169525Y-124358690D02*
X118169525Y-124096786D01*
X118193334Y-124049167D01*
X118240953Y-124025357D01*
X118336191Y-124025357D01*
X118383810Y-124049167D01*
X118169525Y-124334881D02*
X118217144Y-124358690D01*
X118336191Y-124358690D01*
X118383810Y-124334881D01*
X118407620Y-124287262D01*
X118407620Y-124239643D01*
X118383810Y-124192024D01*
X118336191Y-124168214D01*
X118217144Y-124168214D01*
X118169525Y-124144405D01*
X117931429Y-124025357D02*
X117931429Y-124358690D01*
X117931429Y-124072976D02*
X117907620Y-124049167D01*
X117860001Y-124025357D01*
X117788572Y-124025357D01*
X117740953Y-124049167D01*
X117717144Y-124096786D01*
X117717144Y-124358690D01*
X117264763Y-124358690D02*
X117264763Y-123858690D01*
X117264763Y-124334881D02*
X117312382Y-124358690D01*
X117407620Y-124358690D01*
X117455239Y-124334881D01*
X117479048Y-124311071D01*
X117502858Y-124263452D01*
X117502858Y-124120595D01*
X117479048Y-124072976D01*
X117455239Y-124049167D01*
X117407620Y-124025357D01*
X117312382Y-124025357D01*
X117264763Y-124049167D01*
X116431430Y-124358690D02*
X116431430Y-123858690D01*
X116431430Y-124334881D02*
X116479049Y-124358690D01*
X116574287Y-124358690D01*
X116621906Y-124334881D01*
X116645715Y-124311071D01*
X116669525Y-124263452D01*
X116669525Y-124120595D01*
X116645715Y-124072976D01*
X116621906Y-124049167D01*
X116574287Y-124025357D01*
X116479049Y-124025357D01*
X116431430Y-124049167D01*
X116193334Y-124358690D02*
X116193334Y-124025357D01*
X116193334Y-123858690D02*
X116217144Y-123882500D01*
X116193334Y-123906310D01*
X116169525Y-123882500D01*
X116193334Y-123858690D01*
X116193334Y-123906310D01*
X115883811Y-124358690D02*
X115931430Y-124334881D01*
X115955239Y-124311071D01*
X115979049Y-124263452D01*
X115979049Y-124120595D01*
X115955239Y-124072976D01*
X115931430Y-124049167D01*
X115883811Y-124025357D01*
X115812382Y-124025357D01*
X115764763Y-124049167D01*
X115740954Y-124072976D01*
X115717144Y-124120595D01*
X115717144Y-124263452D01*
X115740954Y-124311071D01*
X115764763Y-124334881D01*
X115812382Y-124358690D01*
X115883811Y-124358690D01*
X115288573Y-124358690D02*
X115288573Y-123858690D01*
X115288573Y-124334881D02*
X115336192Y-124358690D01*
X115431430Y-124358690D01*
X115479049Y-124334881D01*
X115502858Y-124311071D01*
X115526668Y-124263452D01*
X115526668Y-124120595D01*
X115502858Y-124072976D01*
X115479049Y-124049167D01*
X115431430Y-124025357D01*
X115336192Y-124025357D01*
X115288573Y-124049167D01*
X114860001Y-124334881D02*
X114907620Y-124358690D01*
X115002858Y-124358690D01*
X115050477Y-124334881D01*
X115074287Y-124287262D01*
X115074287Y-124096786D01*
X115050477Y-124049167D01*
X115002858Y-124025357D01*
X114907620Y-124025357D01*
X114860001Y-124049167D01*
X114836192Y-124096786D01*
X114836192Y-124144405D01*
X115074287Y-124192024D01*
X114645716Y-124334881D02*
X114598097Y-124358690D01*
X114502859Y-124358690D01*
X114455240Y-124334881D01*
X114431430Y-124287262D01*
X114431430Y-124263452D01*
X114455240Y-124215833D01*
X114502859Y-124192024D01*
X114574287Y-124192024D01*
X114621906Y-124168214D01*
X114645716Y-124120595D01*
X114645716Y-124096786D01*
X114621906Y-124049167D01*
X114574287Y-124025357D01*
X114502859Y-124025357D01*
X114455240Y-124049167D01*
X114217144Y-124311071D02*
X114193335Y-124334881D01*
X114217144Y-124358690D01*
X114240954Y-124334881D01*
X114217144Y-124311071D01*
X114217144Y-124358690D01*
X114217144Y-124168214D02*
X114240954Y-123882500D01*
X114217144Y-123858690D01*
X114193335Y-123882500D01*
X114217144Y-124168214D01*
X114217144Y-123858690D01*
X123074285Y-126084881D02*
X123002856Y-126108690D01*
X122883809Y-126108690D01*
X122836190Y-126084881D01*
X122812380Y-126061071D01*
X122788571Y-126013452D01*
X122788571Y-125965833D01*
X122812380Y-125918214D01*
X122836190Y-125894405D01*
X122883809Y-125870595D01*
X122979047Y-125846786D01*
X123026666Y-125822976D01*
X123050475Y-125799167D01*
X123074285Y-125751548D01*
X123074285Y-125703929D01*
X123050475Y-125656310D01*
X123026666Y-125632500D01*
X122979047Y-125608690D01*
X122859999Y-125608690D01*
X122788571Y-125632500D01*
X122574285Y-126108690D02*
X122574285Y-125775357D01*
X122574285Y-125822976D02*
X122550476Y-125799167D01*
X122502857Y-125775357D01*
X122431428Y-125775357D01*
X122383809Y-125799167D01*
X122360000Y-125846786D01*
X122360000Y-126108690D01*
X122360000Y-125846786D02*
X122336190Y-125799167D01*
X122288571Y-125775357D01*
X122217143Y-125775357D01*
X122169523Y-125799167D01*
X122145714Y-125846786D01*
X122145714Y-126108690D01*
X121693333Y-126108690D02*
X121693333Y-125846786D01*
X121717142Y-125799167D01*
X121764761Y-125775357D01*
X121859999Y-125775357D01*
X121907618Y-125799167D01*
X121693333Y-126084881D02*
X121740952Y-126108690D01*
X121859999Y-126108690D01*
X121907618Y-126084881D01*
X121931428Y-126037262D01*
X121931428Y-125989643D01*
X121907618Y-125942024D01*
X121859999Y-125918214D01*
X121740952Y-125918214D01*
X121693333Y-125894405D01*
X121383809Y-126108690D02*
X121431428Y-126084881D01*
X121455237Y-126037262D01*
X121455237Y-125608690D01*
X121121904Y-126108690D02*
X121169523Y-126084881D01*
X121193332Y-126037262D01*
X121193332Y-125608690D01*
X120740951Y-126084881D02*
X120788570Y-126108690D01*
X120883808Y-126108690D01*
X120931427Y-126084881D01*
X120955237Y-126037262D01*
X120955237Y-125846786D01*
X120931427Y-125799167D01*
X120883808Y-125775357D01*
X120788570Y-125775357D01*
X120740951Y-125799167D01*
X120717142Y-125846786D01*
X120717142Y-125894405D01*
X120955237Y-125942024D01*
X120502856Y-126108690D02*
X120502856Y-125775357D01*
X120502856Y-125870595D02*
X120479047Y-125822976D01*
X120455237Y-125799167D01*
X120407618Y-125775357D01*
X120359999Y-125775357D01*
X119812380Y-125775357D02*
X119812380Y-126275357D01*
X119812380Y-125799167D02*
X119764761Y-125775357D01*
X119669523Y-125775357D01*
X119621904Y-125799167D01*
X119598095Y-125822976D01*
X119574285Y-125870595D01*
X119574285Y-126013452D01*
X119598095Y-126061071D01*
X119621904Y-126084881D01*
X119669523Y-126108690D01*
X119764761Y-126108690D01*
X119812380Y-126084881D01*
X119288571Y-126108690D02*
X119336190Y-126084881D01*
X119359999Y-126061071D01*
X119383809Y-126013452D01*
X119383809Y-125870595D01*
X119359999Y-125822976D01*
X119336190Y-125799167D01*
X119288571Y-125775357D01*
X119217142Y-125775357D01*
X119169523Y-125799167D01*
X119145714Y-125822976D01*
X119121904Y-125870595D01*
X119121904Y-126013452D01*
X119145714Y-126061071D01*
X119169523Y-126084881D01*
X119217142Y-126108690D01*
X119288571Y-126108690D01*
X118955237Y-125775357D02*
X118859999Y-126108690D01*
X118764761Y-125870595D01*
X118669523Y-126108690D01*
X118574285Y-125775357D01*
X118193332Y-126084881D02*
X118240951Y-126108690D01*
X118336189Y-126108690D01*
X118383808Y-126084881D01*
X118407618Y-126037262D01*
X118407618Y-125846786D01*
X118383808Y-125799167D01*
X118336189Y-125775357D01*
X118240951Y-125775357D01*
X118193332Y-125799167D01*
X118169523Y-125846786D01*
X118169523Y-125894405D01*
X118407618Y-125942024D01*
X117955237Y-126108690D02*
X117955237Y-125775357D01*
X117955237Y-125870595D02*
X117931428Y-125822976D01*
X117907618Y-125799167D01*
X117859999Y-125775357D01*
X117812380Y-125775357D01*
X117264761Y-125775357D02*
X117264761Y-126275357D01*
X117264761Y-125799167D02*
X117217142Y-125775357D01*
X117121904Y-125775357D01*
X117074285Y-125799167D01*
X117050476Y-125822976D01*
X117026666Y-125870595D01*
X117026666Y-126013452D01*
X117050476Y-126061071D01*
X117074285Y-126084881D01*
X117121904Y-126108690D01*
X117217142Y-126108690D01*
X117264761Y-126084881D01*
X116598095Y-126108690D02*
X116598095Y-125846786D01*
X116621904Y-125799167D01*
X116669523Y-125775357D01*
X116764761Y-125775357D01*
X116812380Y-125799167D01*
X116598095Y-126084881D02*
X116645714Y-126108690D01*
X116764761Y-126108690D01*
X116812380Y-126084881D01*
X116836190Y-126037262D01*
X116836190Y-125989643D01*
X116812380Y-125942024D01*
X116764761Y-125918214D01*
X116645714Y-125918214D01*
X116598095Y-125894405D01*
X116145714Y-126108690D02*
X116145714Y-125608690D01*
X116145714Y-126084881D02*
X116193333Y-126108690D01*
X116288571Y-126108690D01*
X116336190Y-126084881D01*
X116359999Y-126061071D01*
X116383809Y-126013452D01*
X116383809Y-125870595D01*
X116359999Y-125822976D01*
X116336190Y-125799167D01*
X116288571Y-125775357D01*
X116193333Y-125775357D01*
X116145714Y-125799167D01*
X115931428Y-126084881D02*
X115883809Y-126108690D01*
X115788571Y-126108690D01*
X115740952Y-126084881D01*
X115717142Y-126037262D01*
X115717142Y-126013452D01*
X115740952Y-125965833D01*
X115788571Y-125942024D01*
X115859999Y-125942024D01*
X115907618Y-125918214D01*
X115931428Y-125870595D01*
X115931428Y-125846786D01*
X115907618Y-125799167D01*
X115859999Y-125775357D01*
X115788571Y-125775357D01*
X115740952Y-125799167D01*
X114907619Y-126108690D02*
X114907619Y-125846786D01*
X114931428Y-125799167D01*
X114979047Y-125775357D01*
X115074285Y-125775357D01*
X115121904Y-125799167D01*
X114907619Y-126084881D02*
X114955238Y-126108690D01*
X115074285Y-126108690D01*
X115121904Y-126084881D01*
X115145714Y-126037262D01*
X115145714Y-125989643D01*
X115121904Y-125942024D01*
X115074285Y-125918214D01*
X114955238Y-125918214D01*
X114907619Y-125894405D01*
X114669523Y-126108690D02*
X114669523Y-125775357D01*
X114669523Y-125870595D02*
X114645714Y-125822976D01*
X114621904Y-125799167D01*
X114574285Y-125775357D01*
X114526666Y-125775357D01*
X114169523Y-126084881D02*
X114217142Y-126108690D01*
X114312380Y-126108690D01*
X114359999Y-126084881D01*
X114383809Y-126037262D01*
X114383809Y-125846786D01*
X114359999Y-125799167D01*
X114312380Y-125775357D01*
X114217142Y-125775357D01*
X114169523Y-125799167D01*
X114145714Y-125846786D01*
X114145714Y-125894405D01*
X114383809Y-125942024D01*
X123002855Y-126650357D02*
X122812379Y-126650357D01*
X122931426Y-126983690D02*
X122931426Y-126555119D01*
X122907617Y-126507500D01*
X122859998Y-126483690D01*
X122812379Y-126483690D01*
X122574284Y-126983690D02*
X122621903Y-126959881D01*
X122645712Y-126936071D01*
X122669522Y-126888452D01*
X122669522Y-126745595D01*
X122645712Y-126697976D01*
X122621903Y-126674167D01*
X122574284Y-126650357D01*
X122502855Y-126650357D01*
X122455236Y-126674167D01*
X122431427Y-126697976D01*
X122407617Y-126745595D01*
X122407617Y-126888452D01*
X122431427Y-126936071D01*
X122455236Y-126959881D01*
X122502855Y-126983690D01*
X122574284Y-126983690D01*
X122193331Y-126983690D02*
X122193331Y-126650357D01*
X122193331Y-126745595D02*
X122169522Y-126697976D01*
X122145712Y-126674167D01*
X122098093Y-126650357D01*
X122050474Y-126650357D01*
X121359998Y-126483690D02*
X121359998Y-126840833D01*
X121383808Y-126912262D01*
X121431427Y-126959881D01*
X121502855Y-126983690D01*
X121550474Y-126983690D01*
X121145713Y-126959881D02*
X121074284Y-126983690D01*
X120955237Y-126983690D01*
X120907618Y-126959881D01*
X120883808Y-126936071D01*
X120859999Y-126888452D01*
X120859999Y-126840833D01*
X120883808Y-126793214D01*
X120907618Y-126769405D01*
X120955237Y-126745595D01*
X121050475Y-126721786D01*
X121098094Y-126697976D01*
X121121903Y-126674167D01*
X121145713Y-126626548D01*
X121145713Y-126578929D01*
X121121903Y-126531310D01*
X121098094Y-126507500D01*
X121050475Y-126483690D01*
X120931427Y-126483690D01*
X120859999Y-126507500D01*
X120717142Y-126483690D02*
X120431428Y-126483690D01*
X120574285Y-126983690D02*
X120574285Y-126483690D01*
X119812381Y-126983690D02*
X119860000Y-126959881D01*
X119883809Y-126936071D01*
X119907619Y-126888452D01*
X119907619Y-126745595D01*
X119883809Y-126697976D01*
X119860000Y-126674167D01*
X119812381Y-126650357D01*
X119740952Y-126650357D01*
X119693333Y-126674167D01*
X119669524Y-126697976D01*
X119645714Y-126745595D01*
X119645714Y-126888452D01*
X119669524Y-126936071D01*
X119693333Y-126959881D01*
X119740952Y-126983690D01*
X119812381Y-126983690D01*
X119431428Y-126983690D02*
X119431428Y-126650357D01*
X119431428Y-126745595D02*
X119407619Y-126697976D01*
X119383809Y-126674167D01*
X119336190Y-126650357D01*
X119288571Y-126650357D01*
X118740952Y-126650357D02*
X118740952Y-127150357D01*
X118740952Y-126674167D02*
X118693333Y-126650357D01*
X118598095Y-126650357D01*
X118550476Y-126674167D01*
X118526667Y-126697976D01*
X118502857Y-126745595D01*
X118502857Y-126888452D01*
X118526667Y-126936071D01*
X118550476Y-126959881D01*
X118598095Y-126983690D01*
X118693333Y-126983690D01*
X118740952Y-126959881D01*
X118288571Y-126983690D02*
X118288571Y-126650357D01*
X118288571Y-126483690D02*
X118312381Y-126507500D01*
X118288571Y-126531310D01*
X118264762Y-126507500D01*
X118288571Y-126483690D01*
X118288571Y-126531310D01*
X118050476Y-126650357D02*
X118050476Y-126983690D01*
X118050476Y-126697976D02*
X118026667Y-126674167D01*
X117979048Y-126650357D01*
X117907619Y-126650357D01*
X117860000Y-126674167D01*
X117836191Y-126721786D01*
X117836191Y-126983690D01*
X117217143Y-126983690D02*
X117217143Y-126483690D01*
X117002858Y-126983690D02*
X117002858Y-126721786D01*
X117026667Y-126674167D01*
X117074286Y-126650357D01*
X117145715Y-126650357D01*
X117193334Y-126674167D01*
X117217143Y-126697976D01*
X116574286Y-126959881D02*
X116621905Y-126983690D01*
X116717143Y-126983690D01*
X116764762Y-126959881D01*
X116788572Y-126912262D01*
X116788572Y-126721786D01*
X116764762Y-126674167D01*
X116717143Y-126650357D01*
X116621905Y-126650357D01*
X116574286Y-126674167D01*
X116550477Y-126721786D01*
X116550477Y-126769405D01*
X116788572Y-126817024D01*
X116121906Y-126983690D02*
X116121906Y-126721786D01*
X116145715Y-126674167D01*
X116193334Y-126650357D01*
X116288572Y-126650357D01*
X116336191Y-126674167D01*
X116121906Y-126959881D02*
X116169525Y-126983690D01*
X116288572Y-126983690D01*
X116336191Y-126959881D01*
X116360001Y-126912262D01*
X116360001Y-126864643D01*
X116336191Y-126817024D01*
X116288572Y-126793214D01*
X116169525Y-126793214D01*
X116121906Y-126769405D01*
X115669525Y-126983690D02*
X115669525Y-126483690D01*
X115669525Y-126959881D02*
X115717144Y-126983690D01*
X115812382Y-126983690D01*
X115860001Y-126959881D01*
X115883810Y-126936071D01*
X115907620Y-126888452D01*
X115907620Y-126745595D01*
X115883810Y-126697976D01*
X115860001Y-126674167D01*
X115812382Y-126650357D01*
X115717144Y-126650357D01*
X115669525Y-126674167D01*
X115240953Y-126959881D02*
X115288572Y-126983690D01*
X115383810Y-126983690D01*
X115431429Y-126959881D01*
X115455239Y-126912262D01*
X115455239Y-126721786D01*
X115431429Y-126674167D01*
X115383810Y-126650357D01*
X115288572Y-126650357D01*
X115240953Y-126674167D01*
X115217144Y-126721786D01*
X115217144Y-126769405D01*
X115455239Y-126817024D01*
X115002858Y-126983690D02*
X115002858Y-126650357D01*
X115002858Y-126745595D02*
X114979049Y-126697976D01*
X114955239Y-126674167D01*
X114907620Y-126650357D01*
X114860001Y-126650357D01*
X114717144Y-126959881D02*
X114669525Y-126983690D01*
X114574287Y-126983690D01*
X114526668Y-126959881D01*
X114502858Y-126912262D01*
X114502858Y-126888452D01*
X114526668Y-126840833D01*
X114574287Y-126817024D01*
X114645715Y-126817024D01*
X114693334Y-126793214D01*
X114717144Y-126745595D01*
X114717144Y-126721786D01*
X114693334Y-126674167D01*
X114645715Y-126650357D01*
X114574287Y-126650357D01*
X114526668Y-126674167D01*
X114264763Y-126959881D02*
X114264763Y-126983690D01*
X114288572Y-127031310D01*
X114312382Y-127055119D01*
X114288572Y-126674167D02*
X114264763Y-126697976D01*
X114288572Y-126721786D01*
X114312382Y-126697976D01*
X114288572Y-126674167D01*
X114288572Y-126721786D01*
X123490952Y-127858690D02*
X123538571Y-127834881D01*
X123562380Y-127787262D01*
X123562380Y-127358690D01*
X123086190Y-127858690D02*
X123086190Y-127596786D01*
X123109999Y-127549167D01*
X123157618Y-127525357D01*
X123252856Y-127525357D01*
X123300475Y-127549167D01*
X123086190Y-127834881D02*
X123133809Y-127858690D01*
X123252856Y-127858690D01*
X123300475Y-127834881D01*
X123324285Y-127787262D01*
X123324285Y-127739643D01*
X123300475Y-127692024D01*
X123252856Y-127668214D01*
X123133809Y-127668214D01*
X123086190Y-127644405D01*
X122848094Y-127858690D02*
X122848094Y-127525357D01*
X122848094Y-127620595D02*
X122824285Y-127572976D01*
X122800475Y-127549167D01*
X122752856Y-127525357D01*
X122705237Y-127525357D01*
X122324285Y-127525357D02*
X122324285Y-127930119D01*
X122348094Y-127977738D01*
X122371904Y-128001548D01*
X122419523Y-128025357D01*
X122490951Y-128025357D01*
X122538570Y-128001548D01*
X122324285Y-127834881D02*
X122371904Y-127858690D01*
X122467142Y-127858690D01*
X122514761Y-127834881D01*
X122538570Y-127811071D01*
X122562380Y-127763452D01*
X122562380Y-127620595D01*
X122538570Y-127572976D01*
X122514761Y-127549167D01*
X122467142Y-127525357D01*
X122371904Y-127525357D01*
X122324285Y-127549167D01*
X121895713Y-127834881D02*
X121943332Y-127858690D01*
X122038570Y-127858690D01*
X122086189Y-127834881D01*
X122109999Y-127787262D01*
X122109999Y-127596786D01*
X122086189Y-127549167D01*
X122038570Y-127525357D01*
X121943332Y-127525357D01*
X121895713Y-127549167D01*
X121871904Y-127596786D01*
X121871904Y-127644405D01*
X122109999Y-127692024D01*
X121657618Y-127858690D02*
X121657618Y-127525357D01*
X121657618Y-127620595D02*
X121633809Y-127572976D01*
X121609999Y-127549167D01*
X121562380Y-127525357D01*
X121514761Y-127525357D01*
X121038571Y-127525357D02*
X120848095Y-127525357D01*
X120967142Y-127858690D02*
X120967142Y-127430119D01*
X120943333Y-127382500D01*
X120895714Y-127358690D01*
X120848095Y-127358690D01*
X120610000Y-127858690D02*
X120657619Y-127834881D01*
X120681428Y-127811071D01*
X120705238Y-127763452D01*
X120705238Y-127620595D01*
X120681428Y-127572976D01*
X120657619Y-127549167D01*
X120610000Y-127525357D01*
X120538571Y-127525357D01*
X120490952Y-127549167D01*
X120467143Y-127572976D01*
X120443333Y-127620595D01*
X120443333Y-127763452D01*
X120467143Y-127811071D01*
X120490952Y-127834881D01*
X120538571Y-127858690D01*
X120610000Y-127858690D01*
X120229047Y-127858690D02*
X120229047Y-127525357D01*
X120229047Y-127620595D02*
X120205238Y-127572976D01*
X120181428Y-127549167D01*
X120133809Y-127525357D01*
X120086190Y-127525357D01*
X119610000Y-127525357D02*
X119419524Y-127525357D01*
X119538571Y-127358690D02*
X119538571Y-127787262D01*
X119514762Y-127834881D01*
X119467143Y-127858690D01*
X119419524Y-127858690D01*
X119062381Y-127834881D02*
X119110000Y-127858690D01*
X119205238Y-127858690D01*
X119252857Y-127834881D01*
X119276667Y-127787262D01*
X119276667Y-127596786D01*
X119252857Y-127549167D01*
X119205238Y-127525357D01*
X119110000Y-127525357D01*
X119062381Y-127549167D01*
X119038572Y-127596786D01*
X119038572Y-127644405D01*
X119276667Y-127692024D01*
X118824286Y-127858690D02*
X118824286Y-127525357D01*
X118824286Y-127620595D02*
X118800477Y-127572976D01*
X118776667Y-127549167D01*
X118729048Y-127525357D01*
X118681429Y-127525357D01*
X118514762Y-127858690D02*
X118514762Y-127525357D01*
X118514762Y-127572976D02*
X118490953Y-127549167D01*
X118443334Y-127525357D01*
X118371905Y-127525357D01*
X118324286Y-127549167D01*
X118300477Y-127596786D01*
X118300477Y-127858690D01*
X118300477Y-127596786D02*
X118276667Y-127549167D01*
X118229048Y-127525357D01*
X118157620Y-127525357D01*
X118110000Y-127549167D01*
X118086191Y-127596786D01*
X118086191Y-127858690D01*
X117848095Y-127858690D02*
X117848095Y-127525357D01*
X117848095Y-127358690D02*
X117871905Y-127382500D01*
X117848095Y-127406310D01*
X117824286Y-127382500D01*
X117848095Y-127358690D01*
X117848095Y-127406310D01*
X117610000Y-127525357D02*
X117610000Y-127858690D01*
X117610000Y-127572976D02*
X117586191Y-127549167D01*
X117538572Y-127525357D01*
X117467143Y-127525357D01*
X117419524Y-127549167D01*
X117395715Y-127596786D01*
X117395715Y-127858690D01*
X116943334Y-127858690D02*
X116943334Y-127596786D01*
X116967143Y-127549167D01*
X117014762Y-127525357D01*
X117110000Y-127525357D01*
X117157619Y-127549167D01*
X116943334Y-127834881D02*
X116990953Y-127858690D01*
X117110000Y-127858690D01*
X117157619Y-127834881D01*
X117181429Y-127787262D01*
X117181429Y-127739643D01*
X117157619Y-127692024D01*
X117110000Y-127668214D01*
X116990953Y-127668214D01*
X116943334Y-127644405D01*
X116633810Y-127858690D02*
X116681429Y-127834881D01*
X116705238Y-127787262D01*
X116705238Y-127358690D01*
X116062381Y-127858690D02*
X116062381Y-127358690D01*
X116062381Y-127549167D02*
X116014762Y-127525357D01*
X115919524Y-127525357D01*
X115871905Y-127549167D01*
X115848096Y-127572976D01*
X115824286Y-127620595D01*
X115824286Y-127763452D01*
X115848096Y-127811071D01*
X115871905Y-127834881D01*
X115919524Y-127858690D01*
X116014762Y-127858690D01*
X116062381Y-127834881D01*
X115538572Y-127858690D02*
X115586191Y-127834881D01*
X115610000Y-127787262D01*
X115610000Y-127358690D01*
X115276667Y-127858690D02*
X115324286Y-127834881D01*
X115348095Y-127811071D01*
X115371905Y-127763452D01*
X115371905Y-127620595D01*
X115348095Y-127572976D01*
X115324286Y-127549167D01*
X115276667Y-127525357D01*
X115205238Y-127525357D01*
X115157619Y-127549167D01*
X115133810Y-127572976D01*
X115110000Y-127620595D01*
X115110000Y-127763452D01*
X115133810Y-127811071D01*
X115157619Y-127834881D01*
X115205238Y-127858690D01*
X115276667Y-127858690D01*
X114681429Y-127834881D02*
X114729048Y-127858690D01*
X114824286Y-127858690D01*
X114871905Y-127834881D01*
X114895714Y-127811071D01*
X114919524Y-127763452D01*
X114919524Y-127620595D01*
X114895714Y-127572976D01*
X114871905Y-127549167D01*
X114824286Y-127525357D01*
X114729048Y-127525357D01*
X114681429Y-127549167D01*
X114467143Y-127858690D02*
X114467143Y-127358690D01*
X114419524Y-127668214D02*
X114276667Y-127858690D01*
X114276667Y-127525357D02*
X114467143Y-127715833D01*
X114086191Y-127834881D02*
X114038572Y-127858690D01*
X113943334Y-127858690D01*
X113895715Y-127834881D01*
X113871905Y-127787262D01*
X113871905Y-127763452D01*
X113895715Y-127715833D01*
X113943334Y-127692024D01*
X114014762Y-127692024D01*
X114062381Y-127668214D01*
X114086191Y-127620595D01*
X114086191Y-127596786D01*
X114062381Y-127549167D01*
X114014762Y-127525357D01*
X113943334Y-127525357D01*
X113895715Y-127549167D01*
X113657619Y-127811071D02*
X113633810Y-127834881D01*
X113657619Y-127858690D01*
X113681429Y-127834881D01*
X113657619Y-127811071D01*
X113657619Y-127858690D01*
D12*
X179975239Y-119247381D02*
X179975239Y-118247381D01*
X179975239Y-118723571D02*
X179403810Y-118723571D01*
X179403810Y-119247381D02*
X179403810Y-118247381D01*
X178499048Y-119247381D02*
X178499048Y-118723571D01*
X178546667Y-118628333D01*
X178641905Y-118580714D01*
X178832382Y-118580714D01*
X178927620Y-118628333D01*
X178499048Y-119199762D02*
X178594286Y-119247381D01*
X178832382Y-119247381D01*
X178927620Y-119199762D01*
X178975239Y-119104524D01*
X178975239Y-119009286D01*
X178927620Y-118914048D01*
X178832382Y-118866429D01*
X178594286Y-118866429D01*
X178499048Y-118818810D01*
X178165715Y-118580714D02*
X177784763Y-118580714D01*
X178022858Y-118247381D02*
X178022858Y-119104524D01*
X177975239Y-119199762D01*
X177880001Y-119247381D01*
X177784763Y-119247381D01*
X177022857Y-119199762D02*
X177118095Y-119247381D01*
X177308572Y-119247381D01*
X177403810Y-119199762D01*
X177451429Y-119152143D01*
X177499048Y-119056905D01*
X177499048Y-118771190D01*
X177451429Y-118675952D01*
X177403810Y-118628333D01*
X177308572Y-118580714D01*
X177118095Y-118580714D01*
X177022857Y-118628333D01*
X176594286Y-119247381D02*
X176594286Y-118247381D01*
X176165714Y-119247381D02*
X176165714Y-118723571D01*
X176213333Y-118628333D01*
X176308571Y-118580714D01*
X176451429Y-118580714D01*
X176546667Y-118628333D01*
X176594286Y-118675952D01*
X175356190Y-118723571D02*
X175213333Y-118771190D01*
X175165714Y-118818810D01*
X175118095Y-118914048D01*
X175118095Y-119056905D01*
X175165714Y-119152143D01*
X175213333Y-119199762D01*
X175308571Y-119247381D01*
X175689524Y-119247381D01*
X175689524Y-118247381D01*
X175356190Y-118247381D01*
X175260952Y-118295000D01*
X175213333Y-118342619D01*
X175165714Y-118437857D01*
X175165714Y-118533095D01*
X175213333Y-118628333D01*
X175260952Y-118675952D01*
X175356190Y-118723571D01*
X175689524Y-118723571D01*
X174546667Y-119247381D02*
X174641905Y-119199762D01*
X174689524Y-119152143D01*
X174737143Y-119056905D01*
X174737143Y-118771190D01*
X174689524Y-118675952D01*
X174641905Y-118628333D01*
X174546667Y-118580714D01*
X174403809Y-118580714D01*
X174308571Y-118628333D01*
X174260952Y-118675952D01*
X174213333Y-118771190D01*
X174213333Y-119056905D01*
X174260952Y-119152143D01*
X174308571Y-119199762D01*
X174403809Y-119247381D01*
X174546667Y-119247381D01*
X173927619Y-118580714D02*
X173546667Y-118580714D01*
X173784762Y-118247381D02*
X173784762Y-119104524D01*
X173737143Y-119199762D01*
X173641905Y-119247381D01*
X173546667Y-119247381D01*
X172546666Y-118580714D02*
X172308571Y-119247381D01*
X172070475Y-118580714D01*
X171737142Y-118342619D02*
X171689523Y-118295000D01*
X171594285Y-118247381D01*
X171356189Y-118247381D01*
X171260951Y-118295000D01*
X171213332Y-118342619D01*
X171165713Y-118437857D01*
X171165713Y-118533095D01*
X171213332Y-118675952D01*
X171784761Y-119247381D01*
X171165713Y-119247381D01*
X170737142Y-119152143D02*
X170689523Y-119199762D01*
X170737142Y-119247381D01*
X170784761Y-119199762D01*
X170737142Y-119152143D01*
X170737142Y-119247381D01*
X170070476Y-118247381D02*
X169975237Y-118247381D01*
X169879999Y-118295000D01*
X169832380Y-118342619D01*
X169784761Y-118437857D01*
X169737142Y-118628333D01*
X169737142Y-118866429D01*
X169784761Y-119056905D01*
X169832380Y-119152143D01*
X169879999Y-119199762D01*
X169975237Y-119247381D01*
X170070476Y-119247381D01*
X170165714Y-119199762D01*
X170213333Y-119152143D01*
X170260952Y-119056905D01*
X170308571Y-118866429D01*
X170308571Y-118628333D01*
X170260952Y-118437857D01*
X170213333Y-118342619D01*
X170165714Y-118295000D01*
X170070476Y-118247381D01*
X177903809Y-120373571D02*
X178237143Y-120373571D01*
X178237143Y-120897381D02*
X178237143Y-119897381D01*
X177760952Y-119897381D01*
X176999047Y-120849762D02*
X177094285Y-120897381D01*
X177284762Y-120897381D01*
X177380000Y-120849762D01*
X177427619Y-120754524D01*
X177427619Y-120373571D01*
X177380000Y-120278333D01*
X177284762Y-120230714D01*
X177094285Y-120230714D01*
X176999047Y-120278333D01*
X176951428Y-120373571D01*
X176951428Y-120468810D01*
X177427619Y-120564048D01*
X176522857Y-120897381D02*
X176522857Y-119897381D01*
X176522857Y-120278333D02*
X176427619Y-120230714D01*
X176237142Y-120230714D01*
X176141904Y-120278333D01*
X176094285Y-120325952D01*
X176046666Y-120421190D01*
X176046666Y-120706905D01*
X176094285Y-120802143D01*
X176141904Y-120849762D01*
X176237142Y-120897381D01*
X176427619Y-120897381D01*
X176522857Y-120849762D01*
X174903809Y-119992619D02*
X174856190Y-119945000D01*
X174760952Y-119897381D01*
X174522856Y-119897381D01*
X174427618Y-119945000D01*
X174379999Y-119992619D01*
X174332380Y-120087857D01*
X174332380Y-120183095D01*
X174379999Y-120325952D01*
X174951428Y-120897381D01*
X174332380Y-120897381D01*
X173713333Y-119897381D02*
X173618094Y-119897381D01*
X173522856Y-119945000D01*
X173475237Y-119992619D01*
X173427618Y-120087857D01*
X173379999Y-120278333D01*
X173379999Y-120516429D01*
X173427618Y-120706905D01*
X173475237Y-120802143D01*
X173522856Y-120849762D01*
X173618094Y-120897381D01*
X173713333Y-120897381D01*
X173808571Y-120849762D01*
X173856190Y-120802143D01*
X173903809Y-120706905D01*
X173951428Y-120516429D01*
X173951428Y-120278333D01*
X173903809Y-120087857D01*
X173856190Y-119992619D01*
X173808571Y-119945000D01*
X173713333Y-119897381D01*
X172427618Y-120897381D02*
X172999047Y-120897381D01*
X172713333Y-120897381D02*
X172713333Y-119897381D01*
X172808571Y-120040238D01*
X172903809Y-120135476D01*
X172999047Y-120183095D01*
X172094285Y-119897381D02*
X171427618Y-119897381D01*
X171856190Y-120897381D01*
D13*
X148459524Y-112702381D02*
X147792857Y-113702381D01*
X147792857Y-112702381D02*
X148459524Y-113702381D01*
X147411905Y-113702381D02*
X147411905Y-112702381D01*
X147030952Y-112702381D01*
X146935714Y-112750000D01*
X146888095Y-112797619D01*
X146840476Y-112892857D01*
X146840476Y-113035714D01*
X146888095Y-113130952D01*
X146935714Y-113178571D01*
X147030952Y-113226190D01*
X147411905Y-113226190D01*
X145888095Y-113702381D02*
X146459524Y-113702381D01*
X146173810Y-113702381D02*
X146173810Y-112702381D01*
X146269048Y-112845238D01*
X146364286Y-112940476D01*
X146459524Y-112988095D01*
D12*
X162172200Y-115735800D02*
X162172200Y-115960800D01*
X156422200Y-115735800D02*
X156422200Y-116035800D01*
X156422200Y-124385800D02*
X156422200Y-124085800D01*
X162172200Y-124385800D02*
X162172200Y-124085800D01*
X162172200Y-115735800D02*
X156422200Y-115735800D01*
X162172200Y-124385800D02*
X156422200Y-124385800D01*
X162172200Y-115960800D02*
X163772200Y-115960800D01*
D15*
G36*
X174151170Y-116623263D02*
X174116631Y-116664890D01*
X174090416Y-116701831D01*
X174051366Y-116754600D01*
X174019002Y-116788771D01*
X174005750Y-116796073D01*
X173980620Y-116781948D01*
X173936282Y-116745654D01*
X173889410Y-116701870D01*
X173794237Y-116608163D01*
X173687616Y-116713460D01*
X173631305Y-116767628D01*
X173595732Y-116795564D01*
X173572250Y-116801510D01*
X173552212Y-116789708D01*
X173545442Y-116783203D01*
X173522559Y-116763366D01*
X173507421Y-116765148D01*
X173494800Y-116794998D01*
X173479464Y-116859363D01*
X173477907Y-116866455D01*
X173455263Y-116920573D01*
X173415722Y-116979588D01*
X173406661Y-116990244D01*
X173331626Y-117044790D01*
X173238546Y-117069915D01*
X173142028Y-117063141D01*
X173090675Y-117043851D01*
X173038246Y-116999592D01*
X172988617Y-116930205D01*
X172951557Y-116852316D01*
X172936835Y-116782553D01*
X172936833Y-116781998D01*
X172928160Y-116743105D01*
X172915875Y-116730472D01*
X172886384Y-116728270D01*
X172825667Y-116728535D01*
X172743350Y-116730800D01*
X172649055Y-116734599D01*
X172552408Y-116739463D01*
X172463031Y-116744925D01*
X172390549Y-116750518D01*
X172344586Y-116755774D01*
X172333524Y-116758753D01*
X172331393Y-116785984D01*
X172341445Y-116842025D01*
X172360516Y-116916233D01*
X172385439Y-116997966D01*
X172413048Y-117076580D01*
X172440178Y-117141433D01*
X172456335Y-117171609D01*
X172540022Y-117277355D01*
X172649917Y-117378683D01*
X172770804Y-117462448D01*
X172827293Y-117492106D01*
X172886966Y-117517417D01*
X172943863Y-117534282D01*
X173009812Y-117544703D01*
X173096639Y-117550682D01*
X173190833Y-117553654D01*
X173314810Y-117554653D01*
X173408409Y-117550196D01*
X173483359Y-117539213D01*
X173550666Y-117520878D01*
X173649279Y-117485506D01*
X173723080Y-117450144D01*
X173788513Y-117405300D01*
X173862019Y-117341484D01*
X173862928Y-117340647D01*
X173990917Y-117200367D01*
X174084154Y-117044815D01*
X174116911Y-116966461D01*
X174140467Y-116891997D01*
X174160149Y-116810004D01*
X174174409Y-116730537D01*
X174181700Y-116663650D01*
X174180474Y-116619396D01*
X174172230Y-116607046D01*
X174151170Y-116623263D01*
X174151170Y-116623263D01*
G37*
X174151170Y-116623263D02*
X174116631Y-116664890D01*
X174090416Y-116701831D01*
X174051366Y-116754600D01*
X174019002Y-116788771D01*
X174005750Y-116796073D01*
X173980620Y-116781948D01*
X173936282Y-116745654D01*
X173889410Y-116701870D01*
X173794237Y-116608163D01*
X173687616Y-116713460D01*
X173631305Y-116767628D01*
X173595732Y-116795564D01*
X173572250Y-116801510D01*
X173552212Y-116789708D01*
X173545442Y-116783203D01*
X173522559Y-116763366D01*
X173507421Y-116765148D01*
X173494800Y-116794998D01*
X173479464Y-116859363D01*
X173477907Y-116866455D01*
X173455263Y-116920573D01*
X173415722Y-116979588D01*
X173406661Y-116990244D01*
X173331626Y-117044790D01*
X173238546Y-117069915D01*
X173142028Y-117063141D01*
X173090675Y-117043851D01*
X173038246Y-116999592D01*
X172988617Y-116930205D01*
X172951557Y-116852316D01*
X172936835Y-116782553D01*
X172936833Y-116781998D01*
X172928160Y-116743105D01*
X172915875Y-116730472D01*
X172886384Y-116728270D01*
X172825667Y-116728535D01*
X172743350Y-116730800D01*
X172649055Y-116734599D01*
X172552408Y-116739463D01*
X172463031Y-116744925D01*
X172390549Y-116750518D01*
X172344586Y-116755774D01*
X172333524Y-116758753D01*
X172331393Y-116785984D01*
X172341445Y-116842025D01*
X172360516Y-116916233D01*
X172385439Y-116997966D01*
X172413048Y-117076580D01*
X172440178Y-117141433D01*
X172456335Y-117171609D01*
X172540022Y-117277355D01*
X172649917Y-117378683D01*
X172770804Y-117462448D01*
X172827293Y-117492106D01*
X172886966Y-117517417D01*
X172943863Y-117534282D01*
X173009812Y-117544703D01*
X173096639Y-117550682D01*
X173190833Y-117553654D01*
X173314810Y-117554653D01*
X173408409Y-117550196D01*
X173483359Y-117539213D01*
X173550666Y-117520878D01*
X173649279Y-117485506D01*
X173723080Y-117450144D01*
X173788513Y-117405300D01*
X173862019Y-117341484D01*
X173862928Y-117340647D01*
X173990917Y-117200367D01*
X174084154Y-117044815D01*
X174116911Y-116966461D01*
X174140467Y-116891997D01*
X174160149Y-116810004D01*
X174174409Y-116730537D01*
X174181700Y-116663650D01*
X174180474Y-116619396D01*
X174172230Y-116607046D01*
X174151170Y-116623263D01*
G36*
X179199021Y-116599529D02*
X179078232Y-116719058D01*
X178810774Y-116495576D01*
X178739537Y-116580327D01*
X178668299Y-116665078D01*
X178513086Y-116609644D01*
X178357872Y-116554210D01*
X178197855Y-116633388D01*
X178037839Y-116712566D01*
X177979711Y-116606753D01*
X177939103Y-116543691D01*
X177904295Y-116510141D01*
X177889833Y-116506624D01*
X177879679Y-116513733D01*
X177871710Y-116534147D01*
X177865584Y-116572600D01*
X177860960Y-116633827D01*
X177857496Y-116722561D01*
X177854851Y-116843536D01*
X177852683Y-117001486D01*
X177852415Y-117025321D01*
X177846747Y-117538333D01*
X178524833Y-117538333D01*
X178524833Y-116712833D01*
X179011666Y-116712833D01*
X179011666Y-117538333D01*
X179667833Y-117538333D01*
X179667833Y-116480000D01*
X179319811Y-116480000D01*
X179199021Y-116599529D01*
X179199021Y-116599529D01*
G37*
X179199021Y-116599529D02*
X179078232Y-116719058D01*
X178810774Y-116495576D01*
X178739537Y-116580327D01*
X178668299Y-116665078D01*
X178513086Y-116609644D01*
X178357872Y-116554210D01*
X178197855Y-116633388D01*
X178037839Y-116712566D01*
X177979711Y-116606753D01*
X177939103Y-116543691D01*
X177904295Y-116510141D01*
X177889833Y-116506624D01*
X177879679Y-116513733D01*
X177871710Y-116534147D01*
X177865584Y-116572600D01*
X177860960Y-116633827D01*
X177857496Y-116722561D01*
X177854851Y-116843536D01*
X177852683Y-117001486D01*
X177852415Y-117025321D01*
X177846747Y-117538333D01*
X178524833Y-117538333D01*
X178524833Y-116712833D01*
X179011666Y-116712833D01*
X179011666Y-117538333D01*
X179667833Y-117538333D01*
X179667833Y-116480000D01*
X179319811Y-116480000D01*
X179199021Y-116599529D01*
G36*
X176048872Y-116552451D02*
X176026798Y-116603477D01*
X176002241Y-116620217D01*
X175985224Y-116617707D01*
X175966464Y-116617674D01*
X175948863Y-116634744D01*
X175929173Y-116675223D01*
X175904143Y-116745420D01*
X175879321Y-116823263D01*
X175841315Y-116944411D01*
X175797492Y-117082754D01*
X175755166Y-117215245D01*
X175739435Y-117264097D01*
X175710247Y-117356642D01*
X175686729Y-117435392D01*
X175671592Y-117491000D01*
X175667333Y-117512806D01*
X175679610Y-117523144D01*
X175719120Y-117530544D01*
X175789881Y-117535314D01*
X175895912Y-117537760D01*
X176000708Y-117538253D01*
X176334083Y-117538174D01*
X176455437Y-117115000D01*
X177011691Y-117115000D01*
X177072818Y-117326667D01*
X177133945Y-117538333D01*
X177408320Y-117538333D01*
X177520366Y-117537916D01*
X177596389Y-117536064D01*
X177642698Y-117531881D01*
X177665600Y-117524467D01*
X177671404Y-117512925D01*
X177668436Y-117501292D01*
X177658309Y-117470897D01*
X177637869Y-117406351D01*
X177609093Y-117314011D01*
X177573956Y-117200237D01*
X177534437Y-117071386D01*
X177515441Y-117009167D01*
X177475075Y-116877277D01*
X177438629Y-116759184D01*
X177407964Y-116660839D01*
X177384943Y-116588195D01*
X177371427Y-116547203D01*
X177368841Y-116540481D01*
X177345984Y-116538289D01*
X177295714Y-116547252D01*
X177253627Y-116558347D01*
X177193221Y-116572948D01*
X177138336Y-116576432D01*
X177077630Y-116567193D01*
X176999762Y-116543626D01*
X176906724Y-116509259D01*
X176882196Y-116504099D01*
X176875167Y-116521255D01*
X176882034Y-116569987D01*
X176882379Y-116571835D01*
X176896918Y-116649333D01*
X176726626Y-116649333D01*
X176640912Y-116646823D01*
X176581841Y-116639907D01*
X176556724Y-116629508D01*
X176556333Y-116627868D01*
X176541779Y-116601643D01*
X176505259Y-116561454D01*
X176488198Y-116545525D01*
X176420063Y-116484646D01*
X176310967Y-116577850D01*
X176201870Y-116671054D01*
X176138136Y-116573075D01*
X176074401Y-116475096D01*
X176048872Y-116552451D01*
X176048872Y-116552451D01*
G37*
X176048872Y-116552451D02*
X176026798Y-116603477D01*
X176002241Y-116620217D01*
X175985224Y-116617707D01*
X175966464Y-116617674D01*
X175948863Y-116634744D01*
X175929173Y-116675223D01*
X175904143Y-116745420D01*
X175879321Y-116823263D01*
X175841315Y-116944411D01*
X175797492Y-117082754D01*
X175755166Y-117215245D01*
X175739435Y-117264097D01*
X175710247Y-117356642D01*
X175686729Y-117435392D01*
X175671592Y-117491000D01*
X175667333Y-117512806D01*
X175679610Y-117523144D01*
X175719120Y-117530544D01*
X175789881Y-117535314D01*
X175895912Y-117537760D01*
X176000708Y-117538253D01*
X176334083Y-117538174D01*
X176455437Y-117115000D01*
X177011691Y-117115000D01*
X177072818Y-117326667D01*
X177133945Y-117538333D01*
X177408320Y-117538333D01*
X177520366Y-117537916D01*
X177596389Y-117536064D01*
X177642698Y-117531881D01*
X177665600Y-117524467D01*
X177671404Y-117512925D01*
X177668436Y-117501292D01*
X177658309Y-117470897D01*
X177637869Y-117406351D01*
X177609093Y-117314011D01*
X177573956Y-117200237D01*
X177534437Y-117071386D01*
X177515441Y-117009167D01*
X177475075Y-116877277D01*
X177438629Y-116759184D01*
X177407964Y-116660839D01*
X177384943Y-116588195D01*
X177371427Y-116547203D01*
X177368841Y-116540481D01*
X177345984Y-116538289D01*
X177295714Y-116547252D01*
X177253627Y-116558347D01*
X177193221Y-116572948D01*
X177138336Y-116576432D01*
X177077630Y-116567193D01*
X176999762Y-116543626D01*
X176906724Y-116509259D01*
X176882196Y-116504099D01*
X176875167Y-116521255D01*
X176882034Y-116569987D01*
X176882379Y-116571835D01*
X176896918Y-116649333D01*
X176726626Y-116649333D01*
X176640912Y-116646823D01*
X176581841Y-116639907D01*
X176556724Y-116629508D01*
X176556333Y-116627868D01*
X176541779Y-116601643D01*
X176505259Y-116561454D01*
X176488198Y-116545525D01*
X176420063Y-116484646D01*
X176310967Y-116577850D01*
X176201870Y-116671054D01*
X176138136Y-116573075D01*
X176074401Y-116475096D01*
X176048872Y-116552451D01*
G36*
X175162503Y-116582938D02*
X175142106Y-116629837D01*
X175127666Y-116670251D01*
X175104424Y-116732182D01*
X175083107Y-116775767D01*
X175073645Y-116787548D01*
X175052554Y-116777933D01*
X175016317Y-116741260D01*
X174977389Y-116691658D01*
X174934780Y-116636657D01*
X174900455Y-116600112D01*
X174883402Y-116590236D01*
X174863785Y-116609829D01*
X174829064Y-116654854D01*
X174790776Y-116709669D01*
X174714833Y-116822921D01*
X174714833Y-117538333D01*
X175349833Y-117538333D01*
X175349833Y-116721425D01*
X175269566Y-116643046D01*
X175222221Y-116599064D01*
X175187186Y-116570626D01*
X175176017Y-116564667D01*
X175162503Y-116582938D01*
X175162503Y-116582938D01*
G37*
X175162503Y-116582938D02*
X175142106Y-116629837D01*
X175127666Y-116670251D01*
X175104424Y-116732182D01*
X175083107Y-116775767D01*
X175073645Y-116787548D01*
X175052554Y-116777933D01*
X175016317Y-116741260D01*
X174977389Y-116691658D01*
X174934780Y-116636657D01*
X174900455Y-116600112D01*
X174883402Y-116590236D01*
X174863785Y-116609829D01*
X174829064Y-116654854D01*
X174790776Y-116709669D01*
X174714833Y-116822921D01*
X174714833Y-117538333D01*
X175349833Y-117538333D01*
X175349833Y-116721425D01*
X175269566Y-116643046D01*
X175222221Y-116599064D01*
X175187186Y-116570626D01*
X175176017Y-116564667D01*
X175162503Y-116582938D01*
G36*
X170351965Y-116513061D02*
X170291000Y-116544587D01*
X170291000Y-117538333D01*
X170947166Y-117538333D01*
X170947166Y-116712833D01*
X171434000Y-116712833D01*
X171434000Y-117538333D01*
X172112175Y-117538333D01*
X172106462Y-117092482D01*
X172100750Y-116646630D01*
X172041164Y-116610940D01*
X171981577Y-116575250D01*
X171877953Y-116686375D01*
X171824897Y-116740941D01*
X171782220Y-116780574D01*
X171758509Y-116797345D01*
X171757622Y-116797462D01*
X171737921Y-116781056D01*
X171704734Y-116738807D01*
X171677416Y-116698528D01*
X171640077Y-116640531D01*
X171611715Y-116596764D01*
X171601757Y-116581619D01*
X171577794Y-116580262D01*
X171527555Y-116594728D01*
X171471093Y-116617860D01*
X171352590Y-116672112D01*
X171138230Y-116540216D01*
X171075064Y-116585194D01*
X171035708Y-116610530D01*
X171002047Y-116619464D01*
X170957730Y-116613188D01*
X170902705Y-116597745D01*
X170793513Y-116565319D01*
X170692777Y-116649659D01*
X170638338Y-116693788D01*
X170597366Y-116724316D01*
X170580401Y-116734000D01*
X170564373Y-116717363D01*
X170533204Y-116673607D01*
X170493443Y-116611966D01*
X170490845Y-116607767D01*
X170412930Y-116481534D01*
X170351965Y-116513061D01*
X170351965Y-116513061D01*
G37*
X170351965Y-116513061D02*
X170291000Y-116544587D01*
X170291000Y-117538333D01*
X170947166Y-117538333D01*
X170947166Y-116712833D01*
X171434000Y-116712833D01*
X171434000Y-117538333D01*
X172112175Y-117538333D01*
X172106462Y-117092482D01*
X172100750Y-116646630D01*
X172041164Y-116610940D01*
X171981577Y-116575250D01*
X171877953Y-116686375D01*
X171824897Y-116740941D01*
X171782220Y-116780574D01*
X171758509Y-116797345D01*
X171757622Y-116797462D01*
X171737921Y-116781056D01*
X171704734Y-116738807D01*
X171677416Y-116698528D01*
X171640077Y-116640531D01*
X171611715Y-116596764D01*
X171601757Y-116581619D01*
X171577794Y-116580262D01*
X171527555Y-116594728D01*
X171471093Y-116617860D01*
X171352590Y-116672112D01*
X171138230Y-116540216D01*
X171075064Y-116585194D01*
X171035708Y-116610530D01*
X171002047Y-116619464D01*
X170957730Y-116613188D01*
X170902705Y-116597745D01*
X170793513Y-116565319D01*
X170692777Y-116649659D01*
X170638338Y-116693788D01*
X170597366Y-116724316D01*
X170580401Y-116734000D01*
X170564373Y-116717363D01*
X170533204Y-116673607D01*
X170493443Y-116611966D01*
X170490845Y-116607767D01*
X170412930Y-116481534D01*
X170351965Y-116513061D01*
G36*
X170291000Y-115930411D02*
X170291157Y-116093595D01*
X170291852Y-116219097D01*
X170293424Y-116311570D01*
X170296211Y-116375664D01*
X170300549Y-116416031D01*
X170306778Y-116437322D01*
X170315236Y-116444190D01*
X170326259Y-116441285D01*
X170328041Y-116440355D01*
X170368098Y-116411171D01*
X170414018Y-116368057D01*
X170415785Y-116366179D01*
X170454137Y-116333092D01*
X170482316Y-116322404D01*
X170484979Y-116323400D01*
X170504202Y-116347420D01*
X170533955Y-116397034D01*
X170556342Y-116439164D01*
X170588130Y-116496545D01*
X170614320Y-116534441D01*
X170625551Y-116543500D01*
X170644098Y-116526775D01*
X170676464Y-116483103D01*
X170712445Y-116427083D01*
X170749758Y-116367337D01*
X170778095Y-116325340D01*
X170790735Y-116310667D01*
X170805503Y-116326865D01*
X170834252Y-116368001D01*
X170851743Y-116395058D01*
X170905017Y-116479450D01*
X171021340Y-116422399D01*
X171137663Y-116365349D01*
X171228424Y-116454425D01*
X171280868Y-116502035D01*
X171323995Y-116534356D01*
X171344413Y-116543500D01*
X171368458Y-116526217D01*
X171399676Y-116482624D01*
X171412833Y-116458833D01*
X171441036Y-116408018D01*
X171462207Y-116377808D01*
X171467341Y-116374167D01*
X171489301Y-116385114D01*
X171536129Y-116413846D01*
X171597788Y-116454197D01*
X171599203Y-116455147D01*
X171678451Y-116508060D01*
X171729095Y-116540577D01*
X171757491Y-116556167D01*
X171769997Y-116558305D01*
X171772972Y-116550460D01*
X171772981Y-116550041D01*
X171785806Y-116525225D01*
X171818160Y-116480963D01*
X171841773Y-116452045D01*
X171910250Y-116371174D01*
X172011159Y-116427602D01*
X172112069Y-116484030D01*
X172106409Y-115947557D01*
X172100750Y-115411083D01*
X171444583Y-115411083D01*
X171433045Y-116183667D01*
X170947166Y-116183667D01*
X170947166Y-115400500D01*
X170291000Y-115400500D01*
X170291000Y-115930411D01*
X170291000Y-115930411D01*
G37*
X170291000Y-115930411D02*
X170291157Y-116093595D01*
X170291852Y-116219097D01*
X170293424Y-116311570D01*
X170296211Y-116375664D01*
X170300549Y-116416031D01*
X170306778Y-116437322D01*
X170315236Y-116444190D01*
X170326259Y-116441285D01*
X170328041Y-116440355D01*
X170368098Y-116411171D01*
X170414018Y-116368057D01*
X170415785Y-116366179D01*
X170454137Y-116333092D01*
X170482316Y-116322404D01*
X170484979Y-116323400D01*
X170504202Y-116347420D01*
X170533955Y-116397034D01*
X170556342Y-116439164D01*
X170588130Y-116496545D01*
X170614320Y-116534441D01*
X170625551Y-116543500D01*
X170644098Y-116526775D01*
X170676464Y-116483103D01*
X170712445Y-116427083D01*
X170749758Y-116367337D01*
X170778095Y-116325340D01*
X170790735Y-116310667D01*
X170805503Y-116326865D01*
X170834252Y-116368001D01*
X170851743Y-116395058D01*
X170905017Y-116479450D01*
X171021340Y-116422399D01*
X171137663Y-116365349D01*
X171228424Y-116454425D01*
X171280868Y-116502035D01*
X171323995Y-116534356D01*
X171344413Y-116543500D01*
X171368458Y-116526217D01*
X171399676Y-116482624D01*
X171412833Y-116458833D01*
X171441036Y-116408018D01*
X171462207Y-116377808D01*
X171467341Y-116374167D01*
X171489301Y-116385114D01*
X171536129Y-116413846D01*
X171597788Y-116454197D01*
X171599203Y-116455147D01*
X171678451Y-116508060D01*
X171729095Y-116540577D01*
X171757491Y-116556167D01*
X171769997Y-116558305D01*
X171772972Y-116550460D01*
X171772981Y-116550041D01*
X171785806Y-116525225D01*
X171818160Y-116480963D01*
X171841773Y-116452045D01*
X171910250Y-116371174D01*
X172011159Y-116427602D01*
X172112069Y-116484030D01*
X172106409Y-115947557D01*
X172100750Y-115411083D01*
X171444583Y-115411083D01*
X171433045Y-116183667D01*
X170947166Y-116183667D01*
X170947166Y-115400500D01*
X170291000Y-115400500D01*
X170291000Y-115930411D01*
G36*
X179011666Y-116183667D02*
X178525788Y-116183667D01*
X178514250Y-115411083D01*
X177858083Y-115411083D01*
X177852395Y-115905638D01*
X177846708Y-116400193D01*
X177919241Y-116386586D01*
X177981219Y-116384506D01*
X178054582Y-116403008D01*
X178114029Y-116427046D01*
X178236285Y-116481113D01*
X178347793Y-116422732D01*
X178459300Y-116364350D01*
X178576687Y-116421923D01*
X178694075Y-116479495D01*
X178814124Y-116422655D01*
X178934173Y-116365814D01*
X179034880Y-116422042D01*
X179135588Y-116478269D01*
X179237669Y-116363263D01*
X179339750Y-116248258D01*
X179496056Y-116321795D01*
X179569178Y-116355783D01*
X179626075Y-116381448D01*
X179657198Y-116394511D01*
X179660098Y-116395333D01*
X179662276Y-116375141D01*
X179664216Y-116318461D01*
X179665828Y-116231140D01*
X179667022Y-116119022D01*
X179667705Y-115987954D01*
X179667833Y-115897917D01*
X179667833Y-115400500D01*
X179011666Y-115400500D01*
X179011666Y-116183667D01*
X179011666Y-116183667D01*
G37*
X179011666Y-116183667D02*
X178525788Y-116183667D01*
X178514250Y-115411083D01*
X177858083Y-115411083D01*
X177852395Y-115905638D01*
X177846708Y-116400193D01*
X177919241Y-116386586D01*
X177981219Y-116384506D01*
X178054582Y-116403008D01*
X178114029Y-116427046D01*
X178236285Y-116481113D01*
X178347793Y-116422732D01*
X178459300Y-116364350D01*
X178576687Y-116421923D01*
X178694075Y-116479495D01*
X178814124Y-116422655D01*
X178934173Y-116365814D01*
X179034880Y-116422042D01*
X179135588Y-116478269D01*
X179237669Y-116363263D01*
X179339750Y-116248258D01*
X179496056Y-116321795D01*
X179569178Y-116355783D01*
X179626075Y-116381448D01*
X179657198Y-116394511D01*
X179660098Y-116395333D01*
X179662276Y-116375141D01*
X179664216Y-116318461D01*
X179665828Y-116231140D01*
X179667022Y-116119022D01*
X179667705Y-115987954D01*
X179667833Y-115897917D01*
X179667833Y-115400500D01*
X179011666Y-115400500D01*
X179011666Y-116183667D01*
G36*
X174270333Y-115929667D02*
X174714833Y-115929667D01*
X174714833Y-116152840D01*
X174715573Y-116254090D01*
X174718953Y-116322583D01*
X174726712Y-116367889D01*
X174740590Y-116399574D01*
X174762327Y-116427208D01*
X174765311Y-116430452D01*
X174815789Y-116484890D01*
X174897199Y-116329965D01*
X174978609Y-116175041D01*
X175003845Y-116258729D01*
X175020632Y-116324289D01*
X175030109Y-116380164D01*
X175030706Y-116388792D01*
X175041102Y-116435686D01*
X175066807Y-116443590D01*
X175106585Y-116412482D01*
X175125034Y-116390554D01*
X175178788Y-116321870D01*
X175249443Y-116390351D01*
X175294387Y-116431070D01*
X175327119Y-116455596D01*
X175334966Y-116458833D01*
X175340598Y-116439004D01*
X175345251Y-116384859D01*
X175348475Y-116304412D01*
X175349819Y-116205679D01*
X175349833Y-116194250D01*
X175349833Y-115929667D01*
X175770677Y-115929667D01*
X175777214Y-115673823D01*
X175779049Y-115574379D01*
X175779247Y-115491472D01*
X175777880Y-115433620D01*
X175775021Y-115409344D01*
X175774930Y-115409240D01*
X175752461Y-115407214D01*
X175692501Y-115405353D01*
X175599893Y-115403715D01*
X175479480Y-115402355D01*
X175336104Y-115401329D01*
X175174607Y-115400693D01*
X175018222Y-115400500D01*
X174270333Y-115400500D01*
X174270333Y-115929667D01*
X174270333Y-115929667D01*
G37*
X174270333Y-115929667D02*
X174714833Y-115929667D01*
X174714833Y-116152840D01*
X174715573Y-116254090D01*
X174718953Y-116322583D01*
X174726712Y-116367889D01*
X174740590Y-116399574D01*
X174762327Y-116427208D01*
X174765311Y-116430452D01*
X174815789Y-116484890D01*
X174897199Y-116329965D01*
X174978609Y-116175041D01*
X175003845Y-116258729D01*
X175020632Y-116324289D01*
X175030109Y-116380164D01*
X175030706Y-116388792D01*
X175041102Y-116435686D01*
X175066807Y-116443590D01*
X175106585Y-116412482D01*
X175125034Y-116390554D01*
X175178788Y-116321870D01*
X175249443Y-116390351D01*
X175294387Y-116431070D01*
X175327119Y-116455596D01*
X175334966Y-116458833D01*
X175340598Y-116439004D01*
X175345251Y-116384859D01*
X175348475Y-116304412D01*
X175349819Y-116205679D01*
X175349833Y-116194250D01*
X175349833Y-115929667D01*
X175770677Y-115929667D01*
X175777214Y-115673823D01*
X175779049Y-115574379D01*
X175779247Y-115491472D01*
X175777880Y-115433620D01*
X175775021Y-115409344D01*
X175774930Y-115409240D01*
X175752461Y-115407214D01*
X175692501Y-115405353D01*
X175599893Y-115403715D01*
X175479480Y-115402355D01*
X175336104Y-115401329D01*
X175174607Y-115400693D01*
X175018222Y-115400500D01*
X174270333Y-115400500D01*
X174270333Y-115929667D01*
G36*
X173025472Y-115394128D02*
X172852446Y-115438112D01*
X172756395Y-115479935D01*
X172674356Y-115535336D01*
X172586720Y-115615914D01*
X172505798Y-115708484D01*
X172443901Y-115799863D01*
X172427787Y-115831851D01*
X172400693Y-115902751D01*
X172375259Y-115985771D01*
X172353908Y-116070310D01*
X172339061Y-116145764D01*
X172333137Y-116201532D01*
X172337703Y-116226386D01*
X172364072Y-116232987D01*
X172424466Y-116240321D01*
X172510601Y-116247599D01*
X172614196Y-116254034D01*
X172643367Y-116255490D01*
X172764546Y-116260807D01*
X172849769Y-116261948D01*
X172905364Y-116256779D01*
X172937659Y-116243163D01*
X172952984Y-116218968D01*
X172957666Y-116182057D01*
X172958000Y-116149342D01*
X172975088Y-116069387D01*
X173019304Y-115987400D01*
X173080073Y-115920600D01*
X173111614Y-115899202D01*
X173202935Y-115869405D01*
X173287631Y-115879034D01*
X173362712Y-115925339D01*
X173425188Y-116005569D01*
X173472070Y-116116974D01*
X173500368Y-116256802D01*
X173500377Y-116256880D01*
X173513105Y-116332105D01*
X173533605Y-116379625D01*
X173568481Y-116414055D01*
X173572805Y-116417192D01*
X173618746Y-116445701D01*
X173651417Y-116458748D01*
X173652924Y-116458833D01*
X173672377Y-116441063D01*
X173701390Y-116394800D01*
X173729279Y-116339317D01*
X173783996Y-116219801D01*
X173869579Y-116339317D01*
X173914114Y-116398735D01*
X173949916Y-116441445D01*
X173969510Y-116458556D01*
X173969873Y-116458582D01*
X173986498Y-116441262D01*
X174016465Y-116395903D01*
X174053542Y-116332002D01*
X174056674Y-116326290D01*
X174095047Y-116259045D01*
X174127651Y-116207310D01*
X174147711Y-116181804D01*
X174148265Y-116181408D01*
X174156272Y-116152565D01*
X174146987Y-116094571D01*
X174122806Y-116015751D01*
X174086128Y-115924432D01*
X174055949Y-115860783D01*
X173952248Y-115695951D01*
X173824867Y-115565884D01*
X173673290Y-115470285D01*
X173496999Y-115408856D01*
X173295480Y-115381297D01*
X173223428Y-115379584D01*
X173025472Y-115394128D01*
X173025472Y-115394128D01*
G37*
X173025472Y-115394128D02*
X172852446Y-115438112D01*
X172756395Y-115479935D01*
X172674356Y-115535336D01*
X172586720Y-115615914D01*
X172505798Y-115708484D01*
X172443901Y-115799863D01*
X172427787Y-115831851D01*
X172400693Y-115902751D01*
X172375259Y-115985771D01*
X172353908Y-116070310D01*
X172339061Y-116145764D01*
X172333137Y-116201532D01*
X172337703Y-116226386D01*
X172364072Y-116232987D01*
X172424466Y-116240321D01*
X172510601Y-116247599D01*
X172614196Y-116254034D01*
X172643367Y-116255490D01*
X172764546Y-116260807D01*
X172849769Y-116261948D01*
X172905364Y-116256779D01*
X172937659Y-116243163D01*
X172952984Y-116218968D01*
X172957666Y-116182057D01*
X172958000Y-116149342D01*
X172975088Y-116069387D01*
X173019304Y-115987400D01*
X173080073Y-115920600D01*
X173111614Y-115899202D01*
X173202935Y-115869405D01*
X173287631Y-115879034D01*
X173362712Y-115925339D01*
X173425188Y-116005569D01*
X173472070Y-116116974D01*
X173500368Y-116256802D01*
X173500377Y-116256880D01*
X173513105Y-116332105D01*
X173533605Y-116379625D01*
X173568481Y-116414055D01*
X173572805Y-116417192D01*
X173618746Y-116445701D01*
X173651417Y-116458748D01*
X173652924Y-116458833D01*
X173672377Y-116441063D01*
X173701390Y-116394800D01*
X173729279Y-116339317D01*
X173783996Y-116219801D01*
X173869579Y-116339317D01*
X173914114Y-116398735D01*
X173949916Y-116441445D01*
X173969510Y-116458556D01*
X173969873Y-116458582D01*
X173986498Y-116441262D01*
X174016465Y-116395903D01*
X174053542Y-116332002D01*
X174056674Y-116326290D01*
X174095047Y-116259045D01*
X174127651Y-116207310D01*
X174147711Y-116181804D01*
X174148265Y-116181408D01*
X174156272Y-116152565D01*
X174146987Y-116094571D01*
X174122806Y-116015751D01*
X174086128Y-115924432D01*
X174055949Y-115860783D01*
X173952248Y-115695951D01*
X173824867Y-115565884D01*
X173673290Y-115470285D01*
X173496999Y-115408856D01*
X173295480Y-115381297D01*
X173223428Y-115379584D01*
X173025472Y-115394128D01*
G36*
X176227230Y-115712708D02*
X176190524Y-115829140D01*
X176155837Y-115938711D01*
X176126283Y-116031611D01*
X176104979Y-116098031D01*
X176099260Y-116115615D01*
X176078604Y-116180473D01*
X176072387Y-116212430D01*
X176081800Y-116218790D01*
X176108034Y-116206860D01*
X176113646Y-116203863D01*
X176142147Y-116189328D01*
X176159462Y-116189742D01*
X176172471Y-116212711D01*
X176188054Y-116265841D01*
X176195883Y-116294792D01*
X176215853Y-116352843D01*
X176236458Y-116389163D01*
X176245983Y-116395333D01*
X176273218Y-116381580D01*
X176317391Y-116346497D01*
X176345323Y-116320609D01*
X176421847Y-116245885D01*
X176515549Y-116288394D01*
X176575050Y-116313512D01*
X176619722Y-116329016D01*
X176631707Y-116331368D01*
X176648833Y-116312907D01*
X176669062Y-116264903D01*
X176682016Y-116220708D01*
X176705470Y-116133897D01*
X176723609Y-116087313D01*
X176738846Y-116079561D01*
X176753595Y-116109248D01*
X176769229Y-116170306D01*
X176786385Y-116237099D01*
X176802861Y-116285173D01*
X176812522Y-116301436D01*
X176840564Y-116300465D01*
X176891219Y-116285965D01*
X176911044Y-116278497D01*
X176953138Y-116262901D01*
X176986361Y-116258250D01*
X177022378Y-116267221D01*
X177072855Y-116292498D01*
X177139645Y-116331026D01*
X177221927Y-116378126D01*
X177274615Y-116404976D01*
X177304006Y-116413772D01*
X177316399Y-116406709D01*
X177318333Y-116393336D01*
X177312299Y-116367457D01*
X177295320Y-116306777D01*
X177269081Y-116216899D01*
X177235269Y-116103425D01*
X177195570Y-115971961D01*
X177151669Y-115828108D01*
X177105253Y-115677470D01*
X177058006Y-115525651D01*
X177040334Y-115469291D01*
X177018717Y-115400500D01*
X176325441Y-115400500D01*
X176227230Y-115712708D01*
X176227230Y-115712708D01*
G37*
X176227230Y-115712708D02*
X176190524Y-115829140D01*
X176155837Y-115938711D01*
X176126283Y-116031611D01*
X176104979Y-116098031D01*
X176099260Y-116115615D01*
X176078604Y-116180473D01*
X176072387Y-116212430D01*
X176081800Y-116218790D01*
X176108034Y-116206860D01*
X176113646Y-116203863D01*
X176142147Y-116189328D01*
X176159462Y-116189742D01*
X176172471Y-116212711D01*
X176188054Y-116265841D01*
X176195883Y-116294792D01*
X176215853Y-116352843D01*
X176236458Y-116389163D01*
X176245983Y-116395333D01*
X176273218Y-116381580D01*
X176317391Y-116346497D01*
X176345323Y-116320609D01*
X176421847Y-116245885D01*
X176515549Y-116288394D01*
X176575050Y-116313512D01*
X176619722Y-116329016D01*
X176631707Y-116331368D01*
X176648833Y-116312907D01*
X176669062Y-116264903D01*
X176682016Y-116220708D01*
X176705470Y-116133897D01*
X176723609Y-116087313D01*
X176738846Y-116079561D01*
X176753595Y-116109248D01*
X176769229Y-116170306D01*
X176786385Y-116237099D01*
X176802861Y-116285173D01*
X176812522Y-116301436D01*
X176840564Y-116300465D01*
X176891219Y-116285965D01*
X176911044Y-116278497D01*
X176953138Y-116262901D01*
X176986361Y-116258250D01*
X177022378Y-116267221D01*
X177072855Y-116292498D01*
X177139645Y-116331026D01*
X177221927Y-116378126D01*
X177274615Y-116404976D01*
X177304006Y-116413772D01*
X177316399Y-116406709D01*
X177318333Y-116393336D01*
X177312299Y-116367457D01*
X177295320Y-116306777D01*
X177269081Y-116216899D01*
X177235269Y-116103425D01*
X177195570Y-115971961D01*
X177151669Y-115828108D01*
X177105253Y-115677470D01*
X177058006Y-115525651D01*
X177040334Y-115469291D01*
X177018717Y-115400500D01*
X176325441Y-115400500D01*
X176227230Y-115712708D01*
D12*
X124735295Y-112313181D02*
X124735295Y-111313181D01*
X124354342Y-111313181D01*
X124259104Y-111360800D01*
X124211485Y-111408419D01*
X124163866Y-111503657D01*
X124163866Y-111646514D01*
X124211485Y-111741752D01*
X124259104Y-111789371D01*
X124354342Y-111836990D01*
X124735295Y-111836990D01*
X123211485Y-112313181D02*
X123782914Y-112313181D01*
X123497200Y-112313181D02*
X123497200Y-111313181D01*
X123592438Y-111456038D01*
X123687676Y-111551276D01*
X123782914Y-111598895D01*
X119785295Y-109793181D02*
X119785295Y-108793181D01*
X119404342Y-108793181D01*
X119309104Y-108840800D01*
X119261485Y-108888419D01*
X119213866Y-108983657D01*
X119213866Y-109126514D01*
X119261485Y-109221752D01*
X119309104Y-109269371D01*
X119404342Y-109316990D01*
X119785295Y-109316990D01*
X118832914Y-108888419D02*
X118785295Y-108840800D01*
X118690057Y-108793181D01*
X118451961Y-108793181D01*
X118356723Y-108840800D01*
X118309104Y-108888419D01*
X118261485Y-108983657D01*
X118261485Y-109078895D01*
X118309104Y-109221752D01*
X118880533Y-109793181D01*
X118261485Y-109793181D01*
X158055295Y-109693181D02*
X158055295Y-108693181D01*
X157674342Y-108693181D01*
X157579104Y-108740800D01*
X157531485Y-108788419D01*
X157483866Y-108883657D01*
X157483866Y-109026514D01*
X157531485Y-109121752D01*
X157579104Y-109169371D01*
X157674342Y-109216990D01*
X158055295Y-109216990D01*
X157150533Y-108693181D02*
X156531485Y-108693181D01*
X156864819Y-109074133D01*
X156721961Y-109074133D01*
X156626723Y-109121752D01*
X156579104Y-109169371D01*
X156531485Y-109264610D01*
X156531485Y-109502705D01*
X156579104Y-109597943D01*
X156626723Y-109645562D01*
X156721961Y-109693181D01*
X157007676Y-109693181D01*
X157102914Y-109645562D01*
X157150533Y-109597943D01*
X160059105Y-114263181D02*
X160059105Y-115072705D01*
X160011486Y-115167943D01*
X159963867Y-115215562D01*
X159868629Y-115263181D01*
X159678152Y-115263181D01*
X159582914Y-115215562D01*
X159535295Y-115167943D01*
X159487676Y-115072705D01*
X159487676Y-114263181D01*
X158487676Y-115263181D02*
X159059105Y-115263181D01*
X158773391Y-115263181D02*
X158773391Y-114263181D01*
X158868629Y-114406038D01*
X158963867Y-114501276D01*
X159059105Y-114548895D01*
D10*
X162404343Y-124900086D02*
X161975772Y-124900086D01*
X162190058Y-125650086D02*
X162190058Y-124900086D01*
X161475772Y-125257229D02*
X161368629Y-125292943D01*
X161332914Y-125328657D01*
X161297200Y-125400086D01*
X161297200Y-125507229D01*
X161332914Y-125578657D01*
X161368629Y-125614371D01*
X161440057Y-125650086D01*
X161725772Y-125650086D01*
X161725772Y-124900086D01*
X161475772Y-124900086D01*
X161404343Y-124935800D01*
X161368629Y-124971514D01*
X161332914Y-125042943D01*
X161332914Y-125114371D01*
X161368629Y-125185800D01*
X161404343Y-125221514D01*
X161475772Y-125257229D01*
X161725772Y-125257229D01*
X160654343Y-124900086D02*
X160797200Y-124900086D01*
X160868629Y-124935800D01*
X160904343Y-124971514D01*
X160975772Y-125078657D01*
X161011486Y-125221514D01*
X161011486Y-125507229D01*
X160975772Y-125578657D01*
X160940057Y-125614371D01*
X160868629Y-125650086D01*
X160725772Y-125650086D01*
X160654343Y-125614371D01*
X160618629Y-125578657D01*
X160582914Y-125507229D01*
X160582914Y-125328657D01*
X160618629Y-125257229D01*
X160654343Y-125221514D01*
X160725772Y-125185800D01*
X160868629Y-125185800D01*
X160940057Y-125221514D01*
X160975772Y-125257229D01*
X161011486Y-125328657D01*
X159940057Y-124900086D02*
X160082914Y-124900086D01*
X160154343Y-124935800D01*
X160190057Y-124971514D01*
X160261486Y-125078657D01*
X160297200Y-125221514D01*
X160297200Y-125507229D01*
X160261486Y-125578657D01*
X160225771Y-125614371D01*
X160154343Y-125650086D01*
X160011486Y-125650086D01*
X159940057Y-125614371D01*
X159904343Y-125578657D01*
X159868628Y-125507229D01*
X159868628Y-125328657D01*
X159904343Y-125257229D01*
X159940057Y-125221514D01*
X160011486Y-125185800D01*
X160154343Y-125185800D01*
X160225771Y-125221514D01*
X160261486Y-125257229D01*
X160297200Y-125328657D01*
X159154342Y-125650086D02*
X159582914Y-125650086D01*
X159368628Y-125650086D02*
X159368628Y-124900086D01*
X159440057Y-125007229D01*
X159511485Y-125078657D01*
X159582914Y-125114371D01*
X158868628Y-124971514D02*
X158832914Y-124935800D01*
X158761485Y-124900086D01*
X158582914Y-124900086D01*
X158511485Y-124935800D01*
X158475771Y-124971514D01*
X158440056Y-125042943D01*
X158440056Y-125114371D01*
X158475771Y-125221514D01*
X158904342Y-125650086D01*
X158440056Y-125650086D01*
X157868628Y-125257229D02*
X158118628Y-125257229D01*
X158118628Y-125650086D02*
X158118628Y-124900086D01*
X157761485Y-124900086D01*
X157475771Y-125650086D02*
X157475771Y-124900086D01*
X157047199Y-125650086D01*
X157047199Y-124900086D01*
X156297199Y-124935800D02*
X156368628Y-124900086D01*
X156475771Y-124900086D01*
X156582914Y-124935800D01*
X156654342Y-125007229D01*
X156690057Y-125078657D01*
X156725771Y-125221514D01*
X156725771Y-125328657D01*
X156690057Y-125471514D01*
X156654342Y-125542943D01*
X156582914Y-125614371D01*
X156475771Y-125650086D01*
X156404342Y-125650086D01*
X156297199Y-125614371D01*
X156261485Y-125578657D01*
X156261485Y-125328657D01*
X156404342Y-125328657D01*
D12*
X103730533Y-108243181D02*
X103730533Y-108957467D01*
X103778153Y-109100324D01*
X103873391Y-109195562D01*
X104016248Y-109243181D01*
X104111486Y-109243181D01*
X103254343Y-109243181D02*
X103254343Y-108243181D01*
X102873390Y-108243181D01*
X102778152Y-108290800D01*
X102730533Y-108338419D01*
X102682914Y-108433657D01*
X102682914Y-108576514D01*
X102730533Y-108671752D01*
X102778152Y-108719371D01*
X102873390Y-108766990D01*
X103254343Y-108766990D01*
X101730533Y-109243181D02*
X102301962Y-109243181D01*
X102016248Y-109243181D02*
X102016248Y-108243181D01*
X102111486Y-108386038D01*
X102206724Y-108481276D01*
X102301962Y-108528895D01*
X177912381Y-108856667D02*
X178626667Y-108856667D01*
X178769524Y-108809047D01*
X178864762Y-108713809D01*
X178912381Y-108570952D01*
X178912381Y-108475714D01*
X178912381Y-109332857D02*
X177912381Y-109332857D01*
X177912381Y-109713810D01*
X177960000Y-109809048D01*
X178007619Y-109856667D01*
X178102857Y-109904286D01*
X178245714Y-109904286D01*
X178340952Y-109856667D01*
X178388571Y-109809048D01*
X178436190Y-109713810D01*
X178436190Y-109332857D01*
X178007619Y-110285238D02*
X177960000Y-110332857D01*
X177912381Y-110428095D01*
X177912381Y-110666191D01*
X177960000Y-110761429D01*
X178007619Y-110809048D01*
X178102857Y-110856667D01*
X178198095Y-110856667D01*
X178340952Y-110809048D01*
X178912381Y-110237619D01*
X178912381Y-110856667D01*
M02*
