G04 #@! TF.FileFunction,Legend,Bot*
%FSLAX46Y46*%
G04 Gerber Fmt 4.6, Leading zero omitted, Abs format (unit mm)*
G04 Created by KiCad (PCBNEW 4.0.2-stable) date Friday, July 22, 2016 'AMt' 10:22:11 AM*
%MOMM*%
G01*
G04 APERTURE LIST*
%ADD10C,0.100000*%
%ADD11C,0.200000*%
%ADD12C,0.300000*%
%ADD13C,0.250000*%
%ADD14C,0.150000*%
G04 APERTURE END LIST*
D10*
D11*
X181281428Y-100516857D02*
X181281428Y-99316857D01*
X181281428Y-99888286D02*
X180595713Y-99888286D01*
X180595713Y-100516857D02*
X180595713Y-99316857D01*
X180081428Y-100174000D02*
X179509999Y-100174000D01*
X180195713Y-100516857D02*
X179795713Y-99316857D01*
X179395713Y-100516857D01*
X179167142Y-99316857D02*
X178481428Y-99316857D01*
X178824285Y-100516857D02*
X178824285Y-99316857D01*
X177395713Y-100402571D02*
X177452856Y-100459714D01*
X177624285Y-100516857D01*
X177738571Y-100516857D01*
X177909999Y-100459714D01*
X178024285Y-100345429D01*
X178081428Y-100231143D01*
X178138571Y-100002571D01*
X178138571Y-99831143D01*
X178081428Y-99602571D01*
X178024285Y-99488286D01*
X177909999Y-99374000D01*
X177738571Y-99316857D01*
X177624285Y-99316857D01*
X177452856Y-99374000D01*
X177395713Y-99431143D01*
X176881428Y-100516857D02*
X176881428Y-99316857D01*
X176881428Y-99888286D02*
X176195713Y-99888286D01*
X176195713Y-100516857D02*
X176195713Y-99316857D01*
X174881427Y-99316857D02*
X174195713Y-99316857D01*
X174538570Y-100516857D02*
X174538570Y-99316857D01*
X173795713Y-100516857D02*
X173795713Y-99716857D01*
X173795713Y-99945429D02*
X173738570Y-99831143D01*
X173681427Y-99774000D01*
X173567141Y-99716857D01*
X173452856Y-99716857D01*
X173052856Y-100516857D02*
X173052856Y-99716857D01*
X173052856Y-99316857D02*
X173109999Y-99374000D01*
X173052856Y-99431143D01*
X172995713Y-99374000D01*
X173052856Y-99316857D01*
X173052856Y-99431143D01*
X172481427Y-99716857D02*
X172481427Y-100516857D01*
X172481427Y-99831143D02*
X172424284Y-99774000D01*
X172309998Y-99716857D01*
X172138570Y-99716857D01*
X172024284Y-99774000D01*
X171967141Y-99888286D01*
X171967141Y-100516857D01*
X171395713Y-100516857D02*
X171395713Y-99316857D01*
X171281427Y-100059714D02*
X170938570Y-100516857D01*
X170938570Y-99716857D02*
X171395713Y-100174000D01*
X169967141Y-100459714D02*
X170081427Y-100516857D01*
X170309998Y-100516857D01*
X170424284Y-100459714D01*
X170481427Y-100345429D01*
X170481427Y-99888286D01*
X170424284Y-99774000D01*
X170309998Y-99716857D01*
X170081427Y-99716857D01*
X169967141Y-99774000D01*
X169909998Y-99888286D01*
X169909998Y-100002571D01*
X170481427Y-100116857D01*
X169567141Y-99716857D02*
X169109998Y-99716857D01*
X169395713Y-99316857D02*
X169395713Y-100345429D01*
X169338570Y-100459714D01*
X169224284Y-100516857D01*
X169109998Y-100516857D01*
X167795713Y-100516857D02*
X167795713Y-99316857D01*
X167338570Y-99316857D01*
X167224284Y-99374000D01*
X167167141Y-99431143D01*
X167109998Y-99545429D01*
X167109998Y-99716857D01*
X167167141Y-99831143D01*
X167224284Y-99888286D01*
X167338570Y-99945429D01*
X167795713Y-99945429D01*
X166595713Y-100516857D02*
X166595713Y-99716857D01*
X166595713Y-99945429D02*
X166538570Y-99831143D01*
X166481427Y-99774000D01*
X166367141Y-99716857D01*
X166252856Y-99716857D01*
X165681427Y-100516857D02*
X165795713Y-100459714D01*
X165852856Y-100402571D01*
X165909999Y-100288286D01*
X165909999Y-99945429D01*
X165852856Y-99831143D01*
X165795713Y-99774000D01*
X165681427Y-99716857D01*
X165509999Y-99716857D01*
X165395713Y-99774000D01*
X165338570Y-99831143D01*
X165281427Y-99945429D01*
X165281427Y-100288286D01*
X165338570Y-100402571D01*
X165395713Y-100459714D01*
X165509999Y-100516857D01*
X165681427Y-100516857D01*
X163909999Y-100459714D02*
X163738570Y-100516857D01*
X163452856Y-100516857D01*
X163338570Y-100459714D01*
X163281427Y-100402571D01*
X163224284Y-100288286D01*
X163224284Y-100174000D01*
X163281427Y-100059714D01*
X163338570Y-100002571D01*
X163452856Y-99945429D01*
X163681427Y-99888286D01*
X163795713Y-99831143D01*
X163852856Y-99774000D01*
X163909999Y-99659714D01*
X163909999Y-99545429D01*
X163852856Y-99431143D01*
X163795713Y-99374000D01*
X163681427Y-99316857D01*
X163395713Y-99316857D01*
X163224284Y-99374000D01*
X162195713Y-99716857D02*
X162195713Y-100516857D01*
X162709999Y-99716857D02*
X162709999Y-100345429D01*
X162652856Y-100459714D01*
X162538570Y-100516857D01*
X162367142Y-100516857D01*
X162252856Y-100459714D01*
X162195713Y-100402571D01*
X161624285Y-100516857D02*
X161624285Y-99716857D01*
X161624285Y-99831143D02*
X161567142Y-99774000D01*
X161452856Y-99716857D01*
X161281428Y-99716857D01*
X161167142Y-99774000D01*
X161109999Y-99888286D01*
X161109999Y-100516857D01*
X161109999Y-99888286D02*
X161052856Y-99774000D01*
X160938570Y-99716857D01*
X160767142Y-99716857D01*
X160652856Y-99774000D01*
X160595713Y-99888286D01*
X160595713Y-100516857D01*
X159852856Y-100516857D02*
X159967142Y-100459714D01*
X160024285Y-100402571D01*
X160081428Y-100288286D01*
X160081428Y-99945429D01*
X160024285Y-99831143D01*
X159967142Y-99774000D01*
X159852856Y-99716857D01*
X159681428Y-99716857D01*
X159567142Y-99774000D01*
X159509999Y-99831143D01*
X159452856Y-99945429D01*
X159452856Y-100288286D01*
X159509999Y-100402571D01*
X159567142Y-100459714D01*
X159681428Y-100516857D01*
X159852856Y-100516857D01*
X158538571Y-99888286D02*
X158367142Y-99945429D01*
X158309999Y-100002571D01*
X158252856Y-100116857D01*
X158252856Y-100288286D01*
X158309999Y-100402571D01*
X158367142Y-100459714D01*
X158481428Y-100516857D01*
X158938571Y-100516857D01*
X158938571Y-99316857D01*
X158538571Y-99316857D01*
X158424285Y-99374000D01*
X158367142Y-99431143D01*
X158309999Y-99545429D01*
X158309999Y-99659714D01*
X158367142Y-99774000D01*
X158424285Y-99831143D01*
X158538571Y-99888286D01*
X158938571Y-99888286D01*
X157567142Y-100516857D02*
X157681428Y-100459714D01*
X157738571Y-100402571D01*
X157795714Y-100288286D01*
X157795714Y-99945429D01*
X157738571Y-99831143D01*
X157681428Y-99774000D01*
X157567142Y-99716857D01*
X157395714Y-99716857D01*
X157281428Y-99774000D01*
X157224285Y-99831143D01*
X157167142Y-99945429D01*
X157167142Y-100288286D01*
X157224285Y-100402571D01*
X157281428Y-100459714D01*
X157395714Y-100516857D01*
X157567142Y-100516857D01*
X156824285Y-99716857D02*
X156367142Y-99716857D01*
X156652857Y-99316857D02*
X156652857Y-100345429D01*
X156595714Y-100459714D01*
X156481428Y-100516857D01*
X156367142Y-100516857D01*
X177481428Y-101596857D02*
X177195714Y-102396857D01*
X176910000Y-101596857D01*
X175824285Y-102396857D02*
X176510000Y-102396857D01*
X176167142Y-102396857D02*
X176167142Y-101196857D01*
X176281428Y-101368286D01*
X176395714Y-101482571D01*
X176510000Y-101539714D01*
X175310000Y-102282571D02*
X175252857Y-102339714D01*
X175310000Y-102396857D01*
X175367143Y-102339714D01*
X175310000Y-102282571D01*
X175310000Y-102396857D01*
X174509999Y-101196857D02*
X174395714Y-101196857D01*
X174281428Y-101254000D01*
X174224285Y-101311143D01*
X174167142Y-101425429D01*
X174109999Y-101654000D01*
X174109999Y-101939714D01*
X174167142Y-102168286D01*
X174224285Y-102282571D01*
X174281428Y-102339714D01*
X174395714Y-102396857D01*
X174509999Y-102396857D01*
X174624285Y-102339714D01*
X174681428Y-102282571D01*
X174738571Y-102168286D01*
X174795714Y-101939714D01*
X174795714Y-101654000D01*
X174738571Y-101425429D01*
X174681428Y-101311143D01*
X174624285Y-101254000D01*
X174509999Y-101196857D01*
X173538571Y-102339714D02*
X173538571Y-102396857D01*
X173595714Y-102511143D01*
X173652857Y-102568286D01*
X172167142Y-101311143D02*
X172109999Y-101254000D01*
X171995713Y-101196857D01*
X171709999Y-101196857D01*
X171595713Y-101254000D01*
X171538570Y-101311143D01*
X171481427Y-101425429D01*
X171481427Y-101539714D01*
X171538570Y-101711143D01*
X172224284Y-102396857D01*
X171481427Y-102396857D01*
X170338570Y-102396857D02*
X171024285Y-102396857D01*
X170681427Y-102396857D02*
X170681427Y-101196857D01*
X170795713Y-101368286D01*
X170909999Y-101482571D01*
X171024285Y-101539714D01*
X168567142Y-101196857D02*
X168567142Y-102054000D01*
X168624284Y-102225429D01*
X168738570Y-102339714D01*
X168909999Y-102396857D01*
X169024284Y-102396857D01*
X167481427Y-101596857D02*
X167481427Y-102396857D01*
X167995713Y-101596857D02*
X167995713Y-102225429D01*
X167938570Y-102339714D01*
X167824284Y-102396857D01*
X167652856Y-102396857D01*
X167538570Y-102339714D01*
X167481427Y-102282571D01*
X166738570Y-102396857D02*
X166852856Y-102339714D01*
X166909999Y-102225429D01*
X166909999Y-101196857D01*
X166395713Y-101596857D02*
X166109999Y-102396857D01*
X165824285Y-101596857D02*
X166109999Y-102396857D01*
X166224285Y-102682571D01*
X166281428Y-102739714D01*
X166395713Y-102796857D01*
X164509999Y-101311143D02*
X164452856Y-101254000D01*
X164338570Y-101196857D01*
X164052856Y-101196857D01*
X163938570Y-101254000D01*
X163881427Y-101311143D01*
X163824284Y-101425429D01*
X163824284Y-101539714D01*
X163881427Y-101711143D01*
X164567141Y-102396857D01*
X163824284Y-102396857D01*
X163081427Y-101196857D02*
X162967142Y-101196857D01*
X162852856Y-101254000D01*
X162795713Y-101311143D01*
X162738570Y-101425429D01*
X162681427Y-101654000D01*
X162681427Y-101939714D01*
X162738570Y-102168286D01*
X162795713Y-102282571D01*
X162852856Y-102339714D01*
X162967142Y-102396857D01*
X163081427Y-102396857D01*
X163195713Y-102339714D01*
X163252856Y-102282571D01*
X163309999Y-102168286D01*
X163367142Y-101939714D01*
X163367142Y-101654000D01*
X163309999Y-101425429D01*
X163252856Y-101311143D01*
X163195713Y-101254000D01*
X163081427Y-101196857D01*
X161538570Y-102396857D02*
X162224285Y-102396857D01*
X161881427Y-102396857D02*
X161881427Y-101196857D01*
X161995713Y-101368286D01*
X162109999Y-101482571D01*
X162224285Y-101539714D01*
X160509999Y-101196857D02*
X160738570Y-101196857D01*
X160852856Y-101254000D01*
X160909999Y-101311143D01*
X161024285Y-101482571D01*
X161081428Y-101711143D01*
X161081428Y-102168286D01*
X161024285Y-102282571D01*
X160967142Y-102339714D01*
X160852856Y-102396857D01*
X160624285Y-102396857D01*
X160509999Y-102339714D01*
X160452856Y-102282571D01*
X160395713Y-102168286D01*
X160395713Y-101882571D01*
X160452856Y-101768286D01*
X160509999Y-101711143D01*
X160624285Y-101654000D01*
X160852856Y-101654000D01*
X160967142Y-101711143D01*
X161024285Y-101768286D01*
X161081428Y-101882571D01*
X172824284Y-104162571D02*
X172881427Y-104219714D01*
X173052856Y-104276857D01*
X173167142Y-104276857D01*
X173338570Y-104219714D01*
X173452856Y-104105429D01*
X173509999Y-103991143D01*
X173567142Y-103762571D01*
X173567142Y-103591143D01*
X173509999Y-103362571D01*
X173452856Y-103248286D01*
X173338570Y-103134000D01*
X173167142Y-103076857D01*
X173052856Y-103076857D01*
X172881427Y-103134000D01*
X172824284Y-103191143D01*
X171624284Y-104162571D02*
X171681427Y-104219714D01*
X171852856Y-104276857D01*
X171967142Y-104276857D01*
X172138570Y-104219714D01*
X172252856Y-104105429D01*
X172309999Y-103991143D01*
X172367142Y-103762571D01*
X172367142Y-103591143D01*
X172309999Y-103362571D01*
X172252856Y-103248286D01*
X172138570Y-103134000D01*
X171967142Y-103076857D01*
X171852856Y-103076857D01*
X171681427Y-103134000D01*
X171624284Y-103191143D01*
X171109999Y-103819714D02*
X170195713Y-103819714D01*
X169224285Y-103648286D02*
X169052856Y-103705429D01*
X168995713Y-103762571D01*
X168938570Y-103876857D01*
X168938570Y-104048286D01*
X168995713Y-104162571D01*
X169052856Y-104219714D01*
X169167142Y-104276857D01*
X169624285Y-104276857D01*
X169624285Y-103076857D01*
X169224285Y-103076857D01*
X169109999Y-103134000D01*
X169052856Y-103191143D01*
X168995713Y-103305429D01*
X168995713Y-103419714D01*
X169052856Y-103534000D01*
X169109999Y-103591143D01*
X169224285Y-103648286D01*
X169624285Y-103648286D01*
X168195713Y-103705429D02*
X168195713Y-104276857D01*
X168595713Y-103076857D02*
X168195713Y-103705429D01*
X167795713Y-103076857D01*
X167395714Y-103819714D02*
X166481428Y-103819714D01*
X165967143Y-104219714D02*
X165795714Y-104276857D01*
X165510000Y-104276857D01*
X165395714Y-104219714D01*
X165338571Y-104162571D01*
X165281428Y-104048286D01*
X165281428Y-103934000D01*
X165338571Y-103819714D01*
X165395714Y-103762571D01*
X165510000Y-103705429D01*
X165738571Y-103648286D01*
X165852857Y-103591143D01*
X165910000Y-103534000D01*
X165967143Y-103419714D01*
X165967143Y-103305429D01*
X165910000Y-103191143D01*
X165852857Y-103134000D01*
X165738571Y-103076857D01*
X165452857Y-103076857D01*
X165281428Y-103134000D01*
X164824286Y-103934000D02*
X164252857Y-103934000D01*
X164938571Y-104276857D02*
X164538571Y-103076857D01*
X164138571Y-104276857D01*
D12*
X180746286Y-121904000D02*
X180803428Y-121846857D01*
X180917714Y-121675429D01*
X180974857Y-121561143D01*
X181032000Y-121389714D01*
X181089143Y-121104000D01*
X181089143Y-120875429D01*
X181032000Y-120589714D01*
X180974857Y-120418286D01*
X180917714Y-120304000D01*
X180803428Y-120132571D01*
X180746286Y-120075429D01*
X180289143Y-120989714D02*
X179374857Y-120989714D01*
X179832000Y-121446857D02*
X179832000Y-120532571D01*
X178917714Y-121904000D02*
X178860572Y-121846857D01*
X178746286Y-121675429D01*
X178689143Y-121561143D01*
X178632000Y-121389714D01*
X178574857Y-121104000D01*
X178574857Y-120875429D01*
X178632000Y-120589714D01*
X178689143Y-120418286D01*
X178746286Y-120304000D01*
X178860572Y-120132571D01*
X178917714Y-120075429D01*
D11*
X180958572Y-124112381D02*
X180958572Y-123112381D01*
X180625238Y-123826667D01*
X180291905Y-123112381D01*
X180291905Y-124112381D01*
X179672858Y-124112381D02*
X179768096Y-124064762D01*
X179815715Y-124017143D01*
X179863334Y-123921905D01*
X179863334Y-123636190D01*
X179815715Y-123540952D01*
X179768096Y-123493333D01*
X179672858Y-123445714D01*
X179530000Y-123445714D01*
X179434762Y-123493333D01*
X179387143Y-123540952D01*
X179339524Y-123636190D01*
X179339524Y-123921905D01*
X179387143Y-124017143D01*
X179434762Y-124064762D01*
X179530000Y-124112381D01*
X179672858Y-124112381D01*
X179053810Y-123445714D02*
X178672858Y-123445714D01*
X178910953Y-123112381D02*
X178910953Y-123969524D01*
X178863334Y-124064762D01*
X178768096Y-124112381D01*
X178672858Y-124112381D01*
X178196667Y-124112381D02*
X178291905Y-124064762D01*
X178339524Y-124017143D01*
X178387143Y-123921905D01*
X178387143Y-123636190D01*
X178339524Y-123540952D01*
X178291905Y-123493333D01*
X178196667Y-123445714D01*
X178053809Y-123445714D01*
X177958571Y-123493333D01*
X177910952Y-123540952D01*
X177863333Y-123636190D01*
X177863333Y-123921905D01*
X177910952Y-124017143D01*
X177958571Y-124064762D01*
X178053809Y-124112381D01*
X178196667Y-124112381D01*
X177434762Y-124112381D02*
X177434762Y-123445714D01*
X177434762Y-123636190D02*
X177387143Y-123540952D01*
X177339524Y-123493333D01*
X177244286Y-123445714D01*
X177149047Y-123445714D01*
X176053809Y-124112381D02*
X176053809Y-123112381D01*
X175672856Y-123112381D01*
X175577618Y-123160000D01*
X175529999Y-123207619D01*
X175482380Y-123302857D01*
X175482380Y-123445714D01*
X175529999Y-123540952D01*
X175577618Y-123588571D01*
X175672856Y-123636190D01*
X176053809Y-123636190D01*
X174910952Y-124112381D02*
X175006190Y-124064762D01*
X175053809Y-124017143D01*
X175101428Y-123921905D01*
X175101428Y-123636190D01*
X175053809Y-123540952D01*
X175006190Y-123493333D01*
X174910952Y-123445714D01*
X174768094Y-123445714D01*
X174672856Y-123493333D01*
X174625237Y-123540952D01*
X174577618Y-123636190D01*
X174577618Y-123921905D01*
X174625237Y-124017143D01*
X174672856Y-124064762D01*
X174768094Y-124112381D01*
X174910952Y-124112381D01*
X174244285Y-123445714D02*
X174053809Y-124112381D01*
X173863332Y-123636190D01*
X173672856Y-124112381D01*
X173482380Y-123445714D01*
X172720475Y-124064762D02*
X172815713Y-124112381D01*
X173006190Y-124112381D01*
X173101428Y-124064762D01*
X173149047Y-123969524D01*
X173149047Y-123588571D01*
X173101428Y-123493333D01*
X173006190Y-123445714D01*
X172815713Y-123445714D01*
X172720475Y-123493333D01*
X172672856Y-123588571D01*
X172672856Y-123683810D01*
X173149047Y-123779048D01*
X172244285Y-124112381D02*
X172244285Y-123445714D01*
X172244285Y-123636190D02*
X172196666Y-123540952D01*
X172149047Y-123493333D01*
X172053809Y-123445714D01*
X171958570Y-123445714D01*
X180291905Y-124712381D02*
X179672857Y-124712381D01*
X180006191Y-125093333D01*
X179863333Y-125093333D01*
X179768095Y-125140952D01*
X179720476Y-125188571D01*
X179672857Y-125283810D01*
X179672857Y-125521905D01*
X179720476Y-125617143D01*
X179768095Y-125664762D01*
X179863333Y-125712381D01*
X180149048Y-125712381D01*
X180244286Y-125664762D01*
X180291905Y-125617143D01*
X179244286Y-125617143D02*
X179196667Y-125664762D01*
X179244286Y-125712381D01*
X179291905Y-125664762D01*
X179244286Y-125617143D01*
X179244286Y-125712381D01*
X178863334Y-124712381D02*
X178244286Y-124712381D01*
X178577620Y-125093333D01*
X178434762Y-125093333D01*
X178339524Y-125140952D01*
X178291905Y-125188571D01*
X178244286Y-125283810D01*
X178244286Y-125521905D01*
X178291905Y-125617143D01*
X178339524Y-125664762D01*
X178434762Y-125712381D01*
X178720477Y-125712381D01*
X178815715Y-125664762D01*
X178863334Y-125617143D01*
X177958572Y-124712381D02*
X177625239Y-125712381D01*
X177291905Y-124712381D01*
X176958572Y-125712381D02*
X176958572Y-124712381D01*
X176720477Y-124712381D01*
X176577619Y-124760000D01*
X176482381Y-124855238D01*
X176434762Y-124950476D01*
X176387143Y-125140952D01*
X176387143Y-125283810D01*
X176434762Y-125474286D01*
X176482381Y-125569524D01*
X176577619Y-125664762D01*
X176720477Y-125712381D01*
X176958572Y-125712381D01*
X175387143Y-125617143D02*
X175434762Y-125664762D01*
X175577619Y-125712381D01*
X175672857Y-125712381D01*
X175815715Y-125664762D01*
X175910953Y-125569524D01*
X175958572Y-125474286D01*
X176006191Y-125283810D01*
X176006191Y-125140952D01*
X175958572Y-124950476D01*
X175910953Y-124855238D01*
X175815715Y-124760000D01*
X175672857Y-124712381D01*
X175577619Y-124712381D01*
X175434762Y-124760000D01*
X175387143Y-124807619D01*
X174291905Y-124712381D02*
X173672857Y-124712381D01*
X174006191Y-125093333D01*
X173863333Y-125093333D01*
X173768095Y-125140952D01*
X173720476Y-125188571D01*
X173672857Y-125283810D01*
X173672857Y-125521905D01*
X173720476Y-125617143D01*
X173768095Y-125664762D01*
X173863333Y-125712381D01*
X174149048Y-125712381D01*
X174244286Y-125664762D01*
X174291905Y-125617143D01*
X173291905Y-125426667D02*
X172815714Y-125426667D01*
X173387143Y-125712381D02*
X173053810Y-124712381D01*
X172720476Y-125712381D01*
D13*
X179578096Y-114117333D02*
X179530476Y-114069714D01*
X179435238Y-113926857D01*
X179387619Y-113831619D01*
X179340000Y-113688762D01*
X179292381Y-113450667D01*
X179292381Y-113260190D01*
X179340000Y-113022095D01*
X179387619Y-112879238D01*
X179435238Y-112784000D01*
X179530476Y-112641143D01*
X179578096Y-112593524D01*
X179959048Y-113355429D02*
X180720953Y-113355429D01*
X180340001Y-113736381D02*
X180340001Y-112974476D01*
X181101905Y-114117333D02*
X181149524Y-114069714D01*
X181244762Y-113926857D01*
X181292381Y-113831619D01*
X181340000Y-113688762D01*
X181387619Y-113450667D01*
X181387619Y-113260190D01*
X181340000Y-113022095D01*
X181292381Y-112879238D01*
X181244762Y-112784000D01*
X181149524Y-112641143D01*
X181101905Y-112593524D01*
D11*
X185641239Y-111704381D02*
X186117430Y-111704381D01*
X186117430Y-110704381D01*
X185165049Y-111704381D02*
X185260287Y-111656762D01*
X185307906Y-111609143D01*
X185355525Y-111513905D01*
X185355525Y-111228190D01*
X185307906Y-111132952D01*
X185260287Y-111085333D01*
X185165049Y-111037714D01*
X185022191Y-111037714D01*
X184926953Y-111085333D01*
X184879334Y-111132952D01*
X184831715Y-111228190D01*
X184831715Y-111513905D01*
X184879334Y-111609143D01*
X184926953Y-111656762D01*
X185022191Y-111704381D01*
X185165049Y-111704381D01*
X183974572Y-111037714D02*
X183974572Y-111847238D01*
X184022191Y-111942476D01*
X184069810Y-111990095D01*
X184165049Y-112037714D01*
X184307906Y-112037714D01*
X184403144Y-111990095D01*
X183974572Y-111656762D02*
X184069810Y-111704381D01*
X184260287Y-111704381D01*
X184355525Y-111656762D01*
X184403144Y-111609143D01*
X184450763Y-111513905D01*
X184450763Y-111228190D01*
X184403144Y-111132952D01*
X184355525Y-111085333D01*
X184260287Y-111037714D01*
X184069810Y-111037714D01*
X183974572Y-111085333D01*
X183498382Y-111704381D02*
X183498382Y-111037714D01*
X183498382Y-110704381D02*
X183546001Y-110752000D01*
X183498382Y-110799619D01*
X183450763Y-110752000D01*
X183498382Y-110704381D01*
X183498382Y-110799619D01*
X182593620Y-111656762D02*
X182688858Y-111704381D01*
X182879335Y-111704381D01*
X182974573Y-111656762D01*
X183022192Y-111609143D01*
X183069811Y-111513905D01*
X183069811Y-111228190D01*
X183022192Y-111132952D01*
X182974573Y-111085333D01*
X182879335Y-111037714D01*
X182688858Y-111037714D01*
X182593620Y-111085333D01*
X181403144Y-111704381D02*
X181403144Y-110704381D01*
X181022191Y-110704381D01*
X180926953Y-110752000D01*
X180879334Y-110799619D01*
X180831715Y-110894857D01*
X180831715Y-111037714D01*
X180879334Y-111132952D01*
X180926953Y-111180571D01*
X181022191Y-111228190D01*
X181403144Y-111228190D01*
X180260287Y-111704381D02*
X180355525Y-111656762D01*
X180403144Y-111609143D01*
X180450763Y-111513905D01*
X180450763Y-111228190D01*
X180403144Y-111132952D01*
X180355525Y-111085333D01*
X180260287Y-111037714D01*
X180117429Y-111037714D01*
X180022191Y-111085333D01*
X179974572Y-111132952D01*
X179926953Y-111228190D01*
X179926953Y-111513905D01*
X179974572Y-111609143D01*
X180022191Y-111656762D01*
X180117429Y-111704381D01*
X180260287Y-111704381D01*
X179593620Y-111037714D02*
X179403144Y-111704381D01*
X179212667Y-111228190D01*
X179022191Y-111704381D01*
X178831715Y-111037714D01*
X178069810Y-111656762D02*
X178165048Y-111704381D01*
X178355525Y-111704381D01*
X178450763Y-111656762D01*
X178498382Y-111561524D01*
X178498382Y-111180571D01*
X178450763Y-111085333D01*
X178355525Y-111037714D01*
X178165048Y-111037714D01*
X178069810Y-111085333D01*
X178022191Y-111180571D01*
X178022191Y-111275810D01*
X178498382Y-111371048D01*
X177593620Y-111704381D02*
X177593620Y-111037714D01*
X177593620Y-111228190D02*
X177546001Y-111132952D01*
X177498382Y-111085333D01*
X177403144Y-111037714D01*
X177307905Y-111037714D01*
X175974572Y-111371048D02*
X176355524Y-111371048D01*
X174450761Y-110704381D02*
X174641238Y-110704381D01*
X174736476Y-110752000D01*
X174784095Y-110799619D01*
X174879333Y-110942476D01*
X174926952Y-111132952D01*
X174926952Y-111513905D01*
X174879333Y-111609143D01*
X174831714Y-111656762D01*
X174736476Y-111704381D01*
X174545999Y-111704381D01*
X174450761Y-111656762D01*
X174403142Y-111609143D01*
X174355523Y-111513905D01*
X174355523Y-111275810D01*
X174403142Y-111180571D01*
X174450761Y-111132952D01*
X174545999Y-111085333D01*
X174736476Y-111085333D01*
X174831714Y-111132952D01*
X174879333Y-111180571D01*
X174926952Y-111275810D01*
X174069809Y-110704381D02*
X173736476Y-111704381D01*
X173403142Y-110704381D01*
X173069809Y-111704381D02*
X173069809Y-110704381D01*
X172831714Y-110704381D01*
X172688856Y-110752000D01*
X172593618Y-110847238D01*
X172545999Y-110942476D01*
X172498380Y-111132952D01*
X172498380Y-111275810D01*
X172545999Y-111466286D01*
X172593618Y-111561524D01*
X172688856Y-111656762D01*
X172831714Y-111704381D01*
X173069809Y-111704381D01*
X171498380Y-111609143D02*
X171545999Y-111656762D01*
X171688856Y-111704381D01*
X171784094Y-111704381D01*
X171926952Y-111656762D01*
X172022190Y-111561524D01*
X172069809Y-111466286D01*
X172117428Y-111275810D01*
X172117428Y-111132952D01*
X172069809Y-110942476D01*
X172022190Y-110847238D01*
X171926952Y-110752000D01*
X171784094Y-110704381D01*
X171688856Y-110704381D01*
X171545999Y-110752000D01*
X171498380Y-110799619D01*
X169784094Y-111704381D02*
X170355523Y-111704381D01*
X170069809Y-111704381D02*
X170069809Y-110704381D01*
X170165047Y-110847238D01*
X170260285Y-110942476D01*
X170355523Y-110990095D01*
X169403142Y-111418667D02*
X168926951Y-111418667D01*
X169498380Y-111704381D02*
X169165047Y-110704381D01*
X168831713Y-111704381D01*
D14*
X129738381Y-94257905D02*
X128738381Y-94257905D01*
X128738381Y-94496000D01*
X128786000Y-94638858D01*
X128881238Y-94734096D01*
X128976476Y-94781715D01*
X129166952Y-94829334D01*
X129309810Y-94829334D01*
X129500286Y-94781715D01*
X129595524Y-94734096D01*
X129690762Y-94638858D01*
X129738381Y-94496000D01*
X129738381Y-94257905D01*
X129738381Y-95781715D02*
X129738381Y-95210286D01*
X129738381Y-95496000D02*
X128738381Y-95496000D01*
X128881238Y-95400762D01*
X128976476Y-95305524D01*
X129024095Y-95210286D01*
X129738381Y-96797905D02*
X128738381Y-96797905D01*
X128738381Y-97036000D01*
X128786000Y-97178858D01*
X128881238Y-97274096D01*
X128976476Y-97321715D01*
X129166952Y-97369334D01*
X129309810Y-97369334D01*
X129500286Y-97321715D01*
X129595524Y-97274096D01*
X129690762Y-97178858D01*
X129738381Y-97036000D01*
X129738381Y-96797905D01*
X128833619Y-97750286D02*
X128786000Y-97797905D01*
X128738381Y-97893143D01*
X128738381Y-98131239D01*
X128786000Y-98226477D01*
X128833619Y-98274096D01*
X128928857Y-98321715D01*
X129024095Y-98321715D01*
X129166952Y-98274096D01*
X129738381Y-97702667D01*
X129738381Y-98321715D01*
X129738381Y-101877905D02*
X128738381Y-101877905D01*
X128738381Y-102116000D01*
X128786000Y-102258858D01*
X128881238Y-102354096D01*
X128976476Y-102401715D01*
X129166952Y-102449334D01*
X129309810Y-102449334D01*
X129500286Y-102401715D01*
X129595524Y-102354096D01*
X129690762Y-102258858D01*
X129738381Y-102116000D01*
X129738381Y-101877905D01*
X128738381Y-102782667D02*
X128738381Y-103401715D01*
X129119333Y-103068381D01*
X129119333Y-103211239D01*
X129166952Y-103306477D01*
X129214571Y-103354096D01*
X129309810Y-103401715D01*
X129547905Y-103401715D01*
X129643143Y-103354096D01*
X129690762Y-103306477D01*
X129738381Y-103211239D01*
X129738381Y-102925524D01*
X129690762Y-102830286D01*
X129643143Y-102782667D01*
X129738381Y-99337905D02*
X128738381Y-99337905D01*
X128738381Y-99576000D01*
X128786000Y-99718858D01*
X128881238Y-99814096D01*
X128976476Y-99861715D01*
X129166952Y-99909334D01*
X129309810Y-99909334D01*
X129500286Y-99861715D01*
X129595524Y-99814096D01*
X129690762Y-99718858D01*
X129738381Y-99576000D01*
X129738381Y-99337905D01*
X129071714Y-100766477D02*
X129738381Y-100766477D01*
X128690762Y-100528381D02*
X129405048Y-100290286D01*
X129405048Y-100909334D01*
X129611381Y-105941905D02*
X128611381Y-105941905D01*
X128611381Y-106180000D01*
X128659000Y-106322858D01*
X128754238Y-106418096D01*
X128849476Y-106465715D01*
X129039952Y-106513334D01*
X129182810Y-106513334D01*
X129373286Y-106465715D01*
X129468524Y-106418096D01*
X129563762Y-106322858D01*
X129611381Y-106180000D01*
X129611381Y-105941905D01*
X128611381Y-107418096D02*
X128611381Y-106941905D01*
X129087571Y-106894286D01*
X129039952Y-106941905D01*
X128992333Y-107037143D01*
X128992333Y-107275239D01*
X129039952Y-107370477D01*
X129087571Y-107418096D01*
X129182810Y-107465715D01*
X129420905Y-107465715D01*
X129516143Y-107418096D01*
X129563762Y-107370477D01*
X129611381Y-107275239D01*
X129611381Y-107037143D01*
X129563762Y-106941905D01*
X129516143Y-106894286D01*
X129738381Y-108227905D02*
X128738381Y-108227905D01*
X128738381Y-108466000D01*
X128786000Y-108608858D01*
X128881238Y-108704096D01*
X128976476Y-108751715D01*
X129166952Y-108799334D01*
X129309810Y-108799334D01*
X129500286Y-108751715D01*
X129595524Y-108704096D01*
X129690762Y-108608858D01*
X129738381Y-108466000D01*
X129738381Y-108227905D01*
X128738381Y-109656477D02*
X128738381Y-109466000D01*
X128786000Y-109370762D01*
X128833619Y-109323143D01*
X128976476Y-109227905D01*
X129166952Y-109180286D01*
X129547905Y-109180286D01*
X129643143Y-109227905D01*
X129690762Y-109275524D01*
X129738381Y-109370762D01*
X129738381Y-109561239D01*
X129690762Y-109656477D01*
X129643143Y-109704096D01*
X129547905Y-109751715D01*
X129309810Y-109751715D01*
X129214571Y-109704096D01*
X129166952Y-109656477D01*
X129119333Y-109561239D01*
X129119333Y-109370762D01*
X129166952Y-109275524D01*
X129214571Y-109227905D01*
X129309810Y-109180286D01*
X129738381Y-113561905D02*
X128738381Y-113561905D01*
X128738381Y-113800000D01*
X128786000Y-113942858D01*
X128881238Y-114038096D01*
X128976476Y-114085715D01*
X129166952Y-114133334D01*
X129309810Y-114133334D01*
X129500286Y-114085715D01*
X129595524Y-114038096D01*
X129690762Y-113942858D01*
X129738381Y-113800000D01*
X129738381Y-113561905D01*
X128738381Y-114466667D02*
X128738381Y-115133334D01*
X129738381Y-114704762D01*
X129738381Y-110767905D02*
X128738381Y-110767905D01*
X128738381Y-111006000D01*
X128786000Y-111148858D01*
X128881238Y-111244096D01*
X128976476Y-111291715D01*
X129166952Y-111339334D01*
X129309810Y-111339334D01*
X129500286Y-111291715D01*
X129595524Y-111244096D01*
X129690762Y-111148858D01*
X129738381Y-111006000D01*
X129738381Y-110767905D01*
X129166952Y-111910762D02*
X129119333Y-111815524D01*
X129071714Y-111767905D01*
X128976476Y-111720286D01*
X128928857Y-111720286D01*
X128833619Y-111767905D01*
X128786000Y-111815524D01*
X128738381Y-111910762D01*
X128738381Y-112101239D01*
X128786000Y-112196477D01*
X128833619Y-112244096D01*
X128928857Y-112291715D01*
X128976476Y-112291715D01*
X129071714Y-112244096D01*
X129119333Y-112196477D01*
X129166952Y-112101239D01*
X129166952Y-111910762D01*
X129214571Y-111815524D01*
X129262190Y-111767905D01*
X129357429Y-111720286D01*
X129547905Y-111720286D01*
X129643143Y-111767905D01*
X129690762Y-111815524D01*
X129738381Y-111910762D01*
X129738381Y-112101239D01*
X129690762Y-112196477D01*
X129643143Y-112244096D01*
X129547905Y-112291715D01*
X129357429Y-112291715D01*
X129262190Y-112244096D01*
X129214571Y-112196477D01*
X129166952Y-112101239D01*
X177117333Y-88352381D02*
X177117333Y-89066667D01*
X177164953Y-89209524D01*
X177260191Y-89304762D01*
X177403048Y-89352381D01*
X177498286Y-89352381D01*
X176117333Y-89352381D02*
X176688762Y-89352381D01*
X176403048Y-89352381D02*
X176403048Y-88352381D01*
X176498286Y-88495238D01*
X176593524Y-88590476D01*
X176688762Y-88638095D01*
X163401333Y-88352381D02*
X163401333Y-89066667D01*
X163448953Y-89209524D01*
X163544191Y-89304762D01*
X163687048Y-89352381D01*
X163782286Y-89352381D01*
X162972762Y-88447619D02*
X162925143Y-88400000D01*
X162829905Y-88352381D01*
X162591809Y-88352381D01*
X162496571Y-88400000D01*
X162448952Y-88447619D01*
X162401333Y-88542857D01*
X162401333Y-88638095D01*
X162448952Y-88780952D01*
X163020381Y-89352381D01*
X162401333Y-89352381D01*
X148161333Y-88352381D02*
X148161333Y-89066667D01*
X148208953Y-89209524D01*
X148304191Y-89304762D01*
X148447048Y-89352381D01*
X148542286Y-89352381D01*
X147780381Y-88352381D02*
X147161333Y-88352381D01*
X147494667Y-88733333D01*
X147351809Y-88733333D01*
X147256571Y-88780952D01*
X147208952Y-88828571D01*
X147161333Y-88923810D01*
X147161333Y-89161905D01*
X147208952Y-89257143D01*
X147256571Y-89304762D01*
X147351809Y-89352381D01*
X147637524Y-89352381D01*
X147732762Y-89304762D01*
X147780381Y-89257143D01*
X186126381Y-114252476D02*
X185126381Y-114252476D01*
X185840667Y-114585810D01*
X185126381Y-114919143D01*
X186126381Y-114919143D01*
X186126381Y-115919143D02*
X186126381Y-115347714D01*
X186126381Y-115633428D02*
X185126381Y-115633428D01*
X185269238Y-115538190D01*
X185364476Y-115442952D01*
X185412095Y-115347714D01*
X186126381Y-121872476D02*
X185126381Y-121872476D01*
X185840667Y-122205810D01*
X185126381Y-122539143D01*
X186126381Y-122539143D01*
X185221619Y-122967714D02*
X185174000Y-123015333D01*
X185126381Y-123110571D01*
X185126381Y-123348667D01*
X185174000Y-123443905D01*
X185221619Y-123491524D01*
X185316857Y-123539143D01*
X185412095Y-123539143D01*
X185554952Y-123491524D01*
X186126381Y-122920095D01*
X186126381Y-123539143D01*
X136832381Y-87300476D02*
X135832381Y-87300476D01*
X136546667Y-87633810D01*
X135832381Y-87967143D01*
X136832381Y-87967143D01*
X135832381Y-88348095D02*
X135832381Y-88967143D01*
X136213333Y-88633809D01*
X136213333Y-88776667D01*
X136260952Y-88871905D01*
X136308571Y-88919524D01*
X136403810Y-88967143D01*
X136641905Y-88967143D01*
X136737143Y-88919524D01*
X136784762Y-88871905D01*
X136832381Y-88776667D01*
X136832381Y-88490952D01*
X136784762Y-88395714D01*
X136737143Y-88348095D01*
X136832381Y-121590476D02*
X135832381Y-121590476D01*
X136546667Y-121923810D01*
X135832381Y-122257143D01*
X136832381Y-122257143D01*
X136165714Y-123161905D02*
X136832381Y-123161905D01*
X135784762Y-122923809D02*
X136499048Y-122685714D01*
X136499048Y-123304762D01*
M02*
