G04 #@! TF.FileFunction,Copper,L1,Top,Signal*
%FSLAX46Y46*%
G04 Gerber Fmt 4.6, Leading zero omitted, Abs format (unit mm)*
G04 Created by KiCad (PCBNEW 4.0.2-stable) date Friday, July 22, 2016 'AMt' 10:22:11 AM*
%MOMM*%
G01*
G04 APERTURE LIST*
%ADD10C,0.100000*%
%ADD11C,4.064000*%
%ADD12C,1.524000*%
%ADD13O,0.250000X2.200000*%
%ADD14R,0.250000X2.200000*%
%ADD15R,1.200000X0.750000*%
%ADD16R,3.500120X1.800860*%
%ADD17R,0.750000X1.200000*%
%ADD18C,1.699260*%
%ADD19R,1.699260X1.699260*%
%ADD20R,1.727200X2.032000*%
%ADD21O,1.727200X2.032000*%
%ADD22C,2.400000*%
%ADD23R,2.400000X2.400000*%
%ADD24C,0.600000*%
%ADD25C,1.000000*%
%ADD26C,0.500000*%
%ADD27C,0.250000*%
%ADD28C,0.375000*%
%ADD29C,0.750000*%
G04 APERTURE END LIST*
D10*
D11*
X140000000Y-122000000D03*
X176000000Y-114000000D03*
D12*
X182880000Y-93853000D03*
X180340000Y-93853000D03*
X177800000Y-93853000D03*
X175260000Y-93853000D03*
X172720000Y-93853000D03*
X170180000Y-93853000D03*
X167640000Y-93853000D03*
X165100000Y-93853000D03*
X162560000Y-93853000D03*
X160020000Y-93853000D03*
X157480000Y-93853000D03*
X154940000Y-93853000D03*
X167640000Y-96393000D03*
X165100000Y-96393000D03*
X182880000Y-109093000D03*
X180340000Y-109093000D03*
X177800000Y-109093000D03*
X175260000Y-109093000D03*
X172720000Y-109093000D03*
X170180000Y-109093000D03*
X167640000Y-109093000D03*
X165100000Y-109093000D03*
X162560000Y-109093000D03*
X160020000Y-109093000D03*
X157480000Y-109093000D03*
X154940000Y-109093000D03*
X152400000Y-107823000D03*
X152400000Y-105283000D03*
X152400000Y-102743000D03*
X152400000Y-100203000D03*
X152400000Y-97663000D03*
X152400000Y-95123000D03*
D13*
X158096000Y-117161000D03*
D14*
X158096000Y-122361000D03*
D13*
X158746000Y-117161000D03*
D14*
X158746000Y-122361000D03*
X159396000Y-117161000D03*
X159396000Y-122361000D03*
X160046000Y-117161000D03*
X160046000Y-122361000D03*
X160696000Y-117161000D03*
X160696000Y-122361000D03*
X161346000Y-117161000D03*
X161346000Y-122361000D03*
X161996000Y-117161000D03*
X161996000Y-122361000D03*
X162646000Y-117161000D03*
X162646000Y-122361000D03*
X163296000Y-117161000D03*
X163296000Y-122361000D03*
X163946000Y-117161000D03*
X163946000Y-122361000D03*
X164596000Y-117161000D03*
X164596000Y-122361000D03*
X165246000Y-117161000D03*
X165246000Y-122361000D03*
D15*
X173924000Y-120396000D03*
X172024000Y-120396000D03*
D16*
X169720260Y-124206000D03*
X175719740Y-124206000D03*
D17*
X168275000Y-118303000D03*
X168275000Y-120203000D03*
D18*
X140970520Y-95247460D03*
D19*
X130810520Y-95247460D03*
D18*
X130809480Y-97792540D03*
D19*
X140969480Y-97792540D03*
D18*
X140970520Y-102867460D03*
D19*
X130810520Y-102867460D03*
D18*
X130809480Y-100332540D03*
D19*
X140969480Y-100332540D03*
D18*
X140970520Y-106677460D03*
D19*
X130810520Y-106677460D03*
D18*
X130809480Y-109222540D03*
D19*
X140969480Y-109222540D03*
D18*
X140970520Y-114297460D03*
D19*
X130810520Y-114297460D03*
D18*
X130809480Y-111762540D03*
D19*
X140969480Y-111762540D03*
D20*
X184404000Y-88900000D03*
D21*
X181864000Y-88900000D03*
X179324000Y-88900000D03*
D20*
X170688000Y-88900000D03*
D21*
X168148000Y-88900000D03*
X165608000Y-88900000D03*
D20*
X155448000Y-88900000D03*
D21*
X152908000Y-88900000D03*
X150368000Y-88900000D03*
D22*
X182880000Y-113340000D03*
D23*
X182880000Y-116840000D03*
D22*
X182880000Y-120960000D03*
D23*
X182880000Y-124460000D03*
D22*
X132080000Y-89860000D03*
D23*
X132080000Y-86360000D03*
D22*
X132080000Y-124150000D03*
D23*
X132080000Y-120650000D03*
D11*
X140000000Y-88000000D03*
D24*
X168656000Y-115570000D03*
X156972000Y-114300000D03*
X167132000Y-107188000D03*
X146177000Y-121412000D03*
X164973000Y-124460000D03*
X145542000Y-123063000D03*
X162306000Y-125857000D03*
D25*
X168656000Y-115570000D02*
X172720000Y-115570000D01*
X172720000Y-115570000D02*
X173924000Y-116774000D01*
X173924000Y-116774000D02*
X173924000Y-120396000D01*
X165354000Y-115570000D02*
X168656000Y-115570000D01*
X175719740Y-124206000D02*
X175719740Y-123395740D01*
X175719740Y-123395740D02*
X173924000Y-121600000D01*
X173924000Y-121600000D02*
X173924000Y-120396000D01*
X182880000Y-120960000D02*
X182316000Y-120960000D01*
X182316000Y-120960000D02*
X179070000Y-124206000D01*
X179070000Y-124206000D02*
X175719740Y-124206000D01*
X130810520Y-114297460D02*
X130299460Y-114297460D01*
X130299460Y-114297460D02*
X129159000Y-113157000D01*
X129159000Y-113157000D02*
X129159000Y-108328980D01*
X129159000Y-108328980D02*
X130810520Y-106677460D01*
X130810520Y-106677460D02*
X130810520Y-102867460D01*
D26*
X158096000Y-117161000D02*
X158096000Y-115424000D01*
X158096000Y-115424000D02*
X156972000Y-114300000D01*
D25*
X130810520Y-102867460D02*
X130559060Y-102616000D01*
X130559060Y-102616000D02*
X130048000Y-102616000D01*
X130048000Y-102616000D02*
X129032000Y-101600000D01*
X129032000Y-101600000D02*
X129032000Y-97025980D01*
X129032000Y-97025980D02*
X130810520Y-95247460D01*
D26*
X165608000Y-115316000D02*
X165354000Y-115570000D01*
X165354000Y-115570000D02*
X165227000Y-115697000D01*
X164596000Y-115871176D02*
X164596000Y-117161000D01*
X165227000Y-115697000D02*
X165227000Y-117142000D01*
X165227000Y-117142000D02*
X165246000Y-117161000D01*
X165608000Y-115316000D02*
X165151176Y-115316000D01*
X165151176Y-115316000D02*
X164596000Y-115871176D01*
D27*
X165227000Y-117142000D02*
X165246000Y-117161000D01*
D28*
X168275000Y-120203000D02*
X171831000Y-120203000D01*
X171831000Y-120203000D02*
X172024000Y-120396000D01*
D25*
X169720260Y-124206000D02*
X169418000Y-124206000D01*
X169418000Y-124206000D02*
X167894000Y-122682000D01*
X167894000Y-122682000D02*
X167894000Y-120203000D01*
X182880000Y-124460000D02*
X181610000Y-124460000D01*
X171498260Y-125984000D02*
X169720260Y-124206000D01*
X180086000Y-125984000D02*
X171498260Y-125984000D01*
X181610000Y-124460000D02*
X180086000Y-125984000D01*
D28*
X163946000Y-122361000D02*
X163946000Y-121169000D01*
X163946000Y-121169000D02*
X164592000Y-120523000D01*
X163296000Y-122361000D02*
X163296000Y-120523000D01*
X163449000Y-120650000D02*
X163449000Y-120523000D01*
X163423000Y-120650000D02*
X163449000Y-120650000D01*
X163296000Y-120523000D02*
X163423000Y-120650000D01*
X160046000Y-122361000D02*
X160046000Y-121195500D01*
X160718500Y-120523000D02*
X160972500Y-120523000D01*
X160046000Y-121195500D02*
X160718500Y-120523000D01*
X159396000Y-122361000D02*
X159396000Y-121020000D01*
D25*
X167706000Y-120203000D02*
X167894000Y-120203000D01*
X167894000Y-120203000D02*
X168275000Y-120203000D01*
X167386000Y-120523000D02*
X164592000Y-120523000D01*
X164592000Y-120523000D02*
X163449000Y-120523000D01*
X163449000Y-120523000D02*
X160972500Y-120523000D01*
X167706000Y-120203000D02*
X167386000Y-120523000D01*
D28*
X159893000Y-120523000D02*
X160972500Y-120523000D01*
X159396000Y-121020000D02*
X159893000Y-120523000D01*
D25*
X182880000Y-116840000D02*
X184150000Y-116840000D01*
X184150000Y-116840000D02*
X185547000Y-118237000D01*
X185547000Y-118237000D02*
X185547000Y-121793000D01*
X185547000Y-121793000D02*
X182880000Y-124460000D01*
X182577740Y-124157740D02*
X182880000Y-124460000D01*
D27*
X161996000Y-117161000D02*
X161996000Y-118435000D01*
X161996000Y-118435000D02*
X162306000Y-118745000D01*
X162306000Y-118745000D02*
X165862000Y-118745000D01*
X165862000Y-118745000D02*
X167640000Y-116967000D01*
X167640000Y-116967000D02*
X168910000Y-116967000D01*
X168910000Y-116967000D02*
X169418000Y-117475000D01*
X169418000Y-117475000D02*
X169418000Y-119060000D01*
X169418000Y-119060000D02*
X168275000Y-120203000D01*
X160696000Y-117161000D02*
X160696000Y-118532000D01*
X166878000Y-119507000D02*
X168082000Y-118303000D01*
X161671000Y-119507000D02*
X166878000Y-119507000D01*
X160696000Y-118532000D02*
X161671000Y-119507000D01*
X168082000Y-118303000D02*
X168275000Y-118303000D01*
X160696000Y-117161000D02*
X160696000Y-115275000D01*
X166370000Y-107950000D02*
X167132000Y-107188000D01*
X166370000Y-109601000D02*
X166370000Y-107950000D01*
X160696000Y-115275000D02*
X166370000Y-109601000D01*
D28*
X165246000Y-122361000D02*
X165246000Y-124187000D01*
X165246000Y-124187000D02*
X164973000Y-124460000D01*
D25*
X140969480Y-97792540D02*
X141607540Y-97792540D01*
X141607540Y-97792540D02*
X143129000Y-99314000D01*
X143129000Y-99314000D02*
X143129000Y-103759000D01*
X143129000Y-103759000D02*
X146177000Y-106807000D01*
X146177000Y-106807000D02*
X146177000Y-121412000D01*
D28*
X164596000Y-124083000D02*
X164596000Y-122361000D01*
X164973000Y-124460000D02*
X164596000Y-124083000D01*
D25*
X140970520Y-95247460D02*
X140970520Y-93980520D01*
X133350000Y-86360000D02*
X132080000Y-86360000D01*
X140970520Y-93980520D02*
X133350000Y-86360000D01*
D28*
X165246000Y-122361000D02*
X165246000Y-123463000D01*
D25*
X140969480Y-97792540D02*
X140969480Y-95248500D01*
X140969480Y-95248500D02*
X140970520Y-95247460D01*
D29*
X140972020Y-97790000D02*
X140970520Y-97788500D01*
X140970520Y-95247460D02*
X140970000Y-95246940D01*
D25*
X140970520Y-97791500D02*
X140969480Y-97792540D01*
X145542000Y-123063000D02*
X145542000Y-122809000D01*
X140970520Y-103759520D02*
X140970520Y-102867460D01*
X144780000Y-107569000D02*
X140970520Y-103759520D01*
X144780000Y-122047000D02*
X144780000Y-107569000D01*
X145542000Y-122809000D02*
X144780000Y-122047000D01*
D28*
X162646000Y-122361000D02*
X162646000Y-125517000D01*
X162646000Y-125517000D02*
X162306000Y-125857000D01*
X161921002Y-125472002D02*
X161921002Y-122361000D01*
X162306000Y-125857000D02*
X161921002Y-125472002D01*
X161921002Y-122361000D02*
X161996000Y-122361000D01*
D25*
X140969480Y-100332540D02*
X139702540Y-100332540D01*
X134620000Y-92400000D02*
X132080000Y-89860000D01*
X134620000Y-95250000D02*
X134620000Y-92400000D01*
X139702540Y-100332540D02*
X134620000Y-95250000D01*
X140969480Y-100332540D02*
X140969480Y-102866420D01*
X140969480Y-102866420D02*
X140970520Y-102867460D01*
X140966940Y-100330000D02*
X140970520Y-100333580D01*
X140969480Y-109222540D02*
X141988540Y-109222540D01*
X145034000Y-124460000D02*
X157988000Y-124460000D01*
X143383000Y-122809000D02*
X145034000Y-124460000D01*
X143383000Y-110617000D02*
X143383000Y-122809000D01*
X141988540Y-109222540D02*
X143383000Y-110617000D01*
D28*
X158096000Y-122361000D02*
X158096000Y-124460000D01*
X158096000Y-124460000D02*
X157988000Y-124460000D01*
X158746000Y-122361000D02*
X158746000Y-123702000D01*
D25*
X157988000Y-124460000D02*
X158242000Y-124460000D01*
D28*
X158242000Y-124206000D02*
X158242000Y-124460000D01*
X158746000Y-123702000D02*
X158242000Y-124206000D01*
D25*
X140970520Y-106677460D02*
X140970520Y-109221500D01*
X140970520Y-109221500D02*
X140969020Y-109220000D01*
X140969020Y-109220000D02*
X138430000Y-109220000D01*
X138430000Y-109220000D02*
X133731000Y-113919000D01*
X133731000Y-113919000D02*
X133731000Y-118999000D01*
X133731000Y-118999000D02*
X132080000Y-120650000D01*
D28*
X158746000Y-122361000D02*
X158746000Y-123067000D01*
X161346000Y-122361000D02*
X161346000Y-124404000D01*
X161346000Y-124404000D02*
X160782000Y-124968000D01*
X160696000Y-122361000D02*
X160696000Y-125054000D01*
D25*
X133675000Y-124150000D02*
X135382000Y-125857000D01*
X135382000Y-125857000D02*
X159893000Y-125857000D01*
X159893000Y-125857000D02*
X160782000Y-124968000D01*
X133675000Y-124150000D02*
X132080000Y-124150000D01*
D28*
X160696000Y-125054000D02*
X160782000Y-124968000D01*
D25*
X140969480Y-111762540D02*
X140969480Y-114296420D01*
X140969480Y-114296420D02*
X135128000Y-120137900D01*
X135128000Y-120137900D02*
X135128000Y-122809000D01*
X135128000Y-122809000D02*
X133787000Y-124150000D01*
X133787000Y-124150000D02*
X132080000Y-124150000D01*
D27*
X170688000Y-88900000D02*
X170688000Y-88392000D01*
X170688000Y-88392000D02*
X169164000Y-86868000D01*
X157480000Y-86868000D02*
X155448000Y-88900000D01*
X169164000Y-86868000D02*
X157480000Y-86868000D01*
X170688000Y-88392000D02*
X172212000Y-86868000D01*
X172212000Y-86868000D02*
X182372000Y-86868000D01*
X182372000Y-86868000D02*
X184404000Y-88900000D01*
X182880000Y-109093000D02*
X182880000Y-113340000D01*
X184404000Y-88900000D02*
X184404000Y-107569000D01*
X184404000Y-107569000D02*
X182880000Y-109093000D01*
X181864000Y-88900000D02*
X181864000Y-89916000D01*
X181864000Y-89916000D02*
X180340000Y-91440000D01*
X180340000Y-91440000D02*
X170053000Y-91440000D01*
X170053000Y-91440000D02*
X167640000Y-93853000D01*
X168148000Y-88900000D02*
X168148000Y-90932000D01*
X165100000Y-92456000D02*
X165100000Y-93853000D01*
X166116000Y-91440000D02*
X165100000Y-92456000D01*
X167640000Y-91440000D02*
X166116000Y-91440000D01*
X168148000Y-90932000D02*
X167640000Y-91440000D01*
X152908000Y-88900000D02*
X152908000Y-89916000D01*
X152908000Y-89916000D02*
X154432000Y-91440000D01*
X154432000Y-91440000D02*
X160147000Y-91440000D01*
X160147000Y-91440000D02*
X162560000Y-93853000D01*
X160046000Y-117161000D02*
X160046000Y-114655000D01*
X164846000Y-109855000D02*
X164846000Y-109347000D01*
X160046000Y-114655000D02*
X164846000Y-109855000D01*
X164846000Y-109347000D02*
X165100000Y-109093000D01*
X165100000Y-109093000D02*
X165100000Y-109474000D01*
X165100000Y-109093000D02*
X165100000Y-109855000D01*
X161346000Y-117161000D02*
X161346000Y-115387000D01*
X166624000Y-110109000D02*
X167640000Y-109093000D01*
X161346000Y-115387000D02*
X166624000Y-110109000D01*
X162646000Y-117161000D02*
X162646000Y-115357000D01*
X167386000Y-111887000D02*
X170180000Y-109093000D01*
X166116000Y-111887000D02*
X167386000Y-111887000D01*
X162646000Y-115357000D02*
X166116000Y-111887000D01*
X163296000Y-117161000D02*
X163296000Y-115596000D01*
X169418000Y-112395000D02*
X172720000Y-109093000D01*
X166497000Y-112395000D02*
X169418000Y-112395000D01*
X163296000Y-115596000D02*
X166497000Y-112395000D01*
X177800000Y-93853000D02*
X177800000Y-94742000D01*
X159396000Y-114544398D02*
X159396000Y-117161000D01*
X163830000Y-110110398D02*
X159396000Y-114544398D01*
X163830000Y-107696000D02*
X163830000Y-110110398D01*
X165862000Y-105664000D02*
X163830000Y-107696000D01*
X166878000Y-105664000D02*
X165862000Y-105664000D01*
X177800000Y-94742000D02*
X166878000Y-105664000D01*
X159385000Y-117150000D02*
X159396000Y-117161000D01*
X182880000Y-95123000D02*
X182880000Y-93853000D01*
X173990000Y-104013000D02*
X182880000Y-95123000D01*
X173990000Y-109855000D02*
X173990000Y-104013000D01*
X170942000Y-112903000D02*
X173990000Y-109855000D01*
X166751000Y-112903000D02*
X170942000Y-112903000D01*
X163946000Y-115708000D02*
X166751000Y-112903000D01*
X163946000Y-117161000D02*
X163946000Y-115708000D01*
X158746000Y-117161000D02*
X158746000Y-114558000D01*
X162560000Y-110744000D02*
X162560000Y-109093000D01*
X162433000Y-110871000D02*
X162560000Y-110744000D01*
X158746000Y-114558000D02*
X162433000Y-110871000D01*
M02*
