G04 #@! TF.FileFunction,Legend,Top*
%FSLAX46Y46*%
G04 Gerber Fmt 4.6, Leading zero omitted, Abs format (unit mm)*
G04 Created by KiCad (PCBNEW 4.0.2-stable) date Friday, July 22, 2016 'AMt' 10:22:11 AM*
%MOMM*%
G01*
G04 APERTURE LIST*
%ADD10C,0.100000*%
%ADD11C,0.187500*%
%ADD12C,0.300000*%
%ADD13C,0.150000*%
G04 APERTURE END LIST*
D10*
D11*
X178913286Y-117200857D02*
X178913286Y-117343714D01*
X178949000Y-117415143D01*
X178984714Y-117450857D01*
X179091857Y-117522286D01*
X179234714Y-117558000D01*
X179520429Y-117558000D01*
X179591857Y-117522286D01*
X179627571Y-117486571D01*
X179663286Y-117415143D01*
X179663286Y-117272286D01*
X179627571Y-117200857D01*
X179591857Y-117165143D01*
X179520429Y-117129428D01*
X179341857Y-117129428D01*
X179270429Y-117165143D01*
X179234714Y-117200857D01*
X179199000Y-117272286D01*
X179199000Y-117415143D01*
X179234714Y-117486571D01*
X179270429Y-117522286D01*
X179341857Y-117558000D01*
X178913286Y-116915142D02*
X179663286Y-116665142D01*
X178913286Y-116415142D01*
X179663286Y-115200856D02*
X179663286Y-115629428D01*
X179663286Y-115415142D02*
X178913286Y-115415142D01*
X179020429Y-115486571D01*
X179091857Y-115557999D01*
X179127571Y-115629428D01*
X179449000Y-114915142D02*
X179449000Y-114557999D01*
X179663286Y-114986570D02*
X178913286Y-114736570D01*
X179663286Y-114486570D01*
X179949000Y-113450856D02*
X179913286Y-113486570D01*
X179806143Y-113557999D01*
X179734714Y-113593713D01*
X179627571Y-113629427D01*
X179449000Y-113665142D01*
X179306143Y-113665142D01*
X179127571Y-113629427D01*
X179020429Y-113593713D01*
X178949000Y-113557999D01*
X178841857Y-113486570D01*
X178806143Y-113450856D01*
X179377571Y-113165142D02*
X179377571Y-112593713D01*
X179663286Y-112879427D02*
X179091857Y-112879427D01*
X179949000Y-112307999D02*
X179913286Y-112272285D01*
X179806143Y-112200856D01*
X179734714Y-112165142D01*
X179627571Y-112129428D01*
X179449000Y-112093713D01*
X179306143Y-112093713D01*
X179127571Y-112129428D01*
X179020429Y-112165142D01*
X178949000Y-112200856D01*
X178841857Y-112272285D01*
X178806143Y-112307999D01*
X178659286Y-125281143D02*
X178659286Y-124816857D01*
X178945000Y-125066857D01*
X178945000Y-124959715D01*
X178980714Y-124888286D01*
X179016429Y-124852572D01*
X179087857Y-124816857D01*
X179266429Y-124816857D01*
X179337857Y-124852572D01*
X179373571Y-124888286D01*
X179409286Y-124959715D01*
X179409286Y-125174000D01*
X179373571Y-125245429D01*
X179337857Y-125281143D01*
X178909286Y-124566857D02*
X179409286Y-124388286D01*
X178909286Y-124209714D01*
X178659286Y-123995428D02*
X178659286Y-123531142D01*
X178945000Y-123781142D01*
X178945000Y-123674000D01*
X178980714Y-123602571D01*
X179016429Y-123566857D01*
X179087857Y-123531142D01*
X179266429Y-123531142D01*
X179337857Y-123566857D01*
X179373571Y-123602571D01*
X179409286Y-123674000D01*
X179409286Y-123888285D01*
X179373571Y-123959714D01*
X179337857Y-123995428D01*
X178659286Y-122709713D02*
X178659286Y-122245427D01*
X178945000Y-122495427D01*
X178945000Y-122388285D01*
X178980714Y-122316856D01*
X179016429Y-122281142D01*
X179087857Y-122245427D01*
X179266429Y-122245427D01*
X179337857Y-122281142D01*
X179373571Y-122316856D01*
X179409286Y-122388285D01*
X179409286Y-122602570D01*
X179373571Y-122673999D01*
X179337857Y-122709713D01*
X179195000Y-121959713D02*
X179195000Y-121602570D01*
X179409286Y-122031141D02*
X178659286Y-121781141D01*
X179409286Y-121531141D01*
X179695000Y-120495427D02*
X179659286Y-120531141D01*
X179552143Y-120602570D01*
X179480714Y-120638284D01*
X179373571Y-120673998D01*
X179195000Y-120709713D01*
X179052143Y-120709713D01*
X178873571Y-120673998D01*
X178766429Y-120638284D01*
X178695000Y-120602570D01*
X178587857Y-120531141D01*
X178552143Y-120495427D01*
X179123571Y-120209713D02*
X179123571Y-119638284D01*
X179409286Y-119923998D02*
X178837857Y-119923998D01*
X179695000Y-119352570D02*
X179659286Y-119316856D01*
X179552143Y-119245427D01*
X179480714Y-119209713D01*
X179373571Y-119173999D01*
X179195000Y-119138284D01*
X179052143Y-119138284D01*
X178873571Y-119173999D01*
X178766429Y-119209713D01*
X178695000Y-119245427D01*
X178587857Y-119316856D01*
X178552143Y-119352570D01*
D12*
X145966571Y-103158571D02*
X144466571Y-103158571D01*
X145180857Y-103158571D02*
X145180857Y-102301428D01*
X145966571Y-102301428D02*
X144466571Y-102301428D01*
X145538000Y-101658571D02*
X145538000Y-100944285D01*
X145966571Y-101801428D02*
X144466571Y-101301428D01*
X145966571Y-100801428D01*
X144466571Y-100515714D02*
X144466571Y-99658571D01*
X145966571Y-100087142D02*
X144466571Y-100087142D01*
X145823714Y-98301428D02*
X145895143Y-98372857D01*
X145966571Y-98587143D01*
X145966571Y-98730000D01*
X145895143Y-98944285D01*
X145752286Y-99087143D01*
X145609429Y-99158571D01*
X145323714Y-99230000D01*
X145109429Y-99230000D01*
X144823714Y-99158571D01*
X144680857Y-99087143D01*
X144538000Y-98944285D01*
X144466571Y-98730000D01*
X144466571Y-98587143D01*
X144538000Y-98372857D01*
X144609429Y-98301428D01*
X145966571Y-97658571D02*
X144466571Y-97658571D01*
X145180857Y-97658571D02*
X145180857Y-96801428D01*
X145966571Y-96801428D02*
X144466571Y-96801428D01*
X145895143Y-95015714D02*
X145966571Y-94801428D01*
X145966571Y-94444285D01*
X145895143Y-94301428D01*
X145823714Y-94229999D01*
X145680857Y-94158571D01*
X145538000Y-94158571D01*
X145395143Y-94229999D01*
X145323714Y-94301428D01*
X145252286Y-94444285D01*
X145180857Y-94729999D01*
X145109429Y-94872857D01*
X145038000Y-94944285D01*
X144895143Y-95015714D01*
X144752286Y-95015714D01*
X144609429Y-94944285D01*
X144538000Y-94872857D01*
X144466571Y-94729999D01*
X144466571Y-94372857D01*
X144538000Y-94158571D01*
X144966571Y-92872857D02*
X145966571Y-92872857D01*
X144966571Y-93515714D02*
X145752286Y-93515714D01*
X145895143Y-93444286D01*
X145966571Y-93301428D01*
X145966571Y-93087143D01*
X145895143Y-92944286D01*
X145823714Y-92872857D01*
X145966571Y-92158571D02*
X144966571Y-92158571D01*
X145109429Y-92158571D02*
X145038000Y-92087143D01*
X144966571Y-91944285D01*
X144966571Y-91730000D01*
X145038000Y-91587143D01*
X145180857Y-91515714D01*
X145966571Y-91515714D01*
X145180857Y-91515714D02*
X145038000Y-91444285D01*
X144966571Y-91301428D01*
X144966571Y-91087143D01*
X145038000Y-90944285D01*
X145180857Y-90872857D01*
X145966571Y-90872857D01*
X145966571Y-89944285D02*
X145895143Y-90087143D01*
X145823714Y-90158571D01*
X145680857Y-90230000D01*
X145252286Y-90230000D01*
X145109429Y-90158571D01*
X145038000Y-90087143D01*
X144966571Y-89944285D01*
X144966571Y-89730000D01*
X145038000Y-89587143D01*
X145109429Y-89515714D01*
X145252286Y-89444285D01*
X145680857Y-89444285D01*
X145823714Y-89515714D01*
X145895143Y-89587143D01*
X145966571Y-89730000D01*
X145966571Y-89944285D01*
X145966571Y-86872857D02*
X145966571Y-87730000D01*
X145966571Y-87301428D02*
X144466571Y-87301428D01*
X144680857Y-87444285D01*
X144823714Y-87587143D01*
X144895143Y-87730000D01*
X145823714Y-86230000D02*
X145895143Y-86158572D01*
X145966571Y-86230000D01*
X145895143Y-86301429D01*
X145823714Y-86230000D01*
X145966571Y-86230000D01*
X144466571Y-85230000D02*
X144466571Y-85087143D01*
X144538000Y-84944286D01*
X144609429Y-84872857D01*
X144752286Y-84801428D01*
X145038000Y-84730000D01*
X145395143Y-84730000D01*
X145680857Y-84801428D01*
X145823714Y-84872857D01*
X145895143Y-84944286D01*
X145966571Y-85087143D01*
X145966571Y-85230000D01*
X145895143Y-85372857D01*
X145823714Y-85444286D01*
X145680857Y-85515714D01*
X145395143Y-85587143D01*
X145038000Y-85587143D01*
X144752286Y-85515714D01*
X144609429Y-85444286D01*
X144538000Y-85372857D01*
X144466571Y-85230000D01*
D13*
X142286000Y-122000000D02*
G75*
G03X142286000Y-122000000I-2286000J0D01*
G01*
X178286000Y-114000000D02*
G75*
G03X178286000Y-114000000I-2286000J0D01*
G01*
X186690000Y-92583000D02*
X186690000Y-110363000D01*
X186690000Y-110363000D02*
X148590000Y-110363000D01*
X148590000Y-110363000D02*
X148590000Y-92583000D01*
X148590000Y-92583000D02*
X186690000Y-92583000D01*
X165481000Y-124841000D02*
X166751000Y-124841000D01*
X166751000Y-124841000D02*
X166751000Y-114681000D01*
X166751000Y-114681000D02*
X166751000Y-124841000D01*
X166751000Y-114681000D02*
X165481000Y-114681000D01*
X165481000Y-114681000D02*
X166751000Y-114681000D01*
X157861000Y-114681000D02*
X156591000Y-114681000D01*
X157861000Y-124841000D02*
X156591000Y-124841000D01*
X156591000Y-114681000D02*
X156591000Y-124841000D01*
X156591000Y-124841000D02*
X156591000Y-114681000D01*
X156591000Y-114681000D02*
X156591000Y-124841000D01*
X156591000Y-124841000D02*
X156591000Y-114681000D01*
X156591000Y-114681000D02*
X156591000Y-124841000D01*
X157861000Y-114681000D02*
X156591000Y-114681000D01*
X156591000Y-114681000D02*
X156591000Y-124841000D01*
X156591000Y-124841000D02*
X156591000Y-114681000D01*
X173324000Y-120996000D02*
X172624000Y-120996000D01*
X172624000Y-119796000D02*
X173324000Y-119796000D01*
X177970180Y-125905260D02*
X177970180Y-122506740D01*
X169720260Y-122506740D02*
X175719740Y-122506740D01*
X169720260Y-125905260D02*
X175719740Y-125905260D01*
X178473100Y-126908560D02*
X178473100Y-125808740D01*
X179072540Y-126408180D02*
X177873660Y-126408180D01*
X168875000Y-118903000D02*
X168875000Y-119603000D01*
X167675000Y-119603000D02*
X167675000Y-118903000D01*
X138176520Y-95247460D02*
X139573520Y-95247460D01*
X133731520Y-95247460D02*
X132207520Y-95247460D01*
X134112520Y-94485460D02*
X134112520Y-96009460D01*
X133858520Y-94485460D02*
X133858520Y-96009460D01*
X133604520Y-95247460D02*
X133604520Y-96009460D01*
X133604520Y-96009460D02*
X138176520Y-96009460D01*
X138176520Y-96009460D02*
X138176520Y-94485460D01*
X138176520Y-94485460D02*
X133604520Y-94485460D01*
X133604520Y-94485460D02*
X133604520Y-95247460D01*
X133603480Y-97792540D02*
X132206480Y-97792540D01*
X138048480Y-97792540D02*
X139572480Y-97792540D01*
X137667480Y-98554540D02*
X137667480Y-97030540D01*
X137921480Y-98554540D02*
X137921480Y-97030540D01*
X138175480Y-97792540D02*
X138175480Y-97030540D01*
X138175480Y-97030540D02*
X133603480Y-97030540D01*
X133603480Y-97030540D02*
X133603480Y-98554540D01*
X133603480Y-98554540D02*
X138175480Y-98554540D01*
X138175480Y-98554540D02*
X138175480Y-97792540D01*
X138176520Y-102867460D02*
X139573520Y-102867460D01*
X133731520Y-102867460D02*
X132207520Y-102867460D01*
X134112520Y-102105460D02*
X134112520Y-103629460D01*
X133858520Y-102105460D02*
X133858520Y-103629460D01*
X133604520Y-102867460D02*
X133604520Y-103629460D01*
X133604520Y-103629460D02*
X138176520Y-103629460D01*
X138176520Y-103629460D02*
X138176520Y-102105460D01*
X138176520Y-102105460D02*
X133604520Y-102105460D01*
X133604520Y-102105460D02*
X133604520Y-102867460D01*
X133603480Y-100332540D02*
X132206480Y-100332540D01*
X138048480Y-100332540D02*
X139572480Y-100332540D01*
X137667480Y-101094540D02*
X137667480Y-99570540D01*
X137921480Y-101094540D02*
X137921480Y-99570540D01*
X138175480Y-100332540D02*
X138175480Y-99570540D01*
X138175480Y-99570540D02*
X133603480Y-99570540D01*
X133603480Y-99570540D02*
X133603480Y-101094540D01*
X133603480Y-101094540D02*
X138175480Y-101094540D01*
X138175480Y-101094540D02*
X138175480Y-100332540D01*
X138176520Y-106677460D02*
X139573520Y-106677460D01*
X133731520Y-106677460D02*
X132207520Y-106677460D01*
X134112520Y-105915460D02*
X134112520Y-107439460D01*
X133858520Y-105915460D02*
X133858520Y-107439460D01*
X133604520Y-106677460D02*
X133604520Y-107439460D01*
X133604520Y-107439460D02*
X138176520Y-107439460D01*
X138176520Y-107439460D02*
X138176520Y-105915460D01*
X138176520Y-105915460D02*
X133604520Y-105915460D01*
X133604520Y-105915460D02*
X133604520Y-106677460D01*
X133603480Y-109222540D02*
X132206480Y-109222540D01*
X138048480Y-109222540D02*
X139572480Y-109222540D01*
X137667480Y-109984540D02*
X137667480Y-108460540D01*
X137921480Y-109984540D02*
X137921480Y-108460540D01*
X138175480Y-109222540D02*
X138175480Y-108460540D01*
X138175480Y-108460540D02*
X133603480Y-108460540D01*
X133603480Y-108460540D02*
X133603480Y-109984540D01*
X133603480Y-109984540D02*
X138175480Y-109984540D01*
X138175480Y-109984540D02*
X138175480Y-109222540D01*
X138176520Y-114297460D02*
X139573520Y-114297460D01*
X133731520Y-114297460D02*
X132207520Y-114297460D01*
X134112520Y-113535460D02*
X134112520Y-115059460D01*
X133858520Y-113535460D02*
X133858520Y-115059460D01*
X133604520Y-114297460D02*
X133604520Y-115059460D01*
X133604520Y-115059460D02*
X138176520Y-115059460D01*
X138176520Y-115059460D02*
X138176520Y-113535460D01*
X138176520Y-113535460D02*
X133604520Y-113535460D01*
X133604520Y-113535460D02*
X133604520Y-114297460D01*
X133603480Y-111762540D02*
X132206480Y-111762540D01*
X138048480Y-111762540D02*
X139572480Y-111762540D01*
X137667480Y-112524540D02*
X137667480Y-111000540D01*
X137921480Y-112524540D02*
X137921480Y-111000540D01*
X138175480Y-111762540D02*
X138175480Y-111000540D01*
X138175480Y-111000540D02*
X133603480Y-111000540D01*
X133603480Y-111000540D02*
X133603480Y-112524540D01*
X133603480Y-112524540D02*
X138175480Y-112524540D01*
X138175480Y-112524540D02*
X138175480Y-111762540D01*
X183134000Y-87630000D02*
X178054000Y-87630000D01*
X178054000Y-87630000D02*
X178054000Y-90170000D01*
X178054000Y-90170000D02*
X183134000Y-90170000D01*
X185954000Y-90450000D02*
X184404000Y-90450000D01*
X183134000Y-90170000D02*
X183134000Y-87630000D01*
X184404000Y-87350000D02*
X185954000Y-87350000D01*
X185954000Y-87350000D02*
X185954000Y-90450000D01*
X169418000Y-87630000D02*
X164338000Y-87630000D01*
X164338000Y-87630000D02*
X164338000Y-90170000D01*
X164338000Y-90170000D02*
X169418000Y-90170000D01*
X172238000Y-90450000D02*
X170688000Y-90450000D01*
X169418000Y-90170000D02*
X169418000Y-87630000D01*
X170688000Y-87350000D02*
X172238000Y-87350000D01*
X172238000Y-87350000D02*
X172238000Y-90450000D01*
X154178000Y-87630000D02*
X149098000Y-87630000D01*
X149098000Y-87630000D02*
X149098000Y-90170000D01*
X149098000Y-90170000D02*
X154178000Y-90170000D01*
X156998000Y-90450000D02*
X155448000Y-90450000D01*
X154178000Y-90170000D02*
X154178000Y-87630000D01*
X155448000Y-87350000D02*
X156998000Y-87350000D01*
X156998000Y-87350000D02*
X156998000Y-90450000D01*
X186980000Y-115090000D02*
X187380000Y-115090000D01*
X185880000Y-118590000D02*
X185880000Y-111590000D01*
X186980000Y-118590000D02*
X186980000Y-111590000D01*
X179780000Y-118590000D02*
X187380000Y-118590000D01*
X187380000Y-111590000D02*
X179780000Y-111590000D01*
X179780000Y-111590000D02*
X179780000Y-118590000D01*
X186980000Y-122710000D02*
X187380000Y-122710000D01*
X185880000Y-126210000D02*
X185880000Y-119210000D01*
X186980000Y-126210000D02*
X186980000Y-119210000D01*
X179780000Y-126210000D02*
X187380000Y-126210000D01*
X187380000Y-119210000D02*
X179780000Y-119210000D01*
X179780000Y-119210000D02*
X179780000Y-126210000D01*
X127980000Y-88110000D02*
X127580000Y-88110000D01*
X129080000Y-84610000D02*
X129080000Y-91610000D01*
X127980000Y-84610000D02*
X127980000Y-91610000D01*
X135180000Y-84610000D02*
X127580000Y-84610000D01*
X127580000Y-91610000D02*
X135180000Y-91610000D01*
X135180000Y-91610000D02*
X135180000Y-84610000D01*
X127980000Y-122400000D02*
X127580000Y-122400000D01*
X129080000Y-118900000D02*
X129080000Y-125900000D01*
X127980000Y-118900000D02*
X127980000Y-125900000D01*
X135180000Y-118900000D02*
X127580000Y-118900000D01*
X127580000Y-125900000D02*
X135180000Y-125900000D01*
X135180000Y-125900000D02*
X135180000Y-118900000D01*
X142286000Y-88000000D02*
G75*
G03X142286000Y-88000000I-2286000J0D01*
G01*
X148844666Y-110704381D02*
X149416095Y-110704381D01*
X149130380Y-111704381D02*
X149130380Y-110704381D01*
X149749428Y-111704381D02*
X149749428Y-111037714D01*
X149749428Y-111228190D02*
X149797047Y-111132952D01*
X149844666Y-111085333D01*
X149939904Y-111037714D01*
X150035143Y-111037714D01*
X150368476Y-111704381D02*
X150368476Y-111037714D01*
X150368476Y-110704381D02*
X150320857Y-110752000D01*
X150368476Y-110799619D01*
X150416095Y-110752000D01*
X150368476Y-110704381D01*
X150368476Y-110799619D01*
X150844666Y-111037714D02*
X150844666Y-111704381D01*
X150844666Y-111132952D02*
X150892285Y-111085333D01*
X150987523Y-111037714D01*
X151130381Y-111037714D01*
X151225619Y-111085333D01*
X151273238Y-111180571D01*
X151273238Y-111704381D01*
X151749428Y-111704381D02*
X151749428Y-110704381D01*
X151844666Y-111323429D02*
X152130381Y-111704381D01*
X152130381Y-111037714D02*
X151749428Y-111418667D01*
X152939905Y-111656762D02*
X152844667Y-111704381D01*
X152654190Y-111704381D01*
X152558952Y-111656762D01*
X152511333Y-111561524D01*
X152511333Y-111180571D01*
X152558952Y-111085333D01*
X152654190Y-111037714D01*
X152844667Y-111037714D01*
X152939905Y-111085333D01*
X152987524Y-111180571D01*
X152987524Y-111275810D01*
X152511333Y-111371048D01*
X153273238Y-111037714D02*
X153654190Y-111037714D01*
X153416095Y-110704381D02*
X153416095Y-111561524D01*
X153463714Y-111656762D01*
X153558952Y-111704381D01*
X153654190Y-111704381D01*
X154749429Y-111704381D02*
X154749429Y-110704381D01*
X155130382Y-110704381D01*
X155225620Y-110752000D01*
X155273239Y-110799619D01*
X155320858Y-110894857D01*
X155320858Y-111037714D01*
X155273239Y-111132952D01*
X155225620Y-111180571D01*
X155130382Y-111228190D01*
X154749429Y-111228190D01*
X155749429Y-111704381D02*
X155749429Y-111037714D01*
X155749429Y-111228190D02*
X155797048Y-111132952D01*
X155844667Y-111085333D01*
X155939905Y-111037714D01*
X156035144Y-111037714D01*
X156511334Y-111704381D02*
X156416096Y-111656762D01*
X156368477Y-111609143D01*
X156320858Y-111513905D01*
X156320858Y-111228190D01*
X156368477Y-111132952D01*
X156416096Y-111085333D01*
X156511334Y-111037714D01*
X156654192Y-111037714D01*
X156749430Y-111085333D01*
X156797049Y-111132952D01*
X156844668Y-111228190D01*
X156844668Y-111513905D01*
X156797049Y-111609143D01*
X156749430Y-111656762D01*
X156654192Y-111704381D01*
X156511334Y-111704381D01*
X158511335Y-110704381D02*
X158035144Y-110704381D01*
X157987525Y-111180571D01*
X158035144Y-111132952D01*
X158130382Y-111085333D01*
X158368478Y-111085333D01*
X158463716Y-111132952D01*
X158511335Y-111180571D01*
X158558954Y-111275810D01*
X158558954Y-111513905D01*
X158511335Y-111609143D01*
X158463716Y-111656762D01*
X158368478Y-111704381D01*
X158130382Y-111704381D01*
X158035144Y-111656762D01*
X157987525Y-111609143D01*
X158844668Y-110704381D02*
X159178001Y-111704381D01*
X159511335Y-110704381D01*
X165658857Y-125147429D02*
X165658857Y-125633143D01*
X165687429Y-125690286D01*
X165716000Y-125718857D01*
X165773143Y-125747429D01*
X165887429Y-125747429D01*
X165944571Y-125718857D01*
X165973143Y-125690286D01*
X166001714Y-125633143D01*
X166001714Y-125147429D01*
X166601714Y-125747429D02*
X166258857Y-125747429D01*
X166430285Y-125747429D02*
X166430285Y-125147429D01*
X166373142Y-125233143D01*
X166316000Y-125290286D01*
X166258857Y-125318857D01*
X155044857Y-123843428D02*
X155044857Y-123157714D01*
X156244857Y-123500571D02*
X155044857Y-123500571D01*
X155616286Y-122357714D02*
X155673429Y-122186285D01*
X155730571Y-122129142D01*
X155844857Y-122071999D01*
X156016286Y-122071999D01*
X156130571Y-122129142D01*
X156187714Y-122186285D01*
X156244857Y-122300571D01*
X156244857Y-122757714D01*
X155044857Y-122757714D01*
X155044857Y-122357714D01*
X155102000Y-122243428D01*
X155159143Y-122186285D01*
X155273429Y-122129142D01*
X155387714Y-122129142D01*
X155502000Y-122186285D01*
X155559143Y-122243428D01*
X155616286Y-122357714D01*
X155616286Y-122757714D01*
X155044857Y-121043428D02*
X155044857Y-121271999D01*
X155102000Y-121386285D01*
X155159143Y-121443428D01*
X155330571Y-121557714D01*
X155559143Y-121614857D01*
X156016286Y-121614857D01*
X156130571Y-121557714D01*
X156187714Y-121500571D01*
X156244857Y-121386285D01*
X156244857Y-121157714D01*
X156187714Y-121043428D01*
X156130571Y-120986285D01*
X156016286Y-120929142D01*
X155730571Y-120929142D01*
X155616286Y-120986285D01*
X155559143Y-121043428D01*
X155502000Y-121157714D01*
X155502000Y-121386285D01*
X155559143Y-121500571D01*
X155616286Y-121557714D01*
X155730571Y-121614857D01*
X155044857Y-119900571D02*
X155044857Y-120129142D01*
X155102000Y-120243428D01*
X155159143Y-120300571D01*
X155330571Y-120414857D01*
X155559143Y-120472000D01*
X156016286Y-120472000D01*
X156130571Y-120414857D01*
X156187714Y-120357714D01*
X156244857Y-120243428D01*
X156244857Y-120014857D01*
X156187714Y-119900571D01*
X156130571Y-119843428D01*
X156016286Y-119786285D01*
X155730571Y-119786285D01*
X155616286Y-119843428D01*
X155559143Y-119900571D01*
X155502000Y-120014857D01*
X155502000Y-120243428D01*
X155559143Y-120357714D01*
X155616286Y-120414857D01*
X155730571Y-120472000D01*
X156244857Y-118643428D02*
X156244857Y-119329143D01*
X156244857Y-118986285D02*
X155044857Y-118986285D01*
X155216286Y-119100571D01*
X155330571Y-119214857D01*
X155387714Y-119329143D01*
X155159143Y-118186286D02*
X155102000Y-118129143D01*
X155044857Y-118014857D01*
X155044857Y-117729143D01*
X155102000Y-117614857D01*
X155159143Y-117557714D01*
X155273429Y-117500571D01*
X155387714Y-117500571D01*
X155559143Y-117557714D01*
X156244857Y-118243428D01*
X156244857Y-117500571D01*
X155616286Y-116586286D02*
X155616286Y-116986286D01*
X156244857Y-116986286D02*
X155044857Y-116986286D01*
X155044857Y-116414857D01*
X156244857Y-115957715D02*
X155044857Y-115957715D01*
X156244857Y-115272000D01*
X155044857Y-115272000D01*
X155102000Y-114072000D02*
X155044857Y-114186286D01*
X155044857Y-114357715D01*
X155102000Y-114529143D01*
X155216286Y-114643429D01*
X155330571Y-114700572D01*
X155559143Y-114757715D01*
X155730571Y-114757715D01*
X155959143Y-114700572D01*
X156073429Y-114643429D01*
X156187714Y-114529143D01*
X156244857Y-114357715D01*
X156244857Y-114243429D01*
X156187714Y-114072000D01*
X156130571Y-114014857D01*
X155730571Y-114014857D01*
X155730571Y-114243429D01*
X172366000Y-119340286D02*
X172337429Y-119368857D01*
X172251715Y-119397429D01*
X172194572Y-119397429D01*
X172108857Y-119368857D01*
X172051715Y-119311714D01*
X172023143Y-119254571D01*
X171994572Y-119140286D01*
X171994572Y-119054571D01*
X172023143Y-118940286D01*
X172051715Y-118883143D01*
X172108857Y-118826000D01*
X172194572Y-118797429D01*
X172251715Y-118797429D01*
X172337429Y-118826000D01*
X172366000Y-118854571D01*
X172937429Y-119397429D02*
X172594572Y-119397429D01*
X172766000Y-119397429D02*
X172766000Y-118797429D01*
X172708857Y-118883143D01*
X172651715Y-118940286D01*
X172594572Y-118968857D01*
X174821905Y-120440286D02*
X174821905Y-120364095D01*
X174860000Y-120287905D01*
X174898095Y-120249810D01*
X174974286Y-120211714D01*
X175126667Y-120173619D01*
X175317143Y-120173619D01*
X175469524Y-120211714D01*
X175545714Y-120249810D01*
X175583810Y-120287905D01*
X175621905Y-120364095D01*
X175621905Y-120440286D01*
X175583810Y-120516476D01*
X175545714Y-120554572D01*
X175469524Y-120592667D01*
X175317143Y-120630762D01*
X175126667Y-120630762D01*
X174974286Y-120592667D01*
X174898095Y-120554572D01*
X174860000Y-120516476D01*
X174821905Y-120440286D01*
X175545714Y-119830762D02*
X175583810Y-119792667D01*
X175621905Y-119830762D01*
X175583810Y-119868857D01*
X175545714Y-119830762D01*
X175621905Y-119830762D01*
X175621905Y-119030762D02*
X175621905Y-119487905D01*
X175621905Y-119259334D02*
X174821905Y-119259334D01*
X174936190Y-119335524D01*
X175012381Y-119411715D01*
X175050476Y-119487905D01*
X175088571Y-118345048D02*
X175621905Y-118345048D01*
X175088571Y-118687905D02*
X175507619Y-118687905D01*
X175583810Y-118649810D01*
X175621905Y-118573619D01*
X175621905Y-118459333D01*
X175583810Y-118383143D01*
X175545714Y-118345048D01*
X175202857Y-117697428D02*
X175202857Y-117964095D01*
X175621905Y-117964095D02*
X174821905Y-117964095D01*
X174821905Y-117583142D01*
X168556000Y-125944286D02*
X168527429Y-125972857D01*
X168441715Y-126001429D01*
X168384572Y-126001429D01*
X168298857Y-125972857D01*
X168241715Y-125915714D01*
X168213143Y-125858571D01*
X168184572Y-125744286D01*
X168184572Y-125658571D01*
X168213143Y-125544286D01*
X168241715Y-125487143D01*
X168298857Y-125430000D01*
X168384572Y-125401429D01*
X168441715Y-125401429D01*
X168527429Y-125430000D01*
X168556000Y-125458571D01*
X168784572Y-125458571D02*
X168813143Y-125430000D01*
X168870286Y-125401429D01*
X169013143Y-125401429D01*
X169070286Y-125430000D01*
X169098857Y-125458571D01*
X169127429Y-125515714D01*
X169127429Y-125572857D01*
X169098857Y-125658571D01*
X168756000Y-126001429D01*
X169127429Y-126001429D01*
X169246857Y-122281905D02*
X168789714Y-122281905D01*
X169018285Y-122281905D02*
X169018285Y-121481905D01*
X168942095Y-121596190D01*
X168865904Y-121672381D01*
X168789714Y-121710476D01*
X169742095Y-121481905D02*
X169818286Y-121481905D01*
X169894476Y-121520000D01*
X169932571Y-121558095D01*
X169970667Y-121634286D01*
X170008762Y-121786667D01*
X170008762Y-121977143D01*
X169970667Y-122129524D01*
X169932571Y-122205714D01*
X169894476Y-122243810D01*
X169818286Y-122281905D01*
X169742095Y-122281905D01*
X169665905Y-122243810D01*
X169627809Y-122205714D01*
X169589714Y-122129524D01*
X169551619Y-121977143D01*
X169551619Y-121786667D01*
X169589714Y-121634286D01*
X169627809Y-121558095D01*
X169665905Y-121520000D01*
X169742095Y-121481905D01*
X170694476Y-121748571D02*
X170694476Y-122281905D01*
X170351619Y-121748571D02*
X170351619Y-122167619D01*
X170389714Y-122243810D01*
X170465905Y-122281905D01*
X170580191Y-122281905D01*
X170656381Y-122243810D01*
X170694476Y-122205714D01*
X171342096Y-121862857D02*
X171075429Y-121862857D01*
X171075429Y-122281905D02*
X171075429Y-121481905D01*
X171456382Y-121481905D01*
X171799238Y-122243810D02*
X171799238Y-122281905D01*
X171761143Y-122358095D01*
X171723048Y-122396190D01*
X172713524Y-121558095D02*
X172751619Y-121520000D01*
X172827810Y-121481905D01*
X173018286Y-121481905D01*
X173094476Y-121520000D01*
X173132572Y-121558095D01*
X173170667Y-121634286D01*
X173170667Y-121710476D01*
X173132572Y-121824762D01*
X172675429Y-122281905D01*
X173170667Y-122281905D01*
X173665905Y-121481905D02*
X173742096Y-121481905D01*
X173818286Y-121520000D01*
X173856381Y-121558095D01*
X173894477Y-121634286D01*
X173932572Y-121786667D01*
X173932572Y-121977143D01*
X173894477Y-122129524D01*
X173856381Y-122205714D01*
X173818286Y-122243810D01*
X173742096Y-122281905D01*
X173665905Y-122281905D01*
X173589715Y-122243810D01*
X173551619Y-122205714D01*
X173513524Y-122129524D01*
X173475429Y-121977143D01*
X173475429Y-121786667D01*
X173513524Y-121634286D01*
X173551619Y-121558095D01*
X173589715Y-121520000D01*
X173665905Y-121481905D01*
X174161143Y-121481905D02*
X174427810Y-122281905D01*
X174694477Y-121481905D01*
X176657048Y-122499429D02*
X177418953Y-122499429D01*
X177038001Y-122880381D02*
X177038001Y-122118476D01*
X170075000Y-119467286D02*
X170046429Y-119495857D01*
X169960715Y-119524429D01*
X169903572Y-119524429D01*
X169817857Y-119495857D01*
X169760715Y-119438714D01*
X169732143Y-119381571D01*
X169703572Y-119267286D01*
X169703572Y-119181571D01*
X169732143Y-119067286D01*
X169760715Y-119010143D01*
X169817857Y-118953000D01*
X169903572Y-118924429D01*
X169960715Y-118924429D01*
X170046429Y-118953000D01*
X170075000Y-118981571D01*
X170275000Y-118924429D02*
X170646429Y-118924429D01*
X170446429Y-119153000D01*
X170532143Y-119153000D01*
X170589286Y-119181571D01*
X170617857Y-119210143D01*
X170646429Y-119267286D01*
X170646429Y-119410143D01*
X170617857Y-119467286D01*
X170589286Y-119495857D01*
X170532143Y-119524429D01*
X170360715Y-119524429D01*
X170303572Y-119495857D01*
X170275000Y-119467286D01*
X169881714Y-116655905D02*
X169957905Y-116655905D01*
X170034095Y-116694000D01*
X170072190Y-116732095D01*
X170110286Y-116808286D01*
X170148381Y-116960667D01*
X170148381Y-117151143D01*
X170110286Y-117303524D01*
X170072190Y-117379714D01*
X170034095Y-117417810D01*
X169957905Y-117455905D01*
X169881714Y-117455905D01*
X169805524Y-117417810D01*
X169767428Y-117379714D01*
X169729333Y-117303524D01*
X169691238Y-117151143D01*
X169691238Y-116960667D01*
X169729333Y-116808286D01*
X169767428Y-116732095D01*
X169805524Y-116694000D01*
X169881714Y-116655905D01*
X170491238Y-117379714D02*
X170529333Y-117417810D01*
X170491238Y-117455905D01*
X170453143Y-117417810D01*
X170491238Y-117379714D01*
X170491238Y-117455905D01*
X171291238Y-117455905D02*
X170834095Y-117455905D01*
X171062666Y-117455905D02*
X171062666Y-116655905D01*
X170986476Y-116770190D01*
X170910285Y-116846381D01*
X170834095Y-116884476D01*
X171976952Y-116922571D02*
X171976952Y-117455905D01*
X171634095Y-116922571D02*
X171634095Y-117341619D01*
X171672190Y-117417810D01*
X171748381Y-117455905D01*
X171862667Y-117455905D01*
X171938857Y-117417810D01*
X171976952Y-117379714D01*
X172624572Y-117036857D02*
X172357905Y-117036857D01*
X172357905Y-117455905D02*
X172357905Y-116655905D01*
X172738858Y-116655905D01*
X178070333Y-86812381D02*
X178070333Y-85812381D01*
X178308428Y-85812381D01*
X178451286Y-85860000D01*
X178546524Y-85955238D01*
X178594143Y-86050476D01*
X178641762Y-86240952D01*
X178641762Y-86383810D01*
X178594143Y-86574286D01*
X178546524Y-86669524D01*
X178451286Y-86764762D01*
X178308428Y-86812381D01*
X178070333Y-86812381D01*
X179070333Y-86812381D02*
X179070333Y-85812381D01*
X179498904Y-86764762D02*
X179641761Y-86812381D01*
X179879857Y-86812381D01*
X179975095Y-86764762D01*
X180022714Y-86717143D01*
X180070333Y-86621905D01*
X180070333Y-86526667D01*
X180022714Y-86431429D01*
X179975095Y-86383810D01*
X179879857Y-86336190D01*
X179689380Y-86288571D01*
X179594142Y-86240952D01*
X179546523Y-86193333D01*
X179498904Y-86098095D01*
X179498904Y-86002857D01*
X179546523Y-85907619D01*
X179594142Y-85860000D01*
X179689380Y-85812381D01*
X179927476Y-85812381D01*
X180070333Y-85860000D01*
X180356047Y-85812381D02*
X180927476Y-85812381D01*
X180641761Y-86812381D02*
X180641761Y-85812381D01*
X181975095Y-86764762D02*
X182117952Y-86812381D01*
X182356048Y-86812381D01*
X182451286Y-86764762D01*
X182498905Y-86717143D01*
X182546524Y-86621905D01*
X182546524Y-86526667D01*
X182498905Y-86431429D01*
X182451286Y-86383810D01*
X182356048Y-86336190D01*
X182165571Y-86288571D01*
X182070333Y-86240952D01*
X182022714Y-86193333D01*
X181975095Y-86098095D01*
X181975095Y-86002857D01*
X182022714Y-85907619D01*
X182070333Y-85860000D01*
X182165571Y-85812381D01*
X182403667Y-85812381D01*
X182546524Y-85860000D01*
X182975095Y-86288571D02*
X183308429Y-86288571D01*
X183451286Y-86812381D02*
X182975095Y-86812381D01*
X182975095Y-85812381D01*
X183451286Y-85812381D01*
X183879857Y-86812381D02*
X183879857Y-85812381D01*
X184451286Y-86812381D01*
X184451286Y-85812381D01*
X184879857Y-86764762D02*
X185022714Y-86812381D01*
X185260810Y-86812381D01*
X185356048Y-86764762D01*
X185403667Y-86717143D01*
X185451286Y-86621905D01*
X185451286Y-86526667D01*
X185403667Y-86431429D01*
X185356048Y-86383810D01*
X185260810Y-86336190D01*
X185070333Y-86288571D01*
X184975095Y-86240952D01*
X184927476Y-86193333D01*
X184879857Y-86098095D01*
X184879857Y-86002857D01*
X184927476Y-85907619D01*
X184975095Y-85860000D01*
X185070333Y-85812381D01*
X185308429Y-85812381D01*
X185451286Y-85860000D01*
X164886095Y-86812381D02*
X164409904Y-86812381D01*
X164409904Y-85812381D01*
X165219428Y-86288571D02*
X165552762Y-86288571D01*
X165695619Y-86812381D02*
X165219428Y-86812381D01*
X165219428Y-85812381D01*
X165695619Y-85812381D01*
X166457524Y-86288571D02*
X166124190Y-86288571D01*
X166124190Y-86812381D02*
X166124190Y-85812381D01*
X166600381Y-85812381D01*
X166838476Y-85812381D02*
X167409905Y-85812381D01*
X167124190Y-86812381D02*
X167124190Y-85812381D01*
X168457524Y-86764762D02*
X168600381Y-86812381D01*
X168838477Y-86812381D01*
X168933715Y-86764762D01*
X168981334Y-86717143D01*
X169028953Y-86621905D01*
X169028953Y-86526667D01*
X168981334Y-86431429D01*
X168933715Y-86383810D01*
X168838477Y-86336190D01*
X168648000Y-86288571D01*
X168552762Y-86240952D01*
X168505143Y-86193333D01*
X168457524Y-86098095D01*
X168457524Y-86002857D01*
X168505143Y-85907619D01*
X168552762Y-85860000D01*
X168648000Y-85812381D01*
X168886096Y-85812381D01*
X169028953Y-85860000D01*
X169457524Y-86288571D02*
X169790858Y-86288571D01*
X169933715Y-86812381D02*
X169457524Y-86812381D01*
X169457524Y-85812381D01*
X169933715Y-85812381D01*
X170362286Y-86812381D02*
X170362286Y-85812381D01*
X170933715Y-86812381D01*
X170933715Y-85812381D01*
X171362286Y-86764762D02*
X171505143Y-86812381D01*
X171743239Y-86812381D01*
X171838477Y-86764762D01*
X171886096Y-86717143D01*
X171933715Y-86621905D01*
X171933715Y-86526667D01*
X171886096Y-86431429D01*
X171838477Y-86383810D01*
X171743239Y-86336190D01*
X171552762Y-86288571D01*
X171457524Y-86240952D01*
X171409905Y-86193333D01*
X171362286Y-86098095D01*
X171362286Y-86002857D01*
X171409905Y-85907619D01*
X171457524Y-85860000D01*
X171552762Y-85812381D01*
X171790858Y-85812381D01*
X171933715Y-85860000D01*
X149265143Y-86812381D02*
X148931809Y-86336190D01*
X148693714Y-86812381D02*
X148693714Y-85812381D01*
X149074667Y-85812381D01*
X149169905Y-85860000D01*
X149217524Y-85907619D01*
X149265143Y-86002857D01*
X149265143Y-86145714D01*
X149217524Y-86240952D01*
X149169905Y-86288571D01*
X149074667Y-86336190D01*
X148693714Y-86336190D01*
X149693714Y-86812381D02*
X149693714Y-85812381D01*
X150693714Y-85860000D02*
X150598476Y-85812381D01*
X150455619Y-85812381D01*
X150312761Y-85860000D01*
X150217523Y-85955238D01*
X150169904Y-86050476D01*
X150122285Y-86240952D01*
X150122285Y-86383810D01*
X150169904Y-86574286D01*
X150217523Y-86669524D01*
X150312761Y-86764762D01*
X150455619Y-86812381D01*
X150550857Y-86812381D01*
X150693714Y-86764762D01*
X150741333Y-86717143D01*
X150741333Y-86383810D01*
X150550857Y-86383810D01*
X151169904Y-86812381D02*
X151169904Y-85812381D01*
X151169904Y-86288571D02*
X151741333Y-86288571D01*
X151741333Y-86812381D02*
X151741333Y-85812381D01*
X152074666Y-85812381D02*
X152646095Y-85812381D01*
X152360380Y-86812381D02*
X152360380Y-85812381D01*
X153693714Y-86764762D02*
X153836571Y-86812381D01*
X154074667Y-86812381D01*
X154169905Y-86764762D01*
X154217524Y-86717143D01*
X154265143Y-86621905D01*
X154265143Y-86526667D01*
X154217524Y-86431429D01*
X154169905Y-86383810D01*
X154074667Y-86336190D01*
X153884190Y-86288571D01*
X153788952Y-86240952D01*
X153741333Y-86193333D01*
X153693714Y-86098095D01*
X153693714Y-86002857D01*
X153741333Y-85907619D01*
X153788952Y-85860000D01*
X153884190Y-85812381D01*
X154122286Y-85812381D01*
X154265143Y-85860000D01*
X154693714Y-86288571D02*
X155027048Y-86288571D01*
X155169905Y-86812381D02*
X154693714Y-86812381D01*
X154693714Y-85812381D01*
X155169905Y-85812381D01*
X155598476Y-86812381D02*
X155598476Y-85812381D01*
X156169905Y-86812381D01*
X156169905Y-85812381D01*
X156598476Y-86764762D02*
X156741333Y-86812381D01*
X156979429Y-86812381D01*
X157074667Y-86764762D01*
X157122286Y-86717143D01*
X157169905Y-86621905D01*
X157169905Y-86526667D01*
X157122286Y-86431429D01*
X157074667Y-86383810D01*
X156979429Y-86336190D01*
X156788952Y-86288571D01*
X156693714Y-86240952D01*
X156646095Y-86193333D01*
X156598476Y-86098095D01*
X156598476Y-86002857D01*
X156646095Y-85907619D01*
X156693714Y-85860000D01*
X156788952Y-85812381D01*
X157027048Y-85812381D01*
X157169905Y-85860000D01*
X136723381Y-90574524D02*
X135723381Y-90574524D01*
X136437667Y-90241190D01*
X135723381Y-89907857D01*
X136723381Y-89907857D01*
X136723381Y-89288810D02*
X136675762Y-89384048D01*
X136628143Y-89431667D01*
X136532905Y-89479286D01*
X136247190Y-89479286D01*
X136151952Y-89431667D01*
X136104333Y-89384048D01*
X136056714Y-89288810D01*
X136056714Y-89145952D01*
X136104333Y-89050714D01*
X136151952Y-89003095D01*
X136247190Y-88955476D01*
X136532905Y-88955476D01*
X136628143Y-89003095D01*
X136675762Y-89050714D01*
X136723381Y-89145952D01*
X136723381Y-89288810D01*
X136056714Y-88669762D02*
X136056714Y-88288810D01*
X135723381Y-88526905D02*
X136580524Y-88526905D01*
X136675762Y-88479286D01*
X136723381Y-88384048D01*
X136723381Y-88288810D01*
X136723381Y-87812619D02*
X136675762Y-87907857D01*
X136628143Y-87955476D01*
X136532905Y-88003095D01*
X136247190Y-88003095D01*
X136151952Y-87955476D01*
X136104333Y-87907857D01*
X136056714Y-87812619D01*
X136056714Y-87669761D01*
X136104333Y-87574523D01*
X136151952Y-87526904D01*
X136247190Y-87479285D01*
X136532905Y-87479285D01*
X136628143Y-87526904D01*
X136675762Y-87574523D01*
X136723381Y-87669761D01*
X136723381Y-87812619D01*
X136723381Y-87050714D02*
X136056714Y-87050714D01*
X136247190Y-87050714D02*
X136151952Y-87003095D01*
X136104333Y-86955476D01*
X136056714Y-86860238D01*
X136056714Y-86764999D01*
X136723381Y-85907856D02*
X136723381Y-86479285D01*
X136723381Y-86193571D02*
X135723381Y-86193571D01*
X135866238Y-86288809D01*
X135961476Y-86384047D01*
X136009095Y-86479285D01*
X136723381Y-124610524D02*
X135723381Y-124610524D01*
X136437667Y-124277190D01*
X135723381Y-123943857D01*
X136723381Y-123943857D01*
X136723381Y-123324810D02*
X136675762Y-123420048D01*
X136628143Y-123467667D01*
X136532905Y-123515286D01*
X136247190Y-123515286D01*
X136151952Y-123467667D01*
X136104333Y-123420048D01*
X136056714Y-123324810D01*
X136056714Y-123181952D01*
X136104333Y-123086714D01*
X136151952Y-123039095D01*
X136247190Y-122991476D01*
X136532905Y-122991476D01*
X136628143Y-123039095D01*
X136675762Y-123086714D01*
X136723381Y-123181952D01*
X136723381Y-123324810D01*
X136056714Y-122705762D02*
X136056714Y-122324810D01*
X135723381Y-122562905D02*
X136580524Y-122562905D01*
X136675762Y-122515286D01*
X136723381Y-122420048D01*
X136723381Y-122324810D01*
X136723381Y-121848619D02*
X136675762Y-121943857D01*
X136628143Y-121991476D01*
X136532905Y-122039095D01*
X136247190Y-122039095D01*
X136151952Y-121991476D01*
X136104333Y-121943857D01*
X136056714Y-121848619D01*
X136056714Y-121705761D01*
X136104333Y-121610523D01*
X136151952Y-121562904D01*
X136247190Y-121515285D01*
X136532905Y-121515285D01*
X136628143Y-121562904D01*
X136675762Y-121610523D01*
X136723381Y-121705761D01*
X136723381Y-121848619D01*
X136723381Y-121086714D02*
X136056714Y-121086714D01*
X136247190Y-121086714D02*
X136151952Y-121039095D01*
X136104333Y-120991476D01*
X136056714Y-120896238D01*
X136056714Y-120800999D01*
X135818619Y-120515285D02*
X135771000Y-120467666D01*
X135723381Y-120372428D01*
X135723381Y-120134332D01*
X135771000Y-120039094D01*
X135818619Y-119991475D01*
X135913857Y-119943856D01*
X136009095Y-119943856D01*
X136151952Y-119991475D01*
X136723381Y-120562904D01*
X136723381Y-119943856D01*
M02*
