G04 #@! TF.FileFunction,Copper,L2,Bot,Signal*
%FSLAX46Y46*%
G04 Gerber Fmt 4.6, Leading zero omitted, Abs format (unit mm)*
G04 Created by KiCad (PCBNEW 4.0.2-stable) date Friday, July 22, 2016 'AMt' 10:22:11 AM*
%MOMM*%
G01*
G04 APERTURE LIST*
%ADD10C,0.100000*%
%ADD11C,4.064000*%
%ADD12C,1.524000*%
%ADD13C,1.699260*%
%ADD14R,1.699260X1.699260*%
%ADD15R,1.727200X2.032000*%
%ADD16O,1.727200X2.032000*%
%ADD17C,2.400000*%
%ADD18R,2.400000X2.400000*%
%ADD19C,0.600000*%
%ADD20C,1.000000*%
%ADD21C,0.500000*%
%ADD22C,0.250000*%
G04 APERTURE END LIST*
D10*
D11*
X140000000Y-122000000D03*
X176000000Y-114000000D03*
D12*
X182880000Y-93853000D03*
X180340000Y-93853000D03*
X177800000Y-93853000D03*
X175260000Y-93853000D03*
X172720000Y-93853000D03*
X170180000Y-93853000D03*
X167640000Y-93853000D03*
X165100000Y-93853000D03*
X162560000Y-93853000D03*
X160020000Y-93853000D03*
X157480000Y-93853000D03*
X154940000Y-93853000D03*
X167640000Y-96393000D03*
X165100000Y-96393000D03*
X182880000Y-109093000D03*
X180340000Y-109093000D03*
X177800000Y-109093000D03*
X175260000Y-109093000D03*
X172720000Y-109093000D03*
X170180000Y-109093000D03*
X167640000Y-109093000D03*
X165100000Y-109093000D03*
X162560000Y-109093000D03*
X160020000Y-109093000D03*
X157480000Y-109093000D03*
X154940000Y-109093000D03*
X152400000Y-107823000D03*
X152400000Y-105283000D03*
X152400000Y-102743000D03*
X152400000Y-100203000D03*
X152400000Y-97663000D03*
X152400000Y-95123000D03*
D13*
X140970520Y-95247460D03*
D14*
X130810520Y-95247460D03*
D13*
X130809480Y-97792540D03*
D14*
X140969480Y-97792540D03*
D13*
X140970520Y-102867460D03*
D14*
X130810520Y-102867460D03*
D13*
X130809480Y-100332540D03*
D14*
X140969480Y-100332540D03*
D13*
X140970520Y-106677460D03*
D14*
X130810520Y-106677460D03*
D13*
X130809480Y-109222540D03*
D14*
X140969480Y-109222540D03*
D13*
X140970520Y-114297460D03*
D14*
X130810520Y-114297460D03*
D13*
X130809480Y-111762540D03*
D14*
X140969480Y-111762540D03*
D15*
X184404000Y-88900000D03*
D16*
X181864000Y-88900000D03*
X179324000Y-88900000D03*
D15*
X170688000Y-88900000D03*
D16*
X168148000Y-88900000D03*
X165608000Y-88900000D03*
D15*
X155448000Y-88900000D03*
D16*
X152908000Y-88900000D03*
X150368000Y-88900000D03*
D17*
X182880000Y-113340000D03*
D18*
X182880000Y-116840000D03*
D17*
X182880000Y-120960000D03*
D18*
X182880000Y-124460000D03*
D17*
X132080000Y-89860000D03*
D18*
X132080000Y-86360000D03*
D17*
X132080000Y-124150000D03*
D18*
X132080000Y-120650000D03*
D11*
X140000000Y-88000000D03*
D19*
X168656000Y-115570000D03*
X156972000Y-114300000D03*
X167132000Y-107188000D03*
X146177000Y-121412000D03*
X164973000Y-124460000D03*
X145542000Y-123063000D03*
X162306000Y-125857000D03*
D20*
X156972000Y-114300000D02*
X167386000Y-114300000D01*
X167386000Y-114300000D02*
X168656000Y-115570000D01*
X130810520Y-114297460D02*
X130810520Y-115824520D01*
X154940000Y-114300000D02*
X156972000Y-114300000D01*
X152273000Y-116967000D02*
X154940000Y-114300000D01*
X131953000Y-116967000D02*
X152273000Y-116967000D01*
X130810520Y-115824520D02*
X131953000Y-116967000D01*
D21*
X156972000Y-114300000D02*
X156972000Y-114173000D01*
X156972000Y-114173000D02*
X156972000Y-114300000D01*
X156972000Y-114300000D02*
X156972000Y-114173000D01*
D20*
X180340000Y-109093000D02*
X180340000Y-114300000D01*
X180340000Y-114300000D02*
X182880000Y-116840000D01*
X130809480Y-109222540D02*
X131696460Y-109222540D01*
X131701540Y-100332540D02*
X130809480Y-100332540D01*
X132969000Y-101600000D02*
X131701540Y-100332540D01*
X132969000Y-107950000D02*
X132969000Y-101600000D01*
X131696460Y-109222540D02*
X132969000Y-107950000D01*
X130809480Y-109222540D02*
X130809480Y-111762540D01*
X180340000Y-109093000D02*
X180340000Y-105156000D01*
X181356000Y-90932000D02*
X179324000Y-88900000D01*
X182880000Y-90932000D02*
X181356000Y-90932000D01*
X185039000Y-93091000D02*
X182880000Y-90932000D01*
X185039000Y-100457000D02*
X185039000Y-93091000D01*
X180340000Y-105156000D02*
X185039000Y-100457000D01*
X130809480Y-100332540D02*
X130809480Y-97792540D01*
X130809480Y-97792540D02*
X130812020Y-97790000D01*
X130812020Y-97790000D02*
X131826000Y-97790000D01*
X131826000Y-97790000D02*
X136525000Y-93091000D01*
X136525000Y-93091000D02*
X146177000Y-93091000D01*
X146177000Y-93091000D02*
X150368000Y-88900000D01*
X150368000Y-88900000D02*
X150368000Y-89281000D01*
X150368000Y-89281000D02*
X151892000Y-90805000D01*
X151892000Y-90805000D02*
X163703000Y-90805000D01*
X163703000Y-90805000D02*
X165608000Y-88900000D01*
X165608000Y-88900000D02*
X165608000Y-89027000D01*
X165608000Y-89027000D02*
X167386000Y-90805000D01*
X167386000Y-90805000D02*
X177419000Y-90805000D01*
X177419000Y-90805000D02*
X179324000Y-88900000D01*
D22*
X173228000Y-107188000D02*
X175133000Y-109093000D01*
X167132000Y-107188000D02*
X173228000Y-107188000D01*
X175133000Y-109093000D02*
X175260000Y-109093000D01*
D20*
X146177000Y-121412000D02*
X149225000Y-124460000D01*
X149225000Y-124460000D02*
X164973000Y-124460000D01*
X145542000Y-123063000D02*
X148336000Y-125857000D01*
X162306000Y-125857000D02*
X148336000Y-125857000D01*
M02*
